<svg version="1.0" xmlns="http://www.w3.org/2000/svg" width="752" height="752" viewBox="0 0 564 564"><path d="M261 28c0 .4.7 1.1 1.6 1.4.8.3 1.2.2.9-.4-.3-.6-.1-1 .4-1 .6 0 1.1.5 1.1 1.1 0 .5.5.7 1.2.3.7-.5.8-.3.4.5-.5.7-1.1 1-1.4.7-.3-.4-1.7.1-3.1 1.1-2.5 1.6-2.5 1.6-1.1-.2 1.4-1.7 1.3-1.8-.5-1-1.1.4-3.2.8-4.6.9-1.5 0-2.5.6-2.2 1.2.2.6-.3 1.7-1.1 2.4-.9.7-1.3 1.7-.9 2.3.3.6.1.7-.6.3-.6-.4-2.4 0-3.9 1s-3.3 1.7-3.9 1.6c-.8-.2-1 .4-.6 1.5.6 1.6.5 1.7-1.2.3s-1.8-1.4-.5 1 1.2 2.5-.7.8c-1.8-1.7-1.9-1.7-1.7 1.2.1 1.8-.3 2.8-1 2.7-.6-.1-1 .4-.8 1.1.2 1-.2 1-1.7.3-1.7-.9-1.9-.7-1.7 1.8.2 2.6 0 2.8-1.6 2-1.6-.9-1.7-.7-.7 1.8.8 2.3.8 2.6-.2 1.5-1.9-1.8-2.8-1.5-2.1 1 .4 1.6.2 2-1 1.5-1.2-.4-1.4-.1-1.1 1.4.3 1 1 1.6 1.6 1.2.6-.3.7-.1.3.5-.4.7-1.9 1-3.4.7-2.6-.5-2.6-.5-.4.5 2.4 1 2.1 3.5-.4 2.6-.8-.3-1.1 0-.7.9.3.8.9 1.2 1.4.9.5-.3.9 0 .9.5 0 .6-1.2 1.1-2.7 1.1-2.6 0-2.6.1-.7 1.6 1.4 1.1 1.5 1.4.3 1.1-1.2-.4-1.5.1-1.4 2.1.1 1.6.7 2.6 1.4 2.4.8-.1 1 .2.5 1-.5.7-.9 1.7-1.1 2.3-.1.5-.5 2-.9 3.2-.4 1.5-.2 2.3.5 2.3s.9.5.6 1c-.4.6-1 .8-1.4.6-.4-.3-.8.1-.8.9s.4 1.2.8 1c.4-.3.9.2 1.3 1 .3.8 0 1.7-.6 2.1-.7.5-.8.2-.3-.6s.4-1.1-.3-.6c-1.2.7-.6 3.1 1.2 5.5.8 1.1.8 1.3-.1.7-.7-.4-1.3-.3-1.3.3 0 .5.5 1.1 1.2 1.3 1 .4 1 1.3.1 4.4-1.1 3.6-1.1 3.8.4 1.9l1.6-2-.7 2c-1.3 3.5-1.1 4 1.1 3.9 1.5 0 2 .3 1.4 1-.8 1.1-1.1 5-.3 4.1.5-.4 3.2 2 3.2 2.9 0 .3-.6.4-1.2.2-.7-.1-1-.1-.5.1.4.3.4 1 .1 1.5-.4.6-.2.8.4.4.6-.3 1.7.1 2.5.9.9.8 2 1.5 2.6 1.5 1.5 0 1.4 1.3-.1 2.9-1.1 1.1-.9 1.3 1.2.8 2.4-.6 2.4-.5.6.8-1.9 1.5-1.9 1.5.1 1.5 1.2 0 2.5.5 2.9 1.2.4.7.3.8-.4.4-.8-.5-1-.2-.6.9.5 1.1 1 1.3 1.9.5.9-.7 1.6-.5 2.6.7 1.2 1.4 1.2 1.6 0 .9-.9-.6-1.2-.5-1 .3.3.7.7 1.1.9 1 .3-.2 1.7.9 3.2 2.4 1.5 1.5 3.3 2.5 4 2.2.7-.2 2.2.8 3.2 2.3l1.9 2.7-2.9-2.5-2.9-2.5 2.4 2.7c1.3 1.5 2.8 2.5 3.3 2.2.5-.3 1.9.2 3 1.3 2.1 1.8 2.1 1.8.9-.5-.6-1.2-1.7-2.2-2.3-2.2-.6 0-.8-.3-.5-.6.4-.4 1.3-.2 2 .4.8.7 1.7.8 2.1.4.4-.4.7-.2.6.3-.4 2 0 3.5 1.1 3.5.5 0 .7-.5.4-1-.3-.6-.2-1 .3-1 .6 0 1.3.7 1.6 1.6.3.8.2 1.3-.2 1-.4-.2-1.4 0-2.2.6-1.3.8-1.2.9.1.5.9-.3 2.2 0 2.9.6.9.9 1.1.9.7.1-.4-.7 0-1.5.8-1.8 1-.3 1.5-.1 1.3.7-.3 1.3.3 1.7 2.5 1.7.8 0 .7-.4-.3-1-1.2-.8-1-.9.9-.7 1.3.2 3.1 1.2 3.9 2.3 1.2 1.6 1.4 1.6.9.2-.3-1-.1-2 .5-2.4.7-.4.8-.3.4.4-.4.6.4 1.6 1.6 2.3 2 1.1 2.1 1 1.1-.3-1-1.2-1-1.5.2-1.5.8 0 1.5.4 1.5.9s.4.7.9.3c.6-.3 1.4.3 2 1.2.6 1.1 1.1 1.3 1.1.5 0-.7.5-1 1.2-.6s.8.3.4-.5c-.4-.6-1.2-.8-1.8-.5-.7.5-.8.2-.4-.5.5-.7 1.1-1 1.4-.7.3.3 1.1.1 1.8-.4.8-.8 1.1-.7 1 .4 0 .8.4 1.5.9 1.4.6 0 .9-.3.8-.8-.1-.4.9-.8 2.3-.8 2.1 0 2.3.3 1.2 1.7-1.1 1.4-1.1 1.4.3.4.9-.7 1.8-1 2.1-.7.3.3.9 0 1.4-.7.5-.8.3-1-.6-.4-.8.5-1.1.4-.7-.2.4-.6 1.8-.8 3.2-.5 1.7.3 2.5 0 2.5-.9 0-1.1.2-1.1.9.1.6.8.7 1.8.4 2.4-.3.5-.1.6.5.2.6-.3.9-1.5.7-2.6-.3-1.3.1-1.7 1.1-1.3.8.3 1.4 0 1.4-.6s-.5-1.1-1.2-1.1c-.6 0-.8-.3-.4-.7.4-.5 1.5.1 2.3 1.2 1.5 2 1.5 2 1-.2-.4-1.8-.1-2.1 2-1.7 1.7.3 2.2.1 1.8-.7-.5-.8-.1-.8 1.5.1 1.2.6 2.4.9 2.8.6.3-.3 0-.6-.5-.6-.6 0-1-.8-.8-1.8.1-.9.9-1.6 1.8-1.4 1.2.2 1.5-.2 1.1-1.5-.4-1.4-.3-1.5.4-.4.7 1 1.4 1 2.9.2 1.1-.5 2.4-.7 2.8-.3.5.4.5.1.1-.6s-1.2-.9-1.8-.6c-.7.4-.8.2-.4-.5.4-.6 1.2-.9 1.7-.6.5.4.9-.2.9-1.2 0-1.5.2-1.6 1-.3s1 1.2 1-.3c0-1 .4-1.6.9-1.2.5.3 1.2.1 1.6-.5.4-.6 1.1-.7 1.7-.4.7.4.8.2.4-.4-.4-.7-.2-1.2.5-1.2.8 0 .7-.5-.4-1.3-1.5-1.1-1.4-1.4.3-3.5 1.1-1.3 2.4-2.1 3-1.7.5.3 1 .1 1-.5s.5-.8 1-.5c.6.4.7 1.1.4 1.7-.4.7-.2.8.5.4.9-.6.9-1.1 0-2.2s-.9-1.4.1-1.4c.8 0 1.1-.3.8-.6-.4-.3-1.7-.1-3 .6l-2.3 1.1 2.4-2c1.2-1.2 2.8-1.8 3.5-1.4.6.3.2-.4-.9-1.7-1.1-1.3-1.4-2-.7-1.6.6.4 1.2.3 1.2-.2 0-.4.9-1.8 2.1-3.1 1.8-1.9 1.9-2.4.7-3.8-1-1.3-1-1.5 0-.9.9.6 1.1.1.8-1.8-.3-1.4-.1-2.5.4-2.3.4.1.8-.3.8-.8 0-.6-.5-.9-1.1-.7-.6.2-.5-.4.3-1.2 1.5-1.9 2.4-2.1 1.4-.4-.4.7-.3 1 .1.5 1.3-1.2 1.3-4.6 0-4.1-.6.3-1.2-.2-1.2-1s.7-1.2 1.6-.9c1.3.4 1.3.2-.1-1-2-1.6-1.4-2.8 1-2 1 .4.6-.3-.8-1.5-2.1-1.9-2.2-2.1-.5-1.6 1.6.6 1.8.5.8-.7-1.5-1.6-1.7-3.3-.3-2.4.6.3.7-.1.4-.9-.3-.9-1.1-1.3-1.8-.9-.6.3-.3-.3.7-1.4.9-1.1 1.7-2.4 1.7-2.9s-.5-.2-1.1.6c-.9 1.2-1 1.1-.6-.8.3-1.2 0-2.2-.5-2.2-.6 0-.4-.7.3-1.6 1.2-1.5 1.1-1.6-1-.9-2.1.6-2.2.5-1-.8.8-.8 1.7-1.3 2.2-1 .4.2.7-.1.7-.6 0-1.5-1.3-1.4-2.9.1-1.1 1.1-1.1.9-.2-1 .9-1.7.9-2.2-.1-2.2-.9 0-.9-.3.2-1 .8-.5 1-1 .4-1-.5 0-1.6.6-2.3 1.2-1.1 1.1-1.2.9-.6-1.1.4-1.4.3-2.1-.2-1.8-.5.4-1 0-1-.8s.4-1.2.9-.9c.4.3.5-.2.2-1-.3-.9-1-1.4-1.4-1.1-.4.3-1.1-.2-1.4-1.1-.3-.8-.2-1.2.4-.9.6.3.7-.1.4-1-.4-.9-1.3-1.4-2-1.1-.7.3-1.6 0-2-.6-.4-.6-.3-.8.3-.5.7.4 1-.3.9-1.7 0-1.4-.6-2.2-1.3-1.9-.7.3-1 .9-.7 1.4.3.5 0 .9-.6.9-.7 0-1-.6-.7-1.3.6-1.6-2.8-5.9-3.9-4.9-.5.4-.2-.1.5-1.1.8-.9 1.1-2 .7-2.4-.3-.3-.6-.1-.6.5s-1.9-.8-4.3-3.1-4.2-4.5-4-4.8c.1-.3-.4-.6-1.2-.6-2.2 0-1.8 1.5.5 2.2 2.1.7 4.6 4.3 3.6 5.3-.3.3-.6 0-.6-.6 0-1.8-3.2-4.4-4.7-3.8-.8.3-1.1.1-.8-.4.3-.6.1-1-.5-1s-.8-1.1-.6-2.6c.5-2.5.4-2.6-1.4-.9-1.7 1.6-1.9 1.5-4-1.3s-5.8-3.5-4.3-.8c.3.6 0 .5-.8-.2-1.2-1.1-1.1-1.5.5-2.8 1.1-.8 1.5-1.4 1-1.4-.6 0-1.5.5-2.2 1.2-.9.9-1.2.9-1.2 0 0-.7-.9-1.2-2.1-1.2-1.3 0-1.8.4-1.3 1.2.6 1 .4 1-.8 0-1.2-1-5.9-1.3-18.7-1.1-9.4.1-17.1.5-17.1.9zm39.8 3.5c-.3.3-.9-.2-1.2-1.2-.6-1.4-.5-1.5.5-.6.7.7 1 1.5.7 1.8zm6.2 2c0 .5-.5.3-1-.5s-1-2-1-2.5c0-.6.5-.3 1 .5s1 1.9 1 2.5zm-29.7 12.9c-.3.6 0 .5.8-.2.7-.6 1.7-1.2 2.2-1.2.4 0 .5.6.1 1.2-.6 1-.4 1 .7 0 1.5-1.4 3.3-1.7 2.5-.4-.3.5.5.7 1.7.6 1.2-.1 2.2-.3 2.2-.4 0-.1.8-.3 1.8-.5 1.4-.3 1.6 0 .7 1-.8 1-.8 1.5.1 2.1.8.5.9.3.4-.6-.6-1-.4-1.2.8-.7.9.3 1.9.1 2.3-.5.5-.7.2-.8-.6-.3-.9.5-1.1.4-.6-.4.5-.8 1.5-.6 3.6.9s3 1.7 3.3.8c.3-.7.4.3.1 2.2-.4 3.1-.3 3.2.6 1.1.8-1.8 1.3-2.1 2.4-1.2.7.6 1.7.7 2.1.3.5-.4.5-.1.1.6s-1.1 1-1.6.7c-.5-.3-1.1-.1-1.4.4-.3.4.2.8 1.2.8 4.1 0 4.5.2 3.3 1.7-1 1.2-.8 1.3.8.9 1.4-.3 2.1-.1 2.1.8 0 1.1.2 1.1 1-.1.5-.8 1-1 1-.4 0 .5-.6 1.6-1.2 2.3-1.1 1.1-.9 1.2.9.7 2.3-.7 4 .8 2.2 2-.8.5-.9.3-.4-.6.5-.9.4-1.1-.4-.6-1.8 1.1-.3 2.5 2.2 1.9 1.8-.4 1.9-.3.7.6-1.3.9-1.1 1.1.7 1.1 1.2 0 2.5.5 2.9 1.2.5.8.2.9-.9.5-.9-.3-1.9-.2-2.2.4-.4.5-.1.8.7.7.8-.2 1.2.4 1 1.4-.3 2 1.4 2.4 2.2.5.3-.6.3.1-.1 1.8-.5 2.9-.5 2.9 1.1 1 1.3-1.6 1.5-1.7 1-.2-.3.9 0 2.4.7 3.3 1 1.3 1 1.7-.2 2.5-1.1.7-.8.9 1.1 1 1.7 0 2 .3 1 .7-1.6.8-2.3 5.2-.7 4.9.5-.1 1.1.6 1.2 1.6.3 1.5.1 1.6-1.2.5-1.4-1.1-1.5-1.1-.6.7.6 1.1.8 2.6.5 3.4-.3 1 0 1.1.9.5 1.1-.6 1.1-.4-.1 1-1.6 2-2.3 4.9-1 4.1 1.1-.7.6 4.2-.5 5.3-.4.4-.5.2-.1-.5.3-.6.1-1.5-.6-1.9-.7-.4-1-.4-.6.1.4.4.3 1.4-.3 2.1-.7.8-.6 1.4.2 2 .8.4.9.3.5-.4-1.1-1.8 0-1.4 1.5.5.8.9 1 1.4.4 1.1-.5-.3-2.3 0-4 .8-2.5 1.1-2.6 1.3-.5.8 2.5-.6 2.5-.5-.5 2.1-1.6 1.5-2.5 2.4-1.8 2.1.7-.4 1.1.1 1 1.3-.1 1.1-.3 1.8-.5 1.6-.7-.6-3.6 2.5-5 5.4-.7 1.4-1 1.8-.8.9.4-1.2.1-1.5-1-1.1-.8.3-1.3 1.2-1 1.9.3.7.1 1.6-.4 1.9-.4.3-1.1-.1-1.3-.7-.4-.8-.6-.7-.7.4-.4 3.4-.5 3.6-1.2 4.4-.4.3-.5-.4-.3-1.7.4-2.2.3-2.2-.9-.7-1.5 2-3.1 2.5-2 .6.4-.7.3-.8-.4-.4s-1.2 1.3-1.2 2c0 .8-1 2-2.3 2.9-2 1.3-2.5 1.3-4.5-.1-2-1.3-2.2-1.3-1.6.2.4 1.1.1 1.6-1.2 1.6-1.1.1-5.2.2-9.2.3-5.4.1-7.2-.1-7.2-1.1 0-.7-.5-1-1-.7-.6.4-.7 1.2-.3 1.8.4.6-.5.2-1.9-.9-1.6-1.2-3.8-1.9-5.8-1.8-1.7.1-2.8-.1-2.5-.4.4-.4 1.1-.7 1.6-.7 1.2 0 .7-1.9-.6-2.1-.5 0-1.3-.2-1.7-.4-.5-.1-1.3-.3-1.8-.4-.6 0-1.5-.8-2.1-1.6-.8-1.2-.9-.9-.5 1 .3 1.4.3 1.9 0 1.2-.3-.6-1-1-1.5-.6-1.9 1.1-2.1-2.7-.3-4.2 1.1-.9 1.3-1.3.7-.9-1.8.9-5.7 1.5-5 .8.4-.3-.3-1.4-1.5-2.5-1.2-1-1.9-2.1-1.6-2.4.3-.3 1.3.2 2.2 1.1.9.9 1.6 1.2 1.6.7s-1.1-1.7-2.5-2.6c-1.4-.9-2.3-2.2-1.9-2.8.4-.7.3-.8-.5-.4-.9.6-.9 1.1 0 2.2.8 1 .8 1.4 0 1.4-.6 0-1.1-.5-1.1-1 0-1.8-.2-2.5-1.2-4.3-.6-1.3-.5-2.3.3-3.5 1.1-1.4 1.1-1.5-.1-.5-2 1.8-3.5 1.6-2-.2 1-1.2.8-1.6-1.5-2.5-1.4-.5-2.3-1.4-2-2 .3-.5.7-2.7.9-4.9.3-3.2 0-3.8-1.3-3.3-1.4.5-1.4.4-.2-1.2 1.3-1.5 1.3-1.9 0-2.7-1.2-.7-.7-1.3 1.2-1.1 1.2.1.2-6-1.2-7-1.1-.8-1.1-.9.4-.4 1.8.6 2.4-.9.7-1.9-.7-.4-.6-1.4.2-2.8.7-1.2 1.1-2.5 1-2.9-.1-.3.9-.5 2.2-.4 1.7.2 2.3-.1 1.9-1-.3-.8-1-1.1-1.7-.8-.6.3-.3-.1.6-.9 1-.8 1.5-1.7 1.1-2-.3-.4.1-.7.9-.7 2.3 0 3-2.8 1-3.9-2.3-1.4-.6-1.4 1.9 0 1.8.9 1.9.9 1-.9-1-1.8-.8-2 1.4-1.7 1.4.1 2.5-.2 2.5-.6 0-.5-.4-.9-1-.9-.5 0-1-.4-1-1 0-.5.7-.6 1.7-.3 1 .4 1.4.2 1-.4-.4-.6.2-1.8 1.3-2.8 1.1-1 2-1.5 2-1 0 .4-.8 1.4-1.7 2.1-1.7 1.2-1.6 1.3.4 1.1 1.2 0 2.1-.4 2.1-.7-.2-2.5.3-3.2 1.6-2.1 1.1.9 1.6.9 2.2 0 .4-.8.3-.9-.4-.5s-1.2.5-1.2.2.9-1 2.1-1.6c1.5-.9 2.4-.8 3.7.1.9.8 1.4 1 1 .5-.9-1.1 1-4.8 2.2-4.1.5.3 1.1.2 1.4-.3.7-1.2 5.6-1 4.9.2zM268 48c0 .5-.2 1-.4 1-.3 0-.8-.5-1.1-1-.3-.6-.1-1 .4-1 .6 0 1.1.4 1.1 1zm-43 25.6c0 .8-1.9 1.3-2.4.6-.3-.5.1-.9.9-.9s1.5.2 1.5.3zm18.7 29c-.3.3-1.2.4-1.9.1-.8-.3-.5-.6.6-.6 1.1-.1 1.7.2 1.3.5zM226 107c-.8.5-1.9 1-2.5 1-.5 0-.3-.5.5-1s2-1 2.5-1c.6 0 .3.5-.5 1zm95 .6c0 .8-1.9 1.3-2.4.6-.3-.5.1-.9.9-.9s1.5.2 1.5.3zm19-.3c0 .2-1 1.2-2.1 2.3-2.2 1.9-2.2 1.9-.8-.4 1.2-1.9 2.9-3 2.9-1.9zM262.5 124c.3.5.1 1-.4 1-.6 0-1.1-.5-1.1-1 0-.6.2-1 .4-1 .3 0 .8.4 1.1 1zm8 4.8c-.3.3-1.1 0-1.8-.7-.9-1-.8-1.1.6-.5 1 .3 1.5.9 1.2 1.2zm58.5-1.4c0 .2-.7.9-1.5 1.6-1.3 1.1-1.4 1-.9-.4.5-1.4 2.4-2.3 2.4-1.2z"/><path d="M294 47.2c0 .2.9 1.1 2 2.1 1.1.9 2 1.3 2 .7 0-.5-.9-1.4-2-2-1.1-.6-2-.9-2-.8zm-1 2.8c0 .5.5 1 1.1 1 .5 0 .7-.5.4-1-.3-.6-.8-1-1.1-1-.2 0-.4.4-.4 1zm-49.7 22.2c-2.1 2.8-2.4 3.8-.9 3.2.9-.3 1.4-1.1 1.3-1.7-.1-.7.4-1.1 1.1-.9.8.1 1.1-.2.7-.8-.8-1.3-1-1.3-2.2.2zm55.8 52.4c0 1.1.3 1.4.6.6.3-.7.2-1.6-.1-1.9-.3-.4-.6.2-.5 1.3zm-3.1 2.5c0 .5.5.7 1 .4.6-.3 1-.8 1-1.1 0-.2-.4-.4-1-.4-.5 0-1 .5-1 1.1zm13.5-95.2c-.3.5-.2 1.2.3 1.5.5.3.9-.1.9-.9 0-1.7-.3-1.9-1.2-.6zm-59.2 1.8c.1 1.7.4 1.9 1.4 1.1 1.5-1.2 1.8-2.2.4-1.4-.5.4-1.1 0-1.4-.6-.3-.7-.4-.3-.4.9zm-6 5c0 .9.4 1 1.4.2.7-.6 1.3-1.2 1.3-1.4 0-.1-.6-.2-1.3-.2-.8 0-1.4.6-1.4 1.4zm-7.9 6.1c.3.5 0 1.2-.6 1.5-.7.2-1 .7-.7 1.1.3.4 1.2 0 1.8-.8.9-1.1.9-1.6 0-2.2-.7-.4-.9-.3-.5.4zm92.2 1.9c-.6 1.4-.5 1.5.5.6.7-.7 1-1.5.7-1.8-.3-.3-.9.2-1.2 1.2zm1.9 1.4c-.4.6-.5 1.2-.2 1.5.2.3.7-.2 1-1.1.7-1.7.1-2-.8-.4zm180.8 22.6c0 1.2.5 1.9.9 1.7.4-.3.8-.1.8.5 0 1.3-1.5 2.2-2.4 1.4-1.2-1.2-5.4-.9-4.9.4.3.6 1.2.9 2.1.7.9-.3.1.4-1.8 1.4-1.9 1.1-3.9 1.8-4.4 1.5-.5-.4-.6-.1-.2.5.3.6-.2 1.6-1.3 2.1-2.4 1.4-3.4 4-2 5.7.6.7.8 1.8.4 2.4-.3.5-.2 1 .4 1 1.6 0 2.4-2.1 1.2-3.3-.6-.6-1.1-1.6-1.1-2.2 0-.5.5-.2 1 .7.9 1.4 1.5 1.5 4.1.6l3.2-1.1-2.4-1.4-2.4-1.4 2.7.6c2.2.4 2.6.2 2.2-1-.3-.8-1-1.2-1.5-.9-.5.3-.9 0-.9-.5 0-1.4 1.1-1.3 3.2.3 1 .7 1.4 1.7 1 2.1-.4.5-.1.5.6.1s1-1.1.7-1.6c-.3-.5.2-1.6 1.1-2.4.8-.9 1.2-1.6.7-1.6s-1.4.5-2.1 1.2c-.7.7-1.2.8-1.2.2 0-1.2 2-4.2 2-3 0 .5.6.3 1.3-.3.8-.6 1.7-.7 2.2-.3.8.7-.6-2.1-2.4-4.8-.8-1.2-1-1.1-.8.7zm-8.9 10.8c-2.8 2.2-4 1.8-1.3-.4 1.3-1.1 2.6-1.7 2.8-1.5.3.2-.4 1.1-1.5 1.9zm11-11.7c.4.3 1.4.7 2.2.8.9.1 1.3 0 1-.4-.4-.3-1.4-.7-2.2-.8-.9-.1-1.3 0-1 .4zM50.3 72.4c0 1.4.6 2.7 1.4 3.1 1.3.4 1.3.8.2 2.2-.8 1-.9 1.4-.2 1 .6-.4 1.4-.3 1.8.3.4.6 1 .8 1.4.5.5-.2.7.6.6 1.9-.2 1.4.2 2.3 1.1 2.3 1 0 1.1-.4.3-1.3-.7-.9-.4-1.6 1.1-2.7 1.4-1 1.8-1.7 1-2.2-.6-.4-.9-1.4-.6-2.2.5-1.1.2-1.3-1-.9-.8.3-1.8.6-2 .6-.2 0-.4.7-.4 1.5s-.5 1.5-1.1 1.5c-.7 0-.6-.9.4-2.3 1.2-1.9 1.3-2.4.2-2.4-.8 0-1.1.5-.8 1 .3.5 0 .8-.7.5-.7-.2-1.4-1.2-1.6-2.2-.4-2.8-1.1-2.9-1.1-.2z"/><path d="M503.4 74.8c.3.5 0 1.3-.6 1.5-.8.3-.6.6.5.6 1.9.1 2.3-1.4.5-2.5-.6-.4-.8-.3-.4.4zM61.5 76c-.4.6-1.1.7-1.7.4-.7-.4-.8-.2-.4.4.7 1.2 3.6.5 3.6-.9 0-1.2-.7-1.1-1.5.1zm159.4 1.2c-.5 1.8-.6 3.8-.1 3.4.7-.8 1.2-3.6.6-3.6-.2 0-.4.1-.5.2zM58.4 80.5c-1.6 1.1-1.6 1.2.1 1.9 1.7.6 1.7.8-.1 2.9-1 1.2-1.5 1.9-1 1.5.5-.4 1.5-.3 2.3.3.7.6 1.3.8 1.3.3 0-.4 1.1.3 2.5 1.6 1.3 1.2 2.2 2.7 1.9 3.1-.3.5.2.9 1.1.9.9 0 1.3-.5.9-1.1-.3-.6.5-.4 1.8.5 2.3 1.5 3.8 1.3 3.8-.5 0-.5-.8-.6-1.7-.3-1.5.5-1.6.4-.3-.5 1.1-.8 1.8-.6 2.8.7 1.6 2.1 5.3 2.5 4.5.5-.5-1.2-.7-1.2-1.4-.1-.7 1.1-1.1 1-1.8-.2-.5-.8-.7-1.8-.5-2.2.3-.5 0-.7-.8-.6-.7.2-1.2-.5-1.2-1.4.1-1-.3-1.5-.8-1.2-.5.3-.7 1.3-.4 2.3.5 1.2.2 1.1-.9-.3-1.2-1.6-1.2-2.2-.2-2.8.6-.4.8-.8.2-.8-1.3 0-3.7 1.6-3.6 2.4.3 1.8 0 2.6-.9 2.6-.5 0-.9-.5-.7-1.2.1-.7-.3-1.2-1-1.3-.6 0-1.5-.4-2-.9-.4-.5-.3-.6.4-.2 1.5.8 2.6-1 2.7-4.3.1-2.2-.4-2.7-2.6-2.8-1.5 0-3.5.5-4.4 1.2zm3 1.7c-.1 1.3-.3 2.9-.3 3.6-.1.7-.6 1-1.1.7-.8-.5-.8-1.1 0-2 .8-1 .8-1.5-.1-2-.8-.6-.7-1 .2-1.6.8-.5 1.4-.9 1.5-.9 0 0 0 1-.2 2.2z"/><path d="M67 82c-1.2.8-1.2 1-.1 1 1.1 0 1 .4-.3 1.9-1.4 1.5-1.5 2.1-.4 2.7.7.4 1 .4.6-.1-.4-.4-.2-1.5.4-2.3 1-1.1 2.1-4.2 1.5-4.2-.1 0-.9.5-1.7 1zm427.8 4c0 .8-.1 2.2-.2 3-.1.8-1 1.6-2.1 1.7-2 .3-2 .3 0-.6 1.1-.5 1.8-1 1.5-1.1-2.7-.8-3.8-.6-3.6.7.3 1.7 2.6 3.4 3.8 2.7.4-.3.5.1.2.9s.1 1.4 1 1.4c1 0 1.4-.8 1.2-2.1-.2-1.2.1-2.7.7-3.4.7-.9.6-1.8-.6-3-1.4-1.4-1.7-1.4-1.9-.2z"/><path d="M497.6 91.3c.3 1 .9 1.5 1.2 1.2.3-.3 0-1.1-.7-1.8-1-.9-1.1-.8-.5.6zm-11.4 1.2c-.7.9-.8 1.5-.2 1.5.5 0 1 .4 1 1 0 .5-.5.9-1.1.7-1.5-.3-2 3.1-.7 4 .6.3.8.1.5-.4-.4-.6 0-1.3.8-1.6.8-.4 1.2-.1.9.7-.6 1.7 3.2 5.1 4.1 3.6.3-.6.1-.9-.6-.8-.7.2-1.5-.5-1.7-1.5-.2-.9.2-1.7.8-1.7.6 0 .8.4.5 1-.3.6.1.7 1 .4 1.4-.6 1.4-.8-.2-2-1.7-1.2-1.7-1.3.3-.9 1.7.3 2.1-.1 1.7-1.5-.3-1-1.2-2.1-2.1-2.4-1-.3-2.1-.8-2.7-1.1-.5-.2-1.6.2-2.3 1zm2.8 1.1c0 .8-.5 1.2-1 .9-.6-.4-.8-1.1-.5-1.6.9-1.4 1.5-1.1 1.5.7zm-416.5.3c-.3.6-1 .9-1.5.6-.5-.3-1.1-.1-1.4.4-.4.5.5.8 1.9.7 1.3-.2 2.2.1 1.9.5-.3.5-1.2.9-2 .9s-1.4.4-1.4 1 .9.6 2.4 0c1.8-.6 2.6-.5 3 .5.3 1 0 1.2-1.2.9-1.5-.5-1.5-.4.1.6.9.6 1.4 1.6 1.1 2.2-.5.7-.2.8.6.3 1-.6 1.2-.4.6 1-.5 1.5-.4 1.6.9.5.8-.7 2.2-.9 3.1-.6 2.3.9 3.7-.3 2.3-2-1-1.2-1-1.5.2-1.2.8.2 1.8.7 2.2 1.3.5.6.7.4.5-.4-.2-.8-1.1-1.5-1.9-1.7-.7-.1-2.3-.6-3.3-1-1.3-.5-1.7-.4-1.3.3.4.6 0 1.6-.7 2.2-.9.8-1.6.8-2 .2-.4-.5-.1-1.3.5-1.7.8-.4.7-.9-.2-1.6-1.1-.8-1-.9.4-.4 1.1.3 1.7 0 1.7-.9 0-.8-.8-1.5-1.8-1.5s-2.3-.5-2.9-1.1c-.8-.8-1.3-.8-1.8 0z"/><path d="M481.1 100.1c.9 1.9.9 1.9-.9 1-1.7-.9-2-.8-1.7.7.1.9 1 1.6 1.9 1.6.8-.1 1.3.2 1 .7-.3.5 0 .9.6.9s.8.5.4 1.1c-.4.8-.9.7-1.5-.2-.4-.7-1.1-1-1.5-.6-.4.4-.2 1.3.4 1.9.9.9 1.6.8 2.9-.4 1-.8 2.5-1.3 3.3-1.1 1.3.4 1.3.3 0-.6-.8-.5-1.8-.7-2.4-.4-.5.4-.6.1-.2-.6.5-.7 1.4-1 2.2-.7.9.4 1.4-.2 1.4-1.6 0-1.2-.3-1.8-.7-1.5-.3.4-1.1.3-1.7-.2-.6-.4-1.9-1.1-2.9-1.4-1.5-.6-1.6-.4-.6 1.4zm-260.6-.1c-.3.5-.1 1 .4 1 .6 0 1.1-.5 1.1-1 0-.6-.2-1-.4-1-.3 0-.8.4-1.1 1zm-137.1 4.1c-.3.5-1.4.7-2.4.4-2.8-.9-3.2 1-.8 3.1 1.2 1.1 1.8 1.4 1.5.7-.4-.6-.3-1.4.3-1.8.5-.3 1 .1 1 .9 0 .9.5 1.6 1 1.6.6 0 1 .5 1 1.1 0 .5-.4.8-.8.5-.5-.3-.9.1-.9.9 0 1.2.3 1.2 1.6.2.9-.6 1.9-1.6 2.3-2.2.7-1 3.7 2.1 3.8 3.9 0 .6-.6.1-1.4-1-1.5-1.9-1.5-1.9-3.3 0-1.4 1.6-1.4 1.7-.1.7 1.4-1 1.8-.9 2.7.7.6 1.1.7 2.2.4 2.6-.3.3-.1.6.6.6s.9.4.6 1c-.3.5 0 .7.9.4 1.4-.5 4.3 3.1 3.8 4.8-.3 1.2 3.2-.4 5.6-2.5 2.4-2.2 3.1-4.7.8-2.8-1.2 1-1.4.7-1.2-1.8.1-1.6-.2-2.8-.6-2.5-.4.3-.8 1.4-.8 2.5 0 1-.4 1.9-1 1.9-.5 0-.7.6-.4 1.4.3.8.1 1.7-.5 2.1-.7.4-.9-.1-.5-1.2.5-1.5.4-1.6-.5-.3-.6.8-1.1 1-1.1.4 0-.5.5-1.5 1.2-2.2.8-.8.9-1.2.1-1.2-.6 0-1.3.5-1.5 1.2-.3.9-.6.9-1.2 0-.4-.7-.2-1.2.4-1.2.6 0 .8-.5.4-1.1-.4-.8-.1-.8 1.3-.1 1.5.9 1.9.7 2-.9.1-1-.3-1.9-.8-1.9-.6 0-.7.6-.3 1.2.6 1 .5 1-.8.1-.8-.7-1.9-.9-2.3-.5-.5.4-.5.1-.1-.6s1.1-1 1.6-.7c.5.3 1.2 0 1.6-.7.4-.7.4-1-.1-.6-.4.4-1.7.3-2.8-.3-1.4-.8-1.8-.8-1.3 0 .4.6.5 1.1.2 1.1s-1-1-1.7-2.2c-1-1.8-.9-2 .5-1.5 1.1.4 1.5.3 1.1-.4-.4-.6-1.4-.8-2.2-.5-1.2.5-1.4.1-.9-2.1.4-1.7.3-2.3-.2-1.5-.5.7-2.2 1.5-3.8 1.8-2.1.3-2.5.2-1.4-.5.8-.5 1.7-.8 2.1-.5.4.2 1 .1 1.3-.4.2-.4-.4-.8-1.4-.9-1.1-.1-2.2.3-2.6.8zM81 106c0 .5-.2 1-.4 1-.3 0-.8-.5-1.1-1-.3-.6-.1-1 .4-1 .6 0 1.1.4 1.1 1zm260.5-2c.3.5.8 1 1.1 1 .2 0 .4-.5.4-1 0-.6-.5-1-1.1-1-.5 0-.7.4-.4 1zm132 .7c.4 2.6-1.6 4.8-2.7 3.1-.5-.8-.6-.1-.2 1.7.7 3.5-1.9 6.6-5.1 6.1-1.1-.2-2.5.3-3.2 1-1.8 1.7-1.6 2.9.2 1.4.8-.6 2-.8 2.6-.4.8.5.9.3.4-.6-.5-.9-.4-1.1.3-.6 1.8 1.1 1.4 2.9-.4 2.2-1.6-.6-6.2 2.9-5.1 4.1.4.3.7.2.7-.3s1-1 2.3-1.1c2.1-.2 2.1-.1-.3 1.2-1.6.9-3 1-4.2.4-1.9-1-3.5.5-1.8 1.6.8.5.6 1.5-.5 3.1-1.8 2.8-.9 3.1 2.4.7 1.4-.9 2.1-1.1 1.7-.5-.4.7-.2 1.2.4 1.2.6 0 1-.8.8-1.8-.3-2 .9-4.2 2.3-4.2.5 0 .9.5.9 1.1 0 .5-.5.7-1.2.3-.7-.5-.8-.3-.3.6.5.9.4 1.1-.3.6-1.7-1-1.5-.1.4 1.4.8.8 1.4.9 1.2.4-.1-.5.3-1.9 1-3.2.7-1.2 1-2.2.6-2.2s0-.8.9-1.8c1-1 1.5-2.1 1.2-2.4-.3-.3.1-1.1 1-1.8s1.5-.8 1.5-.2c0 .6-.6 1.3-1.2 1.5-.8.3-.6.6.5.6.9.1 1.7-.4 1.7-.9 0-.6.7-1 1.5-1s1.5.5 1.5 1.2c0 .6.3.8.7.4.4-.4-.3-1.5-1.5-2.5l-2.4-1.7 3.1.2c2.2.1 2.8-.2 2.4-1.3-.5-1.2-.7-1.2-1.5-.1-.8 1-1.1 1-1.5 0-.2-.6-.8-1-1.2-.8-.4.3-.8-.1-.8-.9s.5-1.1 1-.8c.6.3.7.1.3-.5-.3-.6-.2-1.3.4-1.7.6-.4.7-1.1.4-1.7-.5-.7-.2-.8.7-.3 1.2.8 1.2.6 0-.8-1.7-2.1-2-2.1-1.6 0z"/><path d="M476.5 104.1c.4.5.1 1.7-.6 2.5-1.8 2.2-2.1 4.7-.4 4 .7-.2 1.9.2 2.5.9 1.3 1.6 3.4 1 2.4-.6-.3-.5-1-.7-1.5-.4-.5.4-.9.1-.9-.4 0-.6.5-1.1 1.1-1.1.8 0 .8-.4-.1-1.5-.6-.8-.9-1.8-.6-2.4.3-.5-.1-1.2-1-1.5-.9-.3-1.2-.2-.9.5zm-8.9 8.5c-.9 2.4-.7 2.8.9 1.4 1.7-1.4 2-3 .6-3-.5 0-1.2.7-1.5 1.6zm.5 7.8c-.9 1-.8 1.5.3 1.9 1.1.4 1.3.1.9-1s-.2-1.4.5-.9c.7.4 1.2.2 1.2-.3 0-1.5-1.5-1.4-2.9.3zm-367.5 1.8c-1.6 1.8-1.6 2.1-.1 3.8.9.9 1.5 2.3 1.3 3.1-.2.7.4 1.4 1.2 1.5.8 0 1.8.2 2.3.4.4.1 1 .3 1.5.5 2.9.8 3.9 1.8 3.5 3.6-.3 1.1.1 2.1 1.1 2.5.9.3 1.4.9 1.2 1.3-.3.4 0 1.3.6 2.1.8 1.2.9 1.2.4-.3-.4-1.3 0-1.7 1.7-1.6 1.2 0 1.6.3 1 .6-.7.2-1.3 1.1-1.3 2 0 1.6.3 1.3 4.3-3.3 1.7-2 1.6-2.1-.7-3.2-2.2-1-2.4-.9-1.9.6.3.9-.5.2-1.6-1.6-1.3-2-2-4.3-1.6-5.5.2-1.2.2-1.6-.1-1-.3.7-1.2 1.3-1.9 1.3s-1.6.6-1.9 1.2c-.2.7-.4.2-.3-1.2.2-2.1-.2-2.5-2.3-2.3l-2.5.3 2.5-1.6c2.4-1.5 2.4-1.5.2-1-1.9.4-2.1.2-1.1-1 .6-.8.9-1.7.5-2.1-.3-.3-.6-.1-.6.5 0 .7-.7 1.2-1.5 1.2s-1.5.7-1.5 1.5-.5 1.5-1 1.5c-.7 0-.7-.6-.1-1.9.6-1 .7-2.1.3-2.5-.3-.4.1-.4 1.1 0 .9.3 1.7.4 1.7.1 0-1.5-3-1.2-4.4.5zm2.5 7.1c-1 .9-1.1.8-.5-.6.3-1 .9-1.5 1.2-1.2.3.3 0 1.1-.7 1.8zm4.7-.4c-.7 1.1-1.6 1.7-2.1 1.4-.4-.3 0-1.1 1-1.9 2.4-1.8 2.5-1.7 1.1.5zm6.6 8.3c-.3.4-1.1.5-1.9.1-1.7-.6-1.7-.6-.9-2.7.6-1.5.8-1.5 1.9.1.7 1 1.1 2.1.9 2.5zm114.8-15.7c.9 1 2.1 1.6 2.8 1.3.7-.2-.1-1-1.6-1.7-2.7-1.2-2.8-1.1-1.2.4zm101 3c-.7.8-.9 1.5-.4 1.5s1.5-.7 2.2-1.5c1.6-1.9-.1-1.9-1.8 0zm124.1 1.7c-1.4 1.7-2.5 6.7-1.8 7.8.8 1.3 3.6 0 2.9-1.4-.3-.6.1-.3.9.7 1.4 1.7 1.5 1.7 1.3-.7 0-1.3-.4-2.2-.8-1.9-1.6.9-2.9-.8-1.7-2.3.6-.8.8-1.4.3-1.4s-.2-.5.6-1 1-1 .4-1-1.6.6-2.1 1.2z"/><path d="M449.5 132c-.9 1.7-2 2.8-2.5 2.5-1.6-1-2.2 1.5-.8 3.3 1.1 1.5 1.1 1.5-.2.6-1.7-1.3-5-1.5-5-.2 0 .4.5.8 1 .8.6 0 1 .5 1 1.1 0 .6-.7.8-1.6.5-.8-.3-1.2-.2-.9.4.3.6 0 1-.8 1-2 0-5.1 3.6-3.8 4.5 1.1.6 1.5-.1 1.2-1.8-.1-.4.8-.3 1.9.3 2.3 1.2 2.7 2.2.5 1.4-1-.4-1.3 0-1 1.5.5 2.7-.1 2.6-2.9-.4-2-2.1-2.5-2.3-3-1-.3 1-1.1 1.3-1.8.9-1-.6-1-.4 0 .8 1.3 1.7.1 3.5-1.7 2.4-.5-.3-1.4.1-2.1.9-1 1.2-.8 1.4.7 1 1-.2 3-.8 4.5-1.4 2.2-.8 2.6-.7 2.2.4-.3.8-1.3 1.1-2.2.7-1.4-.5-1.5-.3-.5.9 1 1.3 1 1.6-.2 1.6-.8 0-1.1-.5-.8-1 .4-.6-.1-.8-1.1-.4s-2 .7-2.2.7c-.3 0-.2.6.2 1.2.4.7-.3.4-1.7-.7-1.7-1.4-2-1.5-1-.3.7.9 1 2.2.7 2.7-.4.5-.2 1.2.4 1.6.5.3 1 .1 1-.6s.7-.4 1.5.7c.8 1 1.5 1.4 1.5.9 0-.6.5-.3 1.1.5.9 1.3 1 1.3.6 0-.2-.8-1-1.4-1.7-1.2-1.1.2-1 0 0-1.3 1.3-1.6 1.5-1.5 2.7.1 1.3 1.7 1.3 1.7 1.1-.6-.2-1.5.2-2.4.9-2.3.7.2 1-.3.7-1.1-.3-.8 0-1.7.7-2.2.8-.4 1-.3.5.4-.4.7-.2 1.2.3 1.2.6 0 1.1-.5 1.1-1.1 0-.5.4-.8.9-.4.6.3.8-.3.6-1.4-.4-2 2-3.7 3-2.1.9 1.5 2.7 1.2 2.2-.3-.2-.6-1-1.1-1.6-1-.6.2-1.1-.2-1.1-.8 0-.6.9-.9 1.9-.6 1.5.4 1.8.1 1.3-1.2-.5-1.4-.4-1.5 1.4-.1 1.7 1.4 1.8 1.4.6-.1-.7-1-2-1.6-3-1.4-.9.1-1.1 0-.5-.2 1-.3 1-1 .2-2.6l-1.1-2.2 2.1 2.2c1.3 1.4 2.7 2 3.8 1.6 1.2-.5 1.4-.3.8.8-.5.8-.5 1.1.1.6.5-.5 1-1.3 1-1.8.1-.5.3-1.1.4-1.4.1-.3.3-1.1.4-1.8.1-.6.9-1.1 1.9-.9.9.2 1.7-.2 1.7-.8 0-.6-.4-.9-.9-.6-1.5.9-3.3-2.2-2.6-4.4 1-3-.2-2.4-2 1zm1.5 4.1c0 1.1-3.6.7-4.7-.6-.5-.4-.3-.5.4-.1.6.3 1.4.2 1.8-.4.7-1.2 2.5-.4 2.5 1.1zm0 2.3c0 .2-.7.7-1.6 1-.8.3-1.2.2-.9-.4.6-1 2.5-1.4 2.5-.6zm-17 9.6c0 .5-.5 1-1.1 1-.5 0-.7-.5-.4-1 .3-.6.8-1 1.1-1 .2 0 .4.4.4 1zm-318.8-17.1c-1.1.7-1.1.9 0 1.4.9.3 1.5-.1 1.5-.9s-.1-1.4-.1-1.4c-.1 0-.7.4-1.4.9zm-9.7 3c-.3.6.4.9 1.5.8 1.1-.1 2-.5 2-.9 0-1.1-2.8-1-3.5.1zm13.1 6.6c-.9 1.4-1.3 2.5-.8 2.5s.9.7 1 1.5c.1.8.3 2.2.4 3 .1.8.6 1.5 1.1 1.5.5 0 .6-.8.2-1.8-1.2-3.1-1.4-5.1-.4-5.7.5-.4.6-1.1.3-1.7-.4-.7-.2-.8.5-.4.6.4.9 1.2.6 1.7-.4.5 0 .9.7.9.8 0 .7.4-.4 1.1-2.1 1.2-1.2 3.9 1.3 3.9 1 0 1.9.4 1.9 1 0 .5-.8.7-1.7.4-1.5-.5-1.5-.4-.3.4.8.6 1.7.9 2.1.6.4-.2 1 0 1.4.6.3.5.1 1-.4 1-.6 0-1.1.7-1.1 1.6 0 1.4.1 1.4 1.6 0 1.7-1.7 2.5-2 2.3-.9-.3 2 .2 3.4 1.1 2.8.5-.3.6-1.3.3-2.3-.4-1.3-.2-1.3 1 .3 1.4 1.7 1.6 1.7 1.7.4 0-.9-.7-2.2-1.5-2.9-1.7-1.4-2-3-.5-3 .6 0 .9.3.8.7-.2.5.5 1.9 1.4 3.2 1.6 2.3 1.7 2.3 1.5.3 0-1.1-.6-2-1.1-1.9-.6.1-1-.4-1.1-1.1 0-1.7-2.5-3.1-4.2-2.5-1.2.5-1.2.7-.2 1.4.8.4 1 1.1.6 1.5-.9 1-1.7.1-2.2-2.5-.2-1.4 0-1.9.7-1.5.7.4.8.3.4-.4-1.1-1.8-2.6-1.4-2.6.5 0 .9-.3 1.4-.6 1-.4-.3-.3-1.4.1-2.4 1.3-2.8 1.4-4.4.4-3.7-.5.3-.6 1.1-.3 1.7.4.7-.3.2-1.5-1.1-2.7-2.7-2.5-2.7-4.5.3zm195.4-2.2c0 .2.6 1 1.4 1.6 1.1.9 1.6.9 2.2-.1.4-.7.4-1-.1-.6-.4.4-1.4.3-2.2-.3-.7-.6-1.3-.9-1.3-.6zm-68.9 1c.2.1 1.5 1.1 2.9 2.2l2.5 2-1.9-2.3c-1.1-1.2-2.4-2.2-2.9-2.2-.6 0-.8.1-.6.3z"/><path d="M136.2 151.6c.8 1.2-1.4 3.1-3.2 2.9-.8-.2-2.1.4-2.8 1.1-.8.9-.9 1.4-.2 1.4.6 0 .8.5.4 1.1-.5.8-.1.8 1.4 0 2.7-1.4 3.9-1.4 2.4.1-1.4 1.4-1.6 3.2-.3 2.4 1.3-.8 4.4 3.1 3.5 4.5-.4.8-.3 1 .4.5.7-.4 1.2-.2 1.2.4 0 .7.7.9 1.6.6 1.1-.4 1.8.1 2.1 1.5.4 1.6.8 1.7 1.4.7.7-1 .9-.9.9.4 0 1-.5 1.8-1.2 1.8-2 0-.1 1.1 2.8 1.6 2.1.3 2.5.2 1.4-.5-.8-.5-1.8-.7-2.4-.4-.5.3-.6.1-.2-.5.4-.6 1.4-.8 2.3-.5 1.3.5 1.5.2 1-1.1-.4-.9-.3-1.5.2-1.2.5.3 1.2-.1 1.5-1 .8-2 .8-2.4-.1-2.3-2.9.5-3.5-.1-2.2-1.9 1.3-1.5 1.2-1.6-.3-.4-1.2.9-1.8 1-2.3.2-.4-.6-1.3-.9-2.1-.6-.8.3-1.4.1-1.4-.4 0-.6.7-1 1.5-1s1.5-.5 1.5-1.1c0-.6-.9-.8-2.1-.4-1.3.5-1.9.3-1.5-.3.3-.5-.3-1.2-1.4-1.5-1.3-.3-2.1.1-2.5 1.4-.4 1.1-1.1 1.7-1.6 1.4-.5-.4 0-1.6 1.1-2.7 2.4-2.6 2.7-4.6.3-2.7-1.5 1.3-1.5 1.2-.5-.8.9-1.6.9-2.4 0-2.9-.6-.4-.9-.3-.6.2zm2.8 8.9c-1.1 1.3-.8 1.9 1.1 1.7.3-.1.6.6.6 1.4 0 1.9-.7 1.8-2.3-.3-1.1-1.6-.3-4.3 1.3-4.3.3 0 0 .7-.7 1.5zm6.6 4.9c.2 1.2-.4 1.3-3.5.7-.2-.1.2-.8.9-1.6 1.4-1.6 2.3-1.3 2.6.9zm277.4-6.9c1.4 1.7 1.4 1.8-.8.6-2.2-1.2-2.3-1.1-1.2.8 1.3 2.6.7 2.7-1.6.3-1.7-1.6-1.8-1.6-1.1.1.4 1 .7 2.3.7 2.8 0 .6.5.7 1.2.3.6-.4.8-.3.4.4-.3.6-1.9.9-3.4.6-2-.3-2.3-.2-1.2.6 1.3.8 1.3 1-.2 1-2.7 0-3.1 1.9-.6 2.9 2 .8 2 1 .4 1-2.7.1-.9 1.6 1.9 1.6 2 .1 2.2-.2 1.2-1.4-1-1.2-.9-1.3.1-.7 1.5.9 6.5-2.1 5.7-3.4-.3-.5.3-1.5 1.2-2.2 1-.7 1.9-2.2 2-3.3.1-1.1 0-1.4-.3-.8-.3.7-1 1.3-1.5 1.3-.6 0-.8-.4-.4-.9.3-.6-.5-1.5-1.7-2.2-2.2-1.2-2.2-1.1-.8.6zm2.5 4.5c-.3.5-1.2 1-1.8 1-.7 0-.6-.4.3-1 1.9-1.2 2.3-1.2 1.5 0zm-2 3.2c.4.3-.3 1.2-1.5 1.8-1.5.8-2 .8-1.6.1.4-.6 0-1.1-.8-1.1-.9 0-1.6-.4-1.6-.8 0-1 4.6-1 5.5 0z"/><path d="M151.1 168.3c-.6.8-.8 1.7-.4 2 .3.4.1.7-.7.7-1 0-1 .4.1 1.7.8 1 .9 1.4.2 1-.8-.5-1.1 0-1 1.3.1 2.2 1.3 2.7 2 .7.4-.7.6-.6.6.5.1.9-.5 1.8-1.1 2.1-.7.2 0 .4 1.6.4 1.9 0 2.4-.2 1.5-.8-1.1-.7-1.1-.9-.1-.9.7 0 1.1-.4.8-.9-.4-.5.2-.8 1.1-.7 1 .2 1.7 1.1 1.7 2.2-.2 4.8-.4 5.5-1.6 4.8-.7-.4-.8-.3-.4.4.5.8 1.3.9 2.5.3.9-.5 2.3-.6 3.1-.1 1.5.9 4 .2 4-1.2 0-.5-1-.6-2.2-.3-1.9.6-2.1.5-1.1-.6.9-.9 1-1.6.2-2.6-.9-.9-.8-1.3 0-1.3.7 0 .9-.5.5-1.1-.4-.8-.9-.7-1.5.2-.4.7-.4 1.8.1 2.4.6.8.5 1.2-.4 1.2s-1.3-.9-1.1-2.3c.1-1.3-.1-2.2-.4-2.1-.3.1-1.6-.4-2.7-1.1-1.2-.6-2.5-.8-2.9-.4-.4.4-.3-.3.4-1.5 1.4-2.7 1.4-3.3 0-3.3-.5 0-.8.4-.5.9.3.5 0 1.1-.8 1.4-1.5.6-1.6-.9-.3-3.1 1.1-1.6.2-1.5-1.2.1zm257 2.4c-.7.8-1 1.7-.7 2 .3.3 0 1.5-.6 2.7-.7 1.1-1.1 2.5-1 2.9.1.4-.6.3-1.7-.3-2.6-1.3-3.2-1.3-2.8.2.1.7-.4 1.2-1.2 1-1.2-.3-1.2-.1 0 1.4 1.2 1.6 1.2 1.7-.4 1.1-1.2-.5-1.6-.3-1.1.5.5.7.2.9-.9.5s-1.4-.2-1 .9c.3.7 0 1.4-.6 1.4s-1.1-.5-1.1-1.2c0-.6-.3-.9-.6-.6-.3.4 0 1.6.6 2.8 1.4 2.7-.2 5-3 4.3-1.2-.3-2.2.3-3 1.6-.6 1.2-1.5 1.9-2 1.6-.4-.3-.6.5-.3 1.7.5 2.3.5 2.3-1.1.3-1-1.1-1.5-1.5-1.2-.8.4.6 0 1.4-.6 1.6-1 .4-1 .6 0 .6.6.1 1.2.5 1.2 1.1 0 .5-.7.7-1.5.4-1.1-.4-1.3-.2-.9.9.6 1.5 2 1.7 4.1.4.6-.4 1.5-.2 1.9.4.4.7.3.9-.4.5-.6-.3-1.3-.2-1.6.3-.3.5 0 1.1.8 1.4.9.4 1.9-.5 2.6-2.4 1.1-2.6 2.1-3.4 4.3-3 .7.1 1.1-2.2.8-4.6-.1-.6.4-1.5 1-1.9.8-.4.9-.3.5.4s-.3 2 .3 2.9c.7 1.3.9.5.6-3.2-.2-2.9-.1-4.2.4-3.1.5 1.4 1 1.6 1.5.7.5-.7 1.4-1 2.1-.7.7.2 1.6-.2 1.9-1 .3-.9 1.1-1.2 1.7-.8.8.4.9.3.5-.5-.6-.9-1.1-.9-2.1-.1s-1.5.8-2 0c-.4-.6-1.4-.9-2.4-.6-1.1.4-1 .2.4-1 1.1-.8 1.9-2 1.7-2.5-.1-.6.2-.8.8-.4.5.3 1 0 1-.7 0-.8.5-.6 1.1.5.8 1.4 1.4 1.5 2.4.7.8-.6 1.2-1.7 1-2.3-.3-.7-.1-1.9.4-2.7.8-1.2 1.2-1.2 2.9.3 1.9 1.7 2 1.7 2.5-.3.3-1.3-.3-2.9-1.6-4.4-1.9-2-2.4-2.2-3.6-.9zm2.2 1.7c.4 1 .1 1.3-.8.9-.8-.3-1.2-.9-.9-1.4.7-1.2 1.1-1.1 1.7.5zm-20.2 21c-.8 1-.9 1.6-.1 2.1.5.3 1 .2 1-.3s.7-.9 1.5-.9c2.1 0 .4 1.6-2.2 2.1-2.1.5-2.3-.3-.8-3.7.4-1 1-1.6 1.3-1.3.3.3-.1 1.2-.7 2z"/><path d="M412.9 171.3c1.4 1.6 1.9 3 1.4 4.3-.6 1.6-.5 1.7.9.4 1.5-1.4 1.5-1.7-.3-3.6-1.1-1.1-1.6-2.4-1.2-2.7.3-.4-.2-.7-1.2-.7-1.7 0-1.7.2.4 2.3zm-9.2 3.8c.4 1.3.8 1.8 1.1 1 .2-.7-.1-1.8-.6-2.3-.8-.8-.9-.4-.5 1.3zm-247.8 1.4c-.1.3-.2 1-.3 1.5 0 .6-.8 1.5-1.6 2.1-1.2.8-1.1 1 .5.7 1.3-.2 2-1.1 2.1-2.6.1-1.9-.4-3.1-.7-1.7zm252.6.5c-.4.6-.4 1.4-.1 1.7 1.1 1.1-2.6 4.4-3.8 3.4-.7-.6-1.6-.4-2.3.4-.7.8-.9 1.6-.4 2 .5.3 1.2.1 1.6-.4.3-.6 1.2-.8 1.9-.5.7.3 1.6-.2 2-1.1.3-1 1.1-1.3 1.8-.9s1 .4.6-.1c-.4-.4-.3-1.4.4-2.2.8-1 .8-1.7.1-2.4-.8-.8-1.3-.7-1.8.1zm-249.2 6.7c.4.6.4 1.3 0 1.6-.5.2-.2.2.5.1.6-.2 1.2.2 1.2.8 0 .6.7.5 1.8-.3 1.5-1.3 1.6-1.2.4.3-.8 1-2 1.4-3 1.1-2.2-.8-1.3.1 1.7 1.7 1.5.8 2.1.8 1.7.1-.4-.6-.2-1.1.3-1.1.6 0 1.1.7 1.1 1.5s.4 1.5.9 1.5c.4 0 .7-1.2.5-2.8-.4-2.7-.4-2.7.5-.2 1 2.7 1 2.7 1.7-.8.2-1.2-.1-2.2-.7-2.2-.5 0-.7-.5-.4-1 .8-1.3-1.1-1.3-3.6.1-1.5.8-2.4.7-3.7-.3-.9-.8-1.3-.8-.9-.1z"/><path d="M169.8 186.2c-.3.7-.4 2.3-.3 3.5.1 1.2-.2 2-.7 1.7-.4-.3-1.6 0-2.5.5-1.1.6-1.3 1.1-.5 1.1.7 0 1 .5.6 1.2-.4.6-.3.8.4.4.6-.3 1.5.1 2 1 .8 1.5 1 1.5 1.5 0 .4-1 .3-1.5-.2-1.2-.5.3-1.5-.2-2.2-1.2-1.3-1.5-1.2-1.6.4-.3.9.7 1.7 1 1.7.5 0-.4.5-.3 1.2.4.8.8 1.7.8 3.1.1 1.5-.9 1.8-.8 1.2.3-.5.7-.4.9 0 .5.5-.4 1-1.5 1.1-2.3.1-.9 0-1.3-.3-1-.4.3-1.3 0-2.2-.7-1.4-1.1-1.4-1-.2.5.7 1 .9 1.8.3 1.8-1.7 0-2.3-3-.7-3.6.8-.4 1.2-1.1.9-1.6-.4-.6-.9-.6-1.4.2-1 1.7-3.1.3-2.3-1.5.3-.8.3-1.5 0-1.5s-.7.6-.9 1.2zm217.7 1.7c-.3.5-.2 1.2.3 1.5.5.3.9-.1.9-.9 0-1.7-.3-1.9-1.2-.6zm3.8.4c-.3.6-.1.7.5.3.7-.4 1.2-.2 1.2.4 0 .6.5.8 1 .5.6-.3 1-1 1-1.4 0-1.1-3-.9-3.7.2zm8.1.8c-.3.6-.3 1.3 0 1.6.3.4.6 0 .6-.8 0-1.2.2-1.2.9 0 .5.8 1.1.9 1.5.3.3-.5-.1-1.2-.9-1.6-.8-.3-1.7-.1-2.1.5z"/><path d="M171 196.5c0 .8.4 1.5 1 1.5.5 0 .7-.7.4-1.5-.4-.8-.8-1.5-1-1.5-.2 0-.4.7-.4 1.5zm2.4 1c.1 2 .5 2.4 2.4 2 1.4-.2 2 0 1.6.7-.4.6-.1.9.6.6 1.6-.5 2.1-3.1.9-4.9-.7-1.2-1.2-1.2-3-.1-1.1.8-1.8.9-1.4.3.3-.6.2-1.1-.3-1.1-.6 0-.9 1.1-.8 2.5z"/><path d="M180.9 195.5c-.5 1.9-.4 3.2.3 4.7.6 1.3.5 1.6-.6 1.2-.8-.3-1.7 0-2.1.6-.5.8-1.1.6-1.9-.6-1.1-1.5-1.3-1.5-1.3 0 0 .9.5 1.6 1.1 1.7.6.1 2 .2 3.1.3 1.1 0 2 .5 2 1.1.1 1.8 2.3 5 3.1 4.3.4-.4.1-1.6-.7-2.5-1.2-1.6-1.2-1.7.1-.6 1.7 1.3 4.5 1.2 5.7-.2.4-.4.3-.5-.4-.1-1.6.9-2.9-1.4-1.3-2.4.9-.5.9-.9.1-1.4-.6-.4-1.1-.2-1.1.3 0 .7-.8.7-2.2-.1-3-1.7-3.7-2.7-3.3-5 .3-1.5-.3-2.7-.6-1.3zm5.1 8.5c.6 1.1.9 2 .8 2-.2 0-1.1-.9-2.1-2-.9-1.1-1.3-2-.7-2 .5 0 1.4.9 2 2zm193.8-3.2c-1 .2-1.8.8-1.8 1.3 0 .6-.4.7-1 .4-.6-.4-.7.1-.3 1.1.4 1.2.3 1.5-.5 1s-1-.1-.5 1c.4 1.1.3 1.5-.5 1-.6-.3-1.3-.2-1.7.4-.4.6-1 .8-1.5.5-.4-.3-1.4.3-2.1 1.3-1.3 1.5-1.2 1.6.3.4 1.7-1.4 3.5-.1 2.3 1.7-.9 1.6 1.6 2.5 2.7 1 .8-1.1.9-1 .4.3-.3 1-.1 2 .4 2.3.6.4 1-.5 1-1.9v-3.4c0-.4-.4-.7-.9-.7s-1.3-.4-1.8-.9-.3-.6.5-.2c.7.4 1.5.1 1.8-.9.4-1 1-1.2 1.8-.7.6.5 1.9.8 2.9.7.9-.2 1.5.1 1.2.5-.3.5-.1 1.1.4 1.4 1.3.9.7-1.9-.8-3.8-.9-1.1-1-1.6-.2-1.6.6 0 1.1.4 1.1 1 0 .5 1.1.9 2.5.8 2.3-.2 2.3-.3.8-2-.9-1-1.8-1.6-2.1-1.3-.3.3-1 .1-1.6-.3-.6-.5-1.9-.7-2.8-.4zm-.1 2.7c0 .8-.4 1.2-.9.9-.5-.3-.6-1-.3-1.5.9-1.3 1.2-1.1 1.2.6z"/><path d="M179.3 205.9c0 1.1.5 1.7.9 1.5.4-.3.8 0 .8.7s.3.9.6.6c.4-.4.2-1.3-.4-2-.7-.8-.9-1.7-.5-2 .3-.4.1-.7-.5-.7s-1 .9-.9 1.9zm10.9.8c-.6.2-.9 1-.5 1.6.4.7.1.7-.9-.1-1.4-1.1-1.8-1-3 .7-.8 1.2-1.7 1.9-2 1.6-.2-.3-.5.1-.5.9s.5 1.4 1.1 1.3c.6-.1 1 .4.8 1.2-.3 1.2-.1 1.2 1.3.1 1.4-1.1 1.7-1 2.2.8.3 1.2.9 2.2 1.4 2.2 1.1 0 .7-2.3-.5-3.1-.5-.4-.7-1.1-.5-1.5.2-.5 1.5.1 2.9 1.4 1.9 1.8 2 2.1.5 1.6-1.3-.5-1.6-.4-1 .5.4.8.2 1.7-.6 2.2-.9.6-1 .9-.2.9.6 0 1.5-.5 1.8-1 .3-.6 1.1-1 1.7-1 .6 0 .3 1-.8 2.2-1 1.2-1.4 1.8-.7 1.5.6-.4 1.4-.3 1.8.3.3.5 1.2 1 1.8 1 .7 0 .6-.4-.3-1-.9-.6-1.1-1-.3-1 .7 0 1-.7.6-1.8-.3-.9-.3-1.4.1-1 .4.3.9 1.2 1 2 .1.7.7 2.3 1.4 3.5.8 1.5.9 2.4.2 2.8-.6.4-.9.1-.8-.6.2-.6-.4-1.4-1.2-1.6-1.2-.4-1.2-.3-.2.5.8.5 1.4 1.3 1.5 1.8.1.5.7.7 1.2.5.6-.2 2-.4 3.3-.4 1.3.1 2.1-.1 1.8-.4-.3-.3-.1-1.4.5-2.4.8-1.5.6-1.9-.6-1.9-1 0-1.3.5-.9 1.2s.3.8-.4.4c-1.5-.9-1.5-1.2.3-3 1.4-1.3 1.2-1.5-1.7-1.3-2.8.2-3.3-.1-3.2-2.1 0-1.5-.4-2.1-1.3-1.8-1.6.7-1.7-.6 0-2.4 1-1.2.9-1.2-.5-.1-1.4 1-1.7.9-2.3-.8-.3-1.2-1.3-2.1-2.1-2.1s-1.4-.5-1.4-1.1c0-.5.5-.7 1.2-.3.7.4.8.3.4-.4s-.8-1.2-.9-1.1c-.1 0-.8.3-1.5.6zm3.8 5.4c1.1 1.9 1 2-.9.9-2.2-1.1-2.9-3-1.1-3 .5 0 1.4.9 2 2.1zm-7-.1c0 .5-.2 1-.4 1-.3 0-.8-.5-1.1-1-.3-.6-.1-1 .4-1 .6 0 1.1.4 1.1 1zm14.5 8c-.3.5-1.2 1-1.8 1-.7 0-.6-.4.3-1 1.9-1.2 2.3-1.2 1.5 0zM378 208.5c.6.8.9 1.9.5 2.4-.3.6 0 .9.7.6.8-.3 1.5-1.5 1.5-2.8.2-1.7 0-1.9-.7-.7-.7 1-1 1.1-1 .2 0-.6-.5-1.2-1.1-1.2-.8 0-.8.4.1 1.5zm-7.8 2.2c-1 .4-.9.8.5 1.8 1.6 1.2 1.5 1.3-1 .8-3-.6-6.1 1.3-5.3 3.4.3.7.1 1.3-.3 1.3-.5 0-1.2-.6-1.4-1.3-.4-1-.6-1-.6 0-.1 2.1.3 2.7 2.1 2.8 1.1.1 1.5-.5 1.2-2.1-.4-2.3 2-4.1 3.1-2.3.4.5.1.8-.5.7-.7-.2-1.4.5-1.5 1.5-.3 1.4.2 1.7 1.8 1.5 1.6-.2 2.1-.9 1.9-2.3-.2-1.6-.1-1.7.7-.5 1 1.4 1.5.7 1.2-1.3-.1-.5.3-.6.9-.2.6.3.7 1.2.4 1.8-.5.8-.2.8.7-.1 1.1-1 .9-1.5-.9-2.8-1.2-.8-2-2-1.7-2.5.7-1 .6-1-1.3-.2zm.2 8.5c-1 1.2-1.4 1.8-.7 1.5.6-.4 1.3-.4 1.6 0 .2.5.2.3.1-.4-.2-.6.2-1.4.9-1.6.7-.2.9-.7.6-1.1-.3-.3-1.4.4-2.5 1.6zm-11.7 2.1c-.6 1.5.6 3.9 1.8 3.9.4 0 1.2-.6 1.7-1.4.6-.9.7-.5.3 1-.6 2.2-.5 2.3 1.7 1.2 2.9-1.6 3.8-2.5 1.7-1.8-.9.4-1.6.1-1.6-.7 0-1 .7-1.1 2.5-.4 2.1.8 2.3.7 1.4-.4-.7-.8-1-1.6-.7-1.8.2-.3-.7-.5-2-.4-1.3 0-3 .6-3.7 1.2-.6.7-1.6 1.3-2.2 1.3-.5 0-.1-.7 1-1.5 1.6-1.2 1.7-1.4.3-1.5-.9 0-1.9.6-2.2 1.3z"/><path d="M205.9 223.5c-.1.3-.2 1.1-.3 1.7 0 .7-1 1.3-2 1.3-1.1 0-2.1.6-2.2 1.3-.1.7 0 .8.3.2.3-.6 1-.4 1.9.4 1.6 1.7 1.9 3 .4 2.1-.6-.3-.7.1-.4 1 .6 1.4.8 1.4 1.8 0 .7-1 1.6-1.2 2.6-.5.8.5 1.1 1.2.7 1.7-.5.4-1.2.1-1.7-.7-.7-1.1-1-1.1-1-.2 0 .7.7 1.5 1.5 1.8.8.4 1.2 1 .9 1.5-.3.5-1 .6-1.6.3-.7-.4-.8-.2-.4.5.6.8 1.2.9 2 .2.7-.6 2.2-.9 3.4-.6 1.2.2 2.4 0 2.7-.6.4-.5 1.4-.9 2.3-.8 1.2 0 1.1.3-.5.9-2.8 1.1-3 1.9-.3 1.7 1.1-.1 2.2-.7 2.4-1.4.6-1.5-2.2-3.2-4.7-2.8-.9.2-1.5-.1-1.1-.6 1-1.6-.8-.9-2.3.8-1.3 1.6-1.3 1.6-.3-.5.8-1.7 1.7-2.1 3.1-1.7 1.2.4 1.9.2 1.9-.6 0-.7-.3-.9-.6-.6-.4.3-1.5.2-2.6-.4-1.6-.9-1.7-1.3-.6-2.6 1.2-1.5 1.1-1.5-.9-.5-1.3.7-2.4.8-2.7.3-.4-.5-.1-1.1.6-1.3.8-.3.6-.7-.5-1.1-.9-.3-1.8-.4-1.8-.2zm4.6 5.5c.3.5.1 1-.4 1-.6 0-1.1-.5-1.1-1 0-.6.2-1 .4-1 .3 0 .8.4 1.1 1zm143.5-2.7c0 .4-.5.5-1.2.1-.7-.5-.8-.3-.3.6.4.7.2 1.5-.5 2-.8.5-.7.9.5 1.3 1.1.5 1.4.3 1-.6-.4-.6.3-.1 1.4 1.2 1.6 1.8 2.1 2 2.1.7 0-.9.5-1.6 1.1-1.6.5 0 .8-.4.5-.9-.4-.5.3-.7 1.3-.4 1.6.4 1.9.1 1.4-1.6-.5-1.8-.8-1.9-2.1-.9-1.2 1-1.4 1-.8.1.5-.9 0-1.2-1.8-1.1-1.5.1-2.6.6-2.6 1.1zm3 1.3c0 .8-1.9 1.3-2.4.6-.3-.5.1-.9.9-.9s1.5.2 1.5.3zm-7.8 4.5c-.5 5.7-.1 7.8 1.4 7.2 1-.4 1.1-1 .3-2.5-.7-1.3-.7-1.8-.1-1.4.6.3 1.3.2 1.7-.3.3-.6 1.2-.8 2-.5.8.4 1.2 1.1.8 1.7-.3.5-.1.7.5.4.7-.5.7-1.4-.1-3.1-.8-1.6-1.4-2.1-1.9-1.3-.6.9-.8.8-.8-.2 0-.8-.3-1.1-.7-.8-.3.4-1.1.3-1.7-.3-.8-.6-1.2-.3-1.4 1.1z"/><path d="M358.5 231.1c-1.1 1.6-.1 1.9 1.3.3.7-.8.8-1.4.3-1.4s-1.3.5-1.6 1.1zm-11.9 1.4c-.3.8 0 1.7.6 2.1.6.4.8.3.4-.4-.3-.5-.1-1.2.6-1.4.8-.3.9-.6.1-1.1-.6-.4-1.3 0-1.7.8zm-127.6 4c-.7.8-1.6 1.3-2 1-.5-.3-1.2 0-1.6.6-.5.8-.3.9.6.4.8-.5 1.1-.4.6.3-.8 1.4-3.6.4-3.3-1.1.1-.6-.6-1.1-1.5-1.2-1 0-1.8.4-1.8 1 0 .5.5 1 1 1 .6 0 1.4.6 1.9 1.3.5.8 1.1 1.3 1.5 1.3 2.2-.3 2.8.1 2.4 1.7-.4 1.3.1 1.8 1.8 2 1.3.1 2.4-.3 2.4-.8s-.8-.7-1.7-.4c-1.5.5-1.5.4-.3-.4.8-.6 1.7-.9 2.1-.6.4.2 1 0 1.4-.6.4-.6 1-.8 1.4-.6.4.3.8-.2.8-1 0-1-.4-1.1-1.1-.4-1.4 1.4-3.1 1.2-1.8-.3.7-.8.7-1.7-.3-3-1.1-1.5-1.4-1.5-2.5-.2zm2.4 1.4c.3.5 0 1.1-.7 1.4-.8.3-1.4-.1-1.4-.9 0-1.6 1.3-1.9 2.1-.5zm122.7-2c-.8.6-1 1.4-.5 2.2 1.1 1.8 1.4 4 .6 3.5-.9-.5-3.2 2-2.5 2.8.3.3 1.4.1 2.4-.4 1-.6 2.4-.9 3-.8.7.2 1.3-.9 1.4-2.5.1-1.5-.2-2.7-.7-2.7-.5 0-.6-.4-.3-1 .4-.6-.1-.7-1.1-.3-1.2.4-1.5.3-1-.5.9-1.4.6-1.5-1.3-.3zm8.5 0c-.3.4.1 1.7 1 2.7 1.4 1.8 1.5 1.8.5-.2-.6-1.2-.7-2.4-.4-2.8.3-.3.4-.6 0-.6-.3 0-.8.4-1.1.9z"/><path d="M340.5 239c.3.5.1 1.1-.5 1.5-.6.4-.7 1.1-.4 1.7.5.8.1.9-1 .5-1-.4-1.5-.3-1.1.3.3.6-.1 1-.9 1-.9 0-1.6.3-1.7.7 0 .5-.2 1.8-.3 3-.3 2.4-1.6 4.4-1.6 2.5 0-2-1.7-1.3-2.3.8-.3 1.2.1 2.4 1.1 3 1.3.7 1.3.9.3 1-1.7 0-.6 1.3 1.4 1.6.7.1 1.1-.4.9-1.1-.3-.7 0-1.6.7-2.1.7-.4 1-.3.5.4-.3.6-.1 1.4.5 1.8.8.4.9.3.5-.5-.4-.6 0-1.4.8-1.7.9-.3 1.3-1 1-1.5-.3-.5 0-.9.6-.9.7 0 .8-.6.1-1.8-.7-1.4-.6-1.9.4-1.9.8 0 1.2.4.9.9-.3.4 0 .8.6.8s.8.5.4 1.2-.3.8.4.4c.6-.4.8-1.4.5-2.3-.4-1-.2-1.4.4-1 .5.3 1 0 1-.8s-.5-1.1-1-.8c-2.1 1.3-2.6-2.2-.6-4.3l2-2.1-2-.6c-1.2-.3-1.9-.1-1.6.3zm-3 7c-.3.5-1.2 1-1.8 1-.7 0-.6-.4.3-1 1.9-1.2 2.3-1.2 1.5 0zm-.2 5.7c-.3.9-.9 1.1-1.5.5-.5-.5-.6-1.7-.2-2.6.5-1.3.9-1.4 1.4-.5.5.7.6 1.9.3 2.6zM57 243.1c0 .5-.4.7-1 .4-.5-.3-1-.2-1 .4 0 .6-.8.8-1.7.5-1.4-.5-1.5-.4-.4.4.8.6 2 .8 2.8.5.7-.3 1.3 0 1.3.7 0 .6-.5.8-1.2.4-.8-.5-.9-.2-.5.9.6 1.6.5 1.6-1.9.1-2-1.3-2.4-1.4-2.2-.3.2.8-.4 1.3-1.4 1.1-.9-.1-1.9.1-2.2.6-.6 1 2.4.9 4.1-.1.6-.4 1.5-.2 1.9.4.4.8.3.9-.5.5-.6-.4-1.4-.1-1.7.8-.3.8-1.2 1.2-1.9 1-.7-.3-1.6 0-2.1.7-.4.8-.3 1 .4.5.7-.4 1.2-.3 1.2.2 0 .6-.7 1.3-1.6 1.6-.9.3-1.4 1.3-1.1 2 .3.8.1 1.7-.6 2-.7.3-.4.4.5.3.9-.1 1.7.2 1.7.8.1.5-.8 1.1-1.9 1.1-2.9.2-3.3.9-2 3.3 1.3 2.4.7 2.7-1.3.7-1.2-1.3-1.4-.9-1.3 2.7.1 2.3.6 4.5 1.1 5 .6.4-.2.5-1.7.3-2-.3-2.5-.1-2.1 1 .3.8 1 1.1 1.7.7.6-.3.5 0-.2.8-1.1 1.2-1.4 1.2-2.2-.1-.8-1.2-1-1-1 .8 0 1.5.4 2.1 1.2 1.6.7-.4.8-.3.4.4s-1.5 1.2-2.4 1.2c-1.2 0-1.3.3-.5 1.1 1.3 1.3-.3 5.9-1.9 5.9-.5 0-.6-.6-.2-1.3.4-.6.3-.8-.1-.4-1.1 1-1.6 3.9-.6 3.2.4-.2.8.2.8 1s-.4 1.2-.9.9c-.5-.3-2 .5-3.4 1.9-1.9 1.9-2.1 2.5-.8 2.3.9 0 1.8.7 1.9 1.6.2 1.2-.2 1.5-1.3 1-1.4-.5-1.5-.3-.4 1 1 1.2 1 1.7-.1 2.7-.8.6-1.7.8-2 .4-.4-.3-.7-.1-.7.6s-.5.9-1.2.5c-.8-.5-.7 0 .2 1.1.9 1.1 1 1.6.2 1.1s-1.1-.1-.8 1.6c.4 2.9-1.2 6.1-2.8 5.5-.7-.3-1.3.1-1.3.9 0 .7.3 1.1.7.9.3-.2 1.2 0 2 .5 1 .6.4.8-1.9.7-2.9-.2-3.5.1-3.6 2-.1 1.3.2 2.3.7 2.3.4 0 .8.4.8 1 0 .5-.6.7-1.4.4-.8-.3-1.7 0-2.2.7-.4.8-.3 1 .4.5.8-.4 1.2 0 1.2 1.2 0 1-1 2.4-2.2 3.1-2.3 1.1-2.3 1.1.2.5 1.8-.4 2.1-.3 1.1.4-.8.6-1 1.5-.6 2.3.6 1.1.5 1.2-.6.2-.7-.7-1.6-1.3-2-1.3-1.3 0-1.8 2.9-.7 3.6.7.5.8.2.3-.7-.5-.8-.4-1 0-.6.5.4 1 1.4 1.1 2.2.2 1.2-.2 1.3-1.9.4-1.8-.9-2-.9-1 .1 1.2 1.3.6 4.3-.7 3.5-.4-.3-1.3.2-2 1.1-1 1.2-1.1 1.7-.1 2.7 1 .9 1.1.8.6-.4-.9-2.3 1-3.2 2.5-1.4 1.1 1.3 1 1.4-.4.9-1.1-.4-1.6-.2-1.4.7.2.8-.3 1.3-1.1 1.1-.8-.2-1.1.3-.8 1.2.4.9.2 1.8-.4 2.2-.6.3-.8 1.3-.4 2.1.4 1.3.3 1.4-.9.4-1.1-.9-1.6-.9-2.2 0-.4.7-.3.9.3.6.6-.4 1.3.4 1.5 1.7.4 1.8.1 2.3-1 1.8-1.1-.4-1.3-.1-.8.9.4.8-.1.4-1.1-.7-1.9-2.2-1.9-2.1-2 3.7 0 3.3.4 6.2 1 6.6.6.4.8 0 .4-1-.3-1-.2-1.7.3-1.7.6 0 1 .5 1 1.1 0 .6.7 1.7 1.5 2.6.8.8 1.2 2 .8 2.6-.5.8-.2.8.9 0 .8-.7 1.9-.9 2.3-.5.5.4.5.1.1-.6s-1.2-.9-1.8-.6c-.7.4-.8.2-.4-.5.6-.8 1.2-.9 2-.2.7.6 1.6.8 2 .4.4-.4.4 0 .1.8-.4 1.1.1 1.8 1.5 2.2 1.2.3 1.9 1 1.6 1.6-.4.5-.1 1.3.5 1.7.7.4.9.3.6-.3-.4-.6 0-1.6.8-2.3 1.4-1.2 1.9-.7 1.6 1.3-.1.5.3.6.9.2.6-.4.5-1.3-.2-2.5-.9-1.4-1.5-1.6-2.1-.7-.6.8-.7.8-.4-.3.2-.8 1-1.4 1.7-1.2.6.1 1.4-.7 1.7-1.8.6-2.3 1.4-2.5 3.2-.7 1 .9 1 .7 0-1.2-1.1-1.9-1.1-2.5-.1-2.8.6-.3 1.2-.9 1.2-1.4 0-.6-.5-.7-1.2-.3-.7.4-.8.3-.4-.4s1.4-1.2 2.2-1.2c.8 0 1.4-.5 1.4-1.1 0-.5-.6-.7-1.2-.3-1 .6-1 .4-.1-.7 1.6-1.6 1.7-3.3.1-2.3-.7.5-.8.3-.4-.5.5-.7 1.4-1 2.1-.7.9.3 1.2-.3 1-2-.3-3 .8-3.1 2.9-.2 1.6 2.2 1.6 2.2.3-.7-1.8-4-1.6-6.1.6-5.7 1.2.2 1.5-.2 1.1-1.3-.4-.9-.3-1.5.2-1.4.9.2 2.4-.2 7.2-2.2 1.8-.7 2.1-.6 1.5.3-1.1 1.9-1.3 3.9-.2 3.2.5-.3.6-1 .3-1.6-.5-.8-.1-.9 1-.5.9.4 1.5.3 1.3-.1-.3-.4.2-1.4 1.1-2.2 1.4-1.3 1.5-1.3 1 .1-.4.9.2 2.1 1.5 2.9 2 1.2 2.1 1.2.8-.3-1.1-1.5-1.1-1.7.1-1.7.8 0 2 .6 2.7 1.2 1.1 1.1 1.2.8.6-1.2-.4-1.6-.3-2 .3-1.2.5.7 2.2 2 3.8 2.8l2.9 1.4-2.4-2c-2.5-2.2-2.1-2.6 1-1 1.4.8 1.9.7 2-.2.1-.7.5-.2.9 1.2.6 1.9.8 2.1.9.6.1-1.8.2-1.8 2-.2 1.3 1.2 2.1 1.4 2.6.6.4-.6 1.4-.9 2.4-.5 1.2.5 1.3.4.4-.6-.9-.9-1.5-.9-2.6 0-1.2.9-1.6.8-2.1-.5-.4-.9-.4-1.9-.1-2.2.3-.3.5 0 .5.6s1.2.9 3 .7c1.7-.2 3 0 3 .5 0 .4.7 1.1 1.6 1.4 1.5.6 1.5.4.3-1.1-1.3-1.6-1.2-1.6 1.4.1l2.9 1.8-.7-2.4-.7-2.3 1.6 2.2c.9 1.2 2.2 2.1 2.9 1.9.6-.1.9-.1.5.1-.5.3-.4 1.3.2 2.2.5 1 .7 2 .5 2.3-.3.3.2.5 1 .5 1.1 0 1.2-.4.3-1.4-1.2-1.5-.5-2.8 1-1.9.6.3.9 2.1.8 4-.1 1.9.2 3.2.6 3 .5-.3.8 0 .8.6s.5.8 1 .5c1.5-.9 1.2.2-.6 1.9-1.4 1.5-1.4 1.6.3 1.7 1 .1 2.1.1 2.4.1.3-.1.6.5.6 1.3s-.8 1.2-2 .9c-1.1-.2-1.6 0-1.3.4.4.4 1.2.8 1.7.8.5.1 1.4.2 1.9.3.6 0 1 1.3 1 2.7 0 1.4.4 2.3 1 1.9.6-.3 1 .4 1 1.7 0 1.9-.2 2-1.1.8-.9-1.3-1-1.3-.6 0 .2.8 1.1 1.4 2.1 1.2 1.1-.2 1.6.4 1.7 2 0 1.3.3 1.7.6 1 .2-.6.9-1.2 1.4-1.2.5 0 .4 1-.2 2.2-1.1 2-1 2.1.3 1.1.8-.7 1.8-1 2.2-.6.4.4.4 0 0-1-.3-1-.1-1.7.5-1.7 1 0 1.5 1.4 1.2 3.2 0 .5.4.8 1 .8s.8-.7.5-1.7c-.8-2 1.4-3.6 3.1-2.1 1.2 1 1.7.1 1.5-2.3-.1-.3.6-.6 1.3-.6 1.1 0 1.2.4.3 1.4-.8 1.1-.7 1.2.5.7 2.2-.8 3-3.4 1.1-3.4-.8 0-1.3-.4-.9-1 .3-.5 1.3-.7 2.3-.4 1.3.5 1.4.4.3-.4-.9-.7-1-1.1-.2-1.7.9-.5.9-1 0-2.1-.6-.8-.8-1.4-.3-1.4.4 0 .3-.5-.3-1.1-.6-.6-.9-1.8-.6-2.5.3-.8 0-1.4-.5-1.4-.6 0-.9.9-.7 2 .2 1.1 0 2-.6 2-1.3 0-.5-4 1.2-5.2 1.1-.8 1.1-.9-.3-.4-1 .3-2.2-.2-2.8-1.2-.9-1.4-1-1.2-.4.8.7 2.9.2 2.6-1.6-.9-.6-1.3-.7-2.1-.2-1.7.6.3 1.3.2 1.7-.4.3-.5-.1-1-1-1-1.3 0-1.5-.6-1-3.3.7-3 .6-3.1-.9-1.2-1.5 2-1.5 2-.9-.3.3-1.2 0-2.9-.7-3.7-.7-.8-.9-1.5-.5-1.5s.2-.6-.4-1.3c-.6-.8-.7-1.8-.3-2.2.4-.5.1-.5-.6-.1-1 .6-1 1.1-.1 2.2.8 1 .8 1.4 0 1.4-1 0-1.3-.7-1-2.6 0-.4-.5-1.1-1.3-1.5-1-.7-1-.9 0-.9.6 0 1.2-.5 1.2-1.1 0-.5-.4-.8-.9-.5-.5.3-1.1-.1-1.4-.9-.4-.9-.1-1.2.9-.8.7.3 1.4.1 1.4-.5s-1.1-.9-2.5-.7c-2 .2-2.3 0-1.4-1.1 1.1-1.3.2-1.9-2.3-1.5-.5 0-.8-.4-.8-1s.6-.9 1.3-.6c.7.3 1.3-.5 1.3-2 .2-2.1.1-2.2-1-.7-1 1.2-1.5 1.4-2 .5-.4-.6-.2-1.9.6-2.8 1.1-1.4 1.1-1.6-.4-1-1.2.4-1.5.2-1.1-.9.3-.7 1-1.4 1.7-1.4.6 0 .4-.5-.4-1s-1.9-1-2.5-1c-.5 0-.4.4.4.9s.9 1.1.3 1.5c-1.3.7-2.6-2.2-2.3-5.1.2-1.8-.1-2.2-1.6-1.6-1.5.5-1.6.3-.5-.8 1.7-1.8 1.5-3-.4-2.7-1 .2-1.9-.4-2.1-1.2-.3-1-.2-1.1.4-.4.5.7 1.6.8 2.8.3 1.7-.6 1.7-.8.3-.8-1-.1-1.8-.6-1.8-1.1 0-.6-1-1-2.2-1-1.8 0-2-.2-.8-.9.8-.6 1.8-.7 2.4-.4.5.3.6.1.2-.6-.4-.6-1.2-.9-1.7-.6-.5.4-1.7.1-2.6-.4-1-.6-1.2-1.1-.5-1.1 1.9 0 1.4-3.4-.8-5-1.1-.8-2-1.9-2-2.4s.8-.2 1.8.7c1.6 1.5 1.9 1.5 1.9.2 0-.8-.2-1.3-.5-1-.2.2-1.1-.2-1.8-1-.8-.7-1.9-1.5-2.5-1.7-.6-.2-1.2-2-1.3-4 0-2-.5-4-1-4.5-.5-.4-.6-.3-.2.4.3.6.2 1.4-.3 1.7-.5.4-.8-.2-.6-1.1.2-1 .4-2.2.4-2.6.1-.5.6-.5 1.3-.1.7.4.8.3.4-.5-.5-.8-1.2-.9-2-.2s-1.6.4-2.5-1.1c-1.1-1.7-1-2.2.1-2.9 1-.7.9-.9-.5-.9-1.5 0-1.6-.3-.6-2.3 1.2-2.1 1.1-2.1-.6-.7-1.1.9-1.6 1-1.1.2.4-.7.2-1.2-.6-1.3-.7 0-.4-.4.7-.9 1.8-.8 1.8-.9-.5-1-1.4-.2-2.9-.2-3.4-.1s-.4-.5.4-1.3c1.1-1.5.7-2-1.3-1.7-.5.1-.6-.3-.2-.9.3-.5.1-2-.5-3.2-1.1-2.2-1-2.2.4-.4.9 1.1 1.8 1.7 2 1.5.3-.3-.6-1.8-1.9-3.3-2.7-3.2-3.3-4.5-1.2-2.7 1 .8 1.4.7 1.4-.4 0-.7-.3-1.4-.6-1.3-2.1.2-3-.4-2.5-1.7.4-.8.3-1.5 0-1.5s-.6.5-.6 1.1zm-8 12.3c0 .3-.4.8-1 1.1-.5.3-1 .1-1-.4 0-.6.5-1.1 1-1.1.6 0 1 .2 1 .4zm-3.3 7.1c0 .8-.4 1.2-.9.9-.5-.3-.6-1-.3-1.5.9-1.3 1.2-1.1 1.2.6zM58 288.7c0 .8.5 1.1 1.2.7.7-.4.8-.3.4.5-.4.6-1.1.9-1.5.7-.4-.3-.8.1-.8.9 0 1 .5 1.1 1.7.5 1.2-.6 1.7-.5 1.7.5 0 .8-.5 1.1-1 .8-.5-.3-.7 0-.5.8.3.8 1 1.3 1.5 1.2.5-.1 1 .4 1 1.2 0 .7-.5 1.2-1.1 1.1-.6-.2-.8-.1-.3.1.4.3.7 1.2.7 2.1.1 1.2.5 1 1.5-.8l1.5-2.5-.6 3c-.4 2.3-.3 2.6.5 1.5.6-.8 1.1-1 1.1-.4s-.3 1.4-.7 1.8c-1.1 1-1.2 3.7-.2 3 .5-.3.9 0 .9.7s.3.9.6.6c.4-.4.2-1.3-.4-2-.9-1-.8-1.4.2-1.4 1.5 0 1.5 2.6 0 6.2-.7 1.8-.6 1.9.9.6 1-.8 2-1.1 2.4-.7.3.3 0 .6-.7.6-1.1 0-1.1.2.1 1.2.8.7 1.3 1.2 1 1.1-.2-.1-1.2.8-2.3 2-1.1 1.2-1.7 1.7-1.4 1.1.3-.7-.8-1-3.2-.8-2 .2-3.9.4-4.2.5-.3.1-.9.1-1.4 0-.5-.1-1.3.4-1.8 1.1-.7 1-.8 1-.6-.2.4-1.9-.4-2.1-4.2-1.4-1.6.4-2.7 1-2.4 1.5.9 1.6-.3 1-1.7-.8-1.2-1.4-1.2-1.6 0-.8.9.5 1.2.4.7-.3-.4-.6-1.3-.9-2.1-.5-1 .3-1.5-.1-1.5-1.2 0-1-.5-1.3-1.2-.9s-.8.3-.4-.4 1.4-1.2 2.2-1.2c1.2 0 1.2-.4.4-2-1-1.8-.7-2.4 1.3-2.1.4 0 .7-.6.7-1.4 0-1.3 1.2-1.9 3.2-1.6.4 0 .5-.6.2-1.4-.4-.8-1.1-1.5-1.8-1.5-.6 0-.4-.5.4-1 1.3-.9 1.3-1.1 0-2.1-1.2-.9-1.1-1 .5-.6 1.1.2 2.7-.3 3.4-1.1 1.2-1.2 1.1-1.3-1-.7-1.8.5-2.1.4-.9-.4 1.3-1 1.3-1.1 0-1.1-1-.1-.7-.5.8-1.3 1.2-.7 1.9-1.6 1.5-2.1-.4-.4.1-.4 1.1 0 1.3.5 1.7.4 1.2-.4s-.1-1 1.1-.5c1.6.6 1.6.5.4-1-1.2-1.5-1.2-1.7.3-1.1.9.3 1.6 1.3 1.6 2.1zm-38.2 27.8c-.3.3-.9-.2-1.2-1.2-.6-1.4-.5-1.5.5-.6.7.7 1 1.5.7 1.8zm34.2-2c0 .2-1 .9-2.2 1.5-2.2 1.1-2.2 1-.4-.4 2.1-1.7 2.6-1.9 2.6-1.1zm6.5 1.4c.3.5.2 1.2-.3 1.5-.5.3-.9-.1-.9-.9 0-1.7.3-1.9 1.2-.6zm38.9 16.9c.3.5-.1.9-.9.9s-1.2-.4-.9-.9c.3-.4.7-.8.9-.8.2 0 .6.4.9.8zM34 334.4c0 1.1-1.9 1.5-2.5.6-.3-.5.1-1 .9-1 .9 0 1.6.2 1.6.4zm76 20c0 .2-.7.7-1.6 1-.8.3-1.2.2-.9-.4.6-1 2.5-1.4 2.5-.6zM4.6 356.2c.3.4-.1.5-1 .4-.8-.1-1.8-.5-2.2-.8-.3-.4.1-.5 1-.4.8.1 1.8.5 2.2.8zm9.8 8.4c.3.8.2 1.2-.4.9-.6-.3-1-1-1-1.6 0-1.4.7-1.1 1.4.7z"/><path d="M52.2 291.9c-1.1.6-.9.9.6 1.3s1.9.2 1.5-.8c-.6-1.6-.4-1.6-2.1-.5zM47 306c0 .5.5 1 1.1 1 .5 0 .7-.5.4-1-.3-.6-.8-1-1.1-1-.2 0-.4.4-.4 1zm174.5-61.3c-1.5 3.4-1.3 4.1 1.1 3.8 1.5-.1 2.4.3 2.4 1.1s.4 1.4 1 1.4c.5 0 .7-.8.3-1.8-.4-1.3-.2-1.3 1 .3.8 1.1 1.4 2.3 1.3 2.6 0 .3.5 1.3 1.2 2.1.7.9.9 2.4.5 3.4-.6 1.7-.5 1.7.8.4.8-.8 2.1-2.4 2.9-3.4 1.4-1.8 1.3-1.8-1-1.1-2.2.6-2.3.6-.8-.6 1.5-1.3 1.6-1.6.2-3.9l-1.5-2.5.6 2.5c.4 1.7.3 2.1-.3 1.2-.5-.8-1.3-1.3-1.8-1.2-.5.1-1-.4-1.2-1.2-.2-.9 0-.8.8.2 1 1.3 1.1 1.3.7 0-.2-.8-1.1-1.5-1.9-1.4-.8.1-1.5-.4-1.5-1.1 0-.7.8-1 1.9-.7 1 .2 1.8 0 1.8-.4 0-.5-1.8-1-3.9-1.2-2.9-.2-4.1.2-4.6 1.5zm2.3.7c-1 .7-1.4 1.7-1 2.1.4.5.1.5-.7 0-1.2-.7-1.1-1 .4-2.2 2.4-1.7 3.6-1.7 1.3.1zm121.5.1c0 .8.4 1.2.9.9.5-.3.6-1 .3-1.5-.9-1.3-1.2-1.1-1.2.6zm-14.3 1.9c0 .2.7.7 1.6 1 .8.3 1.2.2.9-.4-.6-1-2.5-1.4-2.5-.6zm146.3.4c.5.6-.8 1.3-3.3 1.7-2.2.4-3.8 1.1-3.5 1.5.3.5 0 1.2-.6 1.6-.8.4-.9.3-.5-.4.5-.8-.1-1.2-1.4-1.2-1.4 0-1.9-.4-1.4-1.3.4-.7.3-.9-.2-.4s-1 1.3-1 1.8c-.1.5-.2 1.4-.3 2 0 .5-.7.7-1.3.3-.7-.4-1-.4-.6.1.4.4.3 1.4-.2 2-.7.8-.4 1.9.9 3.4 1.1 1.2 1.8 3.1 1.6 4.2-.2 1 .1 1.9.7 1.9s.8.3.5.6c-.4.4-1.9-.1-3.4-1.1-2.7-1.8-2.8-1.8-1.3.1.8 1 1.9 2.2 2.3 2.5.5.3.9 1.2 1 2 .2.8.6 1.9 1 2.6.4.6.2 1.5-.3 1.8-.7.5-.5 1.2.7 2.1 1.3 1 1.3 1.2.3.9-1.2-.4-1.6.3-1.7 3 0 2.1.3 3.2 1 2.8.5-.3.7-.2.4.4-.4.6-1.8.9-3.2.8-1.4-.2-2.3.1-2 .5.3.5 1.2.7 2 .3.8-.3 1.5 0 1.5.7 0 .6.5.8 1.2.4.8-.5.8-.3.2.7-1.3 2-1.4 9-.1 8.2.5-.3.7-.2.4.4-.4.6-1.8.9-3.2.8-1.4-.2-2.3.1-2 .5.3.5 1.2.7 2 .3.8-.3 1.5 0 1.5.7 0 .6.5.8 1.3.4.9-.6.9-.4.1.7-1.5 2-1.5 6.2-.1 7.1.9.6.9.8 0 .8-.7 0-2.2-1-3.4-2.3l-2.1-2.2 1.2 2.5c.7 1.3 1.9 3 2.6 3.7.7.7 1.1 2.2.9 3.3-.2 1.1.1 2 .7 2s.9.2.6.5c-.8.8-3.8-.6-3.8-1.7 0-.5.4-.7.8-.4.5.3.9-.1.9-.9 0-2-1.3-1.9-2.1.1-.8 2.1-.9 1.8 1.3 4.3 1.1 1.2 1.8 3.1 1.6 4.2-.2 1 .1 1.9.7 1.9s.9.2.6.5c-.8.8-3.8-.6-3.8-1.7 0-.5.4-.7.8-.4.5.3.9-.1.9-.9 0-2-1.3-1.9-2.1.1-.8 2.1-.9 1.8 1.3 4.3 1.1 1.2 1.8 3.1 1.6 4.2-.2 1 .1 1.9.7 1.9s.9.2.6.5c-.8.8-3.8-.6-3.8-1.7 0-.5.4-.7.8-.4.5.3.9-.1.9-.9 0-2-1.3-1.9-2.1.1-.8 2.1-.8 2 1 3.8.9.9 1.7 2.2 1.8 2.9.1.6.5 1.7.9 2.4.4.6.2 1.5-.3 1.8-.7.5-.5 1.2.7 2.1 1.3 1 1.3 1.2.3.9-1.2-.4-1.6.3-1.7 3 0 2.1.3 3.2 1 2.8.5-.3.7-.2.4.4-.4.6-1.8.9-3.2.8-1.4-.2-2.3.1-2 .5.3.5 1.2.7 2 .3.8-.3 1.5 0 1.5.7 0 .6.5.8 1.2.4.8-.5.8-.3.2.7-.5.8-1 2.5-1 3.9-.1 1.4-.2 3-.3 3.7 0 .6-.9 1.4-1.8 1.6-1.7.4-1.7.5 0 .6 1.9.1 2.4 3.1.5 3.1-.9 0-.8.4.2 1 2 1.3 3 1.2 3-.1 0-.5-.6-.7-1.2-.3-.7.4-.9.3-.5-.1 1.4-1.6 3.6-1.4 3 .3-.4.9-.2 1.3.4.9.6-.4 1.8.2 2.7 1.2 1.3 1.5 1.4 1.8.1 1.8-.8 0-1.1-.5-.8-1 .4-.6.1-.7-.7-.2-.8.5-1.1.4-.6-.3.4-.7-.1-.9-1.5-.7-2.8.6-4.1 1.8-1.4 1.3 1.1-.1 1.9.2 1.8.8-.1.7 1 1 2.7.9 1.7-.1 3 .2 3 .9 0 .6.5.4 1-.4.7-1.1.5-1.8-.6-2.7-1.3-1-1-1.1 1.8-.9 2.4.2 3.3.7 3.3 2.1 0 1 .6 1.9 1.3 2.1.7.1.8 0 .2-.3-1.5-.7-1.2-2.3.4-2.3.8 0 1.6.7 2 1.5.3.8 1.1 1.5 1.8 1.5 1.1 0 1.1-.2 0-.8-.7-.5-1.4-1.9-1.7-3.1-.4-2-.2-2.1 1.1-1 .9.7 2.6 1.5 3.7 1.6 1.2.2 2.5 1 3 1.8.4.8 1.3 1.5 2 1.5.9 0 .9-.2-.1-.8-.7-.5-1.4-1.9-1.7-3.1-.4-2.1-.3-2.2 1.3-.9 2 1.7 4.8 1.7 4.4 0-.1-.9.5-.8 2.1.3 1.3.8 2.7 1.2 3.1.8 1-1 3.7-1.3 3.1-.3-.3.5.1 1.1.7 1.3.7.3-.6.4-3 .2-3.5-.4-4-.2-3 .9.7.8 1.5 1.1 1.8.7.3-.4 1.6-.7 3-.6 1.8 0 2.5-.5 2.4-1.8-.1-.9.2-1.7.7-1.7.5 0 .9.6.9 1.4 0 .8.4 1.8 1 2.1.6.4.7-.1.3-1.2-.7-1.7-.6-1.7 1.8-.1 2 1.3 2.6 1.3 2.6.3 0-.8-.5-1.1-1-.8-.6.3-.7.1-.3-.6.4-.6 1.1-.9 1.6-.6.5.3 1.1.1 1.5-.5.4-.6 1.1-.8 1.6-.5.5.4.9.1.9-.4 0-.6.5-1.1 1.1-1.1.8 0 .8.4-.1 1.5-.6.8-1.7 1.3-2.3 1.2-.7-.1-1.2.4-1.2 1.2 0 .8.6 1.5 1.3 1.7.7.1.8 0 .2-.3-1.8-.9-1.1-2.2 1-1.8 1.1.2 1.8 0 1.5-.5-.3-.5.4-1.1 1.5-1.5 1.1-.4 1.8-1.1 1.5-1.6-.4-.5.3-.5 1.8 0 1.4.6 2.8.7 3.1.4.3-.4.6 0 .6.8.1 1 .4.9 1.1-.4.6-.9 1.4-1.5 1.9-1.2.4.3 1.1-.2 1.4-1.1.3-.8 1-1.3 1.5-1 .5.3.7-.3.4-1.4-.3-1.2 0-2 .6-2 .7 0 .9.4.6 1-.3.6.1.7.9.4.9-.3 1.3-1 1-1.5-.3-.5.2-.6 1-.3 1.6.6 2.3-1 .9-1.9-.5-.2-.2-.2.5-.1.6.2 1.2 0 1.2-.5 0-.4.7-.8 1.5-.8s1.5.5 1.5 1c0 .6.2.8.5.5 1-.9-.7-3.8-1.8-3.1-.6.3-.7.1-.3-.5.5-.8 1.5-.8 3.3-.1 2.2.8 2.4.7 1.4-.4-.9-1.1-.8-1.7.4-2.7.8-.7 1.3-1.6 1-2-.3-.4.2-1.1 1-1.4 1.3-.5 1.3-.2 0 2.7-1.4 2.7-1.4 2.9-.1 1.2.9-1.1 1.9-2.5 2.3-3 .5-.6.8-2.4.7-4-.1-1.7 0-2.4.3-1.8.2.7 1.2 1.3 2.1 1.3 1.4 0 1.4-.2.3-.9-1.1-.7-1-1 .5-1.3 1.4-.2 1.9-1.2 1.9-3.8 0-2.6.5-3.5 1.6-3.4 1.1.1 1.5-.5 1.2-1.7-.3-1.1.1-2.1 1.1-2.5 1.4-.5 1.6-3.1 1.6-19.6v-19l-2.7.6c-1.6.3-2.2.3-1.5 0 1.9-.9 1.4-2.7-.5-2-1.6.5-1.6.4.1-.8 1.6-1.3 1.6-1.7.4-3.5-.8-1.2-1.8-1.8-2.3-1.3-.4.4-.5-.5-.1-2.1.5-2.3.3-2.7-1.5-2.7-1.5 0-1.9-.4-1.5-1.6.4-.9.2-1.3-.5-.8-.8.4-.9-.1-.4-1.7.7-2.2.6-2.3-.7-.6-1.3 1.8-1.4 1.7-1.6-.2-.4-4.4-.6-5.1-1.5-5.1-.5 0-.7.7-.4 1.4.4 1 .1 1.3-.8.9-.8-.3-1.2-.9-.9-1.4.3-.5-.2-.9-1-.9-.9 0-1.6-.4-1.6-.9s1-.7 2.3-.4c2.1.4 2 .4-.3-.9-1.4-.8-2.4-2-2.2-2.7.1-.7-.2-1-.7-.7-.5.4-1.3.1-1.7-.5-.5-.9-1.1-.7-2.1.6-1 1.5-1.3 1.5-1.3.4 0-.8.6-2.1 1.3-2.8 1-1 .9-1.1-.5-.6-1 .4-1.8 1.2-1.8 1.9 0 .6-.4.5-.9-.4-.6-.8-.7-1.9-.4-2.5.2-.5-.5.1-1.7 1.5-2 2.3-2.1 2.3-1 .2 1.1-2.3.6-4.2-1.1-4.2-.5 0-.9.5-.9 1.1 0 .5.5.7 1.2.3.7-.4.8-.3.4.4-1 1.6-2.6 1.5-2.6-.2 0-.8-.7-1.7-1.6-2-2.3-.9-2.6-.8-1.8.6.5 1 .4 1-.6.1-.7-.6-1.9-.9-2.8-.5-1.1.4-1.4.1-.9-1.1.8-2.1-1.1-3.3-2.6-1.8-.9.9-.8 1.1.3.8.8-.2 1.2-.2.7 0-.4.3-.5.9-.2 1.4.4.5-.1.6-.9.3-1.4-.5-2.1-2.4-1.7-4.7 0-.4-.3-.7-.9-.7-.5 0-.9 1-.7 2.1.1 1.6-.4 2.2-2 2.4-1.4.1-1.9-.3-1.6-1.2.4-1 .9-1.1 1.9-.2 1 .8 1.4.8 1.4 0 0-.6-.5-1.1-1.1-1.1-.6 0-.7-.6-.2-1.3.4-.6-.6-.4-2.1.7-1.6 1-2.5 1.3-2.1.7.4-.8-.3-1-2.4-.6s-3.3 0-3.9-1.1c-.8-1.5-1-1.5-1.5 0-.4.9-1.2 1.6-1.8 1.6-.9 0-.9-.4 0-1.4.9-1.1.9-1.6 0-2.2-.7-.4-.9-.3-.6.3.8 1.3-4.6 2.5-7 1.6-1.2-.5-1.4-.3-.8.8.5.8-.2.5-1.5-.6l-2.3-2 1.3 2.5c1.3 2.5 1.3 2.5-.8.6-1.9-1.6-2.4-1.7-3.9-.5-1.5 1.3-1.6 1.2-.9-.6.6-1.6.5-1.7-.5-.8-.9.9-1.7.9-3.3.1-1.8-.9-1.9-.9-.9.3.9 1.1.7 1.4-1.3 1.5-1.9.2-2.2-.1-1.4-1.1.8-1 .8-1.5-.1-2.1-.7-.4-.9-.3-.6.4zm-1.8 3.2c-.3.5-1.2 1-1.8 1-.7 0-.6-.4.3-1 1.9-1.2 2.3-1.2 1.5 0zm13.2.5c0 .8-.4 1.2-.9.9-.5-.3-.6-1-.3-1.5.9-1.3 1.2-1.1 1.2.6zm10.8-.5c-.3.5-1.2 1-1.8 1-.7 0-.6-.4.3-1 1.9-1.2 2.3-1.2 1.5 0zm5.5 1c0 .5-.5 1-1.1 1-.5 0-.7-.5-.4-1 .3-.6.8-1 1.1-1 .2 0 .4.4.4 1zm-37.7 4c-.9 1-2.2 1.6-3 1.3-1.8-.7-.1-2.8 2.6-3 1.8-.2 1.8 0 .4 1.7zm76.1 6.9c1.3 1.4 1.4 2.1.5 2.7-.8.4-1 .3-.5-.5.4-.6 0-1.4-.8-1.7-.9-.3-1.6-1-1.6-1.5 0-1.3.5-1.1 2.4 1zm-49.8 5c.9-.7 1.4-.7 1.4-.1 0 1.2 1.8 1.1 3.9-.2.9-.6 1.2-.5.7.2-.3.6-.2 1.3.4 1.7.5.3 1 1.1 1 1.6 0 .6-.5.7-1.2.3-.7-.4-.8-.3-.4.5 1.1 1.7 2.8.2 2.1-1.9-.5-1.6-.2-1.8 1.9-1.4 1.4.2 2.8 0 3.1-.6.8-1.3 2.5-.3 2.5 1.3 0 .8-.3.8-.9-.1-.6-1-1-1-2 .2-.9 1.1-.9 1.6 0 2.2.8.5.9.3.4-.6-.6-1-.4-1.2.8-.7 1 .4 2.1-.1 2.7-1.1.9-1.4 1-1.1.5 1.3-.3 1.6-.2 2.5.2 2 .4-.6 1.7-1.2 2.8-1.3 1.1-.2 2.5-.8 3.1-1.3.8-.6 1-.2.9 1.6-.4 2.9-.2 3 1.9.9 1.5-1.4 1.6-1.3 1.6.6 0 1.2.4 1.8 1 1.5.6-.4.8-1.2.4-1.8-.3-.7 0-.5.8.4.7.9 2.2 1.5 3.3 1.3 2-.3 2-.3.1 1.2-2.3 1.6-1.4 1.9 1.4.4 1.5-.8 1.7-.6 1.3.9-.4 1.5-.1 1.9 1.4 1.5 1.1-.3 2.5.2 3.3 1.1 1.2 1.4 1.2 2 0 3.8-1.1 1.9-1.1 2 .1 1.1 1.6-1.3 5.1-1.5 4.3-.2-.3.5-.9.6-1.4.3-.5-.3-1.1-.1-1.5.4-.3.6.3.8 1.4.6 1.1-.2 2.5.3 3.2 1.1.6.8.8 1.4.4 1.4s-.3.6.3 1.2c.6.7 1.2 1.7 1.4 2.3.1.5.6.9.9.8.4-.1.5.7.2 1.7-.4 1.6-.2 1.9 1.3 1.4 1.7-.6 1.7-.5-.1 1-2 1.7-2 1.7.5 1.1 1.8-.5 2.1-.4 1.1.4-1.3.8-1.3 1.2 0 2.7.9 1.1.9 1.5.2 1-1.6-.9-1.8 3.5-.2 5.1.8.8.7 1.3-.2 1.8-.8.6-1 .4-.4-.6.5-.8.4-1.1 0-.6-1.1.9-1.4 4.8-.4 4.2.4-.3.9.1 1.2.9.4 1-.1 1.2-1.6.9-2-.4-2-.3-.4.7 1.4.9 1.6 1.5.6 2.6-.9 1.1-.8 1.8.2 3.1 1.2 1.5 1.2 1.6-.3 1-1-.3-2-.1-2.4.5-.4.6-.3.8.4.4.6-.3 1.3-.2 1.7.4.3.6-.4 1-1.7 1l-2.3.1 2.5 1.4c2.5 1.4 2.5 1.4-1 .9-2-.3-3-.2-2.4.3.6.4 1.1 1.6 1.1 2.7 0 1.8-.1 1.8-1.4 0-1.6-2.2-1.7-1.1-.2 1.8.9 1.6.8 1.9-.2 1.3-.9-.6-1.1-.3-.6.8.7 1.9-.8 3.2-1.9 1.6-.5-.8-.3-.9.6-.4.9.5 1.1.4.6-.4-.6-.9-1.1-.9-2.2 0-1 .8-1.1 1.5-.4 2.4.7.9.5 1.6-.7 2.6-1.1.9-1.4 1-.9.1.4-.7.1-1.2-.8-1.2-1 0-1.3.6-.9 1.6.5 1.4.3 1.5-1.4.6-1.5-.9-2-.8-2 .3 0 .8.3 1.2.7 1 .4-.2.7.2.7.9 0 .8-.8 1.1-1.9.8-1-.2-1.8-.1-1.6.4.2.5 0 .9-.3.9-.4 0-1.7.9-2.9 2s-2.1 1.5-2 1c.4-1.9 0-3.5-.9-3.5-.5 0-.8.8-.7 1.7 0 1-.4 1.8-1.1 1.8-.6 0-1.4.3-1.8.7-.4.4-1.4.4-2.3.1-1-.4-1.3-.2-.8.5 1.1 1.8 0 1.4-1.5-.6-.7-.9-.9-1.4-.5-1 .5.4 1.5.3 2.3-.3 1-.9 1.3-.8 1.3.1s.3 1 1.3.1c.8-.6 1.8-.7 2.2-.3.5.4.5.1.1-.6s-1.2-1-1.7-.6c-.5.3-1.7 0-2.5-.7-1.2-1-1.5-1-1.2.2.2.8-.3 1.3-1 1.1-.8-.1-1.6.6-1.9 1.7-.4 1.5-1.1 1.8-3.1 1.5-2.3-.5-2.4-.3-1.1 1.2 1.3 1.6 1.2 1.6-1.1.3-2.8-1.6-4.1-3-3.5-3.9.2-.4-.2-.7-1-.7-1.1 0-1.2.4-.3 1.4.6.7.7 1.7.3 2.1-.4.4-1 .1-1.2-.6-.4-1-.8-.9-1.7.3-1.1 1.5-1.3 1.5-2.5.1-.8-.9-.9-1.6-.3-1.6.6 0 1.2.6 1.4 1.2.3.7.7.3 1-.8.4-1.7.2-2-1.3-1.7-2.7.7-3.3 2.1-1.7 4.1 1.1 1.5 1.1 1.5-.3.5-.9-.7-2-.9-2.4-.5-.5.4-.5.1 0-.7.6-1 .2-1.2-1.4-.6-1.3.4-2.1.2-2.1-.5 0-.6.4-.9.9-.5.5.3 1.3.1 1.6-.5.4-.6.1-.9-.7-.8-.7.2-1.2-.3-1-1.1.3-1.2 0-1.2-1.3-.1-.8.7-1.8 1-2.2.7-.3-.4-1.3-.1-2.2.6-1.4 1.1-1.4 1-.2-.5.7-1 1.7-1.5 2.2-1.2.5.3.9 0 .9-.5 0-.6-.4-1.1-.9-1.1-1.5 0-2.4-4.1-1.3-5.2.8-.8.9-.5.6.9-.3 1.2-.2 2.3.3 2.6.5.3.8-.7.7-2.1-.1-1.9-.6-2.7-1.8-2.5-1 0-1.5-.2-1.2-.5.3-.3.1-1.1-.5-1.9-.9-.9-.8-1.3 0-1.3.6 0 1-.5.9-1.1-.2-.6.4-1.4 1.2-1.6.9-.3 1.1-.1.5.4-.5.4-1.1 1.6-1.3 2.5-.3 2 2.3 2.5 3.4.6.4-.7.3-.8-.4-.4s-1.2.1-1.2-.8.5-1.6 1-1.6c1.6 0 1.2-1.6-.5-1.8-.8-.1-2.1-.3-2.9-.4-2.1-.2-1.2-3.3 1.2-3.6 1.1-.2 2.3-1 2.6-1.8.3-.8.2-1.2-.4-.9-1.1.7-5.1-3.5-4.4-4.7.3-.4 1.3-.8 2.4-.8 1 0 2.1-.7 2.4-1.6.3-.8.2-1.3-.2-1-1.1.7-2.5-.5-4.1-3.4-1.3-2.3-1.3-2.4.3-1.1 1.6 1.3 1.7 1.2 1.1-1.1-.4-1.4-.2-2.9.3-3.2.6-.3.8.2.5 1.3-.3 1-.1 2.1.4 2.4.4.3.8-1.4.8-3.8.1-2.4-.3-4.1-.7-3.9-.5.3-.5 1-.2 1.6.4.7.2.8-.4.4-.7-.4-1.2-.2-1.2.5s-.3.9-.6.6c-.4-.4-.1-1.4.6-2.2 1-1.2 1-2.1.1-4.1-.7-1.6-.7-2.3-.1-1.9.7.4.9-.3.6-1.9-.3-1.4 0-2.8.5-3.2.5-.3.7-1.5.3-2.6-.4-1.3-.2-1.8.4-1.4.6.3 1.3.3 1.6-.2.2-.4-.7-.9-2-1-1.7-.1-2.3.2-1.8 1 .4.7.3.8-.5.4-1.5-1-.4-2.6 1.9-2.6 1 0 2.1-.7 2.4-1.6.3-.8.2-1.3-.2-1-1.1.7-2.5-.5-4-3.4l-1.3-2.5 2 2.2c1 1.3 2.2 2.3 2.5 2.3 1 0-.7-3.5-2.3-4.8-1.4-1.1-1.4-1.1.2-.6 1.9.7 2.4-1.1.5-2-.7-.4-.3-.4.9-.2 1.3.2 2.6 0 2.9-.5.3-.5 1-.7 1.5-.4 1.5 1 1-.2-.8-1.6-1.4-1.2-1.6-1.2-.8 0 .6 1 .4 1.2-.5.6s-1.1-.4-.5.5c.5.9.4 1.1-.3.6-.9-.5-.7-1.4.4-3.1 1.3-2 2-2.3 3.6-1.4 1.4.7 2.3.7 3.4-.2zm65.9 16.1c.3.5.1 1-.4 1-.6 0-1.1-.5-1.1-1 0-.6.2-1 .4-1 .3 0 .8.4 1.1 1zm-76 6c.3.5.1 1-.4 1-.6 0-1.1-.5-1.1-1 0-.6.2-1 .4-1 .3 0 .8.4 1.1 1zm79.1 2c0 1.2-.4 1.6-.9 1.1s-.6-1.4-.3-2c1-1.5 1.2-1.4 1.2.9zm-16.1 26c.3.5.1 1-.4 1-.6 0-1.1-.5-1.1-1 0-.6.2-1 .4-1 .3 0 .8.4 1.1 1zm10.9 18.6c.3.8.2 1.2-.4.9-.6-.3-1-1-1-1.6 0-1.4.7-1.1 1.4.7zm-74.6 6.9c-.3.3-.9-.2-1.2-1.2-.6-1.4-.5-1.5.5-.6.7.7 1 1.5.7 1.8zm3.6 4.3c.3.5-.1.9-.9.9s-1.2-.4-.9-.9c.3-.4.7-.8.9-.8.2 0 .6.4.9.8zm-19.7 11.7c0 .8-.4 1.2-.9.9-.5-.3-.6-1-.3-1.5.9-1.3 1.2-1.1 1.2.6zm64.6 2c-1 .7-2 1.2-2.1 1-.7-.7 2.3-3.3 3.1-2.8.5.3 0 1.1-1 1.8z"/><path d="M488.4 268.9c.4.6 1.6 1.6 2.8 2.2 1.5.8 1.8.8 1.4 0-.4-.6-1.6-1.6-2.8-2.2-1.5-.8-1.8-.8-1.4 0zm5.2 1.2c.3.5 1.4.7 2.4.6 3.1-.5 3.1-1.2-.1-1.3-1.6-.1-2.6.2-2.3.7zm36.9 9.9c-.4.6.1.7 1.1.3 1.3-.5 1.5-.3.9.7-.5.9-.4 1.1.4.6.6-.4.9-1.2.6-1.7-.8-1.2-2.2-1.2-3 .1zm8.1 9.8c-.3.5.1.9.9.9s1.2-.4.9-.9c-.3-.4-.7-.8-.9-.8-.2 0-.6.4-.9.8zm-54.1 5.7c0 1.8.2 3.6.5 3.9.3.3.6-.7.5-2.2 0-1.5.3-3 .8-3.3.5-.3.2-.9-.5-1.1-1-.4-1.4.3-1.3 2.7zm55.2-2.4c.7.7 1.5 1 1.8.7.3-.3-.2-.9-1.2-1.2-1.4-.6-1.5-.5-.6.5zM484 312.2c0 .4.4.8.9.8.6 0 1.2-.4 1.5-.8.3-.5-.1-.9-.9-.9s-1.5.4-1.5.9zm-.9 7.4c1.4 1.7 2.5 1.8 3.2.1.3-.7-.5-1.3-2-1.3-1.9-.2-2.2.1-1.2 1.2zm56.4.3c-.3.5-.2 1.2.3 1.5.5.3.9-.1.9-.9 0-1.7-.3-1.9-1.2-.6zm-57.1 7c.4.5 1.3.8 2.1.7 2.5-.4 2.5-1.2-.1-1.4-1.4-.1-2.3.2-2 .7zm21.2 18.7c-.8 2-.8 2.4.2 2.4.4 0 .8-.9.9-2 .2-2.4-.3-2.6-1.1-.4zm2.8.4c.2 1.6 2 1.4 2.4-.2.3-1 .2-1-.6.1-.7.9-1.1 1-1.5.2-.4-.7-.5-.8-.3-.1zm.7-97.4c0 1.1.3 1.4.6.6.3-.7.2-1.6-.1-1.9-.3-.4-.6.2-.5 1.3zm-279.9 5.5c.1 1.9.3 2.8.5 2.1.3-.6 1-.9 1.6-.5.7.4.5-.1-.3-1.2-.8-1-1.3-2-1.2-2.2.2-.3.1-.7-.2-1-.2-.3-.4 1-.4 2.8zm8.4-1.9c.3.4-.4 2.1-1.5 3.6-1.4 2.1-1.7 3.2-.9 4.3.8 1.1.9 1 .4-.6-.5-1.7-.4-1.8.6-.5.7.8 2.1 2.1 3.1 2.9 1.5 1.2 1.7 1.2 1.1-.4-.5-1.3-.4-1.6.5-1 1 .6 1.1.3.2-1.4-.7-1.2-.8-2-.4-1.9.4.2.8-.2.8-.7 0-.6-.5-.9-1.1-.7-.8.1-1.1-.7-1-2.1.2-1.4-.2-2.4-1-2.4-.7 0-1.1.4-.8.9zm.4 3.8c-.6 1.1-1.3 2-1.6 2-.2 0 0-.9.6-2s1.3-2 1.6-2c.2 0 0 .9-.6 2zm92.4-3.3c.4.7.2 2.1-.4 3-1.1 1.6-1.1 1.6-.6.1.7-2.3-.9-3.1-2.4-1.3-1.9 2.3-2.1 6.3-.3 6.9.8.3 1.2 1 .8 1.5-.3.5-.1 1.3.5 1.6.6.4.9.1.8-.7-.2-.7.5-1.3 1.4-1.3.9 0 2-.4 2.5-.9.4-.5.3-.6-.4-.2-.7.4-1.3.2-1.3-.4 0-.6-.4-.9-.8-.6-.5.3-.9-.1-.9-.9 0-1 .5-1.1 1.9-.4 1.6.9 1.8.6 1.6-2.1-.1-1.7-.9-3.7-1.7-4.3-1.2-.9-1.3-.9-.7 0zm-2.1 2.8c-.3.9-.8 1.4-1 1.1-.3-.3-.2-.9.2-1.5.9-1.6 1.5-1.3.8.4zm-.3 4.5c.6 1.1.8 2 .6 2-.3 0-1-.9-1.6-2-.6-1.1-.8-2-.6-2 .3 0 1 .9 1.6 2zm-263.4-4.8c.3.5 1 .6 1.5.3 1.3-.9 1.1-1.2-.6-1.2-.8 0-1.2.4-.9.9zm2 1.4c-1.1.8-1.6 1.4-1 1.4 1.3 0 3.9-1.8 3.4-2.4-.3-.2-1.4.2-2.4 1zM463 262c1.3 2.4 1.7 2.5 1.7.5 0-.8-.6-1.6-1.4-1.9-1.1-.4-1.1-.1-.3 1.4zm-393.9 4.9c-.8.5-.9 1.1-.3 1.5.5.3 1.2-.1 1.6-.9.6-1.7.6-1.8-1.3-.6zm393.5 3.7c-.9 2.4-.7 3.1.4 1.4.8-1.3 1-1.2 1 .2 0 1-.6 1.8-1.2 1.8-.9 0-.9.3-.2.8.5.4.9 2.2.8 4 0 1.8.1 3 .5 2.7.3-.3.6-2 .6-3.8 0-1.8.4-3.7.8-4.4.4-.6.3-1.4-.3-1.8-.6-.4-.8-1.1-.5-1.6.4-.5.2-.9-.3-.9-.6 0-1.3.7-1.6 1.6zM279 275c-1.4 1.9-3.7 3-2.6 1.2.3-.5-.1-.9-.8-.9-.7 0-1.3.6-1.3 1.3 0 .7.4 1.1.8.8.4-.2 1 0 1.3.5.7 1-2 .9-3-.2-.4-.4-1.3-.2-2.1.4-1.6 1.4-1.8 4.3-.1 3.3.7-.4.8-.3.4.5-.4.6-1.2.9-1.7.6-.5-.4-.9.3-.9 1.4 0 1.1-.8 2.2-1.7 2.4-1.7.4-1.7.5 0 .6.9 0 1.7.6 1.7 1.2 0 .5-.4.8-.9.5-1.1-.7-.8 2.1.4 3.1.4.4.5.2 0-.6-.5-.9-.4-1.2.3-.7.7.4.8 1.7.2 3.5-.4 1.6-.6 3.1-.4 3.4.3.2-.3 1-1.3 1.8-1.1.9-1.4 1-.9.1.4-.7.2-1.2-.4-1.2-.7 0-1 1.3-.9 3.2.2 2.2-.1 3.2-.9 3-1.6-.3-1.5 1.1.1 2.7 1 1 .8 1.1-.7.5-1.6-.6-1.7-.5-.7 1.4.8 1.5.8 2.2.1 2.2-.5 0-1-.5-1-1.2 0-.6-.3-.8-.6-.5-1 1 1.7 3.8 2.9 3 .6-.3.7-.1.3.6-.4.6-1.1.9-1.6.6-.5-.3-1.1-.1-1.5.5-.3.5 0 1 .8 1 1.1 0 1.3.7.9 2.2-.3 1.4-.2 1.9.6 1.4.7-.4 1.2-.1 1.2.8s-.5 1.6-1.1 1.6c-.7 0 .1 1.2 1.6 2.6 2.7 2.5 2.9 2.5 4.1.9 1.2-1.6 1.3-1.5 1.1 1.1-.2 2.4.2 2.9 2.1 3 1.7.1 2.2-.3 1.8-1.5-.6-1.5-.5-1.5.7 0 1.6 2.1 5.7 3.4 5.7 1.9 0-.6-.4-.8-1-.5-.5.3-1 .2-1-.4 0-.5.9-.9 2-.8 1.5.1 1.9.6 1.5 2.2-.5 1.8-.5 1.8.5.2.6-.9 1.5-1.5 2-1.2.5.3 1.1.1 1.5-.5.3-.5 1.2-1 1.8-1 .7 0 .6.4-.3 1-.9.6-1 1-.3 1 .6 0 1.5-.5 1.8-1 1-1.6 2.8-1.1 2.1.6-.3.8-.2 1.3.3.9.5-.3 1.2.1 1.5.7.3.7.3.2 0-1.2s-.2-2 .3-1.4c.4.6 1.8 1 3 .9 1.4-.1 1.9.3 1.6 1.2-.4.9-.9 1-1.7.4-.8-.7-1.2-.4-1.3 1.2-.2 1.7 0 1.9.7.7.9-1.3 1-1.3 1.1 0 0 .9.4.7 1.1-.8.6-1.2 1.5-2.2 2-2.2.4 0 .8-.5.8-1.1 0-.5-.4-.8-.9-.4-.5.3-1.2.1-1.6-.5-.3-.5-.1-1 .6-1 1 0 1-.3.2-1.1-.6-.6-.9-1.8-.6-2.7.5-1.1.3-1.3-.7-.7-.8.5-1.1.4-.6-.3.3-.6 0-1.7-.7-2.4-1.8-1.6 0-3.6 2.8-3.1 1.6.3 1.6.2-.3-.7-1.5-.6-2.1-1.4-1.5-2.2.4-.7.8-1.8.9-2.3.2-1.4-3.4-1.7-4.1-.4-.4.5-1.1.7-1.6.3-.5-.3-.6-1.1-.2-1.7.4-.7 0-.7-1 .1-.9.8-2.2 1.1-2.9.7-.7-.4-.4 0 .6.9 1 .8 2.4 1.2 3 .9.6-.4.5.1-.3 1-1.5 1.8-2.6 2.3-1.6.7.3-.6.1-1-.4-1-.6 0-1.1.5-1.1 1.1 0 .6-.8.8-1.7.5-1.5-.5-1.5-.4.1.9 1.5 1.2 1.6 1.5.5 1.5-.9 0-1.6.7-1.6 1.5s.4 1.5.9 1.5c.4 0 .8.5.8 1.1 0 .8-.4.8-1.3 0-1-.8-1.7-.7-2.7.2-1 .9-1.1.9-.6-.1.4-.6.2-1.2-.3-1.2-.6 0-1.1.6-1.1 1.2 0 .9-.4.8-1-.2s-1-1.1-1-.3c0 .7-.5 1.3-1.1 1.3-.5 0-.7-.5-.4-1 .3-.6-.1-1-.9-1-.9 0-1.6.5-1.6 1.1 0 .5-.5.7-1.1.3-.8-.4-.4-1.1 1.1-1.9l2.2-1.2-2.2-.6c-2.1-.5-2.2-.8-1-2.4 1.2-1.5 1.2-1.6 0-.6-1.1 1-1.6.9-2.7-.5-.9-1.1-1.2-1.2-.7-.2.4.8 1.4 2.3 2.2 3.2 1 1.2 1.1 1.8.4 1.8-.7 0-1.2-.5-1.2-1.1 0-.5-.4-.8-.8-.5-.5.3-.9 0-1-.7-.7-6.6-.7-9.5 0-9.1.4.3 1.1-.2 1.4-1 .5-1.2 1.1-1.3 2.5-.6 1.5.8 1.7.7 1.3-.5-.7-1.8.7-2 2.3-.4.9.9 1.1.6.7-1.2-.5-1.9-.4-2.1.5-.9 1 1.4 1.6.7 1.2-1.3-.1-.5.3-.6.9-.2.6.3.8 1 .5 1.5-.3.4.2 1.4 1.1 2.1 1.2 1 1.5 1 1.2-.2-.2-.8.3-1.3 1.2-1.1.8.2 1.2 0 .7-.4-.4-.4.1-1.6 1-2.6 1.5-1.7 1.5-2 .3-2.8-1.1-.7-.7-.9 1.5-.7 1.7.1 3.4.6 3.8 1.2.5.6.7.3.3-.8-.3-.9 0-1.7.6-1.7.7 0 .3-.7-.8-1.6-1.8-1.5-1.8-1.5 0-1 1.6.6 1.7.4.6-.9-.7-.8-1.7-1.2-2.3-.8-.6.3-.7.1-.3-.6.4-.6 1.3-.8 1.9-.4.7.4.5-.2-.3-1.2-1.4-1.7-1.3-1.8.3-1.2.9.3 1.7.2 1.7-.3 0-.9-1.4-1.4-3.2-1.1-.4 0-.5-.8-.3-1.9.2-1.1 0-2.2-.6-2.5-.5-.4-.9-.1-.9.6s-.7.4-1.5-.7c-.8-1-1.4-2.6-1.4-3.4 0-1 .3-.8 1 .5l.9 2-.3-2c-.2-1.6-.9-1.9-3.3-1.8-2.3.2-3.3-.3-4-1.7l-.9-2.1-1.5 2.1zm1.1 2.3c-1 .9-1.1.8-.5-.6.3-1 .9-1.5 1.2-1.2.3.3 0 1.1-.7 1.8zM273 279c0 .5-.5 1-1.1 1-.5 0-.7-.5-.4-1 .3-.6.8-1 1.1-1 .2 0 .4.4.4 1zm7.9 6.7c1.2-.9 1.3-.9.7 0-.4.8-.2 1.3.4 1.3.7 0 1 .6.7 1.4-.4 1 .1 1.3 1.6 1 2.2-.4 2.2-.4-.1.5-1.2.6-3 .7-4 .4-1.4-.6-1.5-.4-.4.9 1 1.3 1 1.8.1 2.4-.7.4-.9.3-.5-.4.3-.6-.2-1.5-1.1-2.1-1-.6-1.4-1.1-.9-1.1.5 0 .3-.7-.4-1.5-.9-1.1-.9-1.5-.1-1.5.7 0 .9-.6.5-1.3-.5-.9-.4-.9.6 0 1.1 1 1.7 1 2.9 0zm5.1.7c-.7.7-1.3.7-2 0-.6-.6-.3-1 1-1s1.6.4 1 1zm6.3 8.9c-.5.8-.8.7-1.1-.1-.2-.7-.9-.9-1.4-.6-.7.4-.8.2-.4-.4.4-.6 1.3-.9 2.1-.6.8.4 1.2 1.1.8 1.7zm-4.3 3.2c0 .1-1.2 1.2-2.7 2.6-1.6 1.3-2.2 1.7-1.5.9 1.5-1.8 1.6-3.4 0-2.4-.6.4-.8.3-.5-.2.4-.7 4.7-1.5 4.7-.9zm9.5 12.4c.3.5.1 1.2-.5 1.6-.6.4-.8 1.1-.5 1.6.4.5.1.9-.4.9-.6 0-1.1-.5-1.1-1.1 0-.5-.5-.7-1.1-.3-.8.4-.8 0 0-1.5 1.2-2.2 2.6-2.7 3.6-1.2zm-29.9 11.5c1.8 1.9 1.8 2.7 0 2-1.4-.5-3.1-3.4-2-3.4.3 0 1.2.6 2 1.4z"/><path d="M283 274.2c0 .4.6.8 1.4.8.8 0 1.7-.4 2-.8.2-.4-.4-.8-1.5-.8-1 0-1.9.4-1.9.8zm-209.5 3.7c-.3.5-.2 1.2.3 1.5.5.3.9-.1.9-.9 0-1.7-.3-1.9-1.2-.6zm216.1 1.8c-.6 1.4-.5 1.5.5.6.7-.7 1-1.5.7-1.8-.3-.3-.9.2-1.2 1.2zm3 3.2c-.4.5-.2 1.2.3 1.5.5.4 1.2.2 1.5-.3.4-.5.2-1.2-.3-1.5-.5-.4-1.2-.2-1.5.3zm169.9 4c-.3.5-.1 1.2.3 1.5.5.3.8 1.7.7 3.1-.2 1.4 0 2.3.4 2 .9-.5.8-3.6-.2-5.2-.4-.6-.1-1.4.5-1.6.9-.4 1-.6.1-.6-.6-.1-1.4.3-1.8.8zM26.1 297.7c-.1 1.7 1.6 2.5 2.5 1.2.4-.7.3-.9-.4-.5-.5.3-1.3 0-1.5-.6-.4-.9-.6-1-.6-.1zm436.4 1.3c-.8 1.3.3 3 1.8 3 .7 0 .6-.4-.3-1-1.3-.9-1.3-1.1 0-2 .9-.6 1-1 .3-1-.6 0-1.5.4-1.8 1zM263 301.9c0 .6.4 1.3 1 1.6.6.3.7-.1.4-.9-.7-1.8-1.4-2.1-1.4-.7zM86.5 306c-.3.6.1.7.9.4 1.8-.7 2.1-1.4.7-1.4-.6 0-1.3.4-1.6 1zm185.5 1.5c-.7.8-.9 1.5-.6 1.5.4 0 1.4-.7 2.2-1.5.9-.8 1.1-1.5.6-1.5-.5 0-1.5.7-2.2 1.5zm-250 .6c0 .5.5.7 1 .4.6-.3 1-.8 1-1.1 0-.2-.4-.4-1-.4-.5 0-1 .5-1 1.1zm261.5 9.9c.3.5.8 1 1.1 1 .2 0 .4-.5.4-1 0-.6-.5-1-1.1-1-.5 0-.7.4-.4 1zm15.7.7c-.6.2-1 .9-.6 1.4.8 1.4 2.1 1.1 2.1-.6 0-.8-.1-1.5-.1-1.4-.1 0-.7.3-1.4.6zm.4 4.1c-.3.5.1.9.9.9s1.2-.4.9-.9c-.3-.4-.7-.8-.9-.8-.2 0-.6.4-.9.8zm262.9 6.1c-.3.5-.2 1.2.3 1.5.5.3.9-.1.9-.9 0-1.7-.3-1.9-1.2-.6zm-99.9 5.7c-.9 2.4-.7 3.1.4 1.4.8-1.3 1-1.2 1 .2 0 1-.6 1.8-1.2 1.8-.9 0-.9.3-.2.8.5.4.9 2.2.8 4 0 1.8.1 3 .5 2.7.3-.3.6-2 .6-3.8 0-1.8.4-3.7.8-4.4.4-.6.3-1.4-.3-1.8-.6-.4-.8-1.1-.5-1.6.4-.5.2-.9-.3-.9-.6 0-1.3.7-1.6 1.6zM75.5 338c.3.5.8 1 1.1 1 .2 0 .4-.5.4-1 0-.6-.5-1-1.1-1-.5 0-.7.4-.4 1zm-46.1 2.4c.1.8.5 1.8.8 2.2.4.3.5-.1.4-1-.1-.8-.5-1.8-.8-2.2-.4-.3-.5.1-.4 1zm-24.1 2.1c0 .8.4 1.2.9.9.5-.3.6-1 .3-1.5-.9-1.3-1.2-1.1-1.2.6zm315.7-.4c0 .5.5.7 1 .4.6-.3 1-.8 1-1.1 0-.2-.4-.4-1-.4-.5 0-1 .5-1 1.1zm-83.5.6c.3.3-.1 1.3-.8 2.1-1 1.3-.9 1.4.2.7 1-.5 1.2-.4.7.3-1 1.7-1.5 1.5-2.6-1.1-.7-1.8-.9-1.8-.9-.4-.1 1.1-.5 1.5-1.3 1.1-.7-.4-.8-.3-.4.5.4.6 1.1.9 1.6.6 1.7-1.1 1.7 2.2-.1 4.4-1.1 1.3-1.9 2-1.9 1.5 0-.4.7-1.5 1.5-2.4 1.3-1.4 1.3-1.7.1-1.7-.8 0-1.4.5-1.3 1.1.1.6-1.1 1-2.8.9-1.6 0-2.4.1-1.7.4.6.2 1 .9.7 1.4-.4.5.2.6 1.2.3 1.7-.5 1.7-.5 0 .6-.9.6-2.2.8-2.9.4-.6-.4-.8-.3-.4.4.3.5.1 1.2-.6 1.4-.9.3-.9.6 0 1.2.7.4 1.2.2 1.2-.3 0-.6.5-1.1 1.1-1.1.5 0 .8.4.5.9-.8 1.3 1.7 3 4.1 2.8 1.2 0 2-.4 1.8-.7-.1-.3.2-1.6.7-3 .7-2 1.1-2.2 1.9-1 .9 1.2 1 1.2.5-.3-.3-1-.6-2.1-.6-2.4 0-.3-.9.5-2.1 1.8l-2 2.4 1.7-2.7c.9-1.5 2-2.5 2.5-2.2.5.3 1.2-.2 1.5-1.1.5-1.3.9-1.3 2.3-.3 1.4 1.1 1.4 1.1.3-.4-1.1-1.4-1-1.8.5-2.7 1-.6 1.3-1.1.8-1.1-.6 0-1.6.5-2.3 1.2-.9.9-1.2.9-1.3 0-.3-2.6-.4-3.1-1.1-3.6-.5-.3-.6-.3-.3.1zm-4.4 14.6c-.7.7-1.4.8-2.1.1-.6-.6-.2-1 1.2-1.1 1.6-.2 1.8.1.9 1zm92.2-14.7c.4.7 0 1.7-.7 2.4-1.5 1.1-1.9 6.7-.6 7.5.4.2.6-.6.5-2-.2-1.7.1-2.2 1.2-1.8 1.1.4 1.1.8.3 1.3-.9.6-.9.9-.1 1.4.6.4.8 1.2.5 1.8-.4.6-.3.8.3.5.5-.3 1.7.2 2.6 1.1 2.4 2.6 4.7 4.3 4.8 3.7.1-.3.2-1 .3-1.7.1-1.5 2.3-2.2 3.1-.9.3.6.2 1.1-.3 1.1s-1.7 1.2-2.7 2.6c-.9 1.5-1.2 2.4-.7 2 .6-.3 1.2-.3 1.5.1.2.5.2.3.1-.4-.2-.6.5-1.7 1.4-2.5 1.3-1.1 1.4-1.1.7.1-.9 1.5-1.4 6.4-.6 5.6.2-.2 1.2 0 2.3.6 1.6.9 1.7 1.3.7 2.7-1.1 1.4-1.1 1.5.1.5 1.6-1.5 2.3-4.6.8-3.7-.7.4-.8.2-.4-.4.5-.8.1-1-1.1-.5-1 .3-1.5.3-1.1-.1.3-.4 1.2-.9 2-1 2.7-.6 4.8-1.8 4.8-2.9 0-.7-.4-.7-1.2.1-1.7 1.7-3.3 1.5-1.8-.3.7-.9 1-1.8.6-2.2-.3-.3-.6-.2-.6.4 0 .5-.7 1-1.5 1s-1.5-.7-1.5-1.4c0-.8.5-1.1 1.2-.7.7.4.8.3.4-.5-.4-.6-1.2-.9-1.7-.6-.5.4-1.2-.1-1.5-1-.4-.9-1.2-1.4-2-1.1-.7.3-1.8-.3-2.6-1.2-1.2-1.5-1.1-1.6.5-.3.9.7 1.7.9 1.7.3 0-.5-.7-1.3-1.6-1.6-.8-.3-1.2-1.1-.9-1.6.4-.6.1-.9-.7-.8-.7.2-1.2-.3-1-1 .2-.9-.4-1.1-1.8-.7-1.1.4-2 .2-2-.4 0-.6.5-1.1 1-1.1.6 0 1-.5 1-1.2 0-.6-.3-.8-.7-.5-.3.4-1.3.1-2.1-.6-1-.7-1.3-.8-.9-.1zm1 2.9c-.3.9-.8 1.4-1 1.1-.3-.3-.2-.9.2-1.5.9-1.6 1.5-1.3.8.4zm4.8 6.3c-.6 1.1-.4 2 .7 3 1.2.9 1.3 1.1.2.6-3.7-1.8-4.9-3.6-3.7-5.5 1.5-2.3 4.2-.5 2.8 1.9z"/><path d="M328.5 350.9c-.3.5-.1 1.2.4 1.5.5.3 1.1-.1 1.5-.9.6-1.6-.9-2.1-1.9-.6zM322 344c-.9.6-1 1-.3 1 .6 0 1.5-.5 1.8-1 .8-1.2.4-1.2-1.5 0zm-83.4 6.9c-.4.5-.2 1.2.3 1.5.5.4 1.2.2 1.5-.3.4-.5.2-1.2-.3-1.5-.5-.4-1.2-.2-1.5.3zm224 0c-.3.5.2 1.5 1.2 2.2 1.5 1.3 1.6 1.2.4-.3-1-1.3-1-1.7 0-2.1.9-.4.9-.6.1-.6-.6-.1-1.4.3-1.7.8zm-1.3 3.6c0 .8.4 1.2.9.9.5-.3.6-1 .3-1.5-.9-1.3-1.2-1.1-1.2.6zm.7 2.5c-.8.5-1 1-.5 1 .6 0 1.7-.5 2.5-1s1.1-1 .5-1c-.5 0-1.7.5-2.5 1zm-240 .7c0 .5.5 1.4 1.2 2.1.9.9.9 1.2 0 1.2-.7 0-1.1.4-.9.9.1.5-.2.9-.7.9-.5 0-1.3.6-1.8 1.4-.8 1-.9 1-.5-.2.2-.8.9-1.4 1.5-1.3 1.1.3.8-3.5-.4-4.6-.4-.3-.4.2-.1 1.1.7 2-.9 3.4-1.7 1.6-.4-.9-.5-.8-.5.2.2 3.2-.2 3.9-4 6.1-4.6 2.5-4.9 4.8-1.2 8.2 1.3 1.2 2.1 1.6 1.7.9-.4-.7-.1-1.2.8-1.2s1.6-.5 1.6-1.1c0-.6-.9-.8-2.2-.4-2.1.5-2.1.5.2-.9 1.8-1.1 2.7-1.1 3.2-.3s.8.7.8-.3c0-1.3.1-1.3 1.1 0 .8 1.2.9 1.1.7-.5-.2-1.4.2-2 1.4-1.9 1 .1 1.6-.2 1.3-.6-.3-.5-.2-1 .2-1.3.5-.2.3-.2-.4-.1-1.7.4-2.4-2.4-.7-3 .8-.3 1.3-.2 1 .2-.3.5.1.9.9.9 1.1 0 1.2-.5.3-2-.7-1.4-.7-1.8.1-1.3.6.4 1.5-.3 2-1.6.6-1.3 1-1.8 1-1.2.1.7.8 1.5 1.6 1.8 1.4.5 1.4.4.1-1.6-1.7-2.3-6.3-3.8-5-1.6.5.9.2.9-.9-.1-.9-.7-1.7-.9-1.7-.4zm-4.9 10.2c.6-1 .9-1.1.9-.2 0 .7.5 1.3 1.1 1.3.5 0 .7-.5.4-1-.3-.6-.1-1 .4-1 1.6 0 1.3 1.6-.4 3-1 .9-1.5.9-1.5.1 0-1.3-2.2-1-3.2.4-.5.6-.8.5-.8-.3 0-.7-.5-1-1-.7-.6.4-.7 1.1-.4 1.7.4.7.2.8-.5.4-.9-.6-.9-1.1 0-2.2.6-.7 1.5-1.1 2-.8.5.3.9-.1 1-.8 0-1 .2-1 .6.1.5 1.1.7 1.1 1.4 0zM1 362c-1.2.7-1 .9.7.7 1.2 0 1.9-.5 1.7-.9-.6-1-.6-1-2.4.2z"/><path d="M226.5 363c-.8 1.3.9 2 2.4 1.1 1-.6.9-1-.3-1.4-.8-.3-1.8-.2-2.1.3zm117-.2c-1.3.9-1.3 2.1.3 5.2 1.2 2.2 1.2 2.3-.1.7-1.3-1.6-1.5-1.6-2.1-.2-.3.9-.2 1.4.3 1 .5-.3 1.1 0 1.3.6.2.5 1.1.7 2.1.4.9-.4 1.4-1.1 1.1-1.6-.8-1.4 1.6-4 3-3.2.7.4.6.1-.1-.9-.7-.8-1-1.8-.6-2.1.3-.4.1-.7-.6-.7-.8 0-1.1.7-.7 1.5.7 1.9-.4 1.9-1.8 0-.6-.8-1.6-1.1-2.1-.7zm-253.6 1.9c-1.3 1.6-1.2 1.7.4.4.9-.7 1.7-1.5 1.7-1.7 0-.8-.8-.3-2.1 1.3zm123.7-.9c-.3.4.4.9 1.5.9 2.3.2 2.5-.3.4-1-.8-.4-1.6-.3-1.9.1zm263.2 4.4c.2 1 .6 1.8.7 1.8.1 0 .5-.8.7-1.8.3-1.1 0-1.9-.7-1.9s-1 .8-.7 1.9zm20.7-1.2c-.4.6-1.1.8-1.6.5-.5-.4-.9-.2-.9.3s.8 1.2 1.8 1.4c1.2.4 1.8-.1 1.8-1.3 0-2.2-.2-2.3-1.1-.9z"/><path d="M347 368c0 .5.5 1 1 1 .6 0 1-.5 1-1 0-.6-.4-1-1-1-.5 0-1 .4-1 1zm3.7.7c.3.7.6 1.3.8 1.3.2 0 .5-.6.8-1.3.3-.8-.1-1.4-.8-1.4-.7 0-1.1.6-.8 1.4zm136.3-.8c0 1 1.9 2.5 2.5 2 .1-.2-.3-1-1.1-1.7s-1.4-.8-1.4-.3z"/><path d="M347.2 370.6c-1.2.8-2.2 2.1-2.2 2.7 0 .9.3.8.8-.1 1-1.6 3.8-.6 4.7 1.6.5 1.3.2 1.3-1.5-.3-1.1-1-2-1.3-2-.7 0 .7.5 1.2 1.1 1.2.5 0 .8.4.5.8-.2.4.7.9 2 1 2.2.2 2.4 0 1.4-2.1-1-2-1-2.1.3-.4.9 1.1 1.8 1.4 2.1.8.4-.5.2-1.3-.4-1.6-.6-.4-.8-1.6-.4-2.8.6-1.8.5-2-.8-1-.9.8-1.8.9-2.4.3-.6-.6-1.8-.4-3.2.6zm160.4-.8c-.3.5.1.9.9.9s1.2-.4.9-.9c-.3-.4-.7-.8-.9-.8-.2 0-.6.4-.9.8zm-300 1.9c-.6 1.4-.5 1.5.5.6.7-.7 1-1.5.7-1.8-.3-.3-.9.2-1.2 1.2z"/><path d="M354.7 373.1c1 1 .7 1.9-1.5 4.3-1.5 1.7-1.8 2.4-.8 1.6 1.8-1.4 1.9-1.3 1.3.4-.6 1.5-.5 1.7.6.7 1.2-.9 1.4-.7 1.2 1.3-.2 1.9.1 2.3 1.6 1.9 1-.3 1.6-.9 1.3-1.4-.3-.5-1.1-.6-1.7-.3-.7.4-.4-.1.5-1.2 1.4-1.4 2.1-1.5 3-.6.8.8.8 1.5-.2 2.6-.7.9-1 2.2-.7 3 .3.7 0 2-.6 2.7-1 1.1-.9 1.1.6 0 1.5-1.2 2.1-.9 1.8 1.1 0 .5.4.8.9.8 1.4 0 1.2-1.1-.4-2.9-1.1-1.2-1.2-2.1-.5-3.1.9-1.3 1-1.3.6.1-.9 2.8 1.4 4.1 3.7 2.1 1.1-1 1.6-1.1 1.1-.3-.6 1-.4 1.2.5.6.8-.5 1.1-.4.7.2-.3.5 0 1 .8 1 1 0 1.2-.4.5-1.2-.5-.7-.7-1.5-.4-1.8.4-.4-.3-.5-1.5-.2-1.4.2-2.1-.1-2.1-1.1 0-.8.4-1.3.9-.9.5.3 1.2.1 1.6-.4.3-.6-.4-.8-1.6-.6-2.5.5-5.2-1.2-4.3-2.6.3-.5.1-.8-.4-.7-.6.2-.9-.2-.8-.7 0-.6.4-.9.9-.8 1.5.6.6-.7-1.2-1.7-1.4-.7-2.2-.7-2.7.2-.4.7-.3.8.4.4.8-.5 1-.1.5.9-.4 1.3-.8 1.4-1.3.4-.5-.7-.6-1.8-.4-2.4.3-.7-.3-1.6-1.3-1.9-1.4-.6-1.6-.5-.6.5zm-145.7.8c0 1-.9 1.2-3.2.7-2.1-.4-2.8-.3-1.9.3.9.6 1 1.1.3 1.5-.6.4-.9 1.3-.6 2 .3.9-.2 1.3-1.7 1.2-1.7-.1-2.3.5-2.6 2.9-.2 1.6-1 3.3-1.6 3.7-1.4.9-1.5.8 3.6 1.3 3.5.3 3.7.2 2-1.2-1-.8-1.3-1.2-.7-.9.7.3 1.4-.1 1.8-.9.5-1.3-.5-2-2.6-1.6-1.2.2-1-1.7.2-2.4.6-.3 1 0 1 .7.1.9.5.7 1.4-.5 1.5-1.9 3.1-2.4 1.9-.5-.4.7-.8 2.4-.8 3.6-.1 2.2 0 2.2 1.2.6.7-.9 1-2.1.7-2.5-.3-.5.4-.9 1.5-.9 1.2 0 2.1-.5 2.1-1.1 0-.5-.4-.8-.9-.4-.5.3-1.3.1-1.6-.5-.4-.6-.1-.9.7-.8.8.2 1.2-.5 1-1.7-.2-1.6-.1-1.7.7-.5.5.8.7 1.8.5 2.2-.3.4 0 .8.5.8 1.6 0 1.3-1.5-.9-4.1-1.2-1.5-1.9-1.9-2-1zm-2 2.5c0 .2-.7.7-1.6 1-.8.3-1.2.2-.9-.4.6-1 2.5-1.4 2.5-.6z"/><path d="M358.5 381c.3.5.8 1 1.1 1 .2 0 .4-.5.4-1 0-.6-.5-1-1.1-1-.5 0-.7.4-.4 1zM197 383.9c0 .7-.5.9-1.2.5-.7-.5-.8-.3-.3.5.5.9 1 1 1.8.2.6-.6.8-1.4.4-1.8-.4-.3-.7-.1-.7.6zm-4.5 3c.3.5.2 1.1-.2 1.4-.5.2-.3.2.4.1.7-.2 1.5.1 1.8.7.4.5 1.1.6 1.7.3.6-.4.8-.2.4.4-.3.6-.2 1.3.3 1.6.5.3 1.2-.1 1.5-1 .4-1.1 1.3-1.3 2.8-.8 1.3.3 2 .3 1.5-.1-.4-.5-1.5-.9-2.5-1-.9-.1-2.5-.5-3.4-.9-3.9-1.4-4.9-1.5-4.3-.7zm178.3.3c-.5 1.5-4.8 2.1-4.8.6s-1.3-.1-1.6 1.7c-.1.9.4 1.1 1.4.7 1.5-.5 1.6-.4.2 1.3-.9 1.1-1 1.6-.2 1.1.6-.4 1.2-.2 1.2.3 0 .6.5 1.1 1.1 1.1.5 0 .7-.5.3-1.2-.4-.6-.3-.8.3-.5.9.6 2.3-1.1 2.7-3.3.1-.3.5-1.1.9-1.8.5-.6.4-1.2-.2-1.2-.5 0-1.1.5-1.3 1.2zm-179.2 3c-3.4 1.9-8.4 8-8 9.7.3.9-.2.5-1.1-.9-1-1.6-1.4-1.8-1.1-.6.5 1.4.2 1.7-.9 1.2-.9-.3-1.3-.2-1 .3.3.5.1 1.2-.4 1.6-.6.3-.8 1.2-.4 2 .3 1-.1 1.5-1.2 1.5-.9 0-1.4-.4-1.1-.8.3-.5-.2-.9-1-.9-.9 0-1.1.4-.5 1 1 1 .3 4-.8 3.3-.4-.3-1.3 0-2.1.6-1.2.8-1.2.9.2.4 1-.3 2-.1 2.4.5.3.6 1.2.8 2 .5.7-.3 1.6-.1 1.9.4.6 1 4 .8 5.1-.3.4-.3-.3-.5-1.4-.2-1.2.2-2.5-.1-2.8-.7-.5-.7-.2-.8.6-.3s1.1.3.8-.6c-.3-.8-1.4-1.2-2.4-1.1-1 .2-1.6.1-1.3-.2.4-.4 1.7-.9 2.9-1.1 1.3-.3 2.7-1 3.1-1.6.4-.7.9-.8 1.3-.1.3.6-.3 1.3-1.4 1.7-1.1.4-1.7 1.1-1.4 1.7.4.6.9.5 1.5-.3.7-1.1 1.1-1 2.4.6 1.6 2 1.6 2 .6-.1-1.2-2.5-.6-3.5 1.7-2.7 1.5.4 1.5.3.2-.6-1.4-1-1.3-1.2.9-1.5.5 0 1.3-.5 1.8-1s.2-.6-.6-.1c-.9.5-1.2.3-.9-.6.3-.8 1-1.3 1.6-1.2.5.1 1.7-.6 2.6-1.6 1.5-1.6 1.5-1.9.1-3.1-.9-.7-1.5-.8-1.5-.2 0 .6.5 1.2 1.1 1.4.7.2.6.8-.4 1.7-1.4 1.1-1.6.9-1.5-1.1.1-1.3.8-3.2 1.6-4.3 1.1-1.6 1.3-1.6.9-.3-.4 1-.3 1.9.1 1.9 2.8.5 5.2.5 5.1 0 0-.3-1.2-1.6-2.7-2.8-2.1-1.6-3.2-1.9-4.6-1.1zm-2.2 4c-1.6 1.8-3.2 3.4-3.6 3.6-.4.2-.4 1-.1 1.8.4 1.2.8 1.2 2-.3 1-1.4 1-1-.2 1.4-1.5 3.2-3.2 4.7-2.2 2 .3-.8.1-2-.4-2.8-.6-1 .3-2.5 2.8-5.1 4.5-4.6 5.8-5 1.7-.6zm-8 8.9c-.3.5-1 .7-1.5.3-.5-.3-.7-1-.3-1.5.3-.5 1-.7 1.5-.3.5.3.7 1 .3 1.5z"/><path d="M199 390.4c0 .2.8 1 1.8 1.7 1.5 1.3 1.6 1.2.3-.4s-2.1-2.1-2.1-1.3zm171.2 3.2c-.9 1.9-.9 2.4 0 1.8.8-.5.9-.2.5.9-.3.9-.2 1.9.4 2.2.5.4.6 1.2.2 1.8-.3.7.3.3 1.5-.7 1.2-1.1 2.2-1.4 2.2-.8 0 .6-.5 1.4-1 1.7-1.3.8-.3 2.5 1.3 2.5.9 0 .8-.3-.1-.8-.9-.7-.8-1.3.8-2.7 1.5-1.3 2.3-1.5 3.3-.6.8.6 1.8.7 2.2.3.5-.4.5-.1.1.6s-1.1 1-1.6.7c-.4-.3-1-.2-1.3.2-.2.5-.2.2-.1-.5.4-1.3-.8-1.6-1.9-.6-1 1 2.3 6.6 3.6 6.1.7-.3 1.1-1 .9-1.7-.3-1.1 0-1.1 1.2 0 1.7 1.3 2.2 2.5.8 1.6-.4-.2-1.3.4-2 1.5-1 1.5-1 1.9 0 1.7.7-.2 1.2.3 1 1-.2 1 .2 1 1.7.2 1.3-.7 2.2-.7 2.6 0 .3.5 1.3 1 2.1 1 1 0 1.2-.5.7-1.3-.4-.6-.6-2-.5-3 .2-1-.3-1.7-1.3-1.7-.9 0-1.4.4-1.1.8.2.4-.4 1.3-1.4 2-1.4.9-2.1.9-2.6 0-.4-.6-.3-.8.3-.5.6.4 1.8-.5 2.8-1.9 1.5-2.4 1.5-2.5-.1-2.2-.9.2-1.9-.3-2.1-1-.3-.7.1-1.1.7-1 .7.2 1.4-.3 1.6-1 .1-.7 0-.8-.3-.2-.3.8-.9.7-1.9-.1-.8-.6-1.2-1.5-.9-1.9.2-.4-.3-.7-1.3-.7-3.5 0-4.2-.4-4.2-2.2 0-1.3-.7-1.9-2.5-1.9-1.4 0-2.2.5-1.8 1.1.3.6.1.7-.6.3-.9-.6-.9-1.1 0-2.2.6-.8.7-1.4.2-1.4-.5 0-1.5 1.2-2.1 2.6zm2.8 4.4c0 .5-.2 1-.4 1-.3 0-.8-.5-1.1-1-.3-.6-.1-1 .4-1 .6 0 1.1.4 1.1 1z"/><path d="M389.5 407.9c-.3.5-.1 1.2.4 1.6 1.3.8.2 3.5-1.2 3.2-.7-.1-1.7-.8-2.2-1.5-.9-1.1-1.3-1.1-2.4.2-.9 1.1-1 1.6-.2 1.6.6 0 1.1-.6 1.1-1.3 0-.8.3-.7.9.3.6.8.8 1.7.5 2.1-.2.5.5.6 1.6.4 1.8-.3 2 0 1.4 1.8-.6 2.2-.6 2.2.9.2l1.6-2 1.5 2c1.2 1.5 1.6 1.7 1.7.5.1-.8.1-1.9 0-2.3-.1-.5.3-.6.9-.2.6.3.7 1.1.4 1.7-.4.6-.3.8.2.5.5-.3 1 .3 1 1.3s-.4 1.6-.8 1.4c-.4-.3-.8-.1-.8.5 0 .5.7 1.4 1.5 1.8.8.5 1.6 2 1.8 3.3.3 2.1.9 2.5 3.3 2.3 2.7-.3 2.7-.2.7.7-3.1 1.3-2.9 2 .3 1.4 1.6-.3 2.3-.1 1.9.6-.3.5-.2 1 .4 1 1.5 0 2.3-1.8 1.1-2.5-.6-.4-.8-1.1-.4-1.6.3-.5 1-.7 1.5-.3.5.3.7.9.5 1.3-.3.4.1.8.8.8.7 0 1.3-.6 1.3-1.3 0-.7-.5-1.2-1-1.1-.5.1-1.2-.4-1.5-1.2-.3-.9 0-1.1.8-.6.9.5 1.1.4.6-.4-.6-.9-1.1-.9-2.2 0-1.2 1-1.8.9-3.2-.6-1.5-1.7-1.5-1.7 0-.6 1 .7 1.8.8 2.2.2.8-1.2-.4-1.9-2.7-1.5-1.5.2-1.8-.2-1.4-1.8.4-1.4.2-1.8-.9-1.4-1.2.5-1.4.1-.9-1.7.7-2.2.7-2.2-1-.2-.9 1.1-1.4 1.5-1.1.9.3-.7-.1-1.7-.9-2.4-1.2-1-1.3-1.6-.3-2.9 1.2-1.4 1.1-1.4-.5-.2-2.2 1.8-3.4.7-1.6-1.5 1.3-1.6 1.2-1.6-.8-.4-1.2.8-2 1.7-1.7 2.1.2.4 0 1-.5 1.3-1.1.7-.9-1.3.2-3.2.6-.8.2-1.2-1-1.2-1.5 0-1.6-.2-.3-1 .9-.6 1-1 .3-1-.6 0-1.4.4-1.8.9zm12 16.2c-.3.4 0 .9.7 1.1.8.3.6.6-.4 1-1.1.5-1.5.2-1.3-1 .1-.9-.2-2.6-.7-3.7-.9-1.9-.9-1.9.6-.1.9 1 1.3 2.2 1.1 2.7zm-233.4-12.3c-.9.7-1 1.1-.3.7.6-.3 1.2-.1 1.2.4 0 .6-.4 1.1-.8 1.1-.5 0-1.7.7-2.8 1.6-1 .8-1.3 1.3-.6.9.6-.3 1.2-.1 1.2.6 0 .6-.8.9-1.9.6-2.3-.6-2.4 2.9-.1 4.3 1.2.8 1.2 1 .1 1-.7 0-1.1.6-.8 1.4.3.7.1 1.8-.5 2.4-.6.6-.6 1.2.1 1.7.7.4 1 .1.9-.7-.2-.8.5-1.2 1.7-1l2 .4-2-1.6-2-1.7 2 .3c1.7.3 2-.2 1.8-3-.2-3.2 1-4.2 2.3-2 .4.6.3.8-.4.4-.6-.3-.9.1-.8 1.1.3 1.7 2.1 2.1 2.1.5 0-.4.4-1.3.9-2.1.6-1 .5-1.2-.2-.7-.7.4-1.2.2-1.2-.3 0-.6 1.2-1.1 2.7-1.1 2.5 0 2.6-.1.8-1.4-1.8-1.3-1.7-1.4 1-.9 2.5.3 2.7.2 1.3-.7-1-.6-1.8-1.6-1.8-2.3 0-.7.4-.6 1 .3.5.8 1 1 1 .5 0-.6.8-.1 1.7 1 1.4 1.8 1.5 1.8.9.2-.3-1-.6-2.2-.6-2.6 0-1.2-8.2-.7-9.9.7zm.9 4.2c0 .5-.4 1-1 1-.5 0-1-.5-1-1 0-.6.5-1 1-1 .6 0 1 .4 1 1z"/><path d="M391 416.8c0 .7.6 1.2 1.3 1.3.6 0 .3.4-.7.8-1.8.7-1.8.8-.3 1.4.9.3 1.7.2 1.7-.4 0-.6.4-.8.9-.4.5.3 1.3 0 1.7-.7.4-.7.3-1-.1-.5-.5.4-1.7 0-2.7-1-1.1-.9-1.8-1.1-1.8-.5zM159.5 419c-.3.5-.1 1 .4 1 .6 0 1.1-.5 1.1-1 0-.6-.2-1-.4-1-.3 0-.8.4-1.1 1zm-2.5 3.5c-.5.7-.8 1.4-.5 1.6.8.9 1.4 6.4.7 7.5-.5.7-1.4.4-2.7-1-1.1-1.2-1.8-2-1.6-1.9.7.5 3.1-1.9 3.1-3.1 0-.6-.5-.4-1 .4s-1.5 1.5-2.2 1.5c-.7.1-1.2.7-1 1.4.2.8-.3 1.1-1.2.8-1.1-.4-1.4.1-1.1 2.5.4 2.7.3 2.8-1.2 1.6-1.5-1.2-1.5-1.1-.3 1.2s1.2 2.4-.3 1.2c-1.2-1.1-2-1.1-3.4-.2-1.7 1.1-1.7 1.1.2.6 1.9-.5 1.9-.5.2.7-3.1 2.1-14 12.7-13.1 12.7.5 0 .1.5-.8 1.1-1 .5-1.8 1.5-1.8 2.1 0 .7.4.7 1.3-.1.8-.6 1.7-.8 2-.4.4.3.7.1.7-.5 0-.7.3-1.1.8-1.1 3.7.6 4.7-.8 2.7-4.1-.8-1.3-.7-1.3.9 0 2.2 1.7 4.4 2.1 5.2.9.3-.5 1-.7 1.5-.3.5.3.9.2.8-.3-.3-1.9.2-2.3 2-1.3 1.5.7 1.9.7 1.7-.5-.1-.8-.6-1.8-1.1-2.2-.4-.4-.5-.3-.1.4.4.8-.1 1.1-1.4 1-1.3-.1-1.6-.5-1-1.1 1.7-1.7 1.1-2.7-1-1.6-1.1.6-2 .8-2 .4 0-.3-.7-.1-1.5.6-.9.7-1.4 1.9-1.1 2.6.3.8 0 1.1-1 .7-1.3-.5-1.1-1 .7-2.9 1.2-1.3 2.6-2.1 3.2-1.7.6.3.7.1.3-.5-.5-.8-.1-1 1.1-.6 1.3.4 1.5.3.5-.4-1.1-.7-.9-1 .6-1.4 1.4-.4 1.9-.2 1.5.7-.5 1.4 3 3.9 4 2.8.4-.3.1-1.5-.5-2.7-1-2-1-2 .7-.6s1.7 1.4.7-.6c-1.4-2.7.1-5.5 2-3.5 1.1 1.1 1.1 1.3-.1.6-1-.6-1.2-.4-.6.5s.4 1.1-.6.5c-1.2-.8-1.2-.6 0 .8 1.3 1.7 2.5 1.5 2.7-.4.1-.5.2-1.2.3-1.5 0-.4.9 0 1.9.7 1.5 1.3 1.6 1.2.3-.4-1.4-1.7-1.1-2 2.4-1.9 1.7.1 1.7 0 .3-.4-3.6-1.1-1.2-3.2 2.6-2.5.5.1.4-.5-.4-1.3-.8-1-.9-2.1-.4-2.9.5-.6.9-2.1.9-3.1 0-2.2-3.9-3-5.5-1.1zm4 2.9c0 .4-.9.1-1.9-.6-1.1-.7-1.7-1.6-1.5-2 .5-.8 3.4 1.5 3.4 2.6zm-.5 3.6c.3.5.1 1-.4 1-.6 0-1.1-.5-1.1-1 0-.6.2-1 .4-1 .3 0 .8.4 1.1 1zm-4.5 4.4c0 .3-.4.8-1 1.1-.5.3-1 .1-1-.4 0-.6.5-1.1 1-1.1.6 0 1 .2 1 .4zm-13.1 13.2c-.6.8-1.5 1.2-1.8.8-.3-.4 0-.9.7-1.1.6-.3.9-1 .6-1.5-.4-.7-.2-.8.5-.4.9.6.9 1.1 0 2.2zm-6.9.9c0 .2-1 .9-2.2 1.5-2.2 1.1-2.2 1-.4-.4 2.1-1.7 2.6-1.9 2.6-1.1zM394 422c0 .5.6.9 1.3.7.6-.1 1.1.4 1 1-.2.7.2 1.3.7 1.3 1.4 0 1.3-1.3-.2-2.8-1.5-1.5-2.8-1.6-2.8-.2z"/><path d="M155.1 428.4c-.9 1-.8 1.5.3 1.9 1 .4 1.4 0 1.3-1.4-.2-2.3-.1-2.3-1.6-.5zm254.3 2.3c.3.7-.1 1-.8.7-.7-.3-2.1.6-3.2 1.8-1.5 1.8-1.5 2-.1.9 1.1-.9 1.7-1 1.7-.2 0 .6.5 1.1 1.1 1.1.8 0 .7-.6-.2-1.8-1.1-1.4-1-1.3.9.2 1.5 1.3 2.2 1.5 2.2.6 0-1 .3-1 1.4-.1 1 .8 1.6.9 2.1.1.3-.5.1-1-.4-1-.6 0-1.1-.9-1.1-1.9 0-1.4-.6-1.9-2-1.8-1.2.1-1.8.7-1.6 1.4zm5.7 4.3c-.7.4-2.3.6-3.7.4-1.3-.1-2.7.2-3 .7-.3.5-.2.9.3.8 2.2-.4 3.4.2 2.7 1.3-.4.7-.4 1 .1.6.4-.4 2-.1 3.6.7 3.7 2 3.9 1.9 3.7-.8-.3-2.9-2.1-4.8-3.7-3.7z"/><path d="M420.2 436.3c-.9 1-.7 1.9.5 3.7.9 1.3 1.1 2 .4 1.6-.6-.4-1.8-.2-2.6.4-.9.7-1.5.8-1.5.2 0-.5-.7-1.2-1.4-1.5-1-.4-1.3-.1-.9.9.5 1.3 1.7 1.8 3.6 1.5.4 0 .7.3.7.9 0 .5.5 1 1.1 1 .8 0 .7-.6-.2-1.8-1.2-1.5-1.1-1.5.8.1 1.5 1.3 2 2.7 1.8 4.8-.4 2.6-.3 2.8 1.1 1.4.8-.8 1.2-2 .8-2.6-.4-.7-.3-.9.3-.6.6.4 1.6.1 2.2-.7.9-1 .7-1.9-.9-3.7-1.4-1.6-1.8-1.8-1.4-.7.3 1 .1 1.8-.5 1.8-1 0-1.5-1.4-1.2-3.3.1-.5-.3-.6-.8-.3-1.4.9-2.1-2-.8-3.3.6-.6.8-1.1.5-1.1-.3 0-1 .6-1.6 1.3zm6.3 7.7c.3.5.1 1-.4 1-.6 0-1.1-.5-1.1-1 0-.6.2-1 .4-1 .3 0 .8.4 1.1 1zm-15-3.1c-.3.5-.2 1.2.3 1.5.5.3.9-.1.9-.9 0-1.7-.3-1.9-1.2-.6z"/><path d="M417.6 446.1c.3.5 1.2.9 2.1.9 1.3 0 1.3.3.2 1.7-1.1 1.5-1.1 1.6.1.6 2.2-2 1.9-3.8-.6-3.9-1.3-.1-2.1.2-1.8.7zm9.6.6c-.6.2-1 .9-.6 1.4.3.5 0 .9-.5.9-.6 0-1 1.1-.9 2.4.1 1.4.5 2.3.9 2 .4-.2 1 .2 1.3.8.3.7.3-.1.1-1.7-.4-2.7-.4-2.7.7.5.6 1.9 1.7 3.8 2.4 4.3.7.4 1.2 1.3 1 2-.1.6-.1.9.1.4.7-1.1 2.3-.8 3.9.7 1.7 1.7 1.9 3 .2 2-.7-.4-.8-.3-.4.4s1.6 1.7 2.6 2.2c1.6.9 1.9.8 1.4-.7-.5-1.6-.4-1.6.6.1 1 1.4 1 2-.1 2.7-.7.4-1.7.5-2.3.2-.5-.4-.6-.1-.2.6.6.9 1.3.9 2.9-.3 1.2-.8 2.1-1.9 2-2.5-.2-.6.4-.7 1.4-.4 1.2.5 1.4.3.8-.6-.4-.8-.2-1.7.6-2.2 1.1-.7 1-.9-.4-.9-1 0-1.5-.5-1.2-1 .3-.6.1-1-.5-1-.7 0-.9.8-.5 2 .4 1.3.2 2-.6 2-.7 0-.9-.3-.6-.7.4-.3 0-1.7-.8-3-.9-1.3-1.4-2.7-1.2-3.1.2-.4-.7-1.7-2-2.9s-2.3-1.8-2.3-1.3c0 .6-.6 1-1.4 1-.8 0-1.6.7-2 1.5-.3.8-.1 1.5.4 1.5.6 0 1 .5 1 1.1 0 .8-.4.8-1.3 0-.8-.6-1.3-2.1-1.1-3.3.1-1.3.3-2.8.3-3.3.1-.6.6-.3 1.1.5.9 1.4.9.4.1-3.9-.1-.2-.9.3-1.8 1-1.5 1.2-1.6 1.2-1-.4.6-1.7.2-2-2.1-1zm10.4 10c-.3.7-.1 1.3.4 1.3.6 0 .9 1 .9 2.2-.1 1.8-.2 1.9-.6.5-.2-.9-.9-1.4-1.5-1.1-.7.4-.8.2-.4-.4.4-.7.1-1.2-.6-1.2-1 0-.9-.3.2-1.1s1.2-1.2.3-1.6c-.7-.2-1.3-.9-1.3-1.5s.6-.5 1.5.2 1.4 1.9 1.1 2.7zm-299.4-6.8c.2 1.9-.4 2.7-1.9 2.8-2.8.2-5.2.9-5.9 1.6-.4.4-.2.7.3.7 1.4 0 1.1 2.6-.5 4.2-.8.8-1.2.9-1.2.1 0-.6.5-1.3 1.2-1.5.8-.3.4-1.2-.9-2.5-1.2-1.2-1.8-2.5-1.5-2.9.4-.4.1-.4-.6 0-.9.5-.9 1.2-.2 2.7.9 1.5.7 2.1-.5 2.5-.8.3-1.2 1-.9 1.5.3.5.9.7 1.4.4.5-.3 1.2 0 1.6.6.5.8.3.9-.6.4-.9-.6-1.1-.4-.5.5.6.9.4 1.1-.5.5-.9-.6-1.1-.4-.5.6.5.8.4 1.1-.1.6-.5-.5-.9-1.4-.9-1.9 0-.6-.6-1.3-1.4-1.6-.9-.3-1.1 0-.6.8.6.9.3.9-1.5 0-1.2-.7-2-.7-1.6-.2.3.6.3 1.2-.1 1.5-.5.2-.3.3.2.2.6-.2 1 1 1 2.6s-.4 2.8-1 2.6c-.5-.1-.9-1-.8-2 .2-.9-.2-1.7-.7-1.7-.6 0-1 .7-1 1.6 0 1.4-.3 1.4-1.5.4-1.5-1.3-1.9-.8-1.6 2.1.1.9-.5 1.6-1.4 1.7-.8.1-2.1.3-2.9.4-.8.1-1.4.6-1.3 1.2.1.6-.3 1-1 .9-.8-.2-1 .4-.6 1.4.5 1.2.3 1.4-.8.8-.9-.6-.8-.2.3 1.1 1.5 1.8 1.8 2.3 1.8 4 0 .4.9-.5 2.1-2 1.1-1.4 2.6-2.6 3.2-2.6.7 0 .6.4-.3 1-.8.5-1 1-.5 1.1.6 0 1.8.2 2.8.4 1.4.3 1.6 0 .7-1-.9-1-.7-1.6.8-2.4 1.1-.6 2.3-.7 2.7-.3.5.4.5.2.1-.5-.3-.6-.2-1.4.4-1.8.6-.4.8-1.1.5-1.6-.4-.5.6-1.4 2-1.9s2.3-1.4 2-2c-.3-.5-.8-1-1.1-1-.3 0-.2.4.1 1 .3.5.1 1-.4 1-.6 0-1.1-.4-1.1-.9 0-1.8 2.1-2.3 3.8-1 .9.7 1.4 1 1 .5-.3-.4.1-1.6 1-2.6 1.3-1.6 1.9-1.7 3.1-.7 1.4 1.1 1.4 1 .2-.6-1.2-1.5-.9-2.1 1-1.9.3.1.5-1 .3-2.3-.1-1.3.1-2.4.4-2.4.4.1 1 0 1.5-.1.4-.1 1.1-.3 1.5-.4.9-.1 4.2-3.2 4.2-3.9 0-.2-.6-.4-1.4-.4-.8 0-1.5.3-1.4.6zm-19.9 19.8c-.6 1.6-.5 1.7 1.3.3s1.8-1.4.5.3c-.8.9-1.6 1.5-1.9 1.2-.3-.2-1 .2-1.7 1.1-1 1.4-1.3 1.4-2.6.2-.8-.8-2-1.3-2.7-1-2 .6-1.4-.6.9-1.9 1.3-.7 1.9-.7 1.5-.1-.4.6.2 1 1.4.9 1-.1 2.2-.7 2.4-1.4.3-.7.8-1.3 1-1.3.3 0 .2.8-.1 1.7zm-7.8 4.3c-.3.5-1.1 1-1.6 1-.6 0-.7-.5-.4-1 .3-.6 1.1-1 1.6-1 .6 0 .7.4.4 1z"/><path d="M135.7 455.7c-.4.3-.7 1.1-.7 1.7 0 .6.5.5 1.2-.2.6-.6.9-1.4.7-1.7-.3-.3-.9-.2-1.2.2zm-11.7 1.2c-.8.6-1.8.7-2.4.4-.5-.3-.6-.1-.2.5.6 1.1 3.5.3 5.5-1.4.9-.8-1.5-.3-2.9.5zm321.3 7.8c0 4.1-.4 5.2-2 5.6-1.2.3-.8.5.9.6 2.2.1 2.6.5 2.3 2.2-.4 1.7-.2 1.9 1 .9 1.8-1.5 2-2.4.3-1.4-.7.4-.3-.4 1-1.8 2.4-2.7 2.8-3.8 1.1-3.8-.5 0-.7.6-.3 1.2.5.9.2.9-.9-.1-.9-.7-1.7-2.2-1.7-3.2 0-1.1-.4-1.9-.9-1.9-.4 0-.8.8-.8 1.7z"/><path d="M448.3 465.5c0 .7.6 1.1 1.4.8.7-.3 1.3-.6 1.3-.8 0-.2-.6-.5-1.3-.8-.8-.3-1.4.1-1.4.8zm-5.7 2c-.3.8-.1 1.5.3 1.5.5 0 1.1-.7 1.5-1.5.3-.8.1-1.5-.3-1.5-.5 0-1.1.7-1.5 1.5zm7.6 3.2c-1 .4-1 .8 0 2.1 1 1.2 1 1.4.1.8-1.5-.9-1.7.3-.3 2.4 1.1 1.7 4.2 2.1 5.2.6.4-.6 1-.7 1.5-.3.4.5.2 1.2-.6 1.6-1 .6-.9 1 .4 1.5.9.3 1.3 1.1.9 1.7-.5.8-1.2.4-2.4-1.1-1.4-1.9-1.8-2-2.3-.6-.4.9-.2 1.5.6 1.3.7-.1 1.1.4.9 1.1-.1.8.2 1.1.7.8.5-.4 1.8.5 2.9 1.9 1.1 1.4 2.6 2.5 3.3 2.5.8 0 .3-.9-1.1-2.3-1.4-1.2-2.1-1.9-1.4-1.5.6.5 1.9-.1 3-1.3 1.2-1.3 1.4-2.3.8-2.7-.6-.4-1.6-1.6-2.3-2.7l-1.3-2 .6 2c.6 1.9.5 1.9-.8.2-.7-.9-1.8-1.7-2.3-1.7-.5 0-1.5-1.1-2.1-2.5-1.2-2.5-1.7-2.8-4-1.8zm2.8 4.7c0 .3-.4.8-1 1.1-.5.3-1 .1-1-.4 0-.6.5-1.1 1-1.1.6 0 1 .2 1 .4zm8.4 4.4c.3.5-.1.9-.9.9s-1.5-.4-1.5-.9c0-.4.4-.8.9-.8.6 0 1.2.4 1.5.8z"/><path d="M455 471.9c0 .6.4 1.3 1 1.6.6.3.7-.1.4-.9-.7-1.8-1.4-2.1-1.4-.7zm-351.7 4.3c-.4.7-.8 1.7-.8 2.3-.1.5-.6.9-1.2.8-1.2-.3-1.2 1.5 0 3.4.5.7.5 1.7.2 2.3-.8 1.2-3.2 1.3-3.9.1-.4-.5.3-.7 1.4-.4 1.2.3 2 0 2-.7s-.7-1-1.4-.7c-1 .4-1.3.1-.9-.9.3-.7 0-1.4-.7-1.4-.6 0-.9.4-.6.9.3.5-.1 1.4-.9 2.1-.8.7-1.2 1.6-.9 2.1.3.5 0 .9-.5.9-.6 0-1.1.5-1.1 1 0 .7.6.7 2 0s2-.7 2 0c0 .5-.7 1-1.6 1-.8 0-1.2.4-.9 1 1 1.7-.7 1.1-2.2-.8-.8-.9-1.1-1.1-.7-.3.5 1 .1 1.2-1.7.6-1.3-.3-1.9-.3-1.4.2 1.6 1.2 3.8 4.3 3.2 4.3-.3 0-1.2-.7-2-1.5-1.3-1.2-1.5-1.2-2 .4-.3 1.2.1 1.8 1.2 1.7.9 0 1.5.4 1.4 1.1-.4 2 2.5 2.2 4.2.3 1-1.1 2.2-1.7 2.6-1.4.5.3.9 0 .9-.6 0-.7-.7-1-1.5-.6-.8.3-1.5.1-1.5-.4 0-.6.5-1 1.1-1 .5 0 .8-.3.6-.8-.2-.4.5-1.5 1.5-2.5 1.8-1.7 1.9-1.7 1.6 0-.2 1-.7 2.2-1.3 2.6-.6.5-.4.7.4.5.8-.2 1.6-1.5 1.8-2.8.2-1.4 1.1-3.2 2-4 1.6-1.4 1.6-1.3.2.4-.7 1.1-.9 1.7-.2 1.3.6-.4 1.4-.1 1.7.5.3.7.4.4.3-.7-.1-1.2.3-1.9 1.1-1.8.6.2 1.1-.3 1-1-.2-.6.3-1.1 1-1 .6.2 1.1 0 1.1-.5-.3-2 .2-2.5 1.2-1.2.9 1.3 1 1.3.6 0-.2-.8.3-2 1.1-2.6 1-.7 1.2-1.3.4-1.8-.6-.3-1.6.2-2.2 1.3-1.2 2.3-4.5 1.7-3.6-.5.9-2.2-.7-1.5-2.7 1.1-1 1.4-1.5 3-1.2 3.5.3.6-.1.7-1 .4-1.4-.6-1.4-.8.2-2.6.9-1 1.8-2.5 1.9-3.3.3-1.8-.2-1.9-1.3-.3zm4 6c-.9 1-1.9 1.5-2.2 1.2-.3-.4 0-.9.7-1.1.6-.3 1-.8.8-1.2-.3-.4.1-.8.9-.8 1.3 0 1.2.4-.2 1.9zm-12.4 13.4c-.6.8-1.5 1.2-1.8.8-.3-.4 0-.9.7-1.1.6-.3.9-1 .6-1.5-.4-.7-.2-.8.5-.4.9.6.9 1.1 0 2.2zm185.7-17.9c.2.7-.1 1.3-.6 1.3-.6 0-1-.5-1-1 0-.6-.4-1-.9-1-.6 0-.8.9-.6 2 .3 1.8-.5 2.4-2.6 2.2-.4-.1-.5.8-.2 1.8.4 1.6 0 2-1.9 2-3 0-6.6 3.2-7.4 6.5-.3 1.4-1 2.2-1.5 1.9-.5-.3-.9 0-.9.6 0 .5-1.5 1.9-3.2 3-1.8 1.1-2.7 2-1.9 2 2.3 0 .3 1.3-2.4 1.6-1.6.2-2.5-.2-2.5-1.2 0-.8-.5-1.4-1.1-1.4-.5 0-.8.4-.4.9.3.6-.3 1.5-1.2 2.1-1.7 1.1-1.7 1.1 0 .6 2.9-.9 4.6.3 4.1 3.1-.4 1.9-.1 2.4 1.3 2.1 1-.2 1.8-.8 1.8-1.5 0-.6.3-1.5.8-1.9.4-.4.7-.3.7.3s.7 1.4 1.6 1.7c.8.3 1.2.2.9-.4-.3-.6 0-1 .7-1 .8 0 .9-.3.3-.8-.5-.4-1.1-1.6-1.3-2.7-.3-2-.2-2 1.3-.1.8 1.1 1.5 1.4 1.5.7s.5-.9 1.3-.5c.6.4.2-.4-1.1-1.8l-2.3-2.5 2.6-1.7c1.3-.9 2.4-2 2.4-2.4-.3-2.1.2-3.2 1.3-2.6.7.4.8.3.4-.4-.5-.8-.2-1 .8-.6 2 .7 1.1 2.4-1.2 2.4-1.5 0-1.5.2-.2 1 .9.6 1 1 .3 1-.6 0-1.5.9-1.8 2-.4 1.1-1.2 1.8-1.8 1.4-.7-.3-.2.3 1 1.4 1.2 1.1 2 2.2 1.8 2.6-.3.3.1.2.7-.4 1.4-1.2 3.1-1.3 2.4-.2-.3.5.1.9.9.9s1.5-.4 1.5-.9c0-.4-.5-.8-1.1-.8-.5 0-.7-.5-.3-1.2.4-.6.3-.8-.4-.4-.6.3-1.6-.2-2.2-1.1-1-1.6-1-1.5-.5.4.5 1.8.3 2.2-.9 1.7-1.2-.5-1.3-1-.5-2.6.9-1.7 1.3-1.8 3.2-.5 1.6 1 2.5 1.1 3.2.3 1.7-1.8 1.1-4.1-1-3.9-1.8.1-1.8 0 .3-1.4 1.2-.9 2.2-2.4 2.2-3.4 0-2.2 1.1-2.4 2.8-.7.9.9 1.2.9 1.2 0 0-.7-.5-1.2-1.1-1.2-.5 0-.7-.4-.4-1 .4-.6 1.3-.5 2.5.2 1 .7 1.6 1.6 1.3 2.2-.3.5-.1.6.6.2.6-.4.9-1.2.6-1.7-.3-.5.1-.6 1-.3 1.3.5 1.3.9.3 2.2-.8 1-.9 1.3-.1.9.6-.4 1.3-.4 1.6 0 .2.5.2.3.1-.4-.2-.7.1-1.5.6-1.8.9-.6 1.4.9 1.1 2.9-.1.4.6 1.4 1.6 2.1 1.5 1.1 1.5 1.5.4 2.9-.9 1.1-1 1.6-.2 1.6.6 0 1 .3 1 .7-.1.5-.1 1.5 0 2.3.1 1.2.4 1.1 1.2-.3.6-.9 1.5-1.5 2-1.1.5.3.8 0 .7-.8-.2-.8.5-1.2 1.7-1.1 1.8.2 1.8.1-.2-.9-2.5-1.2-3.2-3.1-.9-2.2 1.7.6 3.1-1.2 1.6-2.1-.5-.3-1-.1-1 .6 0 .8-.4.8-1.5-.1-.8-.7-1.3-1.6-1-2 .6-1-1.5-.8-3.1.3-.8.4-1-.3-.8-2.2.2-1.7-.3-3.4-1.1-4.1-.8-.7-1.3-1.5-1.1-1.9.3-.4-.4-.8-1.5-.8-1-.1-1.9.3-1.9.8 0 .6-.5.7-1 .4-.8-.5-.7-1.2.2-2.3.8-1 .8-1.3.1-.9-.6.4-1.3.4-1.6 0-.2-.5-.2-.2-.1.4zm2.9 3.2c.8-1.2 4.5 1.7 4.5 3.5 0 .6-.5.4-1-.4-.9-1.3-1-1.3-1 0 0 1-.3 1.1-.8.4-.4-.6-1.7-1-3-.9-1.3.1-2.5-.2-2.8-.7-.3-.5-1.2-.4-2 .3s-1.4.7-1.4.1c0-.5.7-1.3 1.6-1.6.9-.4 1.2-1.1.8-1.8-.5-.7.4-.5 1.8.4 1.8 1.2 2.9 1.4 3.3.7zm-11.4 6.8c1.2 1.6 1.2 1.7-.2.6-.9-.7-2-.9-2.4-.5-.5.4-.5.1-.1-.6.9-1.6 1.1-1.5 2.7.5zm20.5 4.7c.1 1.4-.4 3-1.1 3.6-1.1.9-1.3.6-.9-1.9.3-1.6 0-3.2-.6-3.6-.6-.3-.7-1.1-.4-1.7.9-1.5 2.7.6 3 3.6zm-19.9 1.2c-.3.3-1.2.4-1.9.1-.8-.3-.5-.6.6-.6 1.1-.1 1.7.2 1.3.5zm-9.6 5.1c1.1 1.5 1.1 1.6 0 .6-.7-.6-2.1-.9-3-.6-1.4.4-1.4.3-.1-.6.8-.6 1.6-1.1 1.6-1.1.1 0 .8.8 1.5 1.7zm-2.5 3.9c.2 1.1-.1 1.2-1.1.4-.9-.8-1.5-.8-2 0-.3.5-1.2 1-1.8.9-.8 0-.7-.3.2-.6 1.1-.5 1.1-.7 0-1.5s-1-.9.3-.4c1 .3 2 .1 2.4-.5.7-1.2 1.7-.4 2 1.7z"/><path d="M283.6 481.8c-.3.5.1.9.9.9s1.2-.4.9-.9c-.3-.4-.7-.8-.9-.8-.2 0-.6.4-.9.8zm-28.3-4.2c1 1.6-1.8 2.5-3.3 1.1-1-.9-1.1-.9-.6 0 .3.6 0 1.4-.6 1.7-.7.3-.1.3 1.4.1 2-.2 2.5 0 2.1 1-.2.8-.8 1.4-1.1 1.3-1.9-.2-3 .4-3.6 1.8-.4 1-.2 1.3.6.8.6-.4.8-.3.5.4-.5.6 0 .8 1.3.5 1.6-.4 1.9-.2 1.4 1.2-.5 1.1-.9 1.3-1.4.5-.5-.8-.9-.7-1.3.5-.5 1-.3 1.4.5.9.7-.4.8-.3.4.4-1.2 1.9-2.8 1.4-2.1-.7.3-1.1.1-2.2-.4-2.5-.5-.4-.8-1.6-.6-2.7.4-1.7.2-1.9-1-.9-.8.7-1.5.9-1.5.5s-.7-.2-1.5.5c-1.2 1-1.8 1-3 0-.8-.7-2.1-1-2.9-.7-.7.3-2 0-2.7-.6-.7-.7-.6-.2.4.9 1.6 1.9 1.6 2.2.2 2.7-.8.4-1.5 1.1-1.5 1.7 0 .5.9.2 1.9-.7 1.1-.9 1.8-2 1.5-2.5-.3-.4.2-.8 1-.8s1.8.5 2.1 1.1c.4.6 1.4.8 2.2.5 1-.4 1.3-.2 1 .8-.4 1 0 1.4 1.4 1.1 1-.2 1.9 0 1.9.6 0 1-.2 1-4.4 1.3-1.8 0-3.1-.5-3.4-1.4-.5-1.3-.3-1.3 1.1-.1 1 .7 1.7.9 1.7.3 0-1.4-2.8-2.3-3.6-1.1-.3.6.3 2 1.4 3.1 1.7 1.7 1.8 2.5 1 4.4-.6 1.3-2 2.6-3 3-1.1.3-1.7.8-1.5 1.1.3.2 1.5-.1 2.7-.7 1.8-1 2.5-.9 3.9.5 1.5 1.6 1.4 1.7-.9 1-1.4-.4-2.2-.4-1.8 0 1.1 1.2 6.7 1.5 7.3.5.4-.6 1.1-.7 1.7-.4.6.4.8.2.4-.4-.3-.6.2-1.5 1.1-2.1 1-.6 1.4-1.1.9-1.1-.5 0-.3-.7.4-1.6 1.1-1.2 1.1-1.5 0-1.2-.7.2-1.5-.3-1.8-1.1-.3-.9 0-1.1.7-.7.6.4 1 .4.9-.1-.1-.4.3-1.8 1-3.1 1.1-2 1-2.3-1-3.2-1.3-.5-2.1-.9-1.8-1 3.4-1 5-.9 4.4.2-.5.8 0 .7 1.1-.2 1.7-1.4 1.8-1.3 1.2.3-.4 1-.3 1.6.2 1.3.5-.3 1.2.1 1.5 1 .3.8 1 1.3 1.5.9.5-.3 1.2.4 1.6 1.5.3 1.1 1 2 1.5 2 1.3 0 2.2-3.4 1.1-3.8-.6-.2-.8-.9-.5-1.4.4-.6.2-.8-.3-.5-.6.4-1.7-.1-2.4-1-1.2-1.5-1.2-1.6.6-.9 1.5.5 1.7.4.8-.5-.6-.6-.9-1.8-.5-2.7.4-1.1.1-1.4-1-1-.9.4-2.1.1-2.7-.5-.6-.6-1.1-.7-1.1-.3 0 .5-.8.2-1.7-.5-.9-.8-1.4-.9-1-.3zm2.7 2.4c0-1.2.2-1.3.9-.1.5.8 1.4 1 2.1.6 1-.6 1-.3.2 1.1-.9 1.5-.6 2.4 1.6 4.6 1.4 1.6 2.1 2.8 1.5 2.8-.6 0-1.4-.7-1.7-1.6-.3-.9-1.1-1.2-1.8-.8-.7.4-1 .4-.6-.1.7-.8-2-4-3.4-4-.4 0-.8-.3-.8-.8 0-3 .1-3.1 1-1.7.9 1.3 1 1.3 1 0zm-10 4.6c0 .8-1.9 1.3-2.4.6-.3-.5.1-.9.9-.9s1.5.2 1.5.3zm-3.4 8.3c-.4.9.3.5 1.5-.9l2.1-2.5-1.7 2.9c-1.6 2.7-1.6 2.9 0 2.3.9-.4 2.1-.7 2.6-.7.6 0 .7-.6.3-1.3-.6-.9-.3-.8.8.1 1.7 1.4 1.4 4.2-.4 4.2-.5 0-.6-.5-.3-1 .3-.6 0-1-.8-1-2.3 0-2.8 1.2-1 2.5 1 .7 1.2 1.4.6 1.8-.6.4-2.2-.3-3.7-1.4-1.9-1.5-2.4-2.5-1.7-3.7.4-.9.6-2.3.3-3.1-.3-.9 0-1.1.7-.6.7.4 1 1.4.7 2.4z"/><path d="M243 495.4c0 .2.7.9 1.5 1.6 1.3 1.1 1.4 1 .9-.4-.5-1.4-2.4-2.3-2.4-1.2zm56-17.6c0 .7.4 1.2 1 1.2.5 0 0 1.6-1.1 3.5-2.1 3.6-3.3 4.6-2.3 2.1.5-1.3-2.4-3.1-3.4-2.1-.3.3 0 .5.6.5.7 0 1.2.7 1.2 1.7 0 1.4-.3 1.4-2.2-.3-1.2-1-1.8-1.4-1.5-.7.4.6.4 1.3 0 1.6-.5.2-.2.2.5.1 1.1-.3 1.6.9 1.3 2.8 0 .5.4.8.9.8.6 0 1-.5 1-1 0-.6.5-1 1-1 .6 0 .9.5.8 1.1-.2.6.3 1.4 1.1 1.7 1 .3 1.1 0 .5-.9-.7-1.2-.5-1.2.9 0 1.8 1.4 2 1.2 1.1-1.3-.3-.9-1.1-1.3-1.8-.9s-.7.1.1-.9c.7-.8 1-1.7.7-2-.2-.3.2-.8 1.1-1.2 1.3-.5 1.4-.2.4 1.7-.6 1.2-.8 1.9-.4 1.5 1.2-1.1 4.7 1.1 3.8 2.5-.5.9-.4.9.8 0 1.2-1 1.7-.8 2.7.7.9 1.4.9 2.1 0 2.6-.6.4-.8.3-.4-.4 1-1.7-1.3-2.5-3.1-1-1.4 1.1-1.6 1.1-.9-.1.6-.9.4-1.2-.5-.9-.8.3-1.5 1-1.5 1.6-.1.7-.2 1.9-.3 2.8 0 .8-.6 1.2-1.1.9-.8-.5-.8-1.1 0-2 .8-.9.8-1.5 0-2-.5-.3-1 .2-1 1.2 0 1.5-.2 1.6-1 .3-.5-.8-1-1.1-1-.5 0 2.2 1.9 3.7 4.9 4 1.7.1 2.8-.1 2.6-.6-.3-.4 0-1.1.6-1.5.7-.4.9-.3.5.4-.3.6-.2 1.3.4 1.7.5.3 1 1.3 1 2.1s-.5 1.2-1 .9c-.6-.4-.8-1-.5-1.5.3-.4-.4-.6-1.5-.3s-2 .9-2 1.4c0 .5.6.6 1.4.3.8-.3 2 .3 2.7 1.4 1.2 2 1.3 2 3.2-.2 1-1.1 1.5-1.5 1.1-.7-.5 1.1-.3 1.3.9.8 1.5-.6 2.2.3 1.8 2.5 0 .5.4.8.9.8.6 0 .8-1.1.6-2.4-.3-1.8-.1-2.3.9-1.9 1 .3 1.3-.1 1-1.6-.2-1.2.1-2.1.7-2.1.5 0 .8.7.4 1.5-.3.8-.1 1.5.4 1.5.6 0 1-.6 1-1.3 0-.8.9-2.2 2-3.2s1.7-2.2 1.3-2.8c-.4-.6-1.4-.1-2.5 1.2-1 1.3-1.8 1.9-1.8 1.3 0-.5.7-1.5 1.5-2.2 1.1-.9 1.2-1.6.4-2.6-.6-.7-.8-1.9-.4-2.6.3-.7-.8.3-2.5 2.2-1.8 1.9-2.7 2.6-2.1 1.4.5-1.2.7-2.5.3-2.9-.4-.5-.2-.5.4-.2.7.4 1.5 0 1.8-.9.4-.9.5-1.7.4-1.8-.2-.1-1.4-.7-2.8-1.5-2.3-1.3-2.4-1.3-1.1.3 1.3 1.6 1.2 1.7-1.1 1.1-2-.5-2.9-.2-3.7 1.4-.9 1.6-.8 2.2.6 3 1 .6 1.3 1.1.8 1.1-2.2 0-3.4-2.2-2.5-4.6.5-1.3.7-2.4.5-2.4-.3 0-1 1.1-1.5 2.5-.9 2.2-1.2 2.4-3 1.3-2-1.3-2.7-2.8-1.2-2.8.4 0 1.3.5 2 1.2.9.9 1.2.9 1.2 0 0-.7-.5-1.2-1.1-1.2-.5 0-.7-.5-.4-1 .4-.6 1.1-.8 1.6-.5.5.3.6 0 .4-.7-.3-.7-1.5-1.9-2.6-2.6-1.2-.8-1.8-.9-1.4-.3.9 1.5-.8 1.4-2.3-.1-.9-.9-1.2-.9-1.2 0zm5.5 3c-.3.3-1.5.6-2.7.7-2 .2-2 .1-.3-1.1 1.7-1.3 4.3-.9 3 .4zm9 4.2c.4.6-.1.7-1.1.3-1.2-.4-1.5-.3-1 .5.4.7.2 1.2-.3 1.2-1.2 0-1.4-1.3-.4-2.3.9-1 2.1-.9 2.8.3zm4.7 5.2c-.7.7-1.2.8-1.2.2 0-1.4 1.2-2.6 1.9-1.9.2.3-.1 1.1-.7 1.7zm-4.8 1.6c.3.5-.1.9-.9.9s-1.2-.4-.9-.9c.3-.4.7-.8.9-.8.2 0 .6.4.9.8zm-2.4 3.7c.4-.3 1.1.2 1.4 1 .4 1.3.2 1.4-1.4.5-1.1-.6-2-1.6-1.9-2.3 0-.9.2-.9.6.1.2.6.8 1 1.3.7zm-2.9 3.8c-1 .9-1.1.8-.5-.6.3-1 .9-1.5 1.2-1.2.3.3 0 1.1-.7 1.8zm-71-18.7c0 1.1.3 1.4.6.6.3-.7.2-1.6-.1-1.9-.3-.4-.6.2-.5 1.3zm84.5.1c-.6 1.4-.5 1.5.5.6.7-.7 1-1.5.7-1.8-.3-.3-.9.2-1.2 1.2zm127-.5c.3.5 1 .6 1.5.3 1.3-.9 1.1-1.2-.6-1.2-.8 0-1.2.4-.9.9zm-207 2c.3.4 1.1.5 1.9.1 2.1-.7 1.9-1.2-.4-1-1.1 0-1.8.5-1.5.9zm221.7.1c-2.5 1.1-2.9 2.2-1.3 3.2.8.5.8 1.1 0 2-.8.9-.6 1.4.6 1.9.9.3 2 .3 2.6 0 .6-.4.8-.1.6.7-.3.8-1.1 1.3-1.7 1.1-.7-.1-1 .2-.6.8.5.8 1.1.8 2 0 1.4-1.2 4.1 1.2 3.1 2.9-.4.5-.2 1.2.4 1.6.6.4.7 1.2.3 1.8-.4.7.2.5 1.2-.3 1.7-1.4 1.8-1.3 1.2.3-.4 1.1-.3 1.6.3 1.2.6-.3 1-.1 1 .6s.3.9.6.6c1.1-1-2.6-5.8-3.8-5.1-.7.4-.8.3-.4-.5.4-.6 1.1-.9 1.6-.6.5.3 1.3-.2 1.8-1.1.6-1.1 1.1-1.3 1.6-.5.4.6.3 1.1-.3 1.1-1 0-.9 2.5.2 3.6.4.4.7 1.6.7 2.6 0 2.1 1.5 2.4 2.7.5.4-.8 1.6-1.8 2.7-2.4 1.6-.9 1.7-1.1.2-1.6-1.1-.5-1.5-.3-1 .5.4.7.3.8-.5.4-.6-.4-1-1.3-.9-1.9.2-.7-.2-1.4-.7-1.5-2.2-.8-3.3-2.4-3-4.3.2-1.1 0-1.7-.6-1.4-.5.4-.7 1.1-.4 1.6.4.5.1.9-.4.9-1 0-1.5-1.4-1.2-3.3.1-.5-.3-.6-.9-.2-.5.3-1.3-.1-1.6-.9-.3-.9-1.3-1.6-2.1-1.6-.9 0-1.3-.6-1-1.5.8-2-.4-2.5-3-1.2zm2.7.2c0 .2-1 .9-2.2 1.5-2.2 1.1-2.2 1-.4-.4 2.1-1.7 2.6-1.9 2.6-1.1zm2 5c.4-.3 1.4.3 2.1 1.2 1 1.2 1 1.4.2.9-.8-.4-1.3-.2-1.3.6-.1.8-.6.6-1.5-.6-.8-1.1-1.5-2.5-1.4-3 0-.6.3-.5.6.2.2.6.8 1 1.3.7zm9 8c-.5.7-.9 1.4-.7 1.6.1.2 0 .3-.2.1-1.1-.7-.7-2.9.5-2.9.9 0 1.1.4.4 1.2zM267.5 483c-.4.6-1.1.8-1.6.5-.5-.4-.6.2-.2 1.1.4 1.1.8 1.3 1.1.6.2-.7.7-1 1.1-.8.4.3.8-.1.8-.9 0-1.8-.3-1.9-1.2-.5zm-10.5 5c0 .5.5 1 1.1 1 .5 0 .7-.5.4-1-.3-.6-.8-1-1.1-1-.2 0-.4.4-.4 1z"/><path d="M322.6 489.5c1.3 1.9 1.2 2.4-.6 4-2.3 2.1-1.6 4.2.8 2.3 1.4-1.1 1.5-1 .9.6-.6 1.4-.4 1.7 1 1.2.9-.4 2-.2 2.4.5.5.8 1.1.8 2.5-.1 1.6-1 1.6-1.1.2-.6-1.2.4-1.8 0-1.8-1s-.6-1.4-1.5-1.1c-.8.4-1.7.2-2-.2-.3-.5.8-.8 2.5-.7 3.2.2 3.2-.1-.2-1.9-1.3-.6-2.2-1.7-2-2.3.1-.7-.3-1.2-.9-1.2-.5 0-.8-.4-.5-.8.3-.5-.1-.9-.9-.9-1.1 0-1.1.4.1 2.2zm3 3.7c.4.7.3 1-.1.5-.5-.4-1.8.1-2.9 1-2.1 1.8-2.1 1.8-.2-.5 2.2-2.6 2.3-2.6 3.2-1zm-89.1-3.1c-.4.6-.4 1.3-.1 1.6.3.4.6.1.6-.6s.5-.9 1.2-.5.8.3.4-.4c-.9-1.5-1.3-1.5-2.1-.1zm23.1.6c-.6 1.4-.5 1.5.5.6.7-.7 1-1.5.7-1.8-.3-.3-.9.2-1.2 1.2zm14.9-.8c-.6 1.1.9 2.3 1.9 1.4.9-.9.7-2.3-.3-2.3-.6 0-1.2.4-1.6.9zM287 492c0 .5.5 1 1.1 1 .5 0 .7-.5.4-1-.3-.6-.8-1-1.1-1-.2 0-.4.4-.4 1zm-49.5 1c-.4.6.1.7 1.1.3 1.3-.5 1.5-.3.9.7-.5.9-.4 1.1.3.6.7-.4 1.2-1.1 1.2-1.7 0-1.2-2.7-1.2-3.5.1zm37.8.7c.4.3 0 1.4-.8 2.3-1.8 2-1 5.2 1.3 4.8.8-.2 1.7.3 1.9 1 .3.8-.1 1-1.4.5-1.4-.5-1.2-.1.6 1.5 1.3 1.2 2.7 1.9 3.1 1.7.5-.3 1-.2 1.3.2.2.5.2.3.1-.4-.3-1.4 2.4-3.8 3.3-2.9.3.3.1.6-.5.6-1.7 0-1.5 1.7.2 2.3.8.3 1.3-.1 1.2-1.1 0-1 .5-1.6 1.4-1.4 1.2.3 1.3.1.3-.9-1.8-1.8-1.6-3 .2-2.3.8.4 1.5.1 1.5-.6 0-.6-.5-.8-1.2-.4-.7.5-.9.2-.6-.8.4-.9 0-1.5-.8-1.5s-1.4.5-1.4 1-.7.4-1.5-.3c-1.3-1.1-1.4-1-.9.5.6 1.4.4 1.6-.7 1-1.1-.6-1.2-.5-.1.6 1.6 1.8 1.6 3.4-.1 2-.8-.6-1.7-.8-2-.4-1.4 1.3-3.4-1.8-3.1-4.7.2-1.8-.1-3-.8-3-.6 0-.8.3-.5.7zm.4 4.2c0 1.1-.5 1.8-.9 1.5-.4-.3-.5-1.1-.1-1.9.7-2.1 1.2-1.9 1 .4zm9.9 2c0 1.6-.3 1.7-1.4.9-1.2-1-.7-1.9 1.3-2.8.1 0 .1.9.1 1.9zm-4.7 3.7c-.6.7-1.5 1.1-2.1.8-.5-.3-.4-1.2.3-2 .6-.7 1.5-1.1 2.1-.8.5.3.4 1.2-.3 2zm185.1-9.5c0 .5.5.7 1 .4.6-.3 1-.8 1-1.1 0-.2-.4-.4-1-.4-.5 0-1 .5-1 1.1zm-380 1.3c0 .8-.4 1.8-1 2.1-.6.4-.7-.1-.4-1.2.4-1.4.4-1.5-.4-.4-.5.7-1.6 1.8-2.3 2.3-1.1.8-1 .9.4.4.9-.3 1.7-.1 1.7.5s.5.7 1.2.3c.7-.4.8-.3.4.4-.4.6-1.4.8-2.4.5-1.1-.4-.9.2.8 1.8 2 2 2.7 2.2 3.8 1.1.8-.6 1.8-1 2.3-.7.5.4.9.1.9-.4 0-1.4-.6-1.4-3.1-.1-1.3.7-1.9.7-1.9 0 0-.5.5-1 1.1-1 .5 0 .8-.4.4-.9-.3-.6.4-.8 1.5-.6 1.3.2 2-.1 2-1.1s-.5-1.2-1.2-.8c-.9.5-.9.2.1-.9 1.6-2 .2-2.3-1.8-.5-1 .9-1.2.9-.7.1.3-.6.2-1.4-.4-1.8-.5-.3-1 .1-1 .9z"/><path d="M279.9 494.5c-.1.3-.2.8-.3 1.2-.1.5-.5 1.5-1 2.3-.7 1.2-.6 1.3.4.3 1.3-1.2 2.3-4.3 1.4-4.3-.2 0-.5.2-.5.5zm41.6 4.4c.3.5.1 1.2-.5 1.6-.5.3-1 0-1-.7 0-.9-.3-.9-1 .2-.6.9-1 1.1-1 .3 0-.7-.7-1-1.6-.6-1.2.4-.8.9 1.5 2.1 1.7.8 3.1 1.9 3.1 2.4 0 .6-1 .3-2.3-.5-1.9-1.2-2.4-1.3-2.4-.2 0 .8.3 1.4.6 1.3 1.9-.2 3.1.3 2.6 1.1-.3.5-.1 1.2.4 1.5.5.4 1.3.2 1.6-.4.5-.8 1.2-.7 2.3.2 1.3 1 1.3.8-.1-.9-1.2-1.4-1.5-2.3-.8-2.8.6-.3 1.1-.1 1.1.6s.3 1 .6.6c.4-.3.3-1.4 0-2.4-.6-1.5-.9-1.5-1.6-.3-.5.8-1.3 1.1-1.7.6-.4-.4 0-1.3 1-2.1 1.6-1.1 1.6-1.3.2-1.9-.9-.3-1.3-.2-1 .3zm3.5.3c0 2.5 1.4 3.7 2.6 2.4.9-1 .7-1.6-.7-2.4-1.5-1-1.9-.9-1.9 0zm154 1.8c-2.2 2.2-2.6 4-.9 4 .8 0 .7.6-.2 1.7-1.3 1.5-1.1 1.5 1.3-.1 1.7-1.1 2.8-1.4 3.3-.6.3.6 1.1.8 1.6.4.5-.3.6-1 .3-1.6-.4-.7-.2-.8.4-.4.7.4 1.2.1 1.2-.9s-.5-1.3-1.2-.9c-.7.5-.9.2-.5-.9s.2-1.4-.8-1c-.8.3-1.3.9-1 1.4.3.4-.3 1.3-1.4 1.9-1.1.5-2.2.6-2.5.1-.8-1.3.4-2 2.2-1.4 1 .4 1.4.3 1-.2-.4-.4-.3-1.4.3-2.2 1.9-2.2-.8-1.6-3.1.7zm-400.1-.7c0 .1-.2 1-.4 2-.5 2.8-2.7 4.9-4.5 4.4-.9-.2-1.7.1-1.7.8 0 .7.7 1.1 1.6.8 1.2-.3 1.2-.2-.2.7-.9.6-2.3.8-3 .4-.8-.6-.8-.3.1.9.8.9 1.1 2 .8 2.5-.3.5.4 1.6 1.5 2.5 1.6 1.4 1.9 1.4 1.9.2 0-.8-.6-1.5-1.2-1.5-.9 0-.8-.3.2-1 1-.6 2-.4 3.3.8 1.5 1.3 1.8 1.4 1.5.2-.2-.8.3-1.4 1-1.2.6.1 1.1-.1 1-.5-.4-1.5 1.3-5.3 2.3-5.3.6 0 .7.4.4 1-.3.5-.2 1 .3 1s.9-1.2 1-2.8c0-2-.7-3.2-2.9-4.4-1.6-1-2.9-1.6-3-1.5zm5.1 4.1c0 .2-.7.7-1.6 1-.8.3-1.2.2-.9-.4.6-1 2.5-1.4 2.5-.6zm-3.8 4.3c-.6.3-1 .8-.7 1.3.3.4-.3 1.4-1.3 2.1-1.5 1.3-1.6 1.2-.4-.3 1.1-1.4 1-1.8-.5-2.7-1-.6-1.2-1.1-.5-1.1.6 0 1.1-.3 1.1-.8-.4-2.1.3-2.4 1.9-.8 1.2 1.4 1.4 2 .4 2.3z"/><path d="M78.3 507.5c0 .8.4 1.2.9.9.5-.3.6-1 .3-1.5-.9-1.3-1.2-1.1-1.2.6zm223.7-6.9c0 .2.9.8 2 1.4 1.5.8 1.8.8 1.4-.3-.4-1.1-3.4-2.1-3.4-1.1zm-62 1.4c-.9.6-1 1-.3 1 .6 0 1.5-.5 1.8-1 .8-1.2.4-1.2-1.5 0zm61.7 1.1c.7.7 1.5 1 1.8.7.3-.3-.2-.9-1.2-1.2-1.4-.6-1.5-.5-.6.5zm-49.6 1.5c0 1.1.3 1.4.6.6.3-.7.2-1.6-.1-1.9-.3-.4-.6.2-.5 1.3zm233.1 2.2c-1.7 1.7-2 1.7-3 .3-1-1.5-1.1-1.5-1.1 0-.1 2.4 2.6 3.1 3.9 1.1 1-1.5 1-1.5.6.3-.6 2.5 1.8 7.3 2.8 5.6.4-.6 1.2-.8 1.8-.5.7.5.9.1.5-.9-.3-.8 0-1.8.7-2 .9-.4 1.2.4 1.1 2.6-.2 2.2.5 4 2.1 5.6 2 2 2.2 2.7 1.2 4-1 1.3-1 1.4.2.3 2-1.7 3.5-1.5 2 .3-1.1 1.3-1.1 1.8 0 2.8 1 1 1.2.9.7-.4-.3-1.1.1-1.5 1.6-1.5 1.4.1 2.1-.6 2.4-2.7.3-1.9-.1-2.7-1.1-2.7-.8 0-1.6.5-1.8 1.2-.2.6-1 .8-1.6.4-1.7-1-1.5-2.9.3-2.3.8.4 1.7.2 2-.4.4-.5.1-.8-.7-.7-.7.2-1.2-.5-1.1-1.5 0-1.2-.4-1.7-1.3-1.3-.9.4-1.4 0-1.2-.9.2-.7-.1-1.3-.7-1.2-.5.1-.9.6-.7 1 .1.5-.2.6-.8.2-.6-.4-.8-1.6-.4-2.7.5-1.7.3-2-1.1-1.4-1.3.4-1.6.2-1.1-.9.3-.8.1-1.5-.5-1.5s-.7-.5-.3-1.2c.4-.6.3-.8-.4-.5-.5.4-.9 1.5-.7 2.5.1.9 0 1.1-.2.4-.3-.6-.9-1.2-1.4-1.2-.6 0-.7-.5-.4-1 1-1.6-.4-1.1-2.3.8zm11.3 10c-.3.3-1.1 0-1.8-.7-.9-1-.8-1.1.6-.5 1 .3 1.5.9 1.2 1.2zm-237.2-9.3c0 .8.4 1.2.9.9.5-.3.6-1 .3-1.5-.9-1.3-1.2-1.1-1.2.6zm24 0c0 .8.4 1.2.9.9.5-.3.6-1 .3-1.5-.9-1.3-1.2-1.1-1.2.6zm-215 5.5c.1 1.5-.3 2.4-1 2.3-.7-.2-1.8.7-2.4 2-1.2 2.1-1.1 2.1.6.7 1-.8 1.6-1 1.2-.3-.5.7-.1 1.2 1 1.1 1 0 2.7.3 3.8.7l2 .8-2-1.7c-1.6-1.3-1.7-1.5-.2-1 2.1.8 2.3-1.4.1-2.3-.8-.3-1.3-1.2-1-2 .3-.8.2-1.2-.3-.8-.5.3-1.2-.1-1.5-.7-.3-.7-.4-.2-.3 1.2zm414.5-.2c.9 1 1.9 1.7 2.1 1.6.6-.5-2-3.4-3-3.4-.5 0-.1.8.9 1.8z"/><path d="M65 513.4c0 .2.7.7 1.6 1 .8.3 1.2.2.9-.4-.6-1-2.5-1.4-2.5-.6zm424 2.3c0 .7.5 1.3 1.1 1.3.5 0 .7.5.3 1.2-.4.6-.3.8.3.5 1.2-.8 3.6 1.7 2.6 2.6-.3.4-.1.7.5.7 1.8 0 1.4-1.5-.8-3.5-1.2-1-1.9-2.4-1.6-3 .2-.7-.2-1.2-1-1.2s-1.4.6-1.4 1.4zm-426.7 3.7c.6 1.6.5 1.7-.8.6-1-.9-1.5-.9-1.6-.1-.1.6-.3 1.5-.4 2.1-.1.5-.3 1.4-.4 1.9 0 .5-1.2.8-2.6.7-2-.3-2.3 0-1.5 1.5 1.3 2.3 1.3 2.9-.1 2.9-.5 0-.8-.4-.4-.9.3-.5 0-1.3-.7-1.7-.7-.4-1-.4-.6.1.4.4.3 1.6-.3 2.6-.8 1.5-.6 1.7.8 1.2 1.6-.6 1.6-.5.4 1.1-1.4 1.7-1.6 1.6-3.4-.6l-1.8-2.3 1.1 2.4c1.1 2.1 1 2.3-.3 1.8-1.2-.4-1.4-.2-1 1 .4 1.1.2 1.4-.5.9-.8-.5-1-.1-.5 1 .4 1.2.8 1.4 1.1.6.3-1 .7-1 1.9-.1 1.2 1 1.6 1 2.4-.2.7-1.2.9-1.2.9 0 0 .8.3 1.1.6.8.4-.4.1-1.4-.7-2.3-1.1-1.4-1-1.5.7-1.2 1 .1 2.5 1 3.2 1.8.8.9.7.2-.3-1.8-.9-1.8-1.1-3.1-.6-3 .5.2 1.6-.6 2.4-1.7 1.3-1.6 1.7-1.7 3.1-.6.9.8 1.9 1.1 2.3.7.3-.3.2-.6-.4-.6-1.9 0-2.3-3.1-.8-5.3.8-1.2 1.5-1.7 1.5-1.1 0 .5-.5 1.5-1.1 2.1-.6.6-.8 1.7-.3 2.4.5.9 1 .6 1.6-1 .6-1.8 1.1-2.1 2.1-1.2 1 .8 1.4.7 1.4-.4 0-.8-.4-1.2-.8-.9-.4.2-1.1-.5-1.4-1.7-.4-1.1-.9-1.8-1.2-1.5-.4.3-1.3 0-2.1-.7-1.3-1-1.5-.9-.9.7zm-.8 2.5c.3.5.2 1.2-.3 1.5-.5.3-.9-.1-.9-.9 0-1.7.3-1.9 1.2-.6zM60 526c-1.8 1.2-3 1.3-3 .2 0-.4 1-.9 2.2-.9 1.8-.2 2 0 .8.7zm-7.6 9.1c-.3.5-1 .7-1.5.3-.5-.3-.7-1-.3-1.5.3-.5 1-.7 1.5-.3.5.3.7 1 .3 1.5z"/><path d="M67.4 520.1c-.4.7-.3.9.4.5.6-.3 1.5.2 2.1 1.1.6 1 1.1 1.3 1.1.7 0-2-2.7-3.7-3.6-2.3zm436.1 1.9c-.3.6.1.7.9.4 1.8-.7 2.1-1.4.7-1.4-.6 0-1.3.4-1.6 1zm.3 2.1c-2.4 1.4-2.3 2.4.3 2.6 1.2.1 1.9-.1 1.5-.4-.3-.3-.1-1.2.5-2 1.3-1.5.1-1.7-2.3-.2z"/><path d="M507.2 524.9c-.8.4-1.3 1.2-1.3 1.7s-.6.9-1.3.9c-.8 0-1.8.4-2.2.8-.4.4 0 .7.9.7 2 0 2.2 1.1.5 2.9-1 1.1-1 1.3 0 .7.6-.4 1.2-.2 1.2.4 0 .7.6 1 1.4.7 1.4-.6 4 1.5 3.1 2.4-1.1 1.2 4 .6 5.8-.6 1.9-1.4 1.9-1.4-.6-2-1.8-.5-2.4-1.2-2.2-2.6.2-1.1 0-1.7-.6-1.3-.6.3-1.3-.3-1.6-1.5-.3-1.1-1-1.8-1.6-1.4-.6.4-.8 0-.4-1 .7-1.9.7-2-1.1-.8zm4.2 8.4c-.2 1.4.2 1.7 1.9 1.2 2-.5 2-.5.4.5-1.5 1-2.3.8-4.4-1.2-1.3-1.2-2.7-2.2-3-2-.2.2-.7.1-1-.2-.4-.3.4-.6 1.6-.6 1.8 0 2.2-.4 1.6-1.7-.5-1.5-.3-1.5 1.3.2 1.1 1.1 1.8 2.8 1.6 3.8z"/><path d="M509 531.9c0 .6.4 1.3 1 1.6.6.3.7-.1.4-.9-.7-1.8-1.4-2.1-1.4-.7zm-448.8-3.4c.4.4 0 1.3-.9 2-1.3 1-1.4 1.3-.2 2 .8.5 1.1.5.7 0-.4-.4 0-1.3.9-2 1.3-1 1.4-1.3.2-2-.8-.5-1.1-.5-.7 0zm445.8 7.6c0 .5.5.7 1 .4.6-.3 1-.8 1-1.1 0-.2-.4-.4-1-.4-.5 0-1 .5-1 1.1z"/></svg>