<?xml version="1.0" standalone="no"?>
<!DOCTYPE svg PUBLIC "-//W3C//DTD SVG 20010904//EN"
 "http://www.w3.org/TR/2001/REC-SVG-20010904/DTD/svg10.dtd">
<svg version="1.0" xmlns="http://www.w3.org/2000/svg"
 width="564.000000pt" height="564.000000pt" viewBox="0 0 564.000000 564.000000"
 preserveAspectRatio="xMidYMid meet">
<metadata>
Created by potrace 1.14, written by Peter Selinger 2001-2017
</metadata>
<g transform="translate(0.000000,564.000000) scale(0.100000,-0.100000)"
fill="#000000" stroke="none">
<path d="M2610 5360 c0 -4 7 -11 16 -14 8 -3 12 -2 9 4 -3 6 -1 10 4 10 6 0
11 -5 11 -11 0 -5 5 -7 12 -3 7 5 8 3 4 -5 -5 -7 -11 -10 -14 -7 -3 4 -17 -1
-31 -11 -25 -16 -25 -16 -11 2 14 17 13 18 -5 10 -11 -4 -32 -8 -46 -9 -15 0
-25 -6 -22 -12 2 -6 -3 -17 -11 -24 -9 -7 -13 -17 -9 -23 3 -6 1 -7 -6 -3 -6
4 -24 0 -39 -10 -15 -10 -33 -17 -39 -16 -8 2 -10 -4 -6 -15 6 -16 5 -17 -12
-3 -17 14 -18 14 -5 -10 13 -24 12 -25 -7 -8 -18 17 -19 17 -17 -12 1 -18 -3
-28 -10 -27 -6 1 -10 -4 -8 -11 2 -10 -2 -10 -17 -3 -17 9 -19 7 -17 -18 2
-26 0 -28 -16 -20 -16 9 -17 7 -7 -18 8 -23 8 -26 -2 -15 -19 18 -28 15 -21
-10 4 -16 2 -20 -10 -15 -12 4 -14 1 -11 -14 3 -10 10 -16 16 -12 6 3 7 1 3
-5 -4 -7 -19 -10 -34 -7 -26 5 -26 5 -4 -5 24 -10 21 -35 -4 -26 -8 3 -11 0
-7 -9 3 -8 9 -12 14 -9 5 3 9 0 9 -5 0 -6 -12 -11 -27 -11 -26 0 -26 -1 -7
-16 14 -11 15 -14 3 -11 -12 4 -15 -1 -14 -21 1 -16 7 -26 14 -24 8 1 10 -2 5
-10 -5 -7 -9 -17 -11 -23 -1 -5 -5 -20 -9 -32 -4 -15 -2 -23 5 -23 7 0 9 -5 6
-10 -4 -6 -10 -8 -14 -6 -4 3 -8 -1 -8 -9 0 -8 4 -12 8 -10 4 3 9 -2 13 -10 3
-8 0 -17 -6 -21 -7 -5 -8 -2 -3 6 5 8 4 11 -3 6 -12 -7 -6 -31 12 -55 8 -11 8
-13 -1 -7 -7 4 -13 3 -13 -3 0 -5 5 -11 12 -13 10 -4 10 -13 1 -44 -11 -36
-11 -38 4 -19 l16 20 -7 -20 c-13 -35 -11 -40 11 -39 15 0 20 -3 14 -10 -8
-11 -11 -50 -3 -41 5 4 32 -20 32 -29 0 -3 -6 -4 -12 -2 -7 1 -10 1 -5 -1 4
-3 4 -10 1 -15 -4 -6 -2 -8 4 -4 6 3 17 -1 25 -9 9 -8 20 -15 26 -15 15 0 14
-13 -1 -29 -11 -11 -9 -13 12 -8 24 6 24 5 6 -8 -19 -15 -19 -15 1 -15 12 0
25 -5 29 -12 4 -7 3 -8 -4 -4 -8 5 -10 2 -6 -9 5 -11 10 -13 19 -5 9 7 16 5
26 -7 12 -14 12 -16 0 -9 -9 6 -12 5 -10 -3 3 -7 7 -11 9 -10 3 2 17 -9 32
-24 15 -15 33 -25 40 -22 7 2 22 -8 32 -23 l19 -27 -29 25 -29 25 24 -27 c13
-15 28 -25 33 -22 5 3 19 -2 30 -13 21 -18 21 -18 9 5 -6 12 -17 22 -23 22 -6
0 -8 3 -5 6 4 4 13 2 20 -4 8 -7 17 -8 21 -4 4 4 7 2 6 -3 -4 -20 0 -35 11
-35 5 0 7 5 4 10 -3 6 -2 10 3 10 6 0 13 -7 16 -16 3 -8 2 -13 -2 -10 -4 2
-14 0 -22 -6 -13 -8 -12 -9 1 -5 9 3 22 0 29 -6 9 -9 11 -9 7 -1 -4 7 0 15 8
18 10 3 15 1 13 -7 -3 -13 3 -17 25 -17 8 0 7 4 -3 10 -12 8 -10 9 9 7 13 -2
31 -12 39 -23 12 -16 14 -16 9 -2 -3 10 -1 20 5 24 7 4 8 3 4 -4 -4 -6 4 -16
16 -23 20 -11 21 -10 11 3 -10 12 -10 15 2 15 8 0 15 -4 15 -9 0 -5 4 -7 9 -3
6 3 14 -3 20 -12 6 -11 11 -13 11 -5 0 7 5 10 12 6 7 -4 8 -3 4 5 -4 6 -12 8
-18 5 -7 -5 -8 -2 -4 5 5 7 11 10 14 7 3 -3 11 -1 18 4 8 8 11 7 10 -4 0 -8 4
-15 9 -14 6 0 9 3 8 8 -1 4 9 8 23 8 21 0 23 -3 12 -17 -11 -14 -11 -14 3 -4
9 7 18 10 21 7 3 -3 9 0 14 7 5 8 3 10 -6 4 -8 -5 -11 -4 -7 2 4 6 18 8 32 5
17 -3 25 0 25 9 0 11 2 11 9 -1 6 -8 7 -18 4 -24 -3 -5 -1 -6 5 -2 6 3 9 15 7
26 -3 13 1 17 11 13 8 -3 14 0 14 6 0 6 -5 11 -12 11 -6 0 -8 3 -4 7 4 5 15
-1 23 -12 15 -20 15 -20 10 2 -4 18 -1 21 20 17 17 -3 22 -1 18 7 -5 8 -1 8
15 -1 12 -6 24 -9 28 -6 3 3 0 6 -5 6 -6 0 -10 8 -8 18 1 9 9 16 18 14 12 -2
15 2 11 15 -4 14 -3 15 4 4 7 -10 14 -10 29 -2 11 5 24 7 28 3 5 -4 5 -1 1 6
-4 7 -12 9 -18 6 -7 -4 -8 -2 -4 5 4 6 12 9 17 6 5 -4 9 2 9 12 0 15 2 16 10
3 8 -13 10 -12 10 3 0 10 4 16 9 12 5 -3 12 -1 16 5 4 6 11 7 17 4 7 -4 8 -2
4 4 -4 7 -2 12 5 12 8 0 7 5 -4 13 -15 11 -14 14 3 35 11 13 24 21 30 17 5 -3
10 -1 10 5 0 6 5 8 10 5 6 -4 7 -11 4 -17 -4 -7 -2 -8 5 -4 9 6 9 11 0 22 -9
11 -9 14 1 14 8 0 11 3 8 6 -4 3 -17 1 -30 -6 l-23 -11 24 20 c12 12 28 18 35
14 6 -3 2 4 -9 17 -11 13 -14 20 -7 16 6 -4 12 -3 12 2 0 4 9 18 21 31 18 19
19 24 7 38 -10 13 -10 15 0 9 9 -6 11 -1 8 18 -3 14 -1 25 4 23 4 -1 8 3 8 8
0 6 -5 9 -11 7 -6 -2 -5 4 3 12 15 19 24 21 14 4 -4 -7 -3 -10 1 -5 13 12 13
46 0 41 -6 -3 -12 2 -12 10 0 8 7 12 16 9 13 -4 13 -2 -1 10 -20 16 -14 28 10
20 10 -4 6 3 -8 15 -21 19 -22 21 -5 16 16 -6 18 -5 8 7 -15 16 -17 33 -3 24
6 -3 7 1 4 9 -3 9 -11 13 -18 9 -6 -3 -3 3 7 14 9 11 17 24 17 29 0 5 -5 2
-11 -6 -9 -12 -10 -11 -6 8 3 12 0 22 -5 22 -6 0 -4 7 3 16 12 15 11 16 -10 9
-21 -6 -22 -5 -10 8 8 8 17 13 22 10 4 -2 7 1 7 6 0 15 -13 14 -29 -1 -11 -11
-11 -9 -2 10 9 17 9 22 -1 22 -9 0 -9 3 2 10 8 5 10 10 4 10 -5 0 -16 -6 -23
-12 -11 -11 -12 -9 -6 11 4 14 3 21 -2 18 -5 -4 -10 0 -10 8 0 8 4 12 9 9 4
-3 5 2 2 10 -3 9 -10 14 -14 11 -4 -3 -11 2 -14 11 -3 8 -2 12 4 9 6 -3 7 1 4
10 -4 9 -13 14 -20 11 -7 -3 -16 0 -20 6 -4 6 -3 8 3 5 7 -4 10 3 9 17 0 14
-6 22 -13 19 -7 -3 -10 -9 -7 -14 3 -5 0 -9 -6 -9 -7 0 -10 6 -7 13 6 16 -28
59 -39 49 -5 -4 -2 1 5 11 8 9 11 20 7 24 -3 3 -6 1 -6 -5 0 -6 -19 8 -43 31
-24 23 -42 45 -40 48 1 3 -4 6 -12 6 -22 0 -18 -15 5 -22 21 -7 46 -43 36 -53
-3 -3 -6 0 -6 6 0 18 -32 44 -47 38 -8 -3 -11 -1 -8 4 3 6 1 10 -5 10 -6 0 -8
11 -6 26 5 25 4 26 -14 9 -17 -16 -19 -15 -40 13 -21 28 -58 35 -43 8 3 -6 0
-5 -8 2 -12 11 -11 15 5 28 11 8 15 14 10 14 -6 0 -15 -5 -22 -12 -9 -9 -12
-9 -12 0 0 7 -9 12 -21 12 -13 0 -18 -4 -13 -12 6 -10 4 -10 -8 0 -12 10 -59
13 -187 11 -94 -1 -171 -5 -171 -9z m398 -35 c-3 -3 -9 2 -12 12 -6 14 -5 15
5 6 7 -7 10 -15 7 -18z m62 -20 c0 -5 -5 -3 -10 5 -5 8 -10 20 -10 25 0 6 5 3
10 -5 5 -8 10 -19 10 -25z m-297 -129 c-3 -6 0 -5 8 2 7 6 17 12 22 12 4 0 5
-6 1 -12 -6 -10 -4 -10 7 0 15 14 33 17 25 4 -3 -5 5 -7 17 -6 12 1 22 3 22 4
0 1 8 3 18 5 14 3 16 0 7 -10 -8 -10 -8 -15 1 -21 8 -5 9 -3 4 6 -6 10 -4 12
8 7 9 -3 19 -1 23 5 5 7 2 8 -6 3 -9 -5 -11 -4 -6 4 5 8 15 6 36 -9 21 -15 30
-17 33 -8 3 7 4 -3 1 -22 -4 -31 -3 -32 6 -11 8 18 13 21 24 12 7 -6 17 -7 21
-3 5 4 5 1 1 -6 -4 -7 -11 -10 -16 -7 -5 3 -11 1 -14 -4 -3 -4 2 -8 12 -8 41
0 45 -2 33 -17 -10 -12 -8 -13 8 -9 14 3 21 1 21 -8 0 -11 2 -11 10 1 5 8 10
10 10 4 0 -5 -6 -16 -12 -23 -11 -11 -9 -12 9 -7 23 7 40 -8 22 -20 -8 -5 -9
-3 -4 6 5 9 4 11 -4 6 -18 -11 -3 -25 22 -19 18 4 19 3 7 -6 -13 -9 -11 -11 7
-11 12 0 25 -5 29 -12 5 -8 2 -9 -9 -5 -9 3 -19 2 -22 -4 -4 -5 -1 -8 7 -7 8
2 12 -4 10 -14 -3 -20 14 -24 22 -5 3 6 3 -1 -1 -18 -5 -29 -5 -29 11 -10 13
16 15 17 10 2 -3 -9 0 -24 7 -33 10 -13 10 -17 -2 -25 -11 -7 -8 -9 11 -10 17
0 20 -3 10 -7 -16 -8 -23 -52 -7 -49 5 1 11 -6 12 -16 3 -15 1 -16 -12 -5 -14
11 -15 11 -6 -7 6 -11 8 -26 5 -34 -3 -10 0 -11 9 -5 11 6 11 4 -1 -10 -16
-20 -23 -49 -10 -41 11 7 6 -42 -5 -53 -4 -4 -5 -2 -1 5 3 6 1 15 -6 19 -7 4
-10 4 -6 -1 4 -4 3 -14 -3 -21 -7 -8 -6 -14 2 -20 8 -4 9 -3 5 4 -11 18 0 14
15 -5 8 -9 10 -14 4 -11 -5 3 -23 0 -40 -8 -25 -11 -26 -13 -5 -8 25 6 25 5
-5 -21 -16 -15 -25 -24 -18 -21 7 4 11 -1 10 -13 -1 -11 -3 -18 -5 -16 -7 6
-36 -25 -50 -54 -7 -14 -10 -18 -8 -9 4 12 1 15 -10 11 -8 -3 -13 -12 -10 -19
3 -7 1 -16 -4 -19 -4 -3 -11 1 -13 7 -4 8 -6 7 -7 -4 -4 -34 -5 -36 -12 -44
-4 -3 -5 4 -3 17 4 22 3 22 -9 7 -15 -20 -31 -25 -20 -6 4 7 3 8 -4 4 -7 -4
-12 -13 -12 -20 0 -8 -10 -20 -23 -29 -20 -13 -25 -13 -45 1 -20 13 -22 13
-16 -2 4 -11 1 -16 -12 -16 -11 -1 -52 -2 -92 -3 -54 -1 -72 1 -72 11 0 7 -5
10 -10 7 -6 -4 -7 -12 -3 -18 4 -6 -5 -2 -19 9 -16 12 -38 19 -58 18 -17 -1
-28 1 -25 4 4 4 11 7 16 7 12 0 7 19 -6 21 -5 0 -13 2 -17 4 -5 1 -13 3 -18 4
-6 0 -15 8 -21 16 -8 12 -9 9 -5 -10 3 -14 3 -19 0 -12 -3 6 -10 10 -15 6 -19
-11 -21 27 -3 42 11 9 13 13 7 9 -18 -9 -57 -15 -50 -8 4 3 -3 14 -15 25 -12
10 -19 21 -16 24 3 3 13 -2 22 -11 9 -9 16 -12 16 -7 0 5 -11 17 -25 26 -14 9
-23 22 -19 28 4 7 3 8 -5 4 -9 -6 -9 -11 0 -22 8 -10 8 -14 0 -14 -6 0 -11 5
-11 10 0 18 -2 25 -12 43 -6 13 -5 23 3 35 11 14 11 15 -1 5 -20 -18 -35 -16
-20 2 10 12 8 16 -15 25 -14 5 -23 14 -20 20 3 5 7 27 9 49 3 32 0 38 -13 33
-14 -5 -14 -4 -2 12 13 15 13 19 0 27 -12 7 -7 13 12 11 12 -1 2 60 -12 70
-11 8 -11 9 4 4 18 -6 24 9 7 19 -7 4 -6 14 2 28 7 12 11 25 10 29 -1 3 9 5
22 4 17 -2 23 1 19 10 -3 8 -10 11 -17 8 -6 -3 -3 1 6 9 10 8 15 17 11 20 -3
4 1 7 9 7 23 0 30 28 10 39 -23 14 -6 14 19 0 18 -9 19 -9 10 9 -10 18 -8 20
14 17 14 -1 25 2 25 6 0 5 -4 9 -10 9 -5 0 -10 4 -10 10 0 5 7 6 17 3 10 -4
14 -2 10 4 -4 6 2 18 13 28 11 10 20 15 20 10 0 -4 -8 -14 -17 -21 -17 -12
-16 -13 4 -11 12 0 21 4 21 7 -2 25 3 32 16 21 11 -9 16 -9 22 0 4 8 3 9 -4 5
-7 -4 -12 -5 -12 -2 0 3 9 10 21 16 15 9 24 8 37 -1 9 -8 14 -10 10 -5 -9 11
10 48 22 41 5 -3 11 -2 14 3 7 12 56 10 49 -2z m-93 -16 c0 -5 -2 -10 -4 -10
-3 0 -8 5 -11 10 -3 6 -1 10 4 10 6 0 11 -4 11 -10z m-430 -256 c0 -8 -19 -13
-24 -6 -3 5 1 9 9 9 8 0 15 -2 15 -3z m187 -290 c-3 -3 -12 -4 -19 -1 -8 3 -5
6 6 6 11 1 17 -2 13 -5z m-177 -44 c-8 -5 -19 -10 -25 -10 -5 0 -3 5 5 10 8 5
20 10 25 10 6 0 3 -5 -5 -10z m950 -6 c0 -8 -19 -13 -24 -6 -3 5 1 9 9 9 8 0
15 -2 15 -3z m190 3 c0 -2 -10 -12 -21 -23 -22 -19 -22 -19 -8 4 12 19 29 30
29 19z m-775 -167 c3 -5 1 -10 -4 -10 -6 0 -11 5 -11 10 0 6 2 10 4 10 3 0 8
-4 11 -10z m80 -48 c-3 -3 -11 0 -18 7 -9 10 -8 11 6 5 10 -3 15 -9 12 -12z
m585 14 c0 -2 -7 -9 -15 -16 -13 -11 -14 -10 -9 4 5 14 24 23 24 12z"/>
<path d="M2940 5168 c0 -2 9 -11 20 -21 11 -9 20 -13 20 -7 0 5 -9 14 -20 20
-11 6 -20 9 -20 8z"/>
<path d="M2930 5140 c0 -5 5 -10 11 -10 5 0 7 5 4 10 -3 6 -8 10 -11 10 -2 0
-4 -4 -4 -10z"/>
<path d="M2433 4918 c-21 -28 -24 -38 -9 -32 9 3 14 11 13 17 -1 7 4 11 11 9
8 -1 11 2 7 8 -8 13 -10 13 -22 -2z"/>
<path d="M2991 4394 c0 -11 3 -14 6 -6 3 7 2 16 -1 19 -3 4 -6 -2 -5 -13z"/>
<path d="M2960 4369 c0 -5 5 -7 10 -4 6 3 10 8 10 11 0 2 -4 4 -10 4 -5 0 -10
-5 -10 -11z"/>
<path d="M3095 5321 c-3 -5 -2 -12 3 -15 5 -3 9 1 9 9 0 17 -3 19 -12 6z"/>
<path d="M2503 5303 c1 -17 4 -19 14 -11 15 12 18 22 4 14 -5 -4 -11 0 -14 6
-3 7 -4 3 -4 -9z"/>
<path d="M2443 5253 c0 -9 4 -10 14 -2 7 6 13 12 13 14 0 1 -6 2 -13 2 -8 0
-14 -6 -14 -14z"/>
<path d="M2364 5192 c3 -5 0 -12 -6 -15 -7 -2 -10 -7 -7 -11 3 -4 12 0 18 8 9
11 9 16 0 22 -7 4 -9 3 -5 -4z"/>
<path d="M3286 5173 c-6 -14 -5 -15 5 -6 7 7 10 15 7 18 -3 3 -9 -2 -12 -12z"/>
<path d="M3305 5159 c-4 -6 -5 -12 -2 -15 2 -3 7 2 10 11 7 17 1 20 -8 4z"/>
<path d="M5113 4933 c0 -12 5 -19 9 -17 4 3 8 1 8 -5 0 -13 -15 -22 -24 -14
-12 12 -54 9 -49 -4 3 -6 12 -9 21 -7 9 3 1 -4 -18 -14 -19 -11 -39 -18 -44
-15 -5 4 -6 1 -2 -5 3 -6 -2 -16 -13 -21 -24 -14 -34 -40 -20 -57 6 -7 8 -18
4 -24 -3 -5 -2 -10 4 -10 16 0 24 21 12 33 -6 6 -11 16 -11 22 0 5 5 2 10 -7
9 -14 15 -15 41 -6 l32 11 -24 14 -24 14 27 -6 c22 -4 26 -2 22 10 -3 8 -10
12 -15 9 -5 -3 -9 0 -9 5 0 14 11 13 32 -3 10 -7 14 -17 10 -21 -4 -5 -1 -5 6
-1 7 4 10 11 7 16 -3 5 2 16 11 24 8 9 12 16 7 16 -5 0 -14 -5 -21 -12 -7 -7
-12 -8 -12 -2 0 12 20 42 20 30 0 -5 6 -3 13 3 8 6 17 7 22 3 8 -7 -6 21 -24
48 -8 12 -10 11 -8 -7z m-89 -108 c-28 -22 -40 -18 -13 4 13 11 26 17 28 15 3
-2 -4 -11 -15 -19z"/>
<path d="M5134 4942 c4 -3 14 -7 22 -8 9 -1 13 0 10 4 -4 3 -14 7 -22 8 -9 1
-13 0 -10 -4z"/>
<path d="M503 4916 c0 -14 6 -27 14 -31 13 -4 13 -8 2 -22 -8 -10 -9 -14 -2
-10 6 4 14 3 18 -3 4 -6 10 -8 14 -5 5 2 7 -6 6 -19 -2 -14 2 -23 11 -23 10 0
11 4 3 13 -7 9 -4 16 11 27 14 10 18 17 10 22 -6 4 -9 14 -6 22 5 11 2 13 -10
9 -8 -3 -18 -6 -20 -6 -2 0 -4 -7 -4 -15 0 -8 -5 -15 -11 -15 -7 0 -6 9 4 23
12 19 13 24 2 24 -8 0 -11 -5 -8 -10 3 -5 0 -8 -7 -5 -7 2 -14 12 -16 22 -4
28 -11 29 -11 2z"/>
<path d="M5034 4892 c3 -5 0 -13 -6 -15 -8 -3 -6 -6 5 -6 19 -1 23 14 5 25 -6
4 -8 3 -4 -4z"/>
<path d="M615 4880 c-4 -6 -11 -7 -17 -4 -7 4 -8 2 -4 -4 7 -12 36 -5 36 9 0
12 -7 11 -15 -1z"/>
<path d="M2209 4868 c-5 -18 -6 -38 -1 -34 7 8 12 36 6 36 -2 0 -4 -1 -5 -2z"/>
<path d="M584 4835 c-16 -11 -16 -12 1 -19 17 -6 17 -8 -1 -29 -10 -12 -15
-19 -10 -15 5 4 15 3 23 -3 7 -6 13 -8 13 -3 0 4 11 -3 25 -16 13 -12 22 -27
19 -31 -3 -5 2 -9 11 -9 9 0 13 5 9 11 -3 6 5 4 18 -5 23 -15 38 -13 38 5 0 5
-8 6 -17 3 -15 -5 -16 -4 -3 5 11 8 18 6 28 -7 16 -21 53 -25 45 -5 -5 12 -7
12 -14 1 -7 -11 -11 -10 -18 2 -5 8 -7 18 -5 22 3 5 0 7 -8 6 -7 -2 -12 5 -12
14 1 10 -3 15 -8 12 -5 -3 -7 -13 -4 -23 5 -12 2 -11 -9 3 -12 16 -12 22 -2
28 6 4 8 8 2 8 -13 0 -37 -16 -36 -24 3 -18 0 -26 -9 -26 -5 0 -9 5 -7 12 1 7
-3 12 -10 13 -6 0 -15 4 -20 9 -4 5 -3 6 4 2 15 -8 26 10 27 43 1 22 -4 27
-26 28 -15 0 -35 -5 -44 -12z m30 -17 c-1 -13 -3 -29 -3 -36 -1 -7 -6 -10 -11
-7 -8 5 -8 11 0 20 8 10 8 15 -1 20 -8 6 -7 10 2 16 8 5 14 9 15 9 0 0 0 -10
-2 -22z"/>
<path d="M670 4820 c-12 -8 -12 -10 -1 -10 11 0 10 -4 -3 -19 -14 -15 -15 -21
-4 -27 7 -4 10 -4 6 1 -4 4 -2 15 4 23 10 11 21 42 15 42 -1 0 -9 -5 -17 -10z"/>
<path d="M4948 4780 c0 -8 -1 -22 -2 -30 -1 -8 -10 -16 -21 -17 -20 -3 -20 -3
0 6 11 5 18 10 15 11 -27 8 -38 6 -36 -7 3 -17 26 -34 38 -27 4 3 5 -1 2 -9
-3 -8 1 -14 10 -14 10 0 14 8 12 21 -2 12 1 27 7 34 7 9 6 18 -6 30 -14 14
-17 14 -19 2z"/>
<path d="M4976 4727 c3 -10 9 -15 12 -12 3 3 0 11 -7 18 -10 9 -11 8 -5 -6z"/>
<path d="M4862 4715 c-7 -9 -8 -15 -2 -15 5 0 10 -4 10 -10 0 -5 -5 -9 -11 -7
-15 3 -20 -31 -7 -40 6 -3 8 -1 5 4 -4 6 0 13 8 16 8 4 12 1 9 -7 -6 -17 32
-51 41 -36 3 6 1 9 -6 8 -7 -2 -15 5 -17 15 -2 9 2 17 8 17 6 0 8 -4 5 -10 -3
-6 1 -7 10 -4 14 6 14 8 -2 20 -17 12 -17 13 3 9 17 -3 21 1 17 15 -3 10 -12
21 -21 24 -10 3 -21 8 -27 11 -5 2 -16 -2 -23 -10z m28 -11 c0 -8 -5 -12 -10
-9 -6 4 -8 11 -5 16 9 14 15 11 15 -7z"/>
<path d="M725 4701 c-3 -6 -10 -9 -15 -6 -5 3 -11 1 -14 -4 -4 -5 5 -8 19 -7
13 2 22 -1 19 -5 -3 -5 -12 -9 -20 -9 -8 0 -14 -4 -14 -10 0 -6 9 -6 24 0 18
6 26 5 30 -5 3 -10 0 -12 -12 -9 -15 5 -15 4 1 -6 9 -6 14 -16 11 -22 -5 -7
-2 -8 6 -3 10 6 12 4 6 -10 -5 -15 -4 -16 9 -5 8 7 22 9 31 6 23 -9 37 3 23
20 -10 12 -10 15 2 12 8 -2 18 -7 22 -13 5 -6 7 -4 5 4 -2 8 -11 15 -19 17 -7
1 -23 6 -33 10 -13 5 -17 4 -13 -3 4 -6 0 -16 -7 -22 -9 -8 -16 -8 -20 -2 -4
5 -1 13 5 17 8 4 7 9 -2 16 -11 8 -10 9 4 4 11 -3 17 0 17 9 0 8 -8 15 -18 15
-10 0 -23 5 -29 11 -8 8 -13 8 -18 0z"/>
<path d="M4811 4639 c9 -19 9 -19 -9 -10 -17 9 -20 8 -17 -7 1 -9 10 -16 19
-16 8 1 13 -2 10 -7 -3 -5 0 -9 6 -9 6 0 8 -5 4 -11 -4 -8 -9 -7 -15 2 -4 7
-11 10 -15 6 -4 -4 -2 -13 4 -19 9 -9 16 -8 29 4 10 8 25 13 33 11 13 -4 13
-3 0 6 -8 5 -18 7 -24 4 -5 -4 -6 -1 -2 6 5 7 14 10 22 7 9 -4 14 2 14 16 0
12 -3 18 -7 15 -3 -4 -11 -3 -17 2 -6 4 -19 11 -29 14 -15 6 -16 4 -6 -14z"/>
<path d="M2205 4640 c-3 -5 -1 -10 4 -10 6 0 11 5 11 10 0 6 -2 10 -4 10 -3 0
-8 -4 -11 -10z"/>
<path d="M834 4599 c-3 -5 -14 -7 -24 -4 -28 9 -32 -10 -8 -31 12 -11 18 -14
15 -7 -4 6 -3 14 3 18 5 3 10 -1 10 -9 0 -9 5 -16 10 -16 6 0 10 -5 10 -11 0
-5 -4 -8 -8 -5 -5 3 -9 -1 -9 -9 0 -12 3 -12 16 -2 9 6 19 16 23 22 7 10 37
-21 38 -39 0 -6 -6 -1 -14 10 -15 19 -15 19 -33 0 -14 -16 -14 -17 -1 -7 14
10 18 9 27 -7 6 -11 7 -22 4 -26 -3 -3 -1 -6 6 -6 7 0 9 -4 6 -10 -3 -5 0 -7
9 -4 14 5 43 -31 38 -48 -3 -12 32 4 56 25 24 22 31 47 8 28 -12 -10 -14 -7
-12 18 1 16 -2 28 -6 25 -4 -3 -8 -14 -8 -25 0 -10 -4 -19 -10 -19 -5 0 -7 -6
-4 -14 3 -8 1 -17 -5 -21 -7 -4 -9 1 -5 12 5 15 4 16 -5 3 -6 -8 -11 -10 -11
-4 0 5 5 15 12 22 8 8 9 12 1 12 -6 0 -13 -5 -15 -12 -3 -9 -6 -9 -12 0 -4 7
-2 12 4 12 6 0 8 5 4 11 -4 8 -1 8 13 1 15 -9 19 -7 20 9 1 10 -3 19 -8 19 -6
0 -7 -6 -3 -12 6 -10 5 -10 -8 -1 -8 7 -19 9 -23 5 -5 -4 -5 -1 -1 6 4 7 11
10 16 7 5 -3 12 0 16 7 4 7 4 10 -1 6 -4 -4 -17 -3 -28 3 -14 8 -18 8 -13 0 4
-6 5 -11 2 -11 -3 0 -10 10 -17 22 -10 18 -9 20 5 15 11 -4 15 -3 11 4 -4 6
-14 8 -22 5 -12 -5 -14 -1 -9 21 4 17 3 23 -2 15 -5 -7 -22 -15 -38 -18 -21
-3 -25 -2 -14 5 8 5 17 8 21 5 4 -2 10 -1 13 4 2 4 -4 8 -14 9 -11 1 -22 -3
-26 -8z m-24 -19 c0 -5 -2 -10 -4 -10 -3 0 -8 5 -11 10 -3 6 -1 10 4 10 6 0
11 -4 11 -10z"/>
<path d="M3415 4600 c3 -5 8 -10 11 -10 2 0 4 5 4 10 0 6 -5 10 -11 10 -5 0
-7 -4 -4 -10z"/>
<path d="M4735 4593 c4 -26 -16 -48 -27 -31 -5 8 -6 1 -2 -17 7 -35 -19 -66
-51 -61 -11 2 -25 -3 -32 -10 -18 -17 -16 -29 2 -14 8 6 20 8 26 4 8 -5 9 -3
4 6 -5 9 -4 11 3 6 18 -11 14 -29 -4 -22 -16 6 -62 -29 -51 -41 4 -3 7 -2 7 3
0 5 10 10 23 11 21 2 21 1 -3 -12 -16 -9 -30 -10 -42 -4 -19 10 -35 -5 -18
-16 8 -5 6 -15 -5 -31 -18 -28 -9 -31 24 -7 14 9 21 11 17 5 -4 -7 -2 -12 4
-12 6 0 10 8 8 18 -3 20 9 42 23 42 5 0 9 -5 9 -11 0 -5 -5 -7 -12 -3 -7 5 -8
3 -3 -6 5 -9 4 -11 -3 -6 -17 10 -15 1 4 -14 8 -8 14 -9 12 -4 -1 5 3 19 10
32 7 12 10 22 6 22 -4 0 0 8 9 18 10 10 15 21 12 24 -3 3 1 11 10 18 9 7 15 8
15 2 0 -6 -6 -13 -12 -15 -8 -3 -6 -6 5 -6 9 -1 17 4 17 9 0 6 7 10 15 10 8 0
15 -5 15 -12 0 -6 3 -8 7 -4 4 4 -3 15 -15 25 l-24 17 31 -2 c22 -1 28 2 24
13 -5 12 -7 12 -15 1 -8 -10 -11 -10 -15 0 -2 6 -8 10 -12 8 -4 -3 -8 1 -8 9
0 8 5 11 10 8 6 -3 7 -1 3 5 -3 6 -2 13 4 17 6 4 7 11 4 17 -5 7 -2 8 7 3 12
-8 12 -6 0 8 -17 21 -20 21 -16 0z"/>
<path d="M4765 4599 c4 -5 1 -17 -6 -25 -18 -22 -21 -47 -4 -40 7 2 19 -2 25
-9 13 -16 34 -10 24 6 -3 5 -10 7 -15 4 -5 -4 -9 -1 -9 4 0 6 5 11 11 11 8 0
8 4 -1 15 -6 8 -9 18 -6 24 3 5 -1 12 -10 15 -9 3 -12 2 -9 -5z"/>
<path d="M4676 4514 c-9 -24 -7 -28 9 -14 17 14 20 30 6 30 -5 0 -12 -7 -15
-16z"/>
<path d="M4681 4436 c-9 -10 -8 -15 3 -19 11 -4 13 -1 9 10 -4 11 -2 14 5 9 7
-4 12 -2 12 3 0 15 -15 14 -29 -3z"/>
<path d="M1006 4418 c-16 -18 -16 -21 -1 -38 9 -9 15 -23 13 -31 -2 -7 4 -14
12 -15 8 0 18 -2 23 -4 4 -1 10 -3 15 -5 29 -8 39 -18 35 -36 -3 -11 1 -21 11
-25 9 -3 14 -9 12 -13 -3 -4 0 -13 6 -21 8 -12 9 -12 4 3 -4 13 0 17 17 16 12
0 16 -3 10 -6 -7 -2 -13 -11 -13 -20 0 -16 3 -13 43 33 17 20 16 21 -7 32 -22
10 -24 9 -19 -6 3 -9 -5 -2 -16 16 -13 20 -20 43 -16 55 2 12 2 16 -1 10 -3
-7 -12 -13 -19 -13 -7 0 -16 -6 -19 -12 -2 -7 -4 -2 -3 12 2 21 -2 25 -23 23
l-25 -3 25 16 c24 15 24 15 2 10 -19 -4 -21 -2 -11 10 6 8 9 17 5 21 -3 3 -6
1 -6 -5 0 -7 -7 -12 -15 -12 -8 0 -15 -7 -15 -15 0 -8 -5 -15 -10 -15 -7 0 -7
6 -1 19 6 10 7 21 3 25 -3 4 1 4 11 0 9 -3 17 -4 17 -1 0 15 -30 12 -44 -5z
m25 -71 c-10 -9 -11 -8 -5 6 3 10 9 15 12 12 3 -3 0 -11 -7 -18z m47 4 c-7
-11 -16 -17 -21 -14 -4 3 0 11 10 19 24 18 25 17 11 -5z m66 -83 c-3 -4 -11
-5 -19 -1 -17 6 -17 6 -9 27 6 15 8 15 19 -1 7 -10 11 -21 9 -25z"/>
<path d="M2292 4425 c9 -10 21 -16 28 -13 7 2 -1 10 -16 17 -27 12 -28 11 -12
-4z"/>
<path d="M3302 4395 c-7 -8 -9 -15 -4 -15 5 0 15 7 22 15 16 19 -1 19 -18 0z"/>
<path d="M4543 4378 c-14 -17 -25 -67 -18 -78 8 -13 36 0 29 14 -3 6 1 3 9 -7
14 -17 15 -17 13 7 0 13 -4 22 -8 19 -16 -9 -29 8 -17 23 6 8 8 14 3 14 -5 0
-2 5 6 10 8 5 10 10 4 10 -6 0 -16 -6 -21 -12z"/>
<path d="M4495 4320 c-9 -17 -20 -28 -25 -25 -16 10 -22 -15 -8 -33 11 -15 11
-15 -2 -6 -17 13 -50 15 -50 2 0 -4 5 -8 10 -8 6 0 10 -5 10 -11 0 -6 -7 -8
-16 -5 -8 3 -12 2 -9 -4 3 -6 0 -10 -8 -10 -20 0 -51 -36 -38 -45 11 -6 15 1
12 18 -1 4 8 3 19 -3 23 -12 27 -22 5 -14 -10 4 -13 0 -10 -15 5 -27 -1 -26
-29 4 -20 21 -25 23 -30 10 -3 -10 -11 -13 -18 -9 -10 6 -10 4 0 -8 13 -17 1
-35 -17 -24 -5 3 -14 -1 -21 -9 -10 -12 -8 -14 7 -10 10 2 30 8 45 14 22 8 26
7 22 -4 -3 -8 -13 -11 -22 -7 -14 5 -15 3 -5 -9 10 -13 10 -16 -2 -16 -8 0
-11 5 -8 10 4 6 -1 8 -11 4 -10 -4 -20 -7 -22 -7 -3 0 -2 -6 2 -12 4 -7 -3 -4
-17 7 -17 14 -20 15 -10 3 7 -9 10 -22 7 -27 -4 -5 -2 -12 4 -16 5 -3 10 -1
10 6 0 7 7 4 15 -7 8 -10 15 -14 15 -9 0 6 5 3 11 -5 9 -13 10 -13 6 0 -2 8
-10 14 -17 12 -11 -2 -10 0 0 13 13 16 15 15 27 -1 13 -17 13 -17 11 6 -2 15
2 24 9 23 7 -2 10 3 7 11 -3 8 0 17 7 22 8 4 10 3 5 -4 -4 -7 -2 -12 3 -12 6
0 11 5 11 11 0 5 4 8 9 4 6 -3 8 3 6 14 -4 20 20 37 30 21 9 -15 27 -12 22 3
-2 6 -10 11 -16 10 -6 -2 -11 2 -11 8 0 6 9 9 19 6 15 -4 18 -1 13 12 -5 14
-4 15 14 1 17 -14 18 -14 6 1 -7 10 -20 16 -30 14 -9 -1 -11 0 -5 2 10 3 10
10 2 26 l-11 22 21 -22 c13 -14 27 -20 38 -16 12 5 14 3 8 -8 -5 -8 -5 -11 1
-6 5 5 10 13 10 18 1 5 3 11 4 14 1 3 3 11 4 18 1 6 9 11 19 9 9 -2 17 2 17 8
0 6 -4 9 -9 6 -15 -9 -33 22 -26 44 10 30 -2 24 -20 -10z m15 -41 c0 -11 -36
-7 -47 6 -5 4 -3 5 4 1 6 -3 14 -2 18 4 7 12 25 4 25 -11z m0 -23 c0 -2 -7 -7
-16 -10 -8 -3 -12 -2 -9 4 6 10 25 14 25 6z m-170 -96 c0 -5 -5 -10 -11 -10
-5 0 -7 5 -4 10 3 6 8 10 11 10 2 0 4 -4 4 -10z"/>
<path d="M1152 4331 c-11 -7 -11 -9 0 -14 9 -3 15 1 15 9 0 8 -1 14 -1 14 -1
0 -7 -4 -14 -9z"/>
<path d="M1055 4301 c-3 -6 4 -9 15 -8 11 1 20 5 20 9 0 11 -28 10 -35 -1z"/>
<path d="M1186 4235 c-9 -14 -13 -25 -8 -25 5 0 9 -7 10 -15 1 -8 3 -22 4 -30
1 -8 6 -15 11 -15 5 0 6 8 2 18 -12 31 -14 51 -4 57 5 4 6 11 3 17 -4 7 -2 8
5 4 6 -4 9 -12 6 -17 -4 -5 0 -9 7 -9 8 0 7 -4 -4 -11 -21 -12 -12 -39 13 -39
10 0 19 -4 19 -10 0 -5 -8 -7 -17 -4 -15 5 -15 4 -3 -4 8 -6 17 -9 21 -6 4 2
10 0 14 -6 3 -5 1 -10 -4 -10 -6 0 -11 -7 -11 -16 0 -14 1 -14 16 0 17 17 25
20 23 9 -3 -20 2 -34 11 -28 5 3 6 13 3 23 -4 13 -2 13 10 -3 14 -17 16 -17
17 -4 0 9 -7 22 -15 29 -17 14 -20 30 -5 30 6 0 9 -3 8 -7 -2 -5 5 -19 14 -32
16 -23 17 -23 15 -3 0 11 -6 20 -11 19 -6 -1 -10 4 -11 11 0 17 -25 31 -42 25
-12 -5 -12 -7 -2 -14 8 -4 10 -11 6 -15 -9 -10 -17 -1 -22 25 -2 14 0 19 7 15
7 -4 8 -3 4 4 -11 18 -26 14 -26 -5 0 -9 -3 -14 -6 -10 -4 3 -3 14 1 24 13 28
14 44 4 37 -5 -3 -6 -11 -3 -17 4 -7 -3 -2 -15 11 -27 27 -25 27 -45 -3z"/>
<path d="M3140 4257 c0 -2 6 -10 14 -16 11 -9 16 -9 22 1 4 7 4 10 -1 6 -4 -4
-14 -3 -22 3 -7 6 -13 9 -13 6z"/>
<path d="M2451 4247 c2 -1 15 -11 29 -22 l25 -20 -19 23 c-11 12 -24 22 -29
22 -6 0 -8 -1 -6 -3z"/>
<path d="M1362 4124 c8 -12 -14 -31 -32 -29 -8 2 -21 -4 -28 -11 -8 -9 -9 -14
-2 -14 6 0 8 -5 4 -11 -5 -8 -1 -8 14 0 27 14 39 14 24 -1 -14 -14 -16 -32 -3
-24 13 8 44 -31 35 -45 -4 -8 -3 -10 4 -5 7 4 12 2 12 -4 0 -7 7 -9 16 -6 11
4 18 -1 21 -15 4 -16 8 -17 14 -7 7 10 9 9 9 -4 0 -10 -5 -18 -12 -18 -20 0
-1 -11 28 -16 21 -3 25 -2 14 5 -8 5 -18 7 -24 4 -5 -3 -6 -1 -2 5 4 6 14 8
23 5 13 -5 15 -2 10 11 -4 9 -3 15 2 12 5 -3 12 1 15 10 8 20 8 24 -1 23 -29
-5 -35 1 -22 19 13 15 12 16 -3 4 -12 -9 -18 -10 -23 -2 -4 6 -13 9 -21 6 -8
-3 -14 -1 -14 4 0 6 7 10 15 10 8 0 15 5 15 11 0 6 -9 8 -21 4 -13 -5 -19 -3
-15 3 3 5 -3 12 -14 15 -13 3 -21 -1 -25 -14 -4 -11 -11 -17 -16 -14 -5 4 0
16 11 27 24 26 27 46 3 27 -15 -13 -15 -12 -5 8 9 16 9 24 0 29 -6 4 -9 3 -6
-2z m28 -89 c-11 -13 -8 -19 11 -17 3 1 6 -6 6 -14 0 -19 -7 -18 -23 3 -11 16
-3 43 13 43 3 0 0 -7 -7 -15z m66 -49 c2 -12 -4 -13 -35 -7 -2 1 2 8 9 16 14
16 23 13 26 -9z"/>
<path d="M4230 4055 c14 -17 14 -18 -8 -6 -22 12 -23 11 -12 -8 13 -26 7 -27
-16 -3 -17 16 -18 16 -11 -1 4 -10 7 -23 7 -28 0 -6 5 -7 12 -3 6 4 8 3 4 -4
-3 -6 -19 -9 -34 -6 -20 3 -23 2 -12 -6 13 -8 13 -10 -2 -10 -27 0 -31 -19 -6
-29 20 -8 20 -10 4 -10 -27 -1 -9 -16 19 -16 20 -1 22 2 12 14 -10 12 -9 13 1
7 15 -9 65 21 57 34 -3 5 3 15 12 22 10 7 19 22 20 33 1 11 0 14 -3 8 -3 -7
-10 -13 -15 -13 -6 0 -8 4 -4 9 3 6 -5 15 -17 22 -22 12 -22 11 -8 -6z m25
-45 c-3 -5 -12 -10 -18 -10 -7 0 -6 4 3 10 19 12 23 12 15 0z m-20 -32 c4 -3
-3 -12 -15 -18 -15 -8 -20 -8 -16 -1 4 6 0 11 -8 11 -9 0 -16 4 -16 8 0 10 46
10 55 0z"/>
<path d="M1511 3957 c-6 -8 -8 -17 -4 -20 3 -4 1 -7 -7 -7 -10 0 -10 -4 1 -17
8 -10 9 -14 2 -10 -8 5 -11 0 -10 -13 1 -22 13 -27 20 -7 4 7 6 6 6 -5 1 -9
-5 -18 -11 -21 -7 -2 0 -4 16 -4 19 0 24 2 15 8 -11 7 -11 9 -1 9 7 0 11 4 8
9 -4 5 2 8 11 7 10 -2 17 -11 17 -22 -2 -48 -4 -55 -16 -48 -7 4 -8 3 -4 -4 5
-8 13 -9 25 -3 9 5 23 6 31 1 15 -9 40 -2 40 12 0 5 -10 6 -22 3 -19 -6 -21
-5 -11 6 9 9 10 16 2 26 -9 9 -8 13 0 13 7 0 9 5 5 11 -4 8 -9 7 -15 -2 -4 -7
-4 -18 1 -24 6 -8 5 -12 -4 -12 -9 0 -13 9 -11 23 1 13 -1 22 -4 21 -3 -1 -16
4 -27 11 -12 6 -25 8 -29 4 -4 -4 -3 3 4 15 14 27 14 33 0 33 -5 0 -8 -4 -5
-9 3 -5 0 -11 -8 -14 -15 -6 -16 9 -3 31 11 16 2 15 -12 -1z"/>
<path d="M4081 3933 c-7 -8 -10 -17 -7 -20 3 -3 0 -15 -6 -27 -7 -11 -11 -25
-10 -29 1 -4 -6 -3 -17 3 -26 13 -32 13 -28 -2 1 -7 -4 -12 -12 -10 -12 3 -12
1 0 -14 12 -16 12 -17 -4 -11 -12 5 -16 3 -11 -5 5 -7 2 -9 -9 -5 -11 4 -14 2
-10 -9 3 -7 0 -14 -6 -14 -6 0 -11 5 -11 12 0 6 -3 9 -6 6 -3 -4 0 -16 6 -28
14 -27 -2 -50 -30 -43 -12 3 -22 -3 -30 -16 -6 -12 -15 -19 -20 -16 -4 3 -6
-5 -3 -17 5 -23 5 -23 -11 -3 -10 11 -15 15 -12 8 4 -6 0 -14 -6 -16 -10 -4
-10 -6 0 -6 6 -1 12 -5 12 -11 0 -5 -7 -7 -15 -4 -11 4 -13 2 -9 -9 6 -15 20
-17 41 -4 6 4 15 2 19 -4 4 -7 3 -9 -4 -5 -6 3 -13 2 -16 -3 -3 -5 0 -11 8
-14 9 -4 19 5 26 24 11 26 21 34 43 30 7 -1 11 22 8 46 -1 6 4 15 10 19 8 4 9
3 5 -4 -4 -7 -3 -20 3 -29 7 -13 9 -5 6 32 -2 29 -1 42 4 31 5 -14 10 -16 15
-7 5 7 14 10 21 7 7 -2 16 2 19 10 3 9 11 12 17 8 8 -4 9 -3 5 5 -6 9 -11 9
-21 1 -10 -8 -15 -8 -20 0 -4 6 -14 9 -24 6 -11 -4 -10 -2 4 10 11 8 19 20 17
25 -1 6 2 8 8 4 5 -3 10 0 10 7 0 8 5 6 11 -5 8 -14 14 -15 24 -7 8 6 12 17
10 23 -3 7 -1 19 4 27 8 12 12 12 29 -3 19 -17 20 -17 25 3 3 13 -3 29 -16 44
-19 20 -24 22 -36 9z m22 -17 c4 -10 1 -13 -8 -9 -8 3 -12 9 -9 14 7 12 11 11
17 -5z m-202 -210 c-8 -10 -9 -16 -1 -21 5 -3 10 -2 10 3 0 5 7 9 15 9 21 0 4
-16 -22 -21 -21 -5 -23 3 -8 37 4 10 10 16 13 13 3 -3 -1 -12 -7 -20z"/>
<path d="M4129 3927 c14 -16 19 -30 14 -43 -6 -16 -5 -17 9 -4 15 14 15 17 -3
36 -11 11 -16 24 -12 27 3 4 -2 7 -12 7 -17 0 -17 -2 4 -23z"/>
<path d="M4037 3889 c4 -13 8 -18 11 -10 2 7 -1 18 -6 23 -8 8 -9 4 -5 -13z"/>
<path d="M1559 3875 c-1 -3 -2 -10 -3 -15 0 -6 -8 -15 -16 -21 -12 -8 -11 -10
5 -7 13 2 20 11 21 26 1 19 -4 31 -7 17z"/>
<path d="M4085 3870 c-4 -6 -4 -14 -1 -17 11 -11 -26 -44 -38 -34 -7 6 -16 4
-23 -4 -7 -8 -9 -16 -4 -20 5 -3 12 -1 16 4 3 6 12 8 19 5 7 -3 16 2 20 11 3
10 11 13 18 9 7 -4 10 -4 6 1 -4 4 -3 14 4 22 8 10 8 17 1 24 -8 8 -13 7 -18
-1z"/>
<path d="M1593 3803 c4 -6 4 -13 0 -16 -5 -2 -2 -2 5 -1 6 2 12 -2 12 -8 0 -6
7 -5 18 3 15 13 16 12 4 -3 -8 -10 -20 -14 -30 -11 -22 8 -13 -1 17 -17 15 -8
21 -8 17 -1 -4 6 -2 11 3 11 6 0 11 -7 11 -15 0 -8 4 -15 9 -15 4 0 7 12 5 28
-4 27 -4 27 5 2 10 -27 10 -27 17 8 2 12 -1 22 -7 22 -5 0 -7 5 -4 10 8 13
-11 13 -36 -1 -15 -8 -24 -7 -37 3 -9 8 -13 8 -9 1z"/>
<path d="M1698 3778 c-3 -7 -4 -23 -3 -35 1 -12 -2 -20 -7 -17 -4 3 -16 0 -25
-5 -11 -6 -13 -11 -5 -11 7 0 10 -5 6 -12 -4 -6 -3 -8 4 -4 6 3 15 -1 20 -10
8 -15 10 -15 15 0 4 10 3 15 -2 12 -5 -3 -15 2 -22 12 -13 15 -12 16 4 3 9 -7
17 -10 17 -5 0 4 5 3 12 -4 8 -8 17 -8 31 -1 15 9 18 8 12 -3 -5 -7 -4 -9 0
-5 5 4 10 15 11 23 1 9 0 13 -3 10 -4 -3 -13 0 -22 7 -14 11 -14 10 -2 -5 7
-10 9 -18 3 -18 -17 0 -23 30 -7 36 8 4 12 11 9 16 -4 6 -9 6 -14 -2 -10 -17
-31 -3 -23 15 3 8 3 15 0 15 -3 0 -7 -6 -9 -12z"/>
<path d="M3875 3761 c-3 -5 -2 -12 3 -15 5 -3 9 1 9 9 0 17 -3 19 -12 6z"/>
<path d="M3913 3757 c-3 -6 -1 -7 5 -3 7 4 12 2 12 -4 0 -6 5 -8 10 -5 6 3 10
10 10 14 0 11 -30 9 -37 -2z"/>
<path d="M3994 3749 c-3 -6 -3 -13 0 -16 3 -4 6 0 6 8 0 12 2 12 9 0 5 -8 11
-9 15 -3 3 5 -1 12 -9 16 -8 3 -17 1 -21 -5z"/>
<path d="M1710 3675 c0 -8 4 -15 10 -15 5 0 7 7 4 15 -4 8 -8 15 -10 15 -2 0
-4 -7 -4 -15z"/>
<path d="M1734 3665 c1 -20 5 -24 24 -20 14 2 20 0 16 -7 -4 -6 -1 -9 6 -6 16
5 21 31 9 49 -7 12 -12 12 -30 1 -11 -8 -18 -9 -14 -3 3 6 2 11 -3 11 -6 0 -9
-11 -8 -25z"/>
<path d="M1809 3685 c-5 -19 -4 -32 3 -47 6 -13 5 -16 -6 -12 -8 3 -17 0 -21
-6 -5 -8 -11 -6 -19 6 -11 15 -13 15 -13 0 0 -9 5 -16 11 -17 6 -1 20 -2 31
-3 11 0 20 -5 20 -11 1 -18 23 -50 31 -43 4 4 1 16 -7 25 -12 16 -12 17 1 6
17 -13 45 -12 57 2 4 4 3 5 -4 1 -16 -9 -29 14 -13 24 9 5 9 9 1 14 -6 4 -11
2 -11 -3 0 -7 -8 -7 -22 1 -30 17 -37 27 -33 50 3 15 -3 27 -6 13z m51 -85 c6
-11 9 -20 8 -20 -2 0 -11 9 -21 20 -9 11 -13 20 -7 20 5 0 14 -9 20 -20z"/>
<path d="M3798 3632 c-10 -2 -18 -8 -18 -13 0 -6 -4 -7 -10 -4 -6 4 -7 -1 -3
-11 4 -12 3 -15 -5 -10 -8 5 -10 1 -5 -10 4 -11 3 -15 -5 -10 -6 3 -13 2 -17
-4 -4 -6 -10 -8 -15 -5 -4 3 -14 -3 -21 -13 -13 -15 -12 -16 3 -4 17 14 35 1
23 -17 -9 -16 16 -25 27 -10 8 11 9 10 4 -3 -3 -10 -1 -20 4 -23 6 -4 10 5 10
19 0 14 0 29 0 34 0 4 -4 7 -9 7 -5 0 -13 4 -18 9 -5 5 -3 6 5 2 7 -4 15 -1
18 9 4 10 10 12 18 7 6 -5 19 -8 29 -7 9 2 15 -1 12 -5 -3 -5 -1 -11 4 -14 13
-9 7 19 -8 38 -9 11 -10 16 -2 16 6 0 11 -4 11 -10 0 -5 11 -9 25 -8 23 2 23
3 8 20 -9 10 -18 16 -21 13 -3 -3 -10 -1 -16 3 -6 5 -19 7 -28 4z m-1 -27 c0
-8 -4 -12 -9 -9 -5 3 -6 10 -3 15 9 13 12 11 12 -6z"/>
<path d="M1793 3581 c0 -11 5 -17 9 -15 4 3 8 0 8 -7 0 -7 3 -9 6 -6 4 4 2 13
-4 20 -7 8 -9 17 -5 20 3 4 1 7 -5 7 -6 0 -10 -9 -9 -19z"/>
<path d="M1902 3573 c-6 -2 -9 -10 -5 -16 4 -7 1 -7 -9 1 -14 11 -18 10 -30
-7 -8 -12 -17 -19 -20 -16 -2 3 -5 -1 -5 -9 0 -8 5 -14 11 -13 6 1 10 -4 8
-12 -3 -12 -1 -12 13 -1 14 11 17 10 22 -8 3 -12 9 -22 14 -22 11 0 7 23 -5
31 -5 4 -7 11 -5 15 2 5 15 -1 29 -14 19 -18 20 -21 5 -16 -13 5 -16 4 -10 -5
4 -8 2 -17 -6 -22 -9 -6 -10 -9 -2 -9 6 0 15 5 18 10 3 6 11 10 17 10 6 0 3
-10 -8 -22 -10 -12 -14 -18 -7 -15 6 4 14 3 18 -3 3 -5 12 -10 18 -10 7 0 6 4
-3 10 -9 6 -11 10 -3 10 7 0 10 7 6 18 -3 9 -3 14 1 10 4 -3 9 -12 10 -20 1
-7 7 -23 14 -35 8 -15 9 -24 2 -28 -6 -4 -9 -1 -8 6 2 6 -4 14 -12 16 -12 4
-12 3 -2 -5 8 -5 14 -13 15 -18 1 -5 7 -7 12 -5 6 2 20 4 33 4 13 -1 21 1 18
4 -3 3 -1 14 5 24 8 15 6 19 -6 19 -10 0 -13 -5 -9 -12 4 -7 3 -8 -4 -4 -15 9
-15 12 3 30 14 13 12 15 -17 13 -28 -2 -33 1 -32 21 0 15 -4 21 -13 18 -16 -7
-17 6 0 24 10 12 9 12 -5 1 -14 -10 -17 -9 -23 8 -3 12 -13 21 -21 21 -8 0
-14 5 -14 11 0 5 5 7 12 3 7 -4 8 -3 4 4 -4 7 -8 12 -9 11 -1 0 -8 -3 -15 -6z
m38 -54 c11 -19 10 -20 -9 -9 -22 11 -29 30 -11 30 5 0 14 -9 20 -21z m-70 1
c0 -5 -2 -10 -4 -10 -3 0 -8 5 -11 10 -3 6 -1 10 4 10 6 0 11 -4 11 -10z m145
-80 c-3 -5 -12 -10 -18 -10 -7 0 -6 4 3 10 19 12 23 12 15 0z"/>
<path d="M3780 3555 c6 -8 9 -19 5 -24 -3 -6 0 -9 7 -6 8 3 15 15 15 28 2 17
0 19 -7 7 -7 -10 -10 -11 -10 -2 0 6 -5 12 -11 12 -8 0 -8 -4 1 -15z"/>
<path d="M3702 3533 c-10 -4 -9 -8 5 -18 16 -12 15 -13 -10 -8 -30 6 -61 -13
-53 -34 3 -7 1 -13 -3 -13 -5 0 -12 6 -14 13 -4 10 -6 10 -6 0 -1 -21 3 -27
21 -28 11 -1 15 5 12 21 -4 23 20 41 31 23 4 -5 1 -8 -5 -7 -7 2 -14 -5 -15
-15 -3 -14 2 -17 18 -15 16 2 21 9 19 23 -2 16 -1 17 7 5 10 -14 15 -7 12 13
-1 5 3 6 9 2 6 -3 7 -12 4 -18 -5 -8 -2 -8 7 1 11 10 9 15 -9 28 -12 8 -20 20
-17 25 7 10 6 10 -13 2z"/>
<path d="M3704 3448 c-10 -12 -14 -18 -7 -15 6 4 13 4 16 0 2 -5 2 -3 1 4 -2
6 2 14 9 16 7 2 9 7 6 11 -3 3 -14 -4 -25 -16z"/>
<path d="M3587 3427 c-6 -15 6 -39 18 -39 4 0 12 6 17 14 6 9 7 5 3 -10 -6
-22 -5 -23 17 -12 29 16 38 25 17 18 -9 -4 -16 -1 -16 7 0 10 7 11 25 4 21 -8
23 -7 14 4 -7 8 -10 16 -7 18 2 3 -7 5 -20 4 -13 0 -30 -6 -37 -12 -6 -7 -16
-13 -22 -13 -5 0 -1 7 10 15 16 12 17 14 3 15 -9 0 -19 -6 -22 -13z"/>
<path d="M2059 3405 c-1 -3 -2 -11 -3 -17 0 -7 -10 -13 -20 -13 -11 0 -21 -6
-22 -13 -1 -7 0 -8 3 -2 3 6 10 4 19 -4 16 -17 19 -30 4 -21 -6 3 -7 -1 -4
-10 6 -14 8 -14 18 0 7 10 16 12 26 5 8 -5 11 -12 7 -17 -5 -4 -12 -1 -17 7
-7 11 -10 11 -10 2 0 -7 7 -15 15 -18 8 -4 12 -10 9 -15 -3 -5 -10 -6 -16 -3
-7 4 -8 2 -4 -5 6 -8 12 -9 20 -2 7 6 22 9 34 6 12 -2 24 0 27 6 4 5 14 9 23
8 12 0 11 -3 -5 -9 -28 -11 -30 -19 -3 -17 11 1 22 7 24 14 6 15 -22 32 -47
28 -9 -2 -15 1 -11 6 10 16 -8 9 -23 -8 -13 -16 -13 -16 -3 5 8 17 17 21 31
17 12 -4 19 -2 19 6 0 7 -3 9 -6 6 -4 -3 -15 -2 -26 4 -16 9 -17 13 -6 26 12
15 11 15 -9 5 -13 -7 -24 -8 -27 -3 -4 5 -1 11 6 13 8 3 6 7 -5 11 -9 3 -18 4
-18 2z m46 -55 c3 -5 1 -10 -4 -10 -6 0 -11 5 -11 10 0 6 2 10 4 10 3 0 8 -4
11 -10z"/>
<path d="M3540 3377 c0 -4 -5 -5 -12 -1 -7 5 -8 3 -3 -6 4 -7 2 -15 -5 -20 -8
-5 -7 -9 5 -13 11 -5 14 -3 10 6 -4 6 3 1 14 -12 16 -18 21 -20 21 -7 0 9 5
16 11 16 5 0 8 4 5 9 -4 5 3 7 13 4 16 -4 19 -1 14 16 -5 18 -8 19 -21 9 -12
-10 -14 -10 -8 -1 5 9 0 12 -18 11 -15 -1 -26 -6 -26 -11z m30 -13 c0 -8 -19
-13 -24 -6 -3 5 1 9 9 9 8 0 15 -2 15 -3z"/>
<path d="M3492 3319 c-5 -57 -1 -78 14 -72 10 4 11 10 3 25 -7 13 -7 18 -1 14
6 -3 13 -2 17 3 3 6 12 8 20 5 8 -4 12 -11 8 -17 -3 -5 -1 -7 5 -4 7 5 7 14
-1 31 -8 16 -14 21 -19 13 -6 -9 -8 -8 -8 2 0 8 -3 11 -7 8 -3 -4 -11 -3 -17
3 -8 6 -12 3 -14 -11z"/>
<path d="M3585 3329 c-11 -16 -1 -19 13 -3 7 8 8 14 3 14 -5 0 -13 -5 -16 -11z"/>
<path d="M3466 3315 c-3 -8 0 -17 6 -21 6 -4 8 -3 4 4 -3 5 -1 12 6 14 8 3 9
6 1 11 -6 4 -13 0 -17 -8z"/>
<path d="M2190 3275 c-7 -8 -16 -13 -20 -10 -5 3 -12 0 -16 -6 -5 -8 -3 -9 6
-4 8 5 11 4 6 -3 -8 -14 -36 -4 -33 11 1 6 -6 11 -15 12 -10 0 -18 -4 -18 -10
0 -5 5 -10 10 -10 6 0 14 -6 19 -13 5 -8 11 -13 15 -13 22 3 28 -1 24 -17 -4
-13 1 -18 18 -20 13 -1 24 3 24 8 0 5 -8 7 -17 4 -15 -5 -15 -4 -3 4 8 6 17 9
21 6 4 -2 10 0 14 6 4 6 10 8 14 6 4 -3 8 2 8 10 0 10 -4 11 -11 4 -14 -14
-31 -12 -18 3 7 8 7 17 -3 30 -11 15 -14 15 -25 2z m24 -14 c3 -5 0 -11 -7
-14 -8 -3 -14 1 -14 9 0 16 13 19 21 5z"/>
<path d="M3441 3281 c-8 -6 -10 -14 -5 -22 11 -18 14 -40 6 -35 -9 5 -32 -20
-25 -28 3 -3 14 -1 24 4 10 6 24 9 30 8 7 -2 13 9 14 25 1 15 -2 27 -7 27 -5
0 -6 4 -3 10 4 6 -1 7 -11 3 -12 -4 -15 -3 -10 5 9 14 6 15 -13 3z"/>
<path d="M3526 3281 c-3 -4 1 -17 10 -27 14 -18 15 -18 5 2 -6 12 -7 24 -4 28
3 3 4 6 0 6 -3 0 -8 -4 -11 -9z"/>
<path d="M3405 3250 c3 -5 1 -11 -5 -15 -6 -4 -7 -11 -4 -17 5 -8 1 -9 -10 -5
-10 4 -15 3 -11 -3 3 -6 -1 -10 -9 -10 -9 0 -16 -3 -17 -7 0 -5 -2 -18 -3 -30
-3 -24 -16 -44 -16 -25 0 20 -17 13 -23 -8 -3 -12 1 -24 11 -30 13 -7 13 -9 3
-10 -17 0 -6 -13 14 -16 7 -1 11 4 9 11 -3 7 0 16 7 21 7 4 10 3 5 -4 -3 -6
-1 -14 5 -18 8 -4 9 -3 5 5 -4 6 0 14 8 17 9 3 13 10 10 15 -3 5 0 9 6 9 7 0
8 6 1 18 -7 14 -6 19 4 19 8 0 12 -4 9 -9 -3 -4 0 -8 6 -8 6 0 8 -5 4 -12 -4
-7 -3 -8 4 -4 6 4 8 14 5 23 -4 10 -2 14 4 10 5 -3 10 0 10 8 0 8 -5 11 -10 8
-21 -13 -26 22 -6 43 l20 21 -20 6 c-12 3 -19 1 -16 -3z m-30 -70 c-3 -5 -12
-10 -18 -10 -7 0 -6 4 3 10 19 12 23 12 15 0z m-2 -57 c-3 -9 -9 -11 -15 -5
-5 5 -6 17 -2 26 5 13 9 14 14 5 5 -7 6 -19 3 -26z"/>
<path d="M570 3209 c0 -5 -4 -7 -10 -4 -5 3 -10 2 -10 -4 0 -6 -8 -8 -17 -5
-14 5 -15 4 -4 -4 8 -6 20 -8 28 -5 7 3 13 0 13 -7 0 -6 -5 -8 -12 -4 -8 5 -9
2 -5 -9 6 -16 5 -16 -19 -1 -20 13 -24 14 -22 3 2 -8 -4 -13 -14 -11 -9 1 -19
-1 -22 -6 -6 -10 24 -9 41 1 6 4 15 2 19 -4 4 -8 3 -9 -5 -5 -6 4 -14 1 -17
-8 -3 -8 -12 -12 -19 -10 -7 3 -16 0 -21 -7 -4 -8 -3 -10 4 -5 7 4 12 3 12 -2
0 -6 -7 -13 -16 -16 -9 -3 -14 -13 -11 -20 3 -8 1 -17 -6 -20 -7 -3 -4 -4 5
-3 9 1 17 -2 17 -8 1 -5 -8 -11 -19 -11 -29 -2 -33 -9 -20 -33 13 -24 7 -27
-13 -7 -12 13 -14 9 -13 -27 1 -23 6 -45 11 -50 6 -4 -2 -5 -17 -3 -20 3 -25
1 -21 -10 3 -8 10 -11 17 -7 6 3 5 0 -2 -8 -11 -12 -14 -12 -22 1 -8 12 -10
10 -10 -8 0 -15 4 -21 12 -16 7 4 8 3 4 -4 -4 -7 -15 -12 -24 -12 -12 0 -13
-3 -5 -11 13 -13 -3 -59 -19 -59 -5 0 -6 6 -2 13 4 6 3 8 -1 4 -11 -10 -16
-39 -6 -32 4 2 8 -2 8 -10 0 -8 -4 -12 -9 -9 -5 3 -20 -5 -34 -19 -19 -19 -21
-25 -8 -23 9 0 18 -7 19 -16 2 -12 -2 -15 -13 -10 -14 5 -15 3 -4 -10 10 -12
10 -17 -1 -27 -8 -6 -17 -8 -20 -4 -4 3 -7 1 -7 -6 0 -7 -5 -9 -12 -5 -8 5 -7
0 2 -11 9 -11 10 -16 2 -11 -8 5 -11 1 -8 -16 4 -29 -12 -61 -28 -55 -7 3 -13
-1 -13 -9 0 -7 3 -11 7 -9 3 2 12 0 20 -5 10 -6 4 -8 -19 -7 -29 2 -35 -1 -36
-20 -1 -13 2 -23 7 -23 4 0 8 -4 8 -10 0 -5 -6 -7 -14 -4 -8 3 -17 0 -22 -7
-4 -8 -3 -10 4 -5 8 4 12 0 12 -12 0 -10 -10 -24 -22 -31 -23 -11 -23 -11 2
-5 18 4 21 3 11 -4 -8 -6 -10 -15 -6 -23 6 -11 5 -12 -6 -2 -7 7 -16 13 -20
13 -13 0 -18 -29 -7 -36 7 -5 8 -2 3 7 -5 8 -4 10 0 6 5 -4 10 -14 11 -22 2
-12 -2 -13 -19 -4 -18 9 -20 9 -10 -1 12 -13 6 -43 -7 -35 -4 3 -13 -2 -20
-11 -10 -12 -11 -17 -1 -27 10 -9 11 -8 6 4 -9 23 10 32 25 14 11 -13 10 -14
-4 -9 -11 4 -16 2 -14 -7 2 -8 -3 -13 -11 -11 -8 2 -11 -3 -8 -12 4 -9 2 -18
-4 -22 -6 -3 -8 -13 -4 -21 4 -13 3 -14 -9 -4 -11 9 -16 9 -22 0 -4 -7 -3 -9
3 -6 6 4 13 -4 15 -17 4 -18 1 -23 -10 -18 -11 4 -13 1 -8 -9 4 -8 -1 -4 -11
7 -19 22 -19 21 -20 -37 0 -33 4 -62 10 -66 6 -4 8 0 4 10 -3 10 -2 17 3 17 6
0 10 -5 10 -11 0 -6 7 -17 15 -26 8 -8 12 -20 8 -26 -5 -8 -2 -8 9 0 8 7 19 9
23 5 5 -4 5 -1 1 6 -4 7 -12 9 -18 6 -7 -4 -8 -2 -4 5 6 8 12 9 20 2 7 -6 16
-8 20 -4 4 4 4 0 1 -8 -4 -11 1 -18 15 -22 12 -3 19 -10 16 -16 -4 -5 -1 -13
5 -17 7 -4 9 -3 6 3 -4 6 0 16 8 23 14 12 19 7 16 -13 -1 -5 3 -6 9 -2 6 4 5
13 -2 25 -9 14 -15 16 -21 7 -6 -8 -7 -8 -4 3 2 8 10 14 17 12 6 -1 14 7 17
18 6 23 14 25 32 7 10 -9 10 -7 0 12 -11 19 -11 25 -1 28 6 3 12 9 12 14 0 6
-5 7 -12 3 -7 -4 -8 -3 -4 4 4 7 14 12 22 12 8 0 14 5 14 11 0 5 -6 7 -12 3
-10 -6 -10 -4 -1 7 16 16 17 33 1 23 -7 -5 -8 -3 -4 5 5 7 14 10 21 7 9 -3 12
3 10 20 -3 30 8 31 29 2 16 -22 16 -22 3 7 -18 40 -16 61 6 57 12 -2 15 2 11
13 -4 9 -3 15 2 14 9 -2 24 2 72 22 18 7 21 6 15 -3 -11 -19 -13 -39 -2 -32 5
3 6 10 3 16 -5 8 -1 9 10 5 9 -4 15 -3 13 1 -3 4 2 14 11 22 14 13 15 13 10
-1 -4 -9 2 -21 15 -29 20 -12 21 -12 8 3 -11 15 -11 17 1 17 8 0 20 -6 27 -12
11 -11 12 -8 6 12 -4 16 -3 20 3 12 5 -7 22 -20 38 -28 l29 -14 -24 20 c-25
22 -21 26 10 10 14 -8 19 -7 20 2 1 7 5 2 9 -12 6 -19 8 -21 9 -6 1 18 2 18
20 2 13 -12 21 -14 26 -6 4 6 14 9 24 5 12 -5 13 -4 4 6 -9 9 -15 9 -26 0 -12
-9 -16 -8 -21 5 -4 9 -4 19 -1 22 3 3 5 0 5 -6 0 -6 12 -9 30 -7 17 2 30 0 30
-5 0 -4 7 -11 16 -14 15 -6 15 -4 3 11 -13 16 -12 16 14 -1 l29 -18 -7 24 -7
23 16 -22 c9 -12 22 -21 29 -19 6 1 9 1 5 -1 -5 -3 -4 -13 2 -22 5 -10 7 -20
5 -23 -3 -3 2 -5 10 -5 11 0 12 4 3 14 -12 15 -5 28 10 19 6 -3 9 -21 8 -40
-1 -19 2 -32 6 -30 5 3 8 0 8 -6 0 -6 5 -8 10 -5 15 9 12 -2 -6 -19 -14 -15
-14 -16 3 -17 10 -1 21 -1 24 -1 3 1 6 -5 6 -13 0 -8 -8 -12 -20 -9 -11 2 -16
0 -13 -4 4 -4 12 -8 17 -8 5 -1 14 -2 19 -3 6 0 10 -13 10 -27 0 -14 4 -23 10
-19 6 3 10 -4 10 -17 0 -19 -2 -20 -11 -8 -9 13 -10 13 -6 0 2 -8 11 -14 21
-12 11 2 16 -4 17 -20 0 -13 3 -17 6 -10 2 6 9 12 14 12 5 0 4 -10 -2 -22 -11
-20 -10 -21 3 -11 8 7 18 10 22 6 4 -4 4 0 0 10 -3 10 -1 17 5 17 10 0 15 -14
12 -32 0 -5 4 -8 10 -8 6 0 8 7 5 17 -8 20 14 36 31 21 12 -10 17 -1 15 23 -1
3 6 6 13 6 11 0 12 -4 3 -14 -8 -11 -7 -12 5 -7 22 8 30 34 11 34 -8 0 -13 4
-9 10 3 5 13 7 23 4 13 -5 14 -4 3 4 -9 7 -10 11 -2 17 9 5 9 10 0 21 -6 8 -8
14 -3 14 4 0 3 5 -3 11 -6 6 -9 18 -6 25 3 8 0 14 -5 14 -6 0 -9 -9 -7 -20 2
-11 0 -20 -6 -20 -13 0 -5 40 12 52 11 8 11 9 -3 4 -10 -3 -22 2 -28 12 -9 14
-10 12 -4 -8 7 -29 2 -26 -16 9 -6 13 -7 21 -2 17 6 -3 13 -2 17 4 3 5 -1 10
-10 10 -13 0 -15 6 -10 33 7 30 6 31 -9 12 -15 -20 -15 -20 -9 3 3 12 0 29 -7
37 -7 8 -9 15 -5 15 4 0 2 6 -4 13 -6 8 -7 18 -3 22 4 5 1 5 -6 1 -10 -6 -10
-11 -1 -22 8 -10 8 -14 0 -14 -10 0 -13 7 -10 26 0 4 -5 11 -13 15 -10 7 -10
9 0 9 6 0 12 5 12 11 0 5 -4 8 -9 5 -5 -3 -11 1 -14 9 -4 9 -1 12 9 8 7 -3 14
-1 14 5 0 6 -11 9 -25 7 -20 -2 -23 0 -14 11 11 13 2 19 -23 15 -5 0 -8 4 -8
10 0 6 6 9 13 6 7 -3 13 5 13 20 2 21 1 22 -10 7 -10 -12 -15 -14 -20 -5 -4 6
-2 19 6 28 11 14 11 16 -4 10 -12 -4 -15 -2 -11 9 3 7 10 14 17 14 6 0 4 5 -4
10 -8 5 -19 10 -25 10 -5 0 -4 -4 4 -9 8 -5 9 -11 3 -15 -13 -7 -26 22 -23 51
2 18 -1 22 -16 16 -15 -5 -16 -3 -5 8 17 18 15 30 -4 27 -10 -2 -19 4 -21 12
-3 10 -2 11 4 4 5 -7 16 -8 28 -3 17 6 17 8 3 8 -10 1 -18 6 -18 11 0 6 -10
10 -22 10 -18 0 -20 2 -8 9 8 6 18 7 24 4 5 -3 6 -1 2 6 -4 6 -12 9 -17 6 -5
-4 -17 -1 -26 4 -10 6 -12 11 -5 11 19 0 14 34 -8 50 -11 8 -20 19 -20 24 0 5
8 2 18 -7 16 -15 19 -15 19 -2 0 8 -2 13 -5 10 -2 -2 -11 2 -18 10 -8 7 -19
15 -25 17 -6 2 -12 20 -13 40 0 20 -5 40 -10 45 -5 4 -6 3 -2 -4 3 -6 2 -14
-3 -17 -5 -4 -8 2 -6 11 2 10 4 22 4 26 1 5 6 5 13 1 7 -4 8 -3 4 5 -5 8 -12
9 -20 2 -8 -7 -16 -4 -25 11 -11 17 -10 22 1 29 10 7 9 9 -5 9 -15 0 -16 3 -6
23 12 21 11 21 -6 7 -11 -9 -16 -10 -11 -2 4 7 2 12 -6 13 -7 0 -4 4 7 9 18 8
18 9 -5 10 -14 2 -29 2 -34 1 -5 -1 -4 5 4 13 11 15 7 20 -13 17 -5 -1 -6 3
-2 9 3 5 1 20 -5 32 -11 22 -10 22 4 4 9 -11 18 -17 20 -15 3 3 -6 18 -19 33
-27 32 -33 45 -12 27 10 -8 14 -7 14 4 0 7 -3 14 -6 13 -21 -2 -30 4 -25 17 4
8 3 15 0 15 -3 0 -6 -5 -6 -11z m-80 -123 c0 -3 -4 -8 -10 -11 -5 -3 -10 -1
-10 4 0 6 5 11 10 11 6 0 10 -2 10 -4z m-33 -71 c0 -8 -4 -12 -9 -9 -5 3 -6
10 -3 15 9 13 12 11 12 -6z m123 -262 c0 -8 5 -11 12 -7 7 4 8 3 4 -5 -4 -6
-11 -9 -15 -7 -4 3 -8 -1 -8 -9 0 -10 5 -11 17 -5 12 6 17 5 17 -5 0 -8 -5
-11 -10 -8 -5 3 -7 0 -5 -8 3 -8 10 -13 15 -12 5 1 10 -4 10 -12 0 -7 -5 -12
-11 -11 -6 2 -8 1 -3 -1 4 -3 7 -12 7 -21 1 -12 5 -10 15 8 l15 25 -6 -30 c-4
-23 -3 -26 5 -15 6 8 11 10 11 4 0 -6 -3 -14 -7 -18 -11 -10 -12 -37 -2 -30 5
3 9 0 9 -7 0 -7 3 -9 6 -6 4 4 2 13 -4 20 -9 10 -8 14 2 14 15 0 15 -26 0 -62
-7 -18 -6 -19 9 -6 10 8 20 11 24 7 3 -3 0 -6 -7 -6 -11 0 -11 -2 1 -12 8 -7
13 -12 10 -11 -2 1 -12 -8 -23 -20 -11 -12 -17 -17 -14 -11 3 7 -8 10 -32 8
-20 -2 -39 -4 -42 -5 -3 -1 -9 -1 -14 0 -5 1 -13 -4 -18 -11 -7 -10 -8 -10 -6
2 4 19 -4 21 -42 14 -16 -4 -27 -10 -24 -15 9 -16 -3 -10 -17 8 -12 14 -12 16
0 8 9 -5 12 -4 7 3 -4 6 -13 9 -21 5 -10 -3 -15 1 -15 12 0 10 -5 13 -12 9 -7
-4 -8 -3 -4 4 4 7 14 12 22 12 12 0 12 4 4 20 -10 18 -7 24 13 21 4 0 7 6 7
14 0 13 12 19 32 16 4 0 5 6 2 14 -4 8 -11 15 -18 15 -6 0 -4 5 4 10 13 9 13
11 0 21 -12 9 -11 10 5 6 11 -2 27 3 34 11 12 12 11 13 -10 7 -18 -5 -21 -4
-9 4 13 10 13 11 0 11 -10 1 -7 5 8 13 12 7 19 16 15 21 -4 4 1 4 11 0 13 -5
17 -4 12 4 -5 8 -1 10 11 5 16 -6 16 -5 4 10 -12 15 -12 17 3 11 9 -3 16 -13
16 -21z m-382 -278 c-3 -3 -9 2 -12 12 -6 14 -5 15 5 6 7 -7 10 -15 7 -18z
m342 20 c0 -2 -10 -9 -22 -15 -22 -11 -22 -10 -4 4 21 17 26 19 26 11z m65
-14 c3 -5 2 -12 -3 -15 -5 -3 -9 1 -9 9 0 17 3 19 12 6z m389 -169 c3 -5 -1
-9 -9 -9 -8 0 -12 4 -9 9 3 4 7 8 9 8 2 0 6 -4 9 -8z m-654 -16 c0 -11 -19
-15 -25 -6 -3 5 1 10 9 10 9 0 16 -2 16 -4z m760 -200 c0 -2 -7 -7 -16 -10 -8
-3 -12 -2 -9 4 6 10 25 14 25 6z m-1054 -18 c3 -4 -1 -5 -10 -4 -8 1 -18 5
-22 8 -3 4 1 5 10 4 8 -1 18 -5 22 -8z m98 -84 c3 -8 2 -12 -4 -9 -6 3 -10 10
-10 16 0 14 7 11 14 -7z"/>
<path d="M522 2721 c-11 -6 -9 -9 6 -13 15 -4 19 -2 15 8 -6 16 -4 16 -21 5z"/>
<path d="M470 2580 c0 -5 5 -10 11 -10 5 0 7 5 4 10 -3 6 -8 10 -11 10 -2 0
-4 -4 -4 -10z"/>
<path d="M2215 3193 c-15 -34 -13 -41 11 -38 15 1 24 -3 24 -11 0 -8 4 -14 10
-14 5 0 7 8 3 18 -4 13 -2 13 10 -3 8 -11 14 -23 13 -26 0 -3 5 -13 12 -21 7
-9 9 -24 5 -34 -6 -17 -5 -17 8 -4 8 8 21 24 29 34 14 18 13 18 -10 11 -22 -6
-23 -6 -8 6 15 13 16 16 2 39 l-15 25 6 -25 c4 -17 3 -21 -3 -12 -5 8 -13 13
-18 12 -5 -1 -10 4 -12 12 -2 9 0 8 8 -2 10 -13 11 -13 7 0 -2 8 -11 15 -19
14 -8 -1 -15 4 -15 11 0 7 8 10 19 7 10 -2 18 0 18 4 0 5 -18 10 -39 12 -29 2
-41 -2 -46 -15z m23 -7 c-10 -7 -14 -17 -10 -21 4 -5 1 -5 -7 0 -12 7 -11 10
4 22 24 17 36 17 13 -1z"/>
<path d="M3453 3185 c0 -8 4 -12 9 -9 5 3 6 10 3 15 -9 13 -12 11 -12 -6z"/>
<path d="M3310 3166 c0 -2 7 -7 16 -10 8 -3 12 -2 9 4 -6 10 -25 14 -25 6z"/>
<path d="M4773 3162 c5 -6 -8 -13 -33 -17 -22 -4 -38 -11 -35 -15 3 -5 0 -12
-6 -16 -8 -4 -9 -3 -5 4 5 8 -1 12 -14 12 -14 0 -19 4 -14 13 4 7 3 9 -2 4 -5
-5 -10 -13 -10 -18 -1 -5 -2 -14 -3 -20 0 -5 -7 -7 -13 -3 -7 4 -10 4 -6 -1 4
-4 3 -14 -2 -20 -7 -8 -4 -19 9 -34 11 -12 18 -31 16 -42 -2 -10 1 -19 7 -19
6 0 8 -3 5 -6 -4 -4 -19 1 -34 11 -27 18 -28 18 -13 -1 8 -10 19 -22 23 -25 5
-3 9 -12 10 -20 2 -8 6 -19 10 -26 4 -6 2 -15 -3 -18 -7 -5 -5 -12 7 -21 13
-10 13 -12 3 -9 -12 4 -16 -3 -17 -30 0 -21 3 -32 10 -28 5 3 7 2 4 -4 -4 -6
-18 -9 -32 -8 -14 2 -23 -1 -20 -5 3 -5 12 -7 20 -3 8 3 15 0 15 -7 0 -6 5 -8
12 -4 8 5 8 3 2 -7 -13 -20 -14 -90 -1 -82 5 3 7 2 4 -4 -4 -6 -18 -9 -32 -8
-14 2 -23 -1 -20 -5 3 -5 12 -7 20 -3 8 3 15 0 15 -7 0 -6 5 -8 13 -4 9 6 9 4
1 -7 -15 -20 -15 -62 -1 -71 9 -6 9 -8 0 -8 -7 0 -22 10 -34 23 l-21 22 12
-25 c7 -13 19 -30 26 -37 7 -7 11 -22 9 -33 -2 -11 1 -20 7 -20 6 0 9 -2 6 -5
-8 -8 -38 6 -38 17 0 5 4 7 8 4 5 -3 9 1 9 9 0 20 -13 19 -21 -1 -8 -21 -9
-18 13 -43 11 -12 18 -31 16 -42 -2 -10 1 -19 7 -19 6 0 9 -2 6 -5 -8 -8 -38
6 -38 17 0 5 4 7 8 4 5 -3 9 1 9 9 0 20 -13 19 -21 -1 -8 -21 -9 -18 13 -43
11 -12 18 -31 16 -42 -2 -10 1 -19 7 -19 6 0 9 -2 6 -5 -8 -8 -38 6 -38 17 0
5 4 7 8 4 5 -3 9 1 9 9 0 20 -13 19 -21 -1 -8 -21 -8 -20 10 -38 9 -9 17 -22
18 -29 1 -6 5 -17 9 -24 4 -6 2 -15 -3 -18 -7 -5 -5 -12 7 -21 13 -10 13 -12
3 -9 -12 4 -16 -3 -17 -30 0 -21 3 -32 10 -28 5 3 7 2 4 -4 -4 -6 -18 -9 -32
-8 -14 2 -23 -1 -20 -5 3 -5 12 -7 20 -3 8 3 15 0 15 -7 0 -6 5 -8 12 -4 8 5
8 3 2 -7 -5 -8 -10 -25 -10 -39 -1 -14 -2 -30 -3 -37 0 -6 -9 -14 -18 -16 -17
-4 -17 -5 0 -6 19 -1 24 -31 5 -31 -9 0 -8 -4 2 -10 20 -13 30 -12 30 1 0 5
-6 7 -12 3 -7 -4 -9 -3 -5 1 14 16 36 14 30 -3 -4 -9 -2 -13 4 -9 6 4 18 -2
27 -12 13 -15 14 -18 1 -18 -8 0 -11 5 -8 10 4 6 1 7 -7 2 -8 -5 -11 -4 -6 3
4 7 -1 9 -15 7 -28 -6 -41 -18 -14 -13 11 1 19 -2 18 -8 -1 -7 10 -10 27 -9
17 1 30 -2 30 -9 0 -6 5 -4 10 4 7 11 5 18 -6 27 -13 10 -10 11 18 9 24 -2 33
-7 33 -21 0 -10 6 -19 13 -21 7 -1 8 0 2 3 -15 7 -12 23 4 23 8 0 16 -7 20
-15 3 -8 11 -15 18 -15 11 0 11 2 0 8 -7 5 -14 19 -17 31 -4 20 -2 21 11 10 9
-7 26 -15 37 -16 12 -2 25 -10 30 -18 4 -8 13 -15 20 -15 9 0 9 2 -1 8 -7 5
-14 19 -17 31 -4 21 -3 22 13 9 20 -17 48 -17 44 0 -1 9 5 8 21 -3 13 -8 27
-12 31 -8 10 10 37 13 31 3 -3 -5 1 -11 7 -13 7 -3 -6 -4 -30 -2 -35 4 -40 2
-30 -9 7 -8 15 -11 18 -7 3 4 16 7 30 6 18 0 25 5 24 18 -1 9 2 17 7 17 5 0 9
-6 9 -14 0 -8 4 -18 10 -21 6 -4 7 1 3 12 -7 17 -6 17 18 1 20 -13 26 -13 26
-3 0 8 -5 11 -10 8 -6 -3 -7 -1 -3 6 4 6 11 9 16 6 5 -3 11 -1 15 5 4 6 11 8
16 5 5 -4 9 -1 9 4 0 6 5 11 11 11 8 0 8 -4 -1 -15 -6 -8 -17 -13 -23 -12 -7
1 -12 -4 -12 -12 0 -8 6 -15 13 -17 7 -1 8 0 2 3 -18 9 -11 22 10 18 11 -2 18
0 15 5 -3 5 4 11 15 15 11 4 18 11 15 16 -4 5 3 5 18 0 14 -6 28 -7 31 -4 3 4
6 0 6 -8 1 -10 4 -9 11 4 6 9 14 15 19 12 4 -3 11 2 14 11 3 8 10 13 15 10 5
-3 7 3 4 14 -3 12 0 20 6 20 7 0 9 -4 6 -10 -3 -6 1 -7 9 -4 9 3 13 10 10 15
-3 5 2 6 10 3 16 -6 23 10 9 19 -5 2 -2 2 5 1 6 -2 12 0 12 5 0 4 7 8 15 8 8
0 15 -5 15 -10 0 -6 2 -8 5 -5 10 9 -7 38 -18 31 -6 -3 -7 -1 -3 5 5 8 15 8
33 1 22 -8 24 -7 14 4 -9 11 -8 17 4 27 8 7 13 16 10 20 -3 4 2 11 10 14 13 5
13 2 0 -27 -14 -27 -14 -29 -1 -12 9 11 19 25 23 30 5 6 8 24 7 40 -1 17 0 24
3 18 2 -7 12 -13 21 -13 14 0 14 2 3 9 -11 7 -10 10 5 13 14 2 19 12 19 38 0
26 5 35 16 34 11 -1 15 5 12 17 -3 11 1 21 11 25 14 5 16 31 16 196 l0 190
-27 -6 c-16 -3 -22 -3 -15 0 19 9 14 27 -5 20 -16 -5 -16 -4 1 8 16 13 16 17
4 35 -8 12 -18 18 -23 13 -4 -4 -5 5 -1 21 5 23 3 27 -15 27 -15 0 -19 4 -15
16 4 9 2 13 -5 8 -8 -4 -9 1 -4 17 7 22 6 23 -7 6 -13 -18 -14 -17 -16 2 -4
44 -6 51 -15 51 -5 0 -7 -7 -4 -14 4 -10 1 -13 -8 -9 -8 3 -12 9 -9 14 3 5 -2
9 -10 9 -9 0 -16 4 -16 9 0 5 10 7 23 4 21 -4 20 -4 -3 9 -14 8 -24 20 -22 27
1 7 -2 10 -7 7 -5 -4 -13 -1 -17 5 -5 9 -11 7 -21 -6 -10 -15 -13 -15 -13 -4
0 8 6 21 13 28 10 10 9 11 -5 6 -10 -4 -18 -12 -18 -19 0 -6 -4 -5 -9 4 -6 8
-7 19 -4 25 2 5 -5 -1 -17 -15 -20 -23 -21 -23 -10 -2 11 23 6 42 -11 42 -5 0
-9 -5 -9 -11 0 -5 5 -7 12 -3 7 4 8 3 4 -4 -10 -16 -26 -15 -26 2 0 8 -7 17
-16 20 -23 9 -26 8 -18 -6 5 -10 4 -10 -6 -1 -7 6 -19 9 -28 5 -11 -4 -14 -1
-9 11 8 21 -11 33 -26 18 -9 -9 -8 -11 3 -8 8 2 12 2 7 0 -4 -3 -5 -9 -2 -14
4 -5 -1 -6 -9 -3 -14 5 -21 24 -17 47 0 4 -3 7 -9 7 -5 0 -9 -10 -7 -21 1 -16
-4 -22 -20 -24 -14 -1 -19 3 -16 12 4 10 9 11 19 2 10 -8 14 -8 14 0 0 6 -5
11 -11 11 -6 0 -7 6 -2 13 4 6 -6 4 -21 -7 -16 -10 -25 -13 -21 -7 4 8 -3 10
-24 6 -21 -4 -33 0 -39 11 -8 15 -10 15 -15 0 -4 -9 -12 -16 -18 -16 -9 0 -9
4 0 14 9 11 9 16 0 22 -7 4 -9 3 -6 -3 8 -13 -46 -25 -70 -16 -12 5 -14 3 -8
-8 5 -8 -2 -5 -15 6 l-23 20 13 -25 c13 -25 13 -25 -8 -6 -19 16 -24 17 -39 5
-15 -13 -16 -12 -9 6 6 16 5 17 -5 8 -9 -9 -17 -9 -33 -1 -18 9 -19 9 -9 -3 9
-11 7 -14 -13 -15 -19 -2 -22 1 -14 11 8 10 8 15 -1 21 -7 4 -9 3 -6 -4z m-18
-32 c-3 -5 -12 -10 -18 -10 -7 0 -6 4 3 10 19 12 23 12 15 0z m132 -5 c0 -8
-4 -12 -9 -9 -5 3 -6 10 -3 15 9 13 12 11 12 -6z m108 5 c-3 -5 -12 -10 -18
-10 -7 0 -6 4 3 10 19 12 23 12 15 0z m55 -10 c0 -5 -5 -10 -11 -10 -5 0 -7 5
-4 10 3 6 8 10 11 10 2 0 4 -4 4 -10z m-377 -40 c-9 -10 -22 -16 -30 -13 -18
7 -1 28 26 30 18 2 18 0 4 -17z m761 -69 c13 -14 14 -21 5 -27 -8 -4 -10 -3
-5 5 4 6 0 14 -8 17 -9 3 -16 10 -16 15 0 13 5 11 24 -10z m-498 -50 c9 7 14
7 14 1 0 -12 18 -11 39 2 9 6 12 5 7 -2 -3 -6 -2 -13 4 -17 5 -3 10 -11 10
-16 0 -6 -5 -7 -12 -3 -7 4 -8 3 -4 -5 11 -17 28 -2 21 19 -5 16 -2 18 19 14
14 -2 28 0 31 6 8 13 25 3 25 -13 0 -8 -3 -8 -9 1 -6 10 -10 10 -20 -2 -9 -11
-9 -16 0 -22 8 -5 9 -3 4 6 -6 10 -4 12 8 7 10 -4 21 1 27 11 9 14 10 11 5
-13 -3 -16 -2 -25 2 -20 4 6 17 12 28 13 11 2 25 8 31 13 8 6 10 2 9 -16 -4
-29 -2 -30 19 -9 15 14 16 13 16 -6 0 -12 4 -18 10 -15 6 4 8 12 4 18 -3 7 0
5 8 -4 7 -9 22 -15 33 -13 20 3 20 3 1 -12 -23 -16 -14 -19 14 -4 15 8 17 6
13 -9 -4 -15 -1 -19 14 -15 11 3 25 -2 33 -11 12 -14 12 -20 0 -38 -11 -19
-11 -20 1 -11 16 13 51 15 43 2 -3 -5 -9 -6 -14 -3 -5 3 -11 1 -15 -4 -3 -6 3
-8 14 -6 11 2 25 -3 32 -11 6 -8 8 -14 4 -14 -4 0 -3 -6 3 -12 6 -7 12 -17 14
-23 1 -5 6 -9 9 -8 4 1 5 -7 2 -17 -4 -16 -2 -19 13 -14 17 6 17 5 -1 -10 -20
-17 -20 -17 5 -11 18 5 21 4 11 -4 -13 -8 -13 -12 0 -27 9 -11 9 -15 2 -10
-16 9 -18 -35 -2 -51 8 -8 7 -13 -2 -18 -8 -6 -10 -4 -4 6 5 8 4 11 0 6 -11
-9 -14 -48 -4 -42 4 3 9 -1 12 -9 4 -10 -1 -12 -16 -9 -20 4 -20 3 -4 -7 14
-9 16 -15 6 -26 -9 -11 -8 -18 2 -31 12 -15 12 -16 -3 -10 -10 3 -20 1 -24 -5
-4 -6 -3 -8 4 -4 6 3 13 2 17 -4 3 -6 -4 -10 -17 -10 l-23 -1 25 -14 c25 -14
25 -14 -10 -9 -20 3 -30 2 -24 -3 6 -4 11 -16 11 -27 0 -18 -1 -18 -14 0 -16
22 -17 11 -2 -18 9 -16 8 -19 -2 -13 -9 6 -11 3 -6 -8 7 -19 -8 -32 -19 -16
-5 8 -3 9 6 4 9 -5 11 -4 6 4 -6 9 -11 9 -22 0 -10 -8 -11 -15 -4 -24 7 -9 5
-16 -7 -26 -11 -9 -14 -10 -9 -1 4 7 1 12 -8 12 -10 0 -13 -6 -9 -16 5 -14 3
-15 -14 -6 -15 9 -20 8 -20 -3 0 -8 3 -12 7 -10 4 2 7 -2 7 -9 0 -8 -8 -11
-19 -8 -10 2 -18 1 -16 -4 2 -5 0 -9 -3 -9 -4 0 -17 -9 -29 -20 -12 -11 -21
-15 -20 -10 4 19 0 35 -9 35 -5 0 -8 -8 -7 -17 0 -10 -4 -18 -11 -18 -6 0 -14
-3 -18 -7 -4 -4 -14 -4 -23 -1 -10 4 -13 2 -8 -5 11 -18 0 -14 -15 6 -7 9 -9
14 -5 10 5 -4 15 -3 23 3 10 9 13 8 13 -1 0 -9 3 -10 13 -1 8 6 18 7 22 3 5
-4 5 -1 1 6 -4 7 -12 10 -17 6 -5 -3 -17 0 -25 7 -12 10 -15 10 -12 -2 2 -8
-3 -13 -10 -11 -8 1 -16 -6 -19 -17 -4 -15 -11 -18 -31 -15 -23 5 -24 3 -11
-12 13 -16 12 -16 -11 -3 -28 16 -41 30 -35 39 2 4 -2 7 -10 7 -11 0 -12 -4
-3 -14 6 -7 7 -17 3 -21 -4 -4 -10 -1 -12 6 -4 10 -8 9 -17 -3 -11 -15 -13
-15 -25 -1 -8 9 -9 16 -3 16 6 0 12 -6 14 -12 3 -7 7 -3 10 8 4 17 2 20 -13
17 -27 -7 -33 -21 -17 -41 11 -15 11 -15 -3 -5 -9 7 -20 9 -24 5 -5 -4 -5 -1
0 7 6 10 2 12 -14 6 -13 -4 -21 -2 -21 5 0 6 4 9 9 5 5 -3 13 -1 16 5 4 6 1 9
-7 8 -7 -2 -12 3 -10 11 3 12 0 12 -13 1 -8 -7 -18 -10 -22 -7 -3 4 -13 1 -22
-6 -14 -11 -14 -10 -2 5 7 10 17 15 22 12 5 -3 9 0 9 5 0 6 -4 11 -9 11 -15 0
-24 41 -13 52 8 8 9 5 6 -9 -3 -12 -2 -23 3 -26 5 -3 8 7 7 21 -1 19 -6 27
-18 25 -10 0 -15 2 -12 5 3 3 1 11 -5 19 -9 9 -8 13 0 13 6 0 10 5 9 11 -2 6
4 14 12 16 9 3 11 1 5 -4 -5 -4 -11 -16 -13 -25 -3 -20 23 -25 34 -6 4 7 3 8
-4 4 -7 -4 -12 -1 -12 8 0 9 5 16 10 16 16 0 12 16 -5 18 -8 1 -21 3 -29 4
-21 2 -12 33 12 36 11 2 23 10 26 18 3 8 2 12 -4 9 -11 -7 -51 35 -44 47 3 4
13 8 24 8 10 0 21 7 24 16 3 8 2 13 -2 10 -11 -7 -25 5 -41 34 -13 23 -13 24
3 11 16 -13 17 -12 11 11 -4 14 -2 29 3 32 6 3 8 -2 5 -13 -3 -10 -1 -21 4
-24 4 -3 8 14 8 38 1 24 -3 41 -7 39 -5 -3 -5 -10 -2 -16 4 -7 2 -8 -4 -4 -7
4 -12 2 -12 -5 0 -7 -3 -9 -6 -6 -4 4 -1 14 6 22 10 12 10 21 1 41 -7 16 -7
23 -1 19 7 -4 9 3 6 19 -3 14 0 28 5 32 5 3 7 15 3 26 -4 13 -2 18 4 14 6 -3
13 -3 16 2 2 4 -7 9 -20 10 -17 1 -23 -2 -18 -10 4 -7 3 -8 -5 -4 -15 10 -4
26 19 26 10 0 21 7 24 16 3 8 2 13 -2 10 -11 -7 -25 5 -40 34 l-13 25 20 -22
c10 -13 22 -23 25 -23 10 0 -7 35 -23 48 -14 11 -14 11 2 6 19 -7 24 11 5 20
-7 4 -3 4 9 2 13 -2 26 0 29 5 3 5 10 7 15 4 15 -10 10 2 -8 16 -14 12 -16 12
-8 0 6 -10 4 -12 -5 -6 -9 6 -11 4 -5 -5 5 -9 4 -11 -3 -6 -9 5 -7 14 4 31 13
20 20 23 36 14 14 -7 23 -7 34 2z m659 -161 c3 -5 1 -10 -4 -10 -6 0 -11 5
-11 10 0 6 2 10 4 10 3 0 8 -4 11 -10z m-760 -60 c3 -5 1 -10 -4 -10 -6 0 -11
5 -11 10 0 6 2 10 4 10 3 0 8 -4 11 -10z m791 -20 c0 -12 -4 -16 -9 -11 -5 5
-6 14 -3 20 10 15 12 14 12 -9z m-161 -260 c3 -5 1 -10 -4 -10 -6 0 -11 5 -11
10 0 6 2 10 4 10 3 0 8 -4 11 -10z m109 -186 c3 -8 2 -12 -4 -9 -6 3 -10 10
-10 16 0 14 7 11 14 -7z m-746 -69 c-3 -3 -9 2 -12 12 -6 14 -5 15 5 6 7 -7
10 -15 7 -18z m36 -43 c3 -5 -1 -9 -9 -9 -8 0 -12 4 -9 9 3 4 7 8 9 8 2 0 6
-4 9 -8z m-197 -117 c0 -8 -4 -12 -9 -9 -5 3 -6 10 -3 15 9 13 12 11 12 -6z
m646 -20 c-10 -7 -20 -12 -21 -10 -7 7 23 33 31 28 5 -3 0 -11 -10 -18z"/>
<path d="M4884 2951 c4 -6 16 -16 28 -22 15 -8 18 -8 14 0 -4 6 -16 16 -28 22
-15 8 -18 8 -14 0z"/>
<path d="M4936 2939 c3 -5 14 -7 24 -6 31 5 31 12 -1 13 -16 1 -26 -2 -23 -7z"/>
<path d="M5305 2840 c-4 -6 1 -7 11 -3 13 5 15 3 9 -7 -5 -9 -4 -11 4 -6 6 4
9 12 6 17 -8 12 -22 12 -30 -1z"/>
<path d="M5386 2742 c-3 -5 1 -9 9 -9 8 0 12 4 9 9 -3 4 -7 8 -9 8 -2 0 -6 -4
-9 -8z"/>
<path d="M4845 2685 c0 -18 2 -36 5 -39 3 -3 6 7 5 22 0 15 3 30 8 33 5 3 2 9
-5 11 -10 4 -14 -3 -13 -27z"/>
<path d="M5397 2709 c7 -7 15 -10 18 -7 3 3 -2 9 -12 12 -14 6 -15 5 -6 -5z"/>
<path d="M4840 2518 c0 -4 4 -8 9 -8 6 0 12 4 15 8 3 5 -1 9 -9 9 -8 0 -15 -4
-15 -9z"/>
<path d="M4831 2444 c14 -17 25 -18 32 -1 3 7 -5 13 -20 13 -19 2 -22 -1 -12
-12z"/>
<path d="M5395 2441 c-3 -5 -2 -12 3 -15 5 -3 9 1 9 9 0 17 -3 19 -12 6z"/>
<path d="M4824 2371 c4 -5 13 -8 21 -7 25 4 25 12 -1 14 -14 1 -23 -2 -20 -7z"/>
<path d="M5036 2184 c-8 -20 -8 -24 2 -24 4 0 8 9 9 20 2 24 -3 26 -11 4z"/>
<path d="M5064 2180 c2 -16 20 -14 24 2 3 10 2 10 -6 -1 -7 -9 -11 -10 -15 -2
-4 7 -5 8 -3 1z"/>
<path d="M5071 3154 c0 -11 3 -14 6 -6 3 7 2 16 -1 19 -3 4 -6 -2 -5 -13z"/>
<path d="M2272 3099 c1 -19 3 -28 5 -21 3 6 10 9 16 5 7 -4 5 1 -3 12 -8 10
-13 20 -12 22 2 3 1 7 -2 10 -2 3 -4 -10 -4 -28z"/>
<path d="M2356 3118 c3 -4 -4 -21 -15 -36 -14 -21 -17 -32 -9 -43 8 -11 9 -10
4 6 -5 17 -4 18 6 5 7 -8 21 -21 31 -29 15 -12 17 -12 11 4 -5 13 -4 16 5 10
10 -6 11 -3 2 14 -7 12 -8 20 -4 19 4 -2 8 2 8 7 0 6 -5 9 -11 7 -8 -1 -11 7
-10 21 2 14 -2 24 -10 24 -7 0 -11 -4 -8 -9z m4 -38 c-6 -11 -13 -20 -16 -20
-2 0 0 9 6 20 6 11 13 20 16 20 2 0 0 -9 -6 -20z"/>
<path d="M3284 3113 c4 -7 2 -21 -4 -30 -11 -16 -11 -16 -6 -1 7 23 -9 31 -24
13 -19 -23 -21 -63 -3 -69 8 -3 12 -10 8 -15 -3 -5 -1 -13 5 -16 6 -4 9 -1 8
7 -2 7 5 13 14 13 9 0 20 4 25 9 4 5 3 6 -4 2 -7 -4 -13 -2 -13 4 0 6 -4 9 -8
6 -5 -3 -9 1 -9 9 0 10 5 11 19 4 16 -9 18 -6 16 21 -1 17 -9 37 -17 43 -12 9
-13 9 -7 0z m-21 -28 c-3 -9 -8 -14 -10 -11 -3 3 -2 9 2 15 9 16 15 13 8 -4z
m-3 -45 c6 -11 8 -20 6 -20 -3 0 -10 9 -16 20 -6 11 -8 20 -6 20 3 0 10 -9 16
-20z"/>
<path d="M626 3088 c3 -5 10 -6 15 -3 13 9 11 12 -6 12 -8 0 -12 -4 -9 -9z"/>
<path d="M646 3074 c-11 -8 -16 -14 -10 -14 13 0 39 18 34 24 -3 2 -14 -2 -24
-10z"/>
<path d="M4630 3020 c13 -24 17 -25 17 -5 0 8 -6 16 -14 19 -11 4 -11 1 -3
-14z"/>
<path d="M691 2971 c-8 -5 -9 -11 -3 -15 5 -3 12 1 16 9 6 17 6 18 -13 6z"/>
<path d="M4626 2934 c-9 -24 -7 -31 4 -14 8 13 10 12 10 -2 0 -10 -6 -18 -12
-18 -9 0 -9 -3 -2 -8 5 -4 9 -22 8 -40 0 -18 1 -30 5 -27 3 3 6 20 6 38 0 18
4 37 8 44 4 6 3 14 -3 18 -6 4 -8 11 -5 16 4 5 2 9 -3 9 -6 0 -13 -7 -16 -16z"/>
<path d="M2790 2890 c-14 -19 -37 -30 -26 -12 3 5 -1 9 -8 9 -7 0 -13 -6 -13
-13 0 -7 4 -11 8 -8 4 2 10 0 13 -5 7 -10 -20 -9 -30 2 -4 4 -13 2 -21 -4 -16
-14 -18 -43 -1 -33 7 4 8 3 4 -5 -4 -6 -12 -9 -17 -6 -5 4 -9 -3 -9 -14 0 -11
-8 -22 -17 -24 -17 -4 -17 -5 0 -6 9 0 17 -6 17 -12 0 -5 -4 -8 -9 -5 -11 7
-8 -21 4 -31 4 -4 5 -2 0 6 -5 9 -4 12 3 7 7 -4 8 -17 2 -35 -4 -16 -6 -31 -4
-34 3 -2 -3 -10 -13 -18 -11 -9 -14 -10 -9 -1 4 7 2 12 -4 12 -7 0 -10 -13 -9
-32 2 -22 -1 -32 -9 -30 -16 3 -15 -11 1 -27 10 -10 8 -11 -7 -5 -16 6 -17 5
-7 -14 8 -15 8 -22 1 -22 -5 0 -10 5 -10 12 0 6 -3 8 -6 5 -10 -10 17 -38 29
-30 6 3 7 1 3 -6 -4 -6 -11 -9 -16 -6 -5 3 -11 1 -15 -5 -3 -5 0 -10 8 -10 11
0 13 -7 9 -22 -3 -14 -2 -19 6 -14 7 4 12 1 12 -8 0 -9 -5 -16 -11 -16 -7 0 1
-12 16 -26 27 -25 29 -25 41 -9 12 16 13 15 11 -11 -2 -24 2 -29 21 -30 17 -1
22 3 18 15 -6 15 -5 15 7 0 16 -21 57 -34 57 -19 0 6 -4 8 -10 5 -5 -3 -10 -2
-10 4 0 5 9 9 20 8 15 -1 19 -6 15 -22 -5 -18 -5 -18 5 -2 6 9 15 15 20 12 5
-3 11 -1 15 5 3 5 12 10 18 10 7 0 6 -4 -3 -10 -9 -6 -10 -10 -3 -10 6 0 15 5
18 10 10 16 28 11 21 -6 -3 -8 -2 -13 3 -9 5 3 12 -1 15 -7 3 -7 3 -2 0 12 -3
14 -2 20 3 14 4 -6 18 -10 30 -9 14 1 19 -3 16 -12 -4 -9 -9 -10 -17 -4 -8 7
-12 4 -13 -12 -2 -17 0 -19 7 -7 9 13 10 13 11 0 0 -9 4 -7 11 8 6 12 15 22
20 22 4 0 8 5 8 11 0 5 -4 8 -9 4 -5 -3 -12 -1 -16 5 -3 5 -1 10 6 10 10 0 10
3 2 11 -6 6 -9 18 -6 27 5 11 3 13 -7 7 -8 -5 -11 -4 -6 3 3 6 0 17 -7 24 -18
16 0 36 28 31 16 -3 16 -2 -3 7 -15 6 -21 14 -15 22 4 7 8 18 9 23 2 14 -34
17 -41 4 -4 -5 -11 -7 -16 -3 -5 3 -6 11 -2 17 4 7 0 7 -10 -1 -9 -8 -22 -11
-29 -7 -7 4 -4 0 6 -9 10 -8 24 -12 30 -9 6 4 5 -1 -3 -10 -15 -18 -26 -23
-16 -7 3 6 1 10 -4 10 -6 0 -11 -5 -11 -11 0 -6 -8 -8 -17 -5 -15 5 -15 4 1
-9 15 -12 16 -15 5 -15 -9 0 -16 -7 -16 -15 0 -8 4 -15 9 -15 4 0 8 -5 8 -11
0 -8 -4 -8 -13 0 -10 8 -17 7 -27 -2 -10 -9 -11 -9 -6 1 4 6 2 12 -3 12 -6 0
-11 -6 -11 -12 0 -9 -4 -8 -10 2 -6 10 -10 11 -10 3 0 -7 -5 -13 -11 -13 -5 0
-7 5 -4 10 3 6 -1 10 -9 10 -9 0 -16 -5 -16 -11 0 -5 -5 -7 -11 -3 -8 4 -4 11
11 19 l22 12 -22 6 c-21 5 -22 8 -10 24 12 15 12 16 0 6 -11 -10 -16 -9 -27 5
-9 11 -12 12 -7 2 4 -8 14 -23 22 -32 10 -12 11 -18 4 -18 -7 0 -12 5 -12 11
0 5 -4 8 -8 5 -5 -3 -9 0 -10 7 -7 66 -7 95 0 91 4 -3 11 2 14 10 5 12 11 13
25 6 15 -8 17 -7 13 5 -7 18 7 20 23 4 9 -9 11 -6 7 12 -5 19 -4 21 5 9 10
-14 16 -7 12 13 -1 5 3 6 9 2 6 -3 8 -10 5 -15 -3 -4 2 -14 11 -21 12 -10 15
-10 12 2 -2 8 3 13 12 11 8 -2 12 0 7 4 -4 4 1 16 10 26 15 17 15 20 3 28 -11
7 -7 9 15 7 17 -1 34 -6 38 -12 5 -6 7 -3 3 8 -3 9 0 17 6 17 7 0 3 7 -8 16
-18 15 -18 15 0 10 16 -6 17 -4 6 9 -7 8 -17 12 -23 8 -6 -3 -7 -1 -3 6 4 6
13 8 19 4 7 -4 5 2 -3 12 -14 17 -13 18 3 12 9 -3 17 -2 17 3 0 9 -14 14 -32
11 -4 0 -5 8 -3 19 2 11 0 22 -6 25 -5 4 -9 1 -9 -6 0 -7 -7 -4 -15 7 -8 10
-14 26 -14 34 0 10 3 8 10 -5 l9 -20 -3 20 c-2 16 -9 19 -33 18 -23 -2 -33 3
-40 17 l-9 21 -15 -21z m11 -23 c-10 -9 -11 -8 -5 6 3 10 9 15 12 12 3 -3 0
-11 -7 -18z m-71 -17 c0 -5 -5 -10 -11 -10 -5 0 -7 5 -4 10 3 6 8 10 11 10 2
0 4 -4 4 -10z m79 -67 c12 9 13 9 7 0 -4 -8 -2 -13 4 -13 7 0 10 -6 7 -14 -4
-10 1 -13 16 -10 22 4 22 4 -1 -5 -12 -6 -30 -7 -40 -4 -14 6 -15 4 -4 -9 10
-13 10 -18 1 -24 -7 -4 -9 -3 -5 4 3 6 -2 15 -11 21 -10 6 -14 11 -9 11 5 0 3
7 -4 15 -9 11 -9 15 -1 15 7 0 9 6 5 13 -5 9 -4 9 6 0 11 -10 17 -10 29 0z
m51 -7 c-7 -7 -13 -7 -20 0 -6 6 -3 10 10 10 13 0 16 -4 10 -10z m63 -89 c-5
-8 -8 -7 -11 1 -2 7 -9 9 -14 6 -7 -4 -8 -2 -4 4 4 6 13 9 21 6 8 -4 12 -11 8
-17z m-43 -32 c0 -1 -12 -12 -27 -26 -16 -13 -22 -17 -15 -9 15 18 16 34 0 24
-6 -4 -8 -3 -5 2 4 7 47 15 47 9z m95 -124 c3 -5 1 -12 -5 -16 -6 -4 -8 -11
-5 -16 4 -5 1 -9 -4 -9 -6 0 -11 5 -11 11 0 5 -5 7 -11 3 -8 -4 -8 0 0 15 12
22 26 27 36 12z m-299 -115 c18 -19 18 -27 0 -20 -14 5 -31 34 -20 34 3 0 12
-6 20 -14z"/>
<path d="M2830 2898 c0 -4 6 -8 14 -8 8 0 17 4 20 8 2 4 -4 8 -15 8 -10 0 -19
-4 -19 -8z"/>
<path d="M735 2861 c-3 -5 -2 -12 3 -15 5 -3 9 1 9 9 0 17 -3 19 -12 6z"/>
<path d="M2896 2843 c-6 -14 -5 -15 5 -6 7 7 10 15 7 18 -3 3 -9 -2 -12 -12z"/>
<path d="M2926 2811 c-4 -5 -2 -12 3 -15 5 -4 12 -2 15 3 4 5 2 12 -3 15 -5 4
-12 2 -15 -3z"/>
<path d="M4625 2771 c-3 -5 -1 -12 3 -15 5 -3 8 -17 7 -31 -2 -14 0 -23 4 -20
9 5 8 36 -2 52 -4 6 -1 14 5 16 9 4 10 6 1 6 -6 1 -14 -3 -18 -8z"/>
<path d="M261 2663 c-1 -17 16 -25 25 -12 4 7 3 9 -4 5 -5 -3 -13 0 -15 6 -4
9 -6 10 -6 1z"/>
<path d="M4625 2650 c-8 -13 3 -30 18 -30 7 0 6 4 -3 10 -13 9 -13 11 0 20 9
6 10 10 3 10 -6 0 -15 -4 -18 -10z"/>
<path d="M2630 2621 c0 -6 4 -13 10 -16 6 -3 7 1 4 9 -7 18 -14 21 -14 7z"/>
<path d="M865 2580 c-3 -6 1 -7 9 -4 18 7 21 14 7 14 -6 0 -13 -4 -16 -10z"/>
<path d="M2720 2565 c-7 -8 -9 -15 -6 -15 4 0 14 7 22 15 9 8 11 15 6 15 -5 0
-15 -7 -22 -15z"/>
<path d="M220 2559 c0 -5 5 -7 10 -4 6 3 10 8 10 11 0 2 -4 4 -10 4 -5 0 -10
-5 -10 -11z"/>
<path d="M2835 2460 c3 -5 8 -10 11 -10 2 0 4 5 4 10 0 6 -5 10 -11 10 -5 0
-7 -4 -4 -10z"/>
<path d="M2992 2453 c-6 -2 -10 -9 -6 -14 8 -14 21 -11 21 6 0 8 -1 15 -1 14
-1 0 -7 -3 -14 -6z"/>
<path d="M2996 2412 c-3 -5 1 -9 9 -9 8 0 12 4 9 9 -3 4 -7 8 -9 8 -2 0 -6 -4
-9 -8z"/>
<path d="M5625 2351 c-3 -5 -2 -12 3 -15 5 -3 9 1 9 9 0 17 -3 19 -12 6z"/>
<path d="M4626 2294 c-9 -24 -7 -31 4 -14 8 13 10 12 10 -2 0 -10 -6 -18 -12
-18 -9 0 -9 -3 -2 -8 5 -4 9 -22 8 -40 0 -18 1 -30 5 -27 3 3 6 20 6 38 0 18
4 37 8 44 4 6 3 14 -3 18 -6 4 -8 11 -5 16 4 5 2 9 -3 9 -6 0 -13 -7 -16 -16z"/>
<path d="M755 2260 c3 -5 8 -10 11 -10 2 0 4 5 4 10 0 6 -5 10 -11 10 -5 0 -7
-4 -4 -10z"/>
<path d="M294 2236 c1 -8 5 -18 8 -22 4 -3 5 1 4 10 -1 8 -5 18 -8 22 -4 3 -5
-1 -4 -10z"/>
<path d="M53 2215 c0 -8 4 -12 9 -9 5 3 6 10 3 15 -9 13 -12 11 -12 -6z"/>
<path d="M3210 2219 c0 -5 5 -7 10 -4 6 3 10 8 10 11 0 2 -4 4 -10 4 -5 0 -10
-5 -10 -11z"/>
<path d="M2375 2213 c3 -3 -1 -13 -8 -21 -10 -13 -9 -14 2 -7 10 5 12 4 7 -3
-10 -17 -15 -15 -26 11 -7 18 -9 18 -9 4 -1 -11 -5 -15 -13 -11 -7 4 -8 3 -4
-5 4 -6 11 -9 16 -6 17 11 17 -22 -1 -44 -11 -13 -19 -20 -19 -15 0 4 7 15 15
24 13 14 13 17 1 17 -8 0 -14 -5 -13 -11 1 -6 -11 -10 -28 -9 -16 0 -24 -1
-17 -4 6 -2 10 -9 7 -14 -4 -5 2 -6 12 -3 17 5 17 5 0 -6 -9 -6 -22 -8 -29 -4
-6 4 -8 3 -4 -4 3 -5 1 -12 -6 -14 -9 -3 -9 -6 0 -12 7 -4 12 -2 12 3 0 6 5
11 11 11 5 0 8 -4 5 -9 -8 -13 17 -30 41 -28 12 0 20 4 18 7 -1 3 2 16 7 30 7
20 11 22 19 10 9 -12 10 -12 5 3 -3 10 -6 21 -6 24 0 3 -9 -5 -21 -18 l-20
-24 17 27 c9 15 20 25 25 22 5 -3 12 2 15 11 5 13 9 13 23 3 14 -11 14 -11 3
4 -11 14 -10 18 5 27 10 6 13 11 8 11 -6 0 -16 -5 -23 -12 -9 -9 -12 -9 -13 0
-3 26 -4 31 -11 36 -5 3 -6 3 -3 -1z m-44 -146 c-7 -7 -14 -8 -21 -1 -6 6 -2
10 12 11 16 2 18 -1 9 -10z"/>
<path d="M3253 2214 c4 -7 0 -17 -7 -24 -15 -11 -19 -67 -6 -75 4 -2 6 6 5 20
-2 17 1 22 12 18 11 -4 11 -8 3 -13 -9 -6 -9 -9 -1 -14 6 -4 8 -12 5 -18 -4
-6 -3 -8 3 -5 5 3 17 -2 26 -11 24 -26 47 -43 48 -37 1 3 2 10 3 17 1 15 23
22 31 9 3 -6 2 -11 -3 -11 -5 0 -17 -12 -27 -26 -9 -15 -12 -24 -7 -20 6 3 12
3 15 -1 2 -5 2 -3 1 4 -2 6 5 17 14 25 13 11 14 11 7 -1 -9 -15 -14 -64 -6
-56 2 2 12 0 23 -6 16 -9 17 -13 7 -27 -11 -14 -11 -15 1 -5 16 15 23 46 8 37
-7 -4 -8 -2 -4 4 5 8 1 10 -11 5 -10 -3 -15 -3 -11 1 3 4 12 9 20 10 27 6 48
18 48 29 0 7 -4 7 -12 -1 -17 -17 -33 -15 -18 3 7 9 10 18 6 22 -3 3 -6 2 -6
-4 0 -5 -7 -10 -15 -10 -8 0 -15 7 -15 14 0 8 5 11 12 7 7 -4 8 -3 4 5 -4 6
-12 9 -17 6 -5 -4 -12 1 -15 10 -4 9 -12 14 -20 11 -7 -3 -18 3 -26 12 -12 15
-11 16 5 3 9 -7 17 -9 17 -3 0 5 -7 13 -16 16 -8 3 -12 11 -9 16 4 6 1 9 -7 8
-7 -2 -12 3 -10 10 2 9 -4 11 -18 7 -11 -4 -20 -2 -20 4 0 6 5 11 10 11 6 0
10 5 10 12 0 6 -3 8 -7 5 -3 -4 -13 -1 -21 6 -10 7 -13 8 -9 1z m10 -29 c-3
-9 -8 -14 -10 -11 -3 3 -2 9 2 15 9 16 15 13 8 -4z m48 -63 c-6 -11 -4 -20 7
-30 12 -9 13 -11 2 -6 -37 18 -49 36 -37 55 15 23 42 5 28 -19z"/>
<path d="M3285 2131 c-3 -5 -1 -12 4 -15 5 -3 11 1 15 9 6 16 -9 21 -19 6z"/>
<path d="M3220 2200 c-9 -6 -10 -10 -3 -10 6 0 15 5 18 10 8 12 4 12 -15 0z"/>
<path d="M2386 2131 c-4 -5 -2 -12 3 -15 5 -4 12 -2 15 3 4 5 2 12 -3 15 -5 4
-12 2 -15 -3z"/>
<path d="M4626 2131 c-3 -5 2 -15 12 -22 15 -13 16 -12 4 3 -10 13 -10 17 0
21 9 4 9 6 1 6 -6 1 -14 -3 -17 -8z"/>
<path d="M4613 2095 c0 -8 4 -12 9 -9 5 3 6 10 3 15 -9 13 -12 11 -12 -6z"/>
<path d="M4620 2070 c-8 -5 -10 -10 -5 -10 6 0 17 5 25 10 8 5 11 10 5 10 -5
0 -17 -5 -25 -10z"/>
<path d="M2220 2063 c0 -5 5 -14 12 -21 9 -9 9 -12 0 -12 -7 0 -11 -4 -9 -9 1
-5 -2 -9 -7 -9 -5 0 -13 -6 -18 -14 -8 -10 -9 -10 -5 2 2 8 9 14 15 13 11 -3
8 35 -4 46 -4 3 -4 -2 -1 -11 7 -20 -9 -34 -17 -16 -4 9 -5 8 -5 -2 2 -32 -2
-39 -40 -61 -46 -25 -49 -48 -12 -82 13 -12 21 -16 17 -9 -4 7 -1 12 8 12 9 0
16 5 16 11 0 6 -9 8 -22 4 -21 -5 -21 -5 2 9 18 11 27 11 32 3 5 -8 8 -7 8 3
0 13 1 13 11 0 8 -12 9 -11 7 5 -2 14 2 20 14 19 10 -1 16 2 13 6 -3 5 -2 10
2 13 5 2 3 2 -4 1 -17 -4 -24 24 -7 30 8 3 13 2 10 -2 -3 -5 1 -9 9 -9 11 0
12 5 3 20 -7 14 -7 18 1 13 6 -4 15 3 20 16 6 13 10 18 10 12 1 -7 8 -15 16
-18 14 -5 14 -4 1 16 -17 23 -63 38 -50 16 5 -9 2 -9 -9 1 -9 7 -17 9 -17 4z
m-49 -102 c6 10 9 11 9 2 0 -7 5 -13 11 -13 5 0 7 5 4 10 -3 6 -1 10 4 10 16
0 13 -16 -4 -30 -10 -9 -15 -9 -15 -1 0 13 -22 10 -32 -4 -5 -6 -8 -5 -8 3 0
7 -5 10 -10 7 -6 -4 -7 -11 -4 -17 4 -7 2 -8 -5 -4 -9 6 -9 11 0 22 6 7 15 11
20 8 5 -3 9 1 10 8 0 10 2 10 6 -1 5 -11 7 -11 14 0z"/>
<path d="M10 2020 c-12 -7 -10 -9 7 -7 12 0 19 5 17 9 -6 10 -6 10 -24 -2z"/>
<path d="M2265 2010 c-8 -13 9 -20 24 -11 10 6 9 10 -3 14 -8 3 -18 2 -21 -3z"/>
<path d="M3435 2012 c-13 -9 -13 -21 3 -52 12 -22 12 -23 -1 -7 -13 16 -15 16
-21 2 -3 -9 -2 -14 3 -10 5 3 11 0 13 -6 2 -5 11 -7 21 -4 9 4 14 11 11 16 -8
14 16 40 30 32 7 -4 6 -1 -1 9 -7 8 -10 18 -6 21 3 4 1 7 -6 7 -8 0 -11 -7 -7
-15 7 -19 -4 -19 -18 0 -6 8 -16 11 -21 7z"/>
<path d="M899 1993 c-13 -16 -12 -17 4 -4 9 7 17 15 17 17 0 8 -8 3 -21 -13z"/>
<path d="M2136 2002 c-3 -4 4 -9 15 -9 23 -2 25 3 4 10 -8 4 -16 3 -19 -1z"/>
<path d="M4768 1958 c2 -10 6 -18 7 -18 1 0 5 8 7 18 3 11 0 19 -7 19 -7 0
-10 -8 -7 -19z"/>
<path d="M4975 1970 c-4 -6 -11 -8 -16 -5 -5 4 -9 2 -9 -3 0 -5 8 -12 18 -14
12 -4 18 1 18 13 0 22 -2 23 -11 9z"/>
<path d="M3470 1960 c0 -5 5 -10 10 -10 6 0 10 5 10 10 0 6 -4 10 -10 10 -5 0
-10 -4 -10 -10z"/>
<path d="M3507 1953 c3 -7 6 -13 8 -13 2 0 5 6 8 13 3 8 -1 14 -8 14 -7 0 -11
-6 -8 -14z"/>
<path d="M4870 1961 c0 -10 19 -25 25 -20 1 2 -3 10 -11 17 -8 7 -14 8 -14 3z"/>
<path d="M3472 1934 c-12 -8 -22 -21 -22 -27 0 -9 3 -8 8 1 10 16 38 6 47 -16
5 -13 2 -13 -15 3 -11 10 -20 13 -20 7 0 -7 5 -12 11 -12 5 0 8 -4 5 -8 -2 -4
7 -9 20 -10 22 -2 24 0 14 21 -10 20 -10 21 3 4 9 -11 18 -14 21 -8 4 5 2 13
-4 16 -6 4 -8 16 -4 28 6 18 5 20 -8 10 -9 -8 -18 -9 -24 -3 -6 6 -18 4 -32
-6z"/>
<path d="M5076 1942 c-3 -5 1 -9 9 -9 8 0 12 4 9 9 -3 4 -7 8 -9 8 -2 0 -6 -4
-9 -8z"/>
<path d="M2076 1923 c-6 -14 -5 -15 5 -6 7 7 10 15 7 18 -3 3 -9 -2 -12 -12z"/>
<path d="M3547 1909 c10 -10 7 -19 -15 -43 -15 -17 -18 -24 -8 -16 18 14 19
13 13 -4 -6 -15 -5 -17 6 -7 12 9 14 7 12 -13 -2 -19 1 -23 16 -19 10 3 16 9
13 14 -3 5 -11 6 -17 3 -7 -4 -4 1 5 12 14 14 21 15 30 6 8 -8 8 -15 -2 -26
-7 -9 -10 -22 -7 -30 3 -7 0 -20 -6 -27 -10 -11 -9 -11 6 0 15 12 21 9 18 -11
0 -5 4 -8 9 -8 14 0 12 11 -4 29 -11 12 -12 21 -5 31 9 13 10 13 6 -1 -9 -28
14 -41 37 -21 11 10 16 11 11 3 -6 -10 -4 -12 5 -6 8 5 11 4 7 -2 -3 -5 0 -10
8 -10 10 0 12 4 5 12 -5 7 -7 15 -4 18 4 4 -3 5 -15 2 -14 -2 -21 1 -21 11 0
8 4 13 9 9 5 -3 12 -1 16 4 3 6 -4 8 -16 6 -25 -5 -52 12 -43 26 3 5 1 8 -4 7
-6 -2 -9 2 -8 7 0 6 4 9 9 8 15 -6 6 7 -12 17 -14 7 -22 7 -27 -2 -4 -7 -3 -8
4 -4 8 5 10 1 5 -9 -4 -13 -8 -14 -13 -4 -5 7 -6 18 -4 24 3 7 -3 16 -13 19
-14 6 -16 5 -6 -5z"/>
<path d="M2090 1901 c0 -10 -9 -12 -32 -7 -21 4 -28 3 -19 -3 9 -6 10 -11 3
-15 -6 -4 -9 -13 -6 -20 3 -9 -2 -13 -17 -12 -17 1 -23 -5 -26 -29 -2 -16 -10
-33 -16 -37 -14 -9 -15 -8 36 -13 35 -3 37 -2 20 12 -10 8 -13 12 -7 9 7 -3
14 1 18 9 5 13 -5 20 -26 16 -12 -2 -10 17 2 24 6 3 10 0 10 -7 1 -9 5 -7 14
5 15 19 31 24 19 5 -4 -7 -8 -24 -8 -36 -1 -22 0 -22 12 -6 7 9 10 21 7 25 -3
5 4 9 15 9 12 0 21 5 21 11 0 5 -4 8 -9 4 -5 -3 -13 -1 -16 5 -4 6 -1 9 7 8 8
-2 12 5 10 17 -2 16 -1 17 7 5 5 -8 7 -18 5 -22 -3 -4 0 -8 5 -8 16 0 13 15
-9 41 -12 15 -19 19 -20 10z m-20 -25 c0 -2 -7 -7 -16 -10 -8 -3 -12 -2 -9 4
6 10 25 14 25 6z"/>
<path d="M3585 1830 c3 -5 8 -10 11 -10 2 0 4 5 4 10 0 6 -5 10 -11 10 -5 0
-7 -4 -4 -10z"/>
<path d="M1970 1801 c0 -7 -5 -9 -12 -5 -7 5 -8 3 -3 -5 5 -9 10 -10 18 -2 6
6 8 14 4 18 -4 3 -7 1 -7 -6z"/>
<path d="M1925 1771 c3 -5 2 -11 -2 -14 -5 -2 -3 -2 4 -1 7 2 15 -1 18 -7 4
-5 11 -6 17 -3 6 4 8 2 4 -4 -3 -6 -2 -13 3 -16 5 -3 12 1 15 10 4 11 13 13
28 8 13 -3 20 -3 15 1 -4 5 -15 9 -25 10 -9 1 -25 5 -34 9 -39 14 -49 15 -43
7z"/>
<path d="M3708 1768 c-5 -15 -48 -21 -48 -6 0 15 -13 1 -16 -17 -1 -9 4 -11
14 -7 15 5 16 4 2 -13 -9 -11 -10 -16 -2 -11 6 4 12 2 12 -3 0 -6 5 -11 11
-11 5 0 7 5 3 12 -4 6 -3 8 3 5 9 -6 23 11 27 33 1 3 5 11 9 18 5 6 4 12 -2
12 -5 0 -11 -5 -13 -12z"/>
<path d="M1916 1738 c-34 -19 -84 -80 -80 -97 3 -9 -2 -5 -11 9 -10 16 -14 18
-11 6 5 -14 2 -17 -9 -12 -9 3 -13 2 -10 -3 3 -5 1 -12 -4 -16 -6 -3 -8 -12
-4 -20 3 -10 -1 -15 -12 -15 -9 0 -14 4 -11 8 3 5 -2 9 -10 9 -9 0 -11 -4 -5
-10 10 -10 3 -40 -8 -33 -4 3 -13 0 -21 -6 -12 -8 -12 -9 2 -4 10 3 20 1 24
-5 3 -6 12 -8 20 -5 7 3 16 1 19 -4 6 -10 40 -8 51 3 4 3 -3 5 -14 2 -12 -2
-25 1 -28 7 -5 7 -2 8 6 3 8 -5 11 -3 8 6 -3 8 -14 12 -24 11 -10 -2 -16 -1
-13 2 4 4 17 9 29 11 13 3 27 10 31 16 4 7 9 8 13 1 3 -6 -3 -13 -14 -17 -11
-4 -17 -11 -14 -17 4 -6 9 -5 15 3 7 11 11 10 24 -6 16 -20 16 -20 6 1 -12 25
-6 35 17 27 15 -4 15 -3 2 6 -14 10 -13 12 9 15 5 0 13 5 18 10 5 5 2 6 -6 1
-9 -5 -12 -3 -9 6 3 8 10 13 16 12 5 -1 17 6 26 16 15 16 15 19 1 31 -9 7 -15
8 -15 2 0 -6 5 -12 11 -14 7 -2 6 -8 -4 -17 -14 -11 -16 -9 -15 11 1 13 8 32
16 43 11 16 13 16 9 3 -4 -10 -3 -19 1 -19 28 -5 52 -5 51 0 0 3 -12 16 -27
28 -21 16 -32 19 -46 11z m-22 -40 c-16 -18 -32 -34 -36 -36 -4 -2 -4 -10 -1
-18 4 -12 8 -12 20 3 10 14 10 10 -2 -14 -15 -32 -32 -47 -22 -20 3 8 1 20 -4
28 -6 10 3 25 28 51 45 46 58 50 17 6z m-80 -89 c-3 -5 -10 -7 -15 -3 -5 3 -7
10 -3 15 3 5 10 7 15 3 5 -3 7 -10 3 -15z"/>
<path d="M1990 1736 c0 -2 8 -10 18 -17 15 -13 16 -12 3 4 -13 16 -21 21 -21
13z"/>
<path d="M3702 1704 c-9 -19 -9 -24 0 -18 8 5 9 2 5 -9 -3 -9 -2 -19 4 -22 5
-4 6 -12 2 -18 -3 -7 3 -3 15 7 12 11 22 14 22 8 0 -6 -5 -14 -10 -17 -13 -8
-3 -25 13 -25 9 0 8 3 -1 8 -9 7 -8 13 8 27 15 13 23 15 33 6 8 -6 18 -7 22
-3 5 4 5 1 1 -6 -4 -7 -11 -10 -16 -7 -4 3 -10 2 -13 -2 -2 -5 -2 -2 -1 5 4
13 -8 16 -19 6 -10 -10 23 -66 36 -61 7 3 11 10 9 17 -3 11 0 11 12 0 17 -13
22 -25 8 -16 -4 2 -13 -4 -20 -15 -10 -15 -10 -19 0 -17 7 2 12 -3 10 -10 -2
-10 2 -10 17 -2 13 7 22 7 26 0 3 -5 13 -10 21 -10 10 0 12 5 7 13 -4 6 -6 20
-5 30 2 10 -3 17 -13 17 -9 0 -14 -4 -11 -8 2 -4 -4 -13 -14 -20 -14 -9 -21
-9 -26 0 -4 6 -3 8 3 5 6 -4 18 5 28 19 15 24 15 25 -1 22 -9 -2 -19 3 -21 10
-3 7 1 11 7 10 7 -2 14 3 16 10 1 7 0 8 -3 2 -3 -8 -9 -7 -19 1 -8 6 -12 15
-9 19 2 4 -3 7 -13 7 -35 0 -42 4 -42 22 0 13 -7 19 -25 19 -14 0 -22 -5 -18
-11 3 -6 1 -7 -6 -3 -9 6 -9 11 0 22 6 8 7 14 2 14 -5 0 -15 -12 -21 -26z m28
-44 c0 -5 -2 -10 -4 -10 -3 0 -8 5 -11 10 -3 6 -1 10 4 10 6 0 11 -4 11 -10z"/>
<path d="M3895 1561 c-3 -5 -1 -12 4 -16 13 -8 2 -35 -12 -32 -7 1 -17 8 -22
15 -9 11 -13 11 -24 -2 -9 -11 -10 -16 -2 -16 6 0 11 6 11 13 0 8 3 7 9 -3 6
-8 8 -17 5 -21 -2 -5 5 -6 16 -4 18 3 20 0 14 -18 -6 -22 -6 -22 9 -2 l16 20
15 -20 c12 -15 16 -17 17 -5 1 8 1 19 0 23 -1 5 3 6 9 2 6 -3 7 -11 4 -17 -4
-6 -3 -8 2 -5 5 3 10 -3 10 -13 0 -10 -4 -16 -8 -14 -4 3 -8 1 -8 -5 0 -5 7
-14 15 -18 8 -5 16 -20 18 -33 3 -21 9 -25 33 -23 27 3 27 2 7 -7 -31 -13 -29
-20 3 -14 16 3 23 1 19 -6 -3 -5 -2 -10 4 -10 15 0 23 18 11 25 -6 4 -8 11 -4
16 3 5 10 7 15 3 5 -3 7 -9 5 -13 -3 -4 1 -8 8 -8 7 0 13 6 13 13 0 7 -5 12
-10 11 -5 -1 -12 4 -15 12 -3 9 0 11 8 6 9 -5 11 -4 6 4 -6 9 -11 9 -22 0 -12
-10 -18 -9 -32 6 -15 17 -15 17 0 6 10 -7 18 -8 22 -2 8 12 -4 19 -27 15 -15
-2 -18 2 -14 18 4 14 2 18 -9 14 -12 -5 -14 -1 -9 17 7 22 7 22 -10 2 -9 -11
-14 -15 -11 -9 3 7 -1 17 -9 24 -12 10 -13 16 -3 29 12 14 11 14 -5 2 -22 -18
-34 -7 -16 15 13 16 12 16 -8 4 -12 -8 -20 -17 -17 -21 2 -4 0 -10 -5 -13 -11
-7 -9 13 2 32 6 8 2 12 -10 12 -15 0 -16 2 -3 10 9 6 10 10 3 10 -6 0 -14 -4
-18 -9z m120 -162 c-3 -4 0 -9 7 -11 8 -3 6 -6 -4 -10 -11 -5 -15 -2 -13 10 1
9 -2 26 -7 37 -9 19 -9 19 6 1 9 -10 13 -22 11 -27z"/>
<path d="M1681 1522 c-9 -7 -10 -11 -3 -7 6 3 12 1 12 -4 0 -6 -4 -11 -8 -11
-5 0 -17 -7 -28 -16 -10 -8 -13 -13 -6 -9 6 3 12 1 12 -6 0 -6 -8 -9 -19 -6
-23 6 -24 -29 -1 -43 12 -8 12 -10 1 -10 -7 0 -11 -6 -8 -14 3 -7 1 -18 -5
-24 -6 -6 -6 -12 1 -17 7 -4 10 -1 9 7 -2 8 5 12 17 10 l20 -4 -20 16 -20 17
20 -3 c17 -3 20 2 18 30 -2 32 10 42 23 20 4 -6 3 -8 -4 -4 -6 3 -9 -1 -8 -11
3 -17 21 -21 21 -5 0 4 4 13 9 21 6 10 5 12 -2 7 -7 -4 -12 -2 -12 3 0 6 12
11 27 11 25 0 26 1 8 14 -18 13 -17 14 10 9 25 -3 27 -2 13 7 -10 6 -18 16
-18 23 0 7 4 6 10 -3 5 -8 10 -10 10 -5 0 6 8 1 17 -10 14 -18 15 -18 9 -2 -3
10 -6 22 -6 26 0 12 -82 7 -99 -7z m9 -42 c0 -5 -4 -10 -10 -10 -5 0 -10 5
-10 10 0 6 5 10 10 10 6 0 10 -4 10 -10z"/>
<path d="M3910 1472 c0 -7 6 -12 13 -13 6 0 3 -4 -7 -8 -18 -7 -18 -8 -3 -14
9 -3 17 -2 17 4 0 6 4 8 9 4 5 -3 13 0 17 7 4 7 3 10 -1 5 -5 -4 -17 0 -27 10
-11 9 -18 11 -18 5z"/>
<path d="M1595 1450 c-3 -5 -1 -10 4 -10 6 0 11 5 11 10 0 6 -2 10 -4 10 -3 0
-8 -4 -11 -10z"/>
<path d="M1570 1415 c-5 -7 -8 -14 -5 -16 8 -9 14 -64 7 -75 -5 -7 -14 -4 -27
10 -11 12 -18 20 -16 19 7 -5 31 19 31 31 0 6 -5 4 -10 -4 -5 -8 -15 -15 -22
-15 -7 -1 -12 -7 -10 -14 2 -8 -3 -11 -12 -8 -11 4 -14 -1 -11 -25 4 -27 3
-28 -12 -16 -15 12 -15 11 -3 -12 12 -23 12 -24 -3 -12 -12 11 -20 11 -34 2
-17 -11 -17 -11 2 -6 19 5 19 5 2 -7 -31 -21 -140 -127 -131 -127 5 0 1 -5 -8
-11 -10 -5 -18 -15 -18 -21 0 -7 4 -7 13 1 8 6 17 8 20 4 4 -3 7 -1 7 5 0 7 3
11 8 11 37 -6 47 8 27 41 -8 13 -7 13 9 0 22 -17 44 -21 52 -9 3 5 10 7 15 3
5 -3 9 -2 8 3 -3 19 2 23 20 13 15 -7 19 -7 17 5 -1 8 -6 18 -11 22 -4 4 -5 3
-1 -4 4 -8 -1 -11 -14 -10 -13 1 -16 5 -10 11 17 17 11 27 -10 16 -11 -6 -20
-8 -20 -4 0 3 -7 1 -15 -6 -9 -7 -14 -19 -11 -26 3 -8 0 -11 -10 -7 -13 5 -11
10 7 29 12 13 26 21 32 17 6 -3 7 -1 3 5 -5 8 -1 10 11 6 13 -4 15 -3 5 4 -11
7 -9 10 6 14 14 4 19 2 15 -7 -5 -14 30 -39 40 -28 4 3 1 15 -5 27 -10 20 -10
20 7 6 17 -14 17 -14 7 6 -14 27 1 55 20 35 11 -11 11 -13 -1 -6 -10 6 -12 4
-6 -5 6 -9 4 -11 -6 -5 -12 8 -12 6 0 -8 13 -17 25 -15 27 4 1 5 2 12 3 15 0
4 9 0 19 -7 15 -13 16 -12 3 4 -14 17 -11 20 24 19 17 -1 17 0 3 4 -36 11 -12
32 26 25 5 -1 4 5 -4 13 -8 10 -9 21 -4 29 5 6 9 21 9 31 0 22 -39 30 -55 11z
m40 -29 c0 -4 -9 -1 -19 6 -11 7 -17 16 -15 20 5 8 34 -15 34 -26z m-5 -36 c3
-5 1 -10 -4 -10 -6 0 -11 5 -11 10 0 6 2 10 4 10 3 0 8 -4 11 -10z m-45 -44
c0 -3 -4 -8 -10 -11 -5 -3 -10 -1 -10 4 0 6 5 11 10 11 6 0 10 -2 10 -4z
m-131 -132 c-6 -8 -15 -12 -18 -8 -3 4 0 9 7 11 6 3 9 10 6 15 -4 7 -2 8 5 4
9 -6 9 -11 0 -22z m-69 -9 c0 -2 -10 -9 -22 -15 -22 -11 -22 -10 -4 4 21 17
26 19 26 11z"/>
<path d="M3940 1420 c0 -5 6 -9 13 -7 6 1 11 -4 10 -10 -2 -7 2 -13 7 -13 14
0 13 13 -2 28 -15 15 -28 16 -28 2z"/>
<path d="M1551 1356 c-9 -10 -8 -15 3 -19 10 -4 14 0 13 14 -2 23 -1 23 -16 5z"/>
<path d="M4094 1333 c3 -7 -1 -10 -8 -7 -7 3 -21 -6 -32 -18 -15 -18 -15 -20
-1 -9 11 9 17 10 17 2 0 -6 5 -11 11 -11 8 0 7 6 -2 18 -11 14 -10 13 9 -2 15
-13 22 -15 22 -6 0 10 3 10 14 1 10 -8 16 -9 21 -1 3 5 1 10 -4 10 -6 0 -11 9
-11 19 0 14 -6 19 -20 18 -12 -1 -18 -7 -16 -14z"/>
<path d="M4151 1290 c-7 -4 -23 -6 -37 -4 -13 1 -27 -2 -30 -7 -3 -5 -2 -9 3
-8 22 4 34 -2 27 -13 -4 -7 -4 -10 1 -6 4 4 20 1 36 -7 37 -20 39 -19 37 8 -3
29 -21 48 -37 37z"/>
<path d="M4202 1277 c-9 -10 -7 -19 5 -37 9 -13 11 -20 4 -16 -6 4 -18 2 -26
-4 -9 -7 -15 -8 -15 -2 0 5 -7 12 -14 15 -10 4 -13 1 -9 -9 5 -13 17 -18 36
-15 4 0 7 -3 7 -9 0 -5 5 -10 11 -10 8 0 7 6 -2 18 -12 15 -11 15 8 -1 15 -13
20 -27 18 -48 -4 -26 -3 -28 11 -14 8 8 12 20 8 26 -4 7 -3 9 3 6 6 -4 16 -1
22 7 9 10 7 19 -9 37 -14 16 -18 18 -14 7 3 -10 1 -18 -5 -18 -10 0 -15 14
-12 33 1 5 -3 6 -8 3 -14 -9 -21 20 -8 33 6 6 8 11 5 11 -3 0 -10 -6 -16 -13z
m63 -77 c3 -5 1 -10 -4 -10 -6 0 -11 5 -11 10 0 6 2 10 4 10 3 0 8 -4 11 -10z"/>
<path d="M4115 1231 c-3 -5 -2 -12 3 -15 5 -3 9 1 9 9 0 17 -3 19 -12 6z"/>
<path d="M4176 1179 c3 -5 12 -9 21 -9 13 0 13 -3 2 -17 -11 -15 -11 -16 1 -6
22 20 19 38 -6 39 -13 1 -21 -2 -18 -7z"/>
<path d="M4272 1173 c-6 -2 -10 -9 -6 -14 3 -5 0 -9 -5 -9 -6 0 -10 -11 -9
-24 1 -14 5 -23 9 -20 4 2 10 -2 13 -8 3 -7 3 1 1 17 -4 27 -4 27 7 -5 6 -19
17 -38 24 -43 7 -4 12 -13 10 -20 -1 -6 -1 -9 1 -4 7 11 23 8 39 -7 17 -17 19
-30 2 -20 -7 4 -8 3 -4 -4 4 -7 16 -17 26 -22 16 -9 19 -8 14 7 -5 16 -4 16 6
-1 10 -14 10 -20 -1 -27 -7 -4 -17 -5 -23 -2 -5 4 -6 1 -2 -6 6 -9 13 -9 29 3
12 8 21 19 20 25 -2 6 4 7 14 4 12 -5 14 -3 8 6 -4 8 -2 17 6 22 11 7 10 9 -4
9 -10 0 -15 5 -12 10 3 6 1 10 -5 10 -7 0 -9 -8 -5 -20 4 -13 2 -20 -6 -20 -7
0 -9 3 -6 7 4 3 0 17 -8 30 -9 13 -14 27 -12 31 2 4 -7 17 -20 29 -13 12 -23
18 -23 13 0 -6 -6 -10 -14 -10 -8 0 -16 -7 -20 -15 -3 -8 -1 -15 4 -15 6 0 10
-5 10 -11 0 -8 -4 -8 -13 0 -8 6 -13 21 -11 33 1 13 3 28 3 33 1 6 6 3 11 -5
9 -14 9 -4 1 39 -1 2 -9 -3 -18 -10 -15 -12 -16 -12 -10 4 6 17 2 20 -21 10z
m104 -100 c-3 -7 -1 -13 4 -13 6 0 9 -10 9 -22 -1 -18 -2 -19 -6 -5 -2 9 -9
14 -15 11 -7 -4 -8 -2 -4 4 4 7 1 12 -6 12 -10 0 -9 3 2 11 11 8 12 12 3 16
-7 2 -13 9 -13 15 0 6 6 5 15 -2 9 -7 14 -19 11 -27z"/>
<path d="M1382 1141 c2 -19 -4 -27 -19 -28 -28 -2 -52 -9 -59 -16 -4 -4 -2 -7
3 -7 14 0 11 -26 -5 -42 -8 -8 -12 -9 -12 -1 0 6 5 13 12 15 8 3 4 12 -9 25
-12 12 -18 25 -15 29 4 4 1 4 -6 0 -9 -5 -9 -12 -2 -27 9 -15 7 -21 -5 -25 -8
-3 -12 -10 -9 -15 3 -5 9 -7 14 -4 5 3 12 0 16 -6 5 -8 3 -9 -6 -4 -9 6 -11 4
-5 -5 6 -9 4 -11 -5 -5 -9 6 -11 4 -5 -6 5 -8 4 -11 -1 -6 -5 5 -9 14 -9 19 0
6 -6 13 -14 16 -9 3 -11 0 -6 -8 6 -9 3 -9 -15 0 -12 7 -20 7 -16 2 3 -6 3
-12 -1 -15 -5 -2 -3 -3 2 -2 6 2 10 -10 10 -26 0 -16 -4 -28 -10 -26 -5 1 -9
10 -8 20 2 9 -2 17 -7 17 -6 0 -10 -7 -10 -16 0 -14 -3 -14 -15 -4 -15 13 -19
8 -16 -21 1 -9 -5 -16 -14 -17 -8 -1 -21 -3 -29 -4 -8 -1 -14 -6 -13 -12 1 -6
-3 -10 -10 -9 -8 2 -10 -4 -6 -14 5 -12 3 -14 -8 -8 -9 6 -8 2 3 -11 15 -18
18 -23 18 -40 0 -4 9 5 21 20 11 14 26 26 32 26 7 0 6 -4 -3 -10 -8 -5 -10
-10 -5 -11 6 0 18 -2 28 -4 14 -3 16 0 7 10 -9 10 -7 16 8 24 11 6 23 7 27 3
5 -4 5 -2 1 5 -3 6 -2 14 4 18 6 4 8 11 5 16 -4 5 6 14 20 19 14 5 23 14 20
20 -3 5 -8 10 -11 10 -3 0 -2 -4 1 -10 3 -5 1 -10 -4 -10 -6 0 -11 4 -11 9 0
18 21 23 38 10 9 -7 14 -10 10 -5 -3 4 1 16 10 26 13 16 19 17 31 7 14 -11 14
-10 2 6 -12 15 -9 21 10 19 3 -1 5 10 3 23 -1 13 1 24 4 24 4 -1 10 0 15 1 4
1 11 3 15 4 9 1 42 32 42 39 0 2 -6 4 -14 4 -8 0 -15 -3 -14 -6z m-199 -198
c-6 -16 -5 -17 13 -3 18 14 18 14 5 -3 -8 -9 -16 -15 -19 -12 -3 2 -10 -2 -17
-11 -10 -14 -13 -14 -26 -2 -8 8 -20 13 -27 10 -20 -6 -14 6 9 19 13 7 19 7
15 1 -4 -6 2 -10 14 -9 10 1 22 7 24 14 3 7 8 13 10 13 3 0 2 -8 -1 -17z m-78
-43 c-3 -5 -11 -10 -16 -10 -6 0 -7 5 -4 10 3 6 11 10 16 10 6 0 7 -4 4 -10z"/>
<path d="M1357 1083 c-4 -3 -7 -11 -7 -17 0 -6 5 -5 12 2 6 6 9 14 7 17 -3 3
-9 2 -12 -2z"/>
<path d="M1240 1071 c-8 -6 -18 -7 -24 -4 -5 3 -6 1 -2 -5 6 -11 35 -3 55 14
9 8 -15 3 -29 -5z"/>
<path d="M4453 993 c0 -41 -4 -52 -20 -56 -12 -3 -8 -5 9 -6 22 -1 26 -5 23
-22 -4 -17 -2 -19 10 -9 18 15 20 24 3 14 -7 -4 -3 4 10 18 24 27 28 38 11 38
-5 0 -7 -6 -3 -12 5 -9 2 -9 -9 1 -9 7 -17 22 -17 32 0 11 -4 19 -9 19 -4 0
-8 -8 -8 -17z"/>
<path d="M4483 985 c0 -7 6 -11 14 -8 7 3 13 6 13 8 0 2 -6 5 -13 8 -8 3 -14
-1 -14 -8z"/>
<path d="M4426 965 c-3 -8 -1 -15 3 -15 5 0 11 7 15 15 3 8 1 15 -3 15 -5 0
-11 -7 -15 -15z"/>
<path d="M4502 933 c-10 -4 -10 -8 0 -21 10 -12 10 -14 1 -8 -15 9 -17 -3 -3
-24 11 -17 42 -21 52 -6 4 6 10 7 15 3 4 -5 2 -12 -6 -16 -10 -6 -9 -10 4 -15
9 -3 13 -11 9 -17 -5 -8 -12 -4 -24 11 -14 19 -18 20 -23 6 -4 -9 -2 -15 6
-13 7 1 11 -4 9 -11 -1 -8 2 -11 7 -8 5 4 18 -5 29 -19 11 -14 26 -25 33 -25
8 0 3 9 -11 23 -14 12 -21 19 -14 15 6 -5 19 1 30 13 12 13 14 23 8 27 -6 4
-16 16 -23 27 l-13 20 6 -20 c6 -19 5 -19 -8 -2 -7 9 -18 17 -23 17 -5 0 -15
11 -21 25 -12 25 -17 28 -40 18z m28 -47 c0 -3 -4 -8 -10 -11 -5 -3 -10 -1
-10 4 0 6 5 11 10 11 6 0 10 -2 10 -4z m84 -44 c3 -5 -1 -9 -9 -9 -8 0 -15 4
-15 9 0 4 4 8 9 8 6 0 12 -4 15 -8z"/>
<path d="M4550 921 c0 -6 4 -13 10 -16 6 -3 7 1 4 9 -7 18 -14 21 -14 7z"/>
<path d="M1033 878 c-4 -7 -8 -17 -8 -23 -1 -5 -6 -9 -12 -8 -12 3 -12 -15 0
-34 5 -7 5 -17 2 -23 -8 -12 -32 -13 -39 -1 -4 5 3 7 14 4 12 -3 20 0 20 7 0
7 -7 10 -14 7 -10 -4 -13 -1 -9 9 3 7 0 14 -7 14 -6 0 -9 -4 -6 -9 3 -5 -1
-14 -9 -21 -8 -7 -12 -16 -9 -21 3 -5 0 -9 -5 -9 -6 0 -11 -5 -11 -10 0 -7 6
-7 20 0 14 7 20 7 20 0 0 -5 -7 -10 -16 -10 -8 0 -12 -4 -9 -10 10 -17 -7 -11
-22 8 -8 9 -11 11 -7 3 5 -10 1 -12 -17 -6 -13 3 -19 3 -14 -2 16 -12 38 -43
32 -43 -3 0 -12 7 -20 15 -13 12 -15 12 -20 -4 -3 -12 1 -18 12 -17 9 0 15 -4
14 -11 -4 -20 25 -22 42 -3 10 11 22 17 26 14 5 -3 9 0 9 6 0 7 -7 10 -15 6
-8 -3 -15 -1 -15 4 0 6 5 10 11 10 5 0 8 3 6 8 -2 4 5 15 15 25 18 17 19 17
16 0 -2 -10 -7 -22 -13 -26 -6 -5 -4 -7 4 -5 8 2 16 15 18 28 2 14 11 32 20
40 16 14 16 13 2 -4 -7 -11 -9 -17 -2 -13 6 4 14 1 17 -5 3 -7 4 -4 3 7 -1 12
3 19 11 18 6 -2 11 3 10 10 -2 6 3 11 10 10 6 -2 11 0 11 5 -3 20 2 25 12 12
9 -13 10 -13 6 0 -2 8 3 20 11 26 10 7 12 13 4 18 -6 3 -16 -2 -22 -13 -12
-23 -45 -17 -36 5 9 22 -7 15 -27 -11 -10 -14 -15 -30 -12 -35 3 -6 -1 -7 -10
-4 -14 6 -14 8 2 26 9 10 18 25 19 33 3 18 -2 19 -13 3z m40 -60 c-9 -10 -19
-15 -22 -12 -3 4 0 9 7 11 6 3 10 8 8 12 -3 4 1 8 9 8 13 0 12 -4 -2 -19z
m-124 -134 c-6 -8 -15 -12 -18 -8 -3 4 0 9 7 11 6 3 9 10 6 15 -4 7 -2 8 5 4
9 -6 9 -11 0 -22z"/>
<path d="M2806 863 c2 -7 -1 -13 -6 -13 -6 0 -10 5 -10 10 0 6 -4 10 -9 10 -6
0 -8 -9 -6 -20 3 -18 -5 -24 -26 -22 -4 1 -5 -8 -2 -18 4 -16 0 -20 -19 -20
-30 0 -66 -32 -74 -65 -3 -14 -10 -22 -15 -19 -5 3 -9 0 -9 -6 0 -5 -15 -19
-32 -30 -18 -11 -27 -20 -19 -20 23 0 3 -13 -24 -16 -16 -2 -25 2 -25 12 0 8
-5 14 -11 14 -5 0 -8 -4 -4 -9 3 -6 -3 -15 -12 -21 -17 -11 -17 -11 0 -6 29 9
46 -3 41 -31 -4 -19 -1 -24 13 -21 10 2 18 8 18 15 0 6 3 15 8 19 4 4 7 3 7
-3 0 -6 7 -14 16 -17 8 -3 12 -2 9 4 -3 6 0 10 7 10 8 0 9 3 3 8 -5 4 -11 16
-13 27 -3 20 -2 20 13 1 8 -11 15 -14 15 -7 0 7 5 9 13 5 6 -4 2 4 -11 18
l-23 25 26 17 c13 9 24 20 24 24 -3 21 2 32 13 26 7 -4 8 -3 4 4 -5 8 -2 10 8
6 20 -7 11 -24 -12 -24 -15 0 -15 -2 -2 -10 9 -6 10 -10 3 -10 -6 0 -15 -9
-18 -20 -4 -11 -12 -18 -18 -14 -7 3 -2 -3 10 -14 12 -11 20 -22 18 -26 -3 -3
1 -2 7 4 14 12 31 13 24 2 -3 -5 1 -9 9 -9 8 0 15 4 15 9 0 4 -5 8 -11 8 -5 0
-7 5 -3 12 4 6 3 8 -4 4 -6 -3 -16 2 -22 11 -10 16 -10 15 -5 -4 5 -18 3 -22
-9 -17 -12 5 -13 10 -5 26 9 17 13 18 32 5 16 -10 25 -11 32 -3 17 18 11 41
-10 39 -18 -1 -18 0 3 14 12 9 22 24 22 34 0 22 11 24 28 7 9 -9 12 -9 12 0 0
7 -5 12 -11 12 -5 0 -7 4 -4 10 4 6 13 5 25 -2 10 -7 16 -16 13 -22 -3 -5 -1
-6 6 -2 6 4 9 12 6 17 -3 5 1 6 10 3 13 -5 13 -9 3 -22 -8 -10 -9 -13 -1 -9 6
4 13 4 16 0 2 -5 2 -3 1 4 -2 7 1 15 6 18 9 6 14 -9 11 -29 -1 -4 6 -14 16
-21 15 -11 15 -15 4 -29 -9 -11 -10 -16 -2 -16 6 0 10 -3 10 -7 -1 -5 -1 -15
0 -23 1 -12 4 -11 12 3 6 9 15 15 20 11 5 -3 8 0 7 8 -2 8 5 12 17 11 18 -2
18 -1 -2 9 -25 12 -32 31 -9 22 17 -6 31 12 16 21 -5 3 -10 1 -10 -6 0 -8 -4
-8 -15 1 -8 7 -13 16 -10 20 6 10 -15 8 -31 -3 -8 -4 -10 3 -8 22 2 17 -3 34
-11 41 -8 7 -13 15 -11 19 3 4 -4 8 -15 8 -10 1 -19 -3 -19 -8 0 -6 -5 -7 -10
-4 -8 5 -7 12 2 23 8 10 8 13 1 9 -6 -4 -13 -4 -16 0 -2 5 -2 2 -1 -4z m29
-32 c8 12 45 -17 45 -35 0 -6 -5 -4 -10 4 -9 13 -10 13 -10 0 0 -10 -3 -11 -8
-4 -4 6 -17 10 -30 9 -13 -1 -25 2 -28 7 -3 5 -12 4 -20 -3 -8 -7 -14 -7 -14
-1 0 5 7 13 16 16 9 4 12 11 8 18 -5 7 4 5 18 -4 18 -12 29 -14 33 -7z m-114
-68 c12 -16 12 -17 -2 -6 -9 7 -20 9 -24 5 -5 -4 -5 -1 -1 6 9 16 11 15 27 -5z
m205 -47 c1 -14 -4 -30 -11 -36 -11 -9 -13 -6 -9 19 3 16 0 32 -6 36 -6 3 -7
11 -4 17 9 15 27 -6 30 -36z m-199 -12 c-3 -3 -12 -4 -19 -1 -8 3 -5 6 6 6 11
1 17 -2 13 -5z m-96 -51 c11 -15 11 -16 0 -6 -7 6 -21 9 -30 6 -14 -4 -14 -3
-1 6 8 6 16 11 16 11 1 0 8 -8 15 -17z m-25 -39 c2 -11 -1 -12 -11 -4 -9 8
-15 8 -20 0 -3 -5 -12 -10 -18 -9 -8 0 -7 3 2 6 11 5 11 7 0 15 -11 8 -10 9 3
4 10 -3 20 -1 24 5 7 12 17 4 20 -17z"/>
<path d="M2836 822 c-3 -5 1 -9 9 -9 8 0 12 4 9 9 -3 4 -7 8 -9 8 -2 0 -6 -4
-9 -8z"/>
<path d="M2553 864 c10 -16 -18 -25 -33 -11 -10 9 -11 9 -6 0 3 -6 0 -14 -6
-17 -7 -3 -1 -3 14 -1 20 2 25 0 21 -10 -2 -8 -8 -14 -11 -13 -19 2 -30 -4
-36 -18 -4 -10 -2 -13 6 -8 6 4 8 3 5 -4 -5 -6 0 -8 13 -5 16 4 19 2 14 -12
-5 -11 -9 -13 -14 -5 -5 8 -9 7 -13 -5 -5 -10 -3 -14 5 -9 7 4 8 3 4 -4 -12
-19 -28 -14 -21 7 3 11 1 22 -4 25 -5 4 -8 16 -6 27 4 17 2 19 -10 9 -8 -7
-15 -9 -15 -5 0 4 -7 2 -15 -5 -12 -10 -18 -10 -30 0 -8 7 -21 10 -29 7 -7 -3
-20 0 -27 6 -7 7 -6 2 4 -9 16 -19 16 -22 2 -27 -8 -4 -15 -11 -15 -17 0 -5 9
-2 19 7 11 9 18 20 15 25 -3 4 2 8 10 8 8 0 18 -5 21 -11 4 -6 14 -8 22 -5 10
4 13 2 10 -8 -4 -10 0 -14 14 -11 10 2 19 0 19 -6 0 -10 -2 -10 -44 -13 -18 0
-31 5 -34 14 -5 13 -3 13 11 1 10 -7 17 -9 17 -3 0 14 -28 23 -36 11 -3 -6 3
-20 14 -31 17 -17 18 -25 10 -44 -6 -13 -20 -26 -30 -30 -11 -3 -17 -8 -15
-11 3 -2 15 1 27 7 18 10 25 9 39 -5 15 -16 14 -17 -9 -10 -14 4 -22 4 -18 0
11 -12 67 -15 73 -5 4 6 11 7 17 4 6 -4 8 -2 4 4 -3 6 2 15 11 21 10 6 14 11
9 11 -5 0 -3 7 4 16 11 12 11 15 0 12 -7 -2 -15 3 -18 11 -3 9 0 11 7 7 6 -4
10 -4 9 1 -1 4 3 18 10 31 11 20 10 23 -10 32 -13 5 -21 9 -18 10 34 10 50 9
44 -2 -5 -8 0 -7 11 2 17 14 18 13 12 -3 -4 -10 -3 -16 2 -13 5 3 12 -1 15
-10 3 -8 10 -13 15 -9 5 3 12 -4 16 -15 3 -11 10 -20 15 -20 13 0 22 34 11 38
-6 2 -8 9 -5 14 4 6 2 8 -3 5 -6 -4 -17 1 -24 10 -12 15 -12 16 6 9 15 -5 17
-4 8 5 -6 6 -9 18 -5 27 4 11 1 14 -10 10 -9 -4 -21 -1 -27 5 -6 6 -11 7 -11
3 0 -5 -8 -2 -17 5 -9 8 -14 9 -10 3z m27 -24 c0 12 2 13 9 1 5 -8 14 -10 21
-6 10 6 10 3 2 -11 -9 -15 -6 -24 16 -46 14 -16 21 -28 15 -28 -6 0 -14 7 -17
16 -3 9 -11 12 -18 8 -7 -4 -10 -4 -6 1 7 8 -20 40 -34 40 -4 0 -8 3 -8 8 0
30 1 31 10 17 9 -13 10 -13 10 0z m-100 -46 c0 -8 -19 -13 -24 -6 -3 5 1 9 9
9 8 0 15 -2 15 -3z m-34 -83 c-4 -9 3 -5 15 9 l21 25 -17 -29 c-16 -27 -16
-29 0 -23 9 4 21 7 26 7 6 0 7 6 3 13 -6 9 -3 8 8 -1 17 -14 14 -42 -4 -42 -5
0 -6 5 -3 10 3 6 0 10 -8 10 -23 0 -28 -12 -10 -25 10 -7 12 -14 6 -18 -6 -4
-22 3 -37 14 -19 15 -24 25 -17 37 4 9 6 23 3 31 -3 9 0 11 7 6 7 -4 10 -14 7
-24z"/>
<path d="M2430 686 c0 -2 7 -9 15 -16 13 -11 14 -10 9 4 -5 14 -24 23 -24 12z"/>
<path d="M2990 862 c0 -7 4 -12 10 -12 5 0 0 -16 -11 -35 -21 -36 -33 -46 -23
-21 5 13 -24 31 -34 21 -3 -3 0 -5 6 -5 7 0 12 -7 12 -17 0 -14 -3 -14 -22 3
-12 10 -18 14 -15 7 4 -6 4 -13 0 -16 -5 -2 -2 -2 5 -1 11 3 16 -9 13 -28 0
-5 4 -8 9 -8 6 0 10 5 10 10 0 6 5 10 10 10 6 0 9 -5 8 -11 -2 -6 3 -14 11
-17 10 -3 11 0 5 9 -7 12 -5 12 9 0 18 -14 20 -12 11 13 -3 9 -11 13 -18 9 -7
-4 -7 -1 1 9 7 8 10 17 7 20 -2 3 2 8 11 12 13 5 14 2 4 -17 -6 -12 -8 -19 -4
-15 12 11 47 -11 38 -25 -5 -9 -4 -9 8 0 12 10 17 8 27 -7 9 -14 9 -21 0 -26
-6 -4 -8 -3 -4 4 10 17 -13 25 -31 10 -14 -11 -16 -11 -9 1 6 9 4 12 -5 9 -8
-3 -15 -10 -15 -16 -1 -7 -2 -19 -3 -28 0 -8 -6 -12 -11 -9 -8 5 -8 11 0 20 8
9 8 15 0 20 -5 3 -10 -2 -10 -12 0 -15 -2 -16 -10 -3 -5 8 -10 11 -10 5 0 -22
19 -37 49 -40 17 -1 28 1 26 6 -3 4 0 11 6 15 7 4 9 3 5 -4 -3 -6 -2 -13 4
-17 5 -3 10 -13 10 -21 0 -8 -5 -12 -10 -9 -6 4 -8 10 -5 15 3 4 -4 6 -15 3
-11 -3 -20 -9 -20 -14 0 -5 6 -6 14 -3 8 3 20 -3 27 -14 12 -20 13 -20 32 2
10 11 15 15 11 7 -5 -11 -3 -13 9 -8 15 6 22 -3 18 -25 0 -5 4 -8 9 -8 6 0 8
11 6 24 -3 18 -1 23 9 19 10 -3 13 1 10 16 -2 12 1 21 7 21 5 0 8 -7 4 -15 -3
-8 -1 -15 4 -15 6 0 10 6 10 13 0 8 9 22 20 32 11 10 17 22 13 28 -4 6 -14 1
-25 -12 -10 -13 -18 -19 -18 -13 0 5 7 15 15 22 11 9 12 16 4 26 -6 7 -8 19
-4 26 3 7 -8 -3 -25 -22 -18 -19 -27 -26 -21 -14 5 12 7 25 3 29 -4 5 -2 5 4
2 7 -4 15 0 18 9 4 9 5 17 4 18 -2 1 -14 7 -28 15 -23 13 -24 13 -11 -3 13
-16 12 -17 -11 -11 -20 5 -29 2 -37 -14 -9 -16 -8 -22 6 -30 10 -6 13 -11 8
-11 -22 0 -34 22 -25 46 5 13 7 24 5 24 -3 0 -10 -11 -15 -25 -9 -22 -12 -24
-30 -13 -20 13 -27 28 -12 28 4 0 13 -5 20 -12 9 -9 12 -9 12 0 0 7 -5 12 -11
12 -5 0 -7 5 -4 10 4 6 11 8 16 5 5 -3 6 0 4 7 -3 7 -15 19 -26 26 -12 8 -18
9 -14 3 9 -15 -8 -14 -23 1 -9 9 -12 9 -12 0z m55 -30 c-3 -3 -15 -6 -27 -7
-20 -2 -20 -1 -3 11 17 13 43 9 30 -4z m90 -42 c4 -6 -1 -7 -11 -3 -12 4 -15
3 -10 -5 4 -7 2 -12 -3 -12 -12 0 -14 13 -4 23 9 10 21 9 28 -3z m47 -52 c-7
-7 -12 -8 -12 -2 0 14 12 26 19 19 2 -3 -1 -11 -7 -17z m-48 -16 c3 -5 -1 -9
-9 -9 -8 0 -12 4 -9 9 3 4 7 8 9 8 2 0 6 -4 9 -8z m-24 -37 c4 3 11 -2 14 -10
4 -13 2 -14 -14 -5 -11 6 -20 16 -19 23 0 9 2 9 6 -1 2 -6 8 -10 13 -7z m-29
-38 c-10 -9 -11 -8 -5 6 3 10 9 15 12 12 3 -3 0 -11 -7 -18z"/>
<path d="M2371 834 c0 -11 3 -14 6 -6 3 7 2 16 -1 19 -3 4 -6 -2 -5 -13z"/>
<path d="M3216 833 c-6 -14 -5 -15 5 -6 7 7 10 15 7 18 -3 3 -9 -2 -12 -12z"/>
<path d="M4486 838 c3 -5 10 -6 15 -3 13 9 11 12 -6 12 -8 0 -12 -4 -9 -9z"/>
<path d="M2416 818 c3 -4 11 -5 19 -1 21 7 19 12 -4 10 -11 0 -18 -5 -15 -9z"/>
<path d="M4633 817 c-25 -11 -29 -22 -13 -32 8 -5 8 -11 0 -20 -8 -9 -6 -14 6
-19 9 -3 20 -3 26 0 6 4 8 1 6 -7 -3 -8 -11 -13 -17 -11 -7 1 -10 -2 -6 -8 5
-8 11 -8 20 0 14 12 41 -12 31 -29 -4 -5 -2 -12 4 -16 6 -4 7 -12 3 -18 -4 -7
2 -5 12 3 17 14 18 13 12 -3 -4 -11 -3 -16 3 -12 6 3 10 1 10 -6 0 -7 3 -9 6
-6 11 10 -26 58 -38 51 -7 -4 -8 -3 -4 5 4 6 11 9 16 6 5 -3 13 2 18 11 6 11
11 13 16 5 4 -6 3 -11 -3 -11 -10 0 -9 -25 2 -36 4 -4 7 -16 7 -26 0 -21 15
-24 27 -5 4 8 16 18 27 24 16 9 17 11 2 16 -11 5 -15 3 -10 -5 4 -7 3 -8 -5
-4 -6 4 -10 13 -9 19 2 7 -2 14 -7 15 -22 8 -33 24 -30 43 2 11 0 17 -6 14 -5
-4 -7 -11 -4 -16 4 -5 1 -9 -4 -9 -10 0 -15 14 -12 33 1 5 -3 6 -9 2 -5 -3
-13 1 -16 9 -3 9 -13 16 -21 16 -9 0 -13 6 -10 15 8 20 -4 25 -30 12z m27 -2
c0 -2 -10 -9 -22 -15 -22 -11 -22 -10 -4 4 21 17 26 19 26 11z m20 -50 c4 3
14 -3 21 -12 10 -12 10 -14 2 -9 -8 4 -13 2 -13 -6 -1 -8 -6 -6 -15 6 -8 11
-15 25 -14 30 0 6 3 5 6 -2 2 -6 8 -10 13 -7z m90 -80 c-5 -7 -9 -14 -7 -16 1
-2 0 -3 -2 -1 -11 7 -7 29 5 29 9 0 11 -4 4 -12z"/>
<path d="M2675 810 c-4 -6 -11 -8 -16 -5 -5 4 -6 -2 -2 -11 4 -11 8 -13 11 -6
2 7 7 10 11 8 4 -3 8 1 8 9 0 18 -3 19 -12 5z"/>
<path d="M2570 760 c0 -5 5 -10 11 -10 5 0 7 5 4 10 -3 6 -8 10 -11 10 -2 0
-4 -4 -4 -10z"/>
<path d="M3226 745 c13 -19 12 -24 -6 -40 -23 -21 -16 -42 8 -23 14 11 15 10
9 -6 -6 -14 -4 -17 10 -12 9 4 20 2 24 -5 5 -8 11 -8 25 1 16 10 16 11 2 6
-12 -4 -18 0 -18 10 0 10 -6 14 -15 11 -8 -4 -17 -2 -20 2 -3 5 8 8 25 7 32
-2 32 1 -2 19 -13 6 -22 17 -20 23 1 7 -3 12 -9 12 -5 0 -8 4 -5 8 3 5 -1 9
-9 9 -11 0 -11 -4 1 -22z m30 -37 c4 -7 3 -10 -1 -5 -5 4 -18 -1 -29 -10 -21
-18 -21 -18 -2 5 22 26 23 26 32 10z"/>
<path d="M2365 739 c-4 -6 -4 -13 -1 -16 3 -4 6 -1 6 6 0 7 5 9 12 5 7 -4 8
-3 4 4 -9 15 -13 15 -21 1z"/>
<path d="M2596 733 c-6 -14 -5 -15 5 -6 7 7 10 15 7 18 -3 3 -9 -2 -12 -12z"/>
<path d="M2745 741 c-6 -11 9 -23 19 -14 9 9 7 23 -3 23 -6 0 -12 -4 -16 -9z"/>
<path d="M2870 720 c0 -5 5 -10 11 -10 5 0 7 5 4 10 -3 6 -8 10 -11 10 -2 0
-4 -4 -4 -10z"/>
<path d="M2375 710 c-4 -6 1 -7 11 -3 13 5 15 3 9 -7 -5 -9 -4 -11 3 -6 7 4
12 11 12 17 0 12 -27 12 -35 -1z"/>
<path d="M2753 703 c4 -3 0 -14 -8 -23 -18 -20 -10 -52 13 -48 8 2 17 -3 19
-10 3 -8 -1 -10 -14 -5 -14 5 -12 1 6 -15 13 -12 27 -19 31 -17 5 3 10 2 13
-2 2 -5 2 -3 1 4 -3 14 24 38 33 29 3 -3 1 -6 -5 -6 -17 0 -15 -17 2 -23 8 -3
13 1 12 11 0 10 5 16 14 14 12 -3 13 -1 3 9 -18 18 -16 30 2 23 8 -4 15 -1 15
6 0 6 -5 8 -12 4 -7 -5 -9 -2 -6 8 4 9 0 15 -8 15 -8 0 -14 -5 -14 -10 0 -5
-7 -4 -15 3 -13 11 -14 10 -9 -5 6 -14 4 -16 -7 -10 -11 6 -12 5 -1 -6 16 -18
16 -34 -1 -20 -8 6 -17 8 -20 4 -14 -13 -34 18 -31 47 2 18 -1 30 -8 30 -6 0
-8 -3 -5 -7z m4 -42 c0 -11 -5 -18 -9 -15 -4 3 -5 11 -1 19 7 21 12 19 10 -4z
m99 -20 c0 -16 -3 -17 -14 -9 -12 10 -7 19 13 28 1 0 1 -9 1 -19z m-47 -37
c-6 -7 -15 -11 -21 -8 -5 3 -4 12 3 20 6 7 15 11 21 8 5 -3 4 -12 -3 -20z"/>
<path d="M4660 699 c0 -5 5 -7 10 -4 6 3 10 8 10 11 0 2 -4 4 -10 4 -5 0 -10
-5 -10 -11z"/>
<path d="M860 686 c0 -8 -4 -18 -10 -21 -6 -4 -7 1 -4 12 4 14 4 15 -4 4 -5
-7 -16 -18 -23 -23 -11 -8 -10 -9 4 -4 9 3 17 1 17 -5 0 -6 5 -7 12 -3 7 4 8
3 4 -4 -4 -6 -14 -8 -24 -5 -11 4 -9 -2 8 -18 20 -20 27 -22 38 -11 8 6 18 10
23 7 5 -4 9 -1 9 4 0 14 -6 14 -31 1 -13 -7 -19 -7 -19 0 0 5 5 10 11 10 5 0
8 4 4 9 -3 6 4 8 15 6 13 -2 20 1 20 11 0 10 -5 12 -12 8 -9 -5 -9 -2 1 9 16
20 2 23 -18 5 -10 -9 -12 -9 -7 -1 3 6 2 14 -4 18 -5 3 -10 -1 -10 -9z"/>
<path d="M2799 695 c-1 -3 -2 -8 -3 -12 -1 -5 -5 -15 -10 -23 -7 -12 -6 -13 4
-3 13 12 23 43 14 43 -2 0 -5 -2 -5 -5z"/>
<path d="M3215 651 c3 -5 1 -12 -5 -16 -5 -3 -10 0 -10 7 0 9 -3 9 -10 -2 -6
-9 -10 -11 -10 -3 0 7 -7 10 -16 6 -12 -4 -8 -9 15 -21 17 -8 31 -19 31 -24 0
-6 -10 -3 -23 5 -19 12 -24 13 -24 2 0 -8 3 -14 6 -13 19 2 31 -3 26 -11 -3
-5 -1 -12 4 -15 5 -4 13 -2 16 4 5 8 12 7 23 -2 13 -10 13 -8 -1 9 -12 14 -15
23 -8 28 6 3 11 1 11 -6 0 -7 3 -10 6 -6 4 3 3 14 0 24 -6 15 -9 15 -16 3 -5
-8 -13 -11 -17 -6 -4 4 0 13 10 21 16 11 16 13 2 19 -9 3 -13 2 -10 -3z"/>
<path d="M3250 648 c0 -25 14 -37 26 -24 9 10 7 16 -7 24 -15 10 -19 9 -19 0z"/>
<path d="M4790 630 c-22 -22 -26 -40 -9 -40 8 0 7 -6 -2 -17 -13 -15 -11 -15
13 1 17 11 28 14 33 6 3 -6 11 -8 16 -4 5 3 6 10 3 16 -4 7 -2 8 4 4 7 -4 12
-1 12 9 0 10 -5 13 -12 9 -7 -5 -9 -2 -5 9 4 11 2 14 -8 10 -8 -3 -13 -9 -10
-14 3 -4 -3 -13 -14 -19 -11 -5 -22 -6 -25 -1 -8 13 4 20 22 14 10 -4 14 -3
10 2 -4 4 -3 14 3 22 19 22 -8 16 -31 -7z"/>
<path d="M789 637 c0 -1 -2 -10 -4 -20 -5 -28 -27 -49 -45 -44 -9 2 -17 -1
-17 -8 0 -7 7 -11 16 -8 12 3 12 2 -2 -7 -9 -6 -23 -8 -30 -4 -8 6 -8 3 1 -9
8 -9 11 -20 8 -25 -3 -5 4 -16 15 -25 16 -14 19 -14 19 -2 0 8 -6 15 -12 15
-9 0 -8 3 2 10 10 6 20 4 33 -8 15 -13 18 -14 15 -2 -2 8 3 14 10 12 6 -1 11
1 10 5 -4 15 13 53 23 53 6 0 7 -4 4 -10 -3 -5 -2 -10 3 -10 5 0 9 12 10 28 0
20 -7 32 -29 44 -16 10 -29 16 -30 15z m51 -41 c0 -2 -7 -7 -16 -10 -8 -3 -12
-2 -9 4 6 10 25 14 25 6z m-38 -43 c-6 -3 -10 -8 -7 -13 3 -4 -3 -14 -13 -21
-15 -13 -16 -12 -4 3 11 14 10 18 -5 27 -10 6 -12 11 -5 11 6 0 11 3 11 8 -4
21 3 24 19 8 12 -14 14 -20 4 -23z"/>
<path d="M783 565 c0 -8 4 -12 9 -9 5 3 6 10 3 15 -9 13 -12 11 -12 -6z"/>
<path d="M3020 634 c0 -2 9 -8 20 -14 15 -8 18 -8 14 3 -4 11 -34 21 -34 11z"/>
<path d="M2400 620 c-9 -6 -10 -10 -3 -10 6 0 15 5 18 10 8 12 4 12 -15 0z"/>
<path d="M3017 609 c7 -7 15 -10 18 -7 3 3 -2 9 -12 12 -14 6 -15 5 -6 -5z"/>
<path d="M2521 594 c0 -11 3 -14 6 -6 3 7 2 16 -1 19 -3 4 -6 -2 -5 -13z"/>
<path d="M4852 572 c-17 -17 -20 -17 -30 -3 -10 15 -11 15 -11 0 -1 -24 26
-31 39 -11 10 15 10 15 6 -3 -6 -25 18 -73 28 -56 4 6 12 8 18 5 7 -5 9 -1 5
9 -3 8 0 18 7 20 9 4 12 -4 11 -26 -2 -22 5 -40 21 -56 20 -20 22 -27 12 -40
-10 -13 -10 -14 2 -3 20 17 35 15 20 -3 -11 -13 -11 -18 0 -28 10 -10 12 -9 7
4 -3 11 1 15 16 15 14 -1 21 6 24 27 3 19 -1 27 -11 27 -8 0 -16 -5 -18 -12
-2 -6 -10 -8 -16 -4 -17 10 -15 29 3 23 8 -4 17 -2 20 4 4 5 1 8 -7 7 -7 -2
-12 5 -11 15 0 12 -4 17 -13 13 -9 -4 -14 0 -12 9 2 7 -1 13 -7 12 -5 -1 -9
-6 -7 -10 1 -5 -2 -6 -8 -2 -6 4 -8 16 -4 27 5 17 3 20 -11 14 -13 -4 -16 -2
-11 9 3 8 1 15 -5 15 -6 0 -7 5 -3 12 4 6 3 8 -4 5 -5 -4 -9 -15 -7 -25 1 -9
0 -11 -2 -4 -3 6 -9 12 -14 12 -6 0 -7 5 -4 10 10 16 -4 11 -23 -8z m113 -100
c-3 -3 -11 0 -18 7 -9 10 -8 11 6 5 10 -3 15 -9 12 -12z"/>
<path d="M2593 565 c0 -8 4 -12 9 -9 5 3 6 10 3 15 -9 13 -12 11 -12 -6z"/>
<path d="M2833 565 c0 -8 4 -12 9 -9 5 3 6 10 3 15 -9 13 -12 11 -12 -6z"/>
<path d="M683 510 c1 -15 -3 -24 -10 -23 -7 2 -18 -7 -24 -20 -12 -21 -11 -21
6 -7 10 8 16 10 12 3 -5 -7 -1 -12 10 -11 10 0 27 -3 38 -7 l20 -8 -20 17
c-16 13 -17 15 -2 10 21 -8 23 14 1 23 -8 3 -13 12 -10 20 3 8 2 12 -3 8 -5
-3 -12 1 -15 7 -3 7 -4 2 -3 -12z"/>
<path d="M4828 512 c9 -10 19 -17 21 -16 6 5 -20 34 -30 34 -5 0 -1 -8 9 -18z"/>
<path d="M650 506 c0 -2 7 -7 16 -10 8 -3 12 -2 9 4 -6 10 -25 14 -25 6z"/>
<path d="M4890 483 c0 -7 5 -13 11 -13 5 0 7 -5 3 -12 -4 -6 -3 -8 3 -5 12 8
36 -17 26 -26 -3 -4 -1 -7 5 -7 18 0 14 15 -8 35 -12 10 -19 24 -16 30 2 7 -2
12 -10 12 -8 0 -14 -6 -14 -14z"/>
<path d="M623 446 c6 -16 5 -17 -8 -6 -10 9 -15 9 -16 1 -1 -6 -3 -15 -4 -21
-1 -5 -3 -14 -4 -19 0 -5 -12 -8 -26 -7 -20 3 -23 0 -15 -15 13 -23 13 -29 -1
-29 -5 0 -8 4 -4 9 3 5 0 13 -7 17 -7 4 -10 4 -6 -1 4 -4 3 -16 -3 -26 -8 -15
-6 -17 8 -12 16 6 16 5 4 -11 -14 -17 -16 -16 -34 6 l-18 23 11 -24 c11 -21
10 -23 -3 -18 -12 4 -14 2 -10 -10 4 -11 2 -14 -5 -9 -8 5 -10 1 -5 -10 4 -12
8 -14 11 -6 3 10 7 10 19 1 12 -10 16 -10 24 2 7 12 9 12 9 0 0 -8 3 -11 6 -8
4 4 1 14 -7 23 -11 14 -10 15 7 12 10 -1 25 -10 32 -18 8 -9 7 -2 -3 18 -9 18
-11 31 -6 30 5 -2 16 6 24 17 13 16 17 17 31 6 9 -8 19 -11 23 -7 3 3 2 6 -4
6 -19 0 -23 31 -8 53 8 12 15 17 15 11 0 -5 -5 -15 -11 -21 -6 -6 -8 -17 -3
-24 5 -9 10 -6 16 10 6 18 11 21 21 12 10 -8 14 -7 14 4 0 8 -4 12 -8 9 -4 -2
-11 5 -14 17 -4 11 -9 18 -12 15 -4 -3 -13 0 -21 7 -13 10 -15 9 -9 -7z m-8
-25 c3 -5 2 -12 -3 -15 -5 -3 -9 1 -9 9 0 17 3 19 12 6z m-15 -41 c-18 -12
-30 -13 -30 -2 0 4 10 9 22 9 18 2 20 0 8 -7z m-76 -91 c-3 -5 -10 -7 -15 -3
-5 3 -7 10 -3 15 3 5 10 7 15 3 5 -3 7 -10 3 -15z"/>
<path d="M674 439 c-4 -7 -3 -9 4 -5 6 3 15 -2 21 -11 6 -10 11 -13 11 -7 0
20 -27 37 -36 23z"/>
<path d="M5035 420 c-3 -6 1 -7 9 -4 18 7 21 14 7 14 -6 0 -13 -4 -16 -10z"/>
<path d="M5038 399 c-24 -14 -23 -24 3 -26 12 -1 19 1 15 4 -3 3 -1 12 5 20
13 15 1 17 -23 2z"/>
<path d="M5072 391 c-8 -4 -13 -12 -13 -17 0 -5 -6 -9 -13 -9 -8 0 -18 -4 -22
-8 -4 -4 0 -7 9 -7 20 0 22 -11 5 -29 -10 -11 -10 -13 0 -7 6 4 12 2 12 -4 0
-7 6 -10 14 -7 14 6 40 -15 31 -24 -11 -12 40 -6 58 6 19 14 19 14 -6 20 -18
5 -24 12 -22 26 2 11 0 17 -6 13 -6 -3 -13 3 -16 15 -3 11 -10 18 -16 14 -6
-4 -8 0 -4 10 7 19 7 20 -11 8z m42 -84 c-2 -14 2 -17 19 -12 20 5 20 5 4 -5
-15 -10 -23 -8 -44 12 -13 12 -27 22 -30 20 -2 -2 -7 -1 -10 2 -4 3 4 6 16 6
18 0 22 4 16 17 -5 15 -3 15 13 -2 11 -11 18 -28 16 -38z"/>
<path d="M5090 321 c0 -6 4 -13 10 -16 6 -3 7 1 4 9 -7 18 -14 21 -14 7z"/>
<path d="M602 355 c4 -4 0 -13 -9 -20 -13 -10 -14 -13 -2 -20 8 -5 11 -5 7 0
-4 4 0 13 9 20 13 10 14 13 2 20 -8 5 -11 5 -7 0z"/>
<path d="M5060 279 c0 -5 5 -7 10 -4 6 3 10 8 10 11 0 2 -4 4 -10 4 -5 0 -10
-5 -10 -11z"/>
</g>
</svg>
