<?xml version="1.0" standalone="no"?>
<!DOCTYPE svg PUBLIC "-//W3C//DTD SVG 20010904//EN"
 "http://www.w3.org/TR/2001/REC-SVG-20010904/DTD/svg10.dtd">
<svg version="1.0" xmlns="http://www.w3.org/2000/svg"
 width="16.000000pt" height="16.000000pt" viewBox="0 0 16.000000 16.000000"
 preserveAspectRatio="xMidYMid meet">

<g transform="translate(0.000000,16.000000) scale(0.100000,-0.100000)"
fill="#000000" stroke="none">
<path d="M60 153 c-25 -9 -40 -25 -34 -35 3 -5 12 -4 20 3 8 6 27 9 44 6 32
-7 51 10 29 24 -15 10 -36 10 -59 2z"/>
<path d="M90 80 c0 -5 9 -10 20 -10 21 0 27 -15 10 -25 -6 -4 -8 -10 -5 -15 3
-4 -4 -6 -15 -3 -14 4 -20 0 -20 -11 0 -9 4 -16 9 -16 17 0 59 44 66 68 6 20
3 22 -29 22 -20 0 -36 -4 -36 -10z"/>
</g>
</svg>
